<svg width="173" height="45" viewBox="0 0 173 45" fill="none" xmlns="http://www.w3.org/2000/svg">
<rect width="45" height="45" rx="5" fill="white"/>
<path d="M40.5 6V33.4968H17.3496L9 42V33.4968H4.5V6H40.5ZM6.75 8.2914V12.8742H38.25V8.2914H6.75ZM38.25 31.2054V15.1656H6.75V31.2054H11.25V36.4505L16.4004 31.2054H38.25ZM27 17.457H36V28.914H27V17.457ZM29.25 26.6226H33.75V19.7484H29.25V26.6226ZM9 19.7484H24.75V22.0398H9V19.7484ZM9 24.3312H24.75V26.6226H9V24.3312Z" fill="#1C262B"/>
<path d="M69.3104 17.888V16.646H62.0924V17.888H69.3104ZM71.3444 18.896C71.3444 19.088 71.3024 19.22 71.2184 19.292C71.1464 19.364 71.0204 19.4 70.8404 19.4H60.5624C60.3704 19.4 60.2384 19.364 60.1664 19.292C60.1064 19.22 60.0764 19.088 60.0764 18.896V13.838H62.0924V15.242H69.3104V13.838H71.3444V18.896ZM73.1444 22.028H58.2944V20.408H73.1444V22.028ZM71.6324 29.804H60.6344C60.4424 29.804 60.3104 29.768 60.2384 29.696C60.1664 29.624 60.1304 29.492 60.1304 29.3V26.258C60.1304 26.078 60.1664 25.952 60.2384 25.88C60.3104 25.796 60.4424 25.754 60.6344 25.754H68.9864V24.656H60.1304V23.126H70.7864C71.1224 23.126 71.2904 23.294 71.2904 23.63V26.636C71.2904 26.828 71.2484 26.96 71.1644 27.032C71.0924 27.104 70.9664 27.14 70.7864 27.14H62.4344V28.292H71.6324V29.804ZM88.8597 28.148H73.9917V26.438H80.3097V23.954H76.4217C76.2297 23.954 76.0977 23.918 76.0257 23.846C75.9537 23.774 75.9177 23.642 75.9177 23.45V18.878C75.9177 18.698 75.9537 18.572 76.0257 18.5C76.0977 18.416 76.2297 18.374 76.4217 18.374H84.8637V16.178H75.8997V14.468H86.3397C86.6757 14.468 86.8437 14.636 86.8437 14.972V19.562C86.8437 19.754 86.8017 19.886 86.7177 19.958C86.6457 20.03 86.5197 20.066 86.3397 20.066H77.9157V22.244H87.2397V23.954H82.4337V26.438H88.8597V28.148ZM104.557 27.878H89.671V26.168H99.031C99.235 25.52 99.439 24.788 99.643 23.972C99.847 23.156 100.027 22.316 100.183 21.452C100.339 20.588 100.465 19.748 100.561 18.932C100.657 18.104 100.705 17.348 100.705 16.664H91.219V14.936H102.307C102.643 14.936 102.811 15.104 102.811 15.44C102.775 16.376 102.703 17.318 102.595 18.266C102.499 19.214 102.373 20.156 102.217 21.092C102.061 22.028 101.881 22.928 101.677 23.792C101.485 24.656 101.293 25.448 101.101 26.168H104.557V27.878ZM117.213 24.35V20.21H113.613V24.35H117.213ZM119.229 25.556C119.229 25.748 119.187 25.88 119.103 25.952C119.031 26.024 118.905 26.06 118.725 26.06H112.083C111.891 26.06 111.759 26.024 111.687 25.952C111.627 25.88 111.597 25.748 111.597 25.556V14.612H113.613V18.464H117.213V14.612H119.229V25.556ZM123.585 29.912H121.551V13.802H123.585V19.688H125.781V21.506H123.585V29.912ZM141.172 28.148H126.304V26.438H132.622V23.954H128.734C128.542 23.954 128.41 23.918 128.338 23.846C128.266 23.774 128.23 23.642 128.23 23.45V18.878C128.23 18.698 128.266 18.572 128.338 18.5C128.41 18.416 128.542 18.374 128.734 18.374H137.176V16.178H128.212V14.468H138.652C138.988 14.468 139.156 14.636 139.156 14.972V19.562C139.156 19.754 139.114 19.886 139.03 19.958C138.958 20.03 138.832 20.066 138.652 20.066H130.228V22.244H139.552V23.954H134.746V26.438H141.172V28.148ZM142.181 25.556C146.117 23.384 148.193 20.348 148.409 16.448H143.081V14.72H150.173C150.509 14.72 150.677 14.888 150.677 15.224C150.533 17.768 149.903 20.006 148.787 21.938C147.671 23.87 146.033 25.526 143.873 26.906L142.181 25.556ZM154.961 29.912H152.945V13.784H154.961V20.066H157.157V21.884H154.961V29.912ZM158.131 25.556C162.019 23.456 164.095 20.42 164.359 16.448H159.013V14.72H166.123C166.459 14.72 166.627 14.888 166.627 15.224C166.483 17.72 165.865 19.946 164.773 21.902C163.681 23.858 162.037 25.526 159.841 26.906L158.131 25.556ZM171.415 29.912H169.381V13.802H171.415V29.912Z" fill="white"/>
</svg>
