<svg width="34" height="22" viewBox="0 0 34 22" fill="none" xmlns="http://www.w3.org/2000/svg">
<path d="M1.04168 21.9563C0.745848 21.9563 0.498626 21.8556 0.300014 21.6542C0.101403 21.4528 0.00140316 21.2049 1.42694e-05 20.9104C-0.00137462 20.616 0.0986255 20.3688 0.300014 20.1688C0.501403 19.9688 0.748625 19.8694 1.04168 19.8708H32.2917C32.5875 19.8708 32.8347 19.9708 33.0334 20.1708C33.2334 20.3708 33.3334 20.6187 33.3334 20.9146C33.3334 21.2104 33.2334 21.4576 33.0334 21.6562C32.8334 21.8549 32.5861 21.9542 32.2917 21.9542L1.04168 21.9563ZM1.04168 12.0187C0.745848 12.0187 0.498626 11.9187 0.300014 11.7188C0.101403 11.5187 0.00140316 11.2708 1.42694e-05 10.975C-0.00137462 10.6792 0.0986255 10.4319 0.300014 10.2333C0.501403 10.0347 0.748625 9.93542 1.04168 9.93542H32.2917C32.5875 9.93542 32.8347 10.0354 33.0334 10.2354C33.232 10.4354 33.332 10.6833 33.3334 10.9792C33.3347 11.275 33.2347 11.5222 33.0334 11.7208C32.832 11.9194 32.5847 12.0187 32.2917 12.0187H1.04168ZM1.04168 2.08125C0.745848 2.08125 0.498626 1.98194 0.300014 1.78333C0.100014 1.58333 1.42694e-05 1.33542 1.42694e-05 1.03958C1.42694e-05 0.74375 0.100014 0.496528 0.300014 0.297917C0.500014 0.0993058 0.747237 0 1.04168 0H32.2917C32.5875 0 32.8347 0.1 33.0334 0.3C33.232 0.5 33.332 0.746528 33.3334 1.03958C33.3347 1.33264 33.2347 1.57986 33.0334 1.78125C32.832 1.98264 32.5847 2.08264 32.2917 2.08125H1.04168Z" fill="white"/>
</svg>
