<svg width="40" height="40" viewBox="0 0 40 40" fill="none" xmlns="http://www.w3.org/2000/svg">
<path d="M19.9986 21.1796L11.2553 29.9229C11.0997 30.0785 10.9086 30.1618 10.6819 30.1729C10.4553 30.184 10.253 30.1007 10.0753 29.9229C9.89748 29.7451 9.80859 29.5485 9.80859 29.3329C9.80859 29.1173 9.89748 28.9207 10.0753 28.7429L18.8186 19.9996L10.0753 11.2562C9.9197 11.1007 9.83637 10.9096 9.82526 10.6829C9.81415 10.4562 9.89748 10.254 10.0753 10.0762C10.253 9.89846 10.4497 9.80957 10.6653 9.80957C10.8808 9.80957 11.0775 9.89846 11.2553 10.0762L19.9986 18.8196L28.7419 10.0762C28.8975 9.92068 29.0891 9.83735 29.3169 9.82624C29.5425 9.81513 29.7442 9.89846 29.9219 10.0762C30.0997 10.254 30.1886 10.4507 30.1886 10.6662C30.1886 10.8818 30.0997 11.0785 29.9219 11.2562L21.1786 19.9996L29.9219 28.7429C30.0775 28.8985 30.1608 29.0901 30.1719 29.3179C30.183 29.5435 30.0997 29.7451 29.9219 29.9229C29.7442 30.1007 29.5475 30.1896 29.3319 30.1896C29.1164 30.1896 28.9197 30.1007 28.7419 29.9229L19.9986 21.1796Z" fill="white"/>
</svg>
