<svg width="19" height="13" viewBox="0 0 19 13" fill="none" xmlns="http://www.w3.org/2000/svg">
<path d="M0.593758 13C0.425133 13 0.284216 12.9404 0.171008 12.8211C0.0577998 12.7019 0.0007998 12.5551 8.13355e-06 12.3808C-0.000783532 12.2064 0.0562165 12.0601 0.171008 11.9416C0.2858 11.8232 0.426716 11.7644 0.593758 11.7653H18.4062C18.5749 11.7653 18.7158 11.8245 18.829 11.9429C18.943 12.0613 19 12.2081 19 12.3832C19 12.5584 18.943 12.7048 18.829 12.8224C18.715 12.94 18.5741 12.9988 18.4062 12.9988L0.593758 13ZM0.593758 7.11614C0.425133 7.11614 0.284216 7.05693 0.171008 6.93851C0.0577998 6.8201 0.0007998 6.67331 8.13355e-06 6.49815C-0.000783532 6.32299 0.0562165 6.17661 0.171008 6.05902C0.2858 5.94142 0.426716 5.88263 0.593758 5.88263H18.4062C18.5749 5.88263 18.7158 5.94183 18.829 6.06025C18.9422 6.17867 18.9992 6.32546 19 6.50062C19.0008 6.67578 18.9438 6.82215 18.829 6.93975C18.7142 7.05734 18.5733 7.11614 18.4062 7.11614H0.593758ZM0.593758 1.23228C0.425133 1.23228 0.284216 1.17348 0.171008 1.05589C0.0570082 0.93747 8.13355e-06 0.790682 8.13355e-06 0.615523C8.13355e-06 0.440364 0.0570082 0.293988 0.171008 0.176393C0.285008 0.0587976 0.425924 0 0.593758 0H18.4062C18.5749 0 18.7158 0.0592087 18.829 0.177626C18.9422 0.296043 18.9992 0.442009 19 0.615523C19.0008 0.789038 18.9438 0.935414 18.829 1.05465C18.7142 1.17389 18.5733 1.2331 18.4062 1.23228H0.593758Z" fill="white"/>
</svg>
