<svg width="20" height="13" viewBox="0 0 20 13" fill="none" xmlns="http://www.w3.org/2000/svg">
<path d="M0.697647 13C0.529471 13 0.388929 12.9404 0.276022 12.8211C0.163115 12.7019 0.106266 12.5551 0.105477 12.3808C0.104687 12.2064 0.161536 12.0601 0.276022 11.9416C0.390508 11.8232 0.53105 11.7644 0.697647 11.7653H18.4628C18.6309 11.7653 18.7715 11.8245 18.8844 11.9429C18.9981 12.0613 19.0549 12.2081 19.0549 12.3832C19.0549 12.5584 18.9981 12.7048 18.8844 12.8224C18.7707 12.94 18.6301 12.9988 18.4628 12.9988L0.697647 13ZM0.697647 7.11614C0.529471 7.11614 0.388929 7.05693 0.276022 6.93851C0.163115 6.8201 0.106266 6.67331 0.105477 6.49815C0.104687 6.32299 0.161536 6.17661 0.276022 6.05902C0.390508 5.94142 0.53105 5.88263 0.697647 5.88263H18.4628C18.6309 5.88263 18.7715 5.94183 18.8844 6.06025C18.9973 6.17867 19.0541 6.32546 19.0549 6.50062C19.0557 6.67578 18.9989 6.82215 18.8844 6.93975C18.7699 7.05734 18.6294 7.11614 18.4628 7.11614H0.697647ZM0.697647 1.23228C0.529471 1.23228 0.388929 1.17348 0.276022 1.05589C0.162325 0.93747 0.105477 0.790682 0.105477 0.615523C0.105477 0.440364 0.162325 0.293988 0.276022 0.176393C0.389719 0.0587976 0.53026 0 0.697647 0H18.4628C18.6309 0 18.7715 0.0592087 18.8844 0.177626C18.9973 0.296043 19.0541 0.442009 19.0549 0.615523C19.0557 0.789038 18.9989 0.935414 18.8844 1.05465C18.7699 1.17389 18.6294 1.2331 18.4628 1.23228H0.697647Z" fill="white"/>
</svg>
