<svg width="20" height="20" viewBox="0 0 20 20" fill="none" xmlns="http://www.w3.org/2000/svg">
<path d="M10.0012 10.5903L5.62958 14.9619C5.55181 15.0397 5.45625 15.0814 5.34292 15.0869C5.22958 15.0925 5.12847 15.0508 5.03958 14.9619C4.95069 14.8731 4.90625 14.7747 4.90625 14.6669C4.90625 14.5592 4.95069 14.4608 5.03958 14.3719L9.41125 10.0003L5.03958 5.62861C4.96181 5.55083 4.92014 5.45527 4.91458 5.34194C4.90903 5.22861 4.95069 5.1275 5.03958 5.03861C5.12847 4.94972 5.22681 4.90527 5.33458 4.90527C5.44236 4.90527 5.54069 4.94972 5.62958 5.03861L10.0012 9.41027L14.3729 5.03861C14.4507 4.96083 14.5465 4.91916 14.6604 4.91361C14.7732 4.90805 14.874 4.94972 14.9629 5.03861C15.0518 5.1275 15.0963 5.22583 15.0963 5.33361C15.0963 5.44138 15.0518 5.53972 14.9629 5.62861L10.5912 10.0003L14.9629 14.3719C15.0407 14.4497 15.0824 14.5456 15.0879 14.6594C15.0935 14.7722 15.0518 14.8731 14.9629 14.9619C14.874 15.0508 14.7757 15.0953 14.6679 15.0953C14.5601 15.0953 14.4618 15.0508 14.3729 14.9619L10.0012 10.5903Z" fill="white"/>
</svg>
