<svg width="103" height="103" viewBox="0 0 103 103" fill="none" xmlns="http://www.w3.org/2000/svg">
<path fill-rule="evenodd" clip-rule="evenodd" d="M78.1308 20.9453L77.6738 17.5002H66.9853L66.5271 20.9431L66.2416 23.0762L65.6804 23.4007L65.1776 23.7322L63.287 22.9276L60.2403 21.6316L58.5954 24.6349L56.5504 28.3684L54.9025 31.3768L57.4925 33.5204L59.0926 34.8442L59.0876 34.9062C59.0783 35.104 59.0735 35.302 59.0733 35.5001L59.0876 36.0891L59.0964 36.1722L57.4929 37.5008L54.9013 39.6442L56.5496 42.6534L58.5958 46.389L60.2403 49.3918L63.287 48.0965L65.1738 47.2922L65.6985 47.6389L66.2416 47.9482L66.5221 50.0554L66.9791 53.5001H77.667L78.1254 50.0574L78.4075 47.9202L78.9721 47.5998L79.4715 47.2641L81.3651 48.0726L84.4121 49.3685L86.0571 46.3653L88.1021 42.6319L89.75 39.6235L87.16 37.4799L85.5602 36.1561L85.5644 36.0941C85.5741 35.8936 85.5789 35.6956 85.5788 35.5001L85.5648 34.9112L85.5564 34.8201L87.1604 33.4973L89.75 31.3537L88.1021 28.3455L86.0567 24.6112L84.4117 21.6085L81.3655 22.9039L79.4753 23.7041L78.9539 23.3613L78.4075 23.0481L78.1308 20.9453ZM72.6979 43.5001C76.8805 43.5001 80.2708 39.9183 80.2708 35.5001C80.2708 31.0818 76.8805 27.5002 72.6979 27.5002C68.5153 27.5002 65.125 31.0818 65.125 35.5001C65.125 39.9183 68.5153 43.5001 72.6979 43.5001ZM36.4791 52.9454L36.0223 49.5002H25.3338L24.8754 52.9429L24.5899 55.0761L24.0289 55.4006L23.5259 55.7321L21.6355 54.9277L18.5889 53.6318L16.9439 56.635L14.8987 60.3685L13.2508 63.3769L15.8406 65.5205L17.441 66.8441L17.4364 66.9061C17.4268 67.104 17.422 67.3021 17.4218 67.5002L17.436 68.0889L17.4449 68.1721L15.8412 69.5009L13.25 71.6441L14.8981 74.6533L16.9441 78.3889L18.5889 81.3917L21.6353 80.0966L23.5221 79.2921L24.0469 79.639L24.5899 79.9482L24.8708 82.0553L25.3278 85.5002H36.0155L36.4739 82.0573L36.756 79.9201L37.3204 79.5997L37.82 79.2642L39.7138 80.0725L42.7605 81.3686L44.4054 78.3654L46.4506 74.6318L48.0985 71.6234L45.5085 69.4798L43.9088 68.1562L43.913 68.0942C43.9225 67.8934 43.9274 67.6954 43.9275 67.5002L43.9134 66.9113L43.905 66.8202L45.5089 65.4974L48.0985 63.3538L46.4506 60.3458L44.4052 56.6113L42.7605 53.6084L39.714 54.9038L37.8238 55.7042L37.3025 55.3614L36.756 55.0482L36.4791 52.9454ZM31.0464 75.5002C35.2288 75.5002 38.6193 71.9184 38.6193 67.5002C38.6193 63.0817 35.2288 59.5001 31.0464 59.5001C26.8638 59.5001 23.4733 63.0817 23.4733 67.5002C23.4733 71.9186 26.8638 75.5002 31.0464 75.5002ZM89.75 77.0001H51.5V85.5002H89.75V77.0001ZM13.25 17.5002H51.5V26.0001H13.25V17.5002ZM51.5 43H42.9999V51.5001H51.5V43Z" fill="#1C262B" fill-opacity="0.49"/>
</svg>
