<svg width="83" height="83" viewBox="0 0 83 83" fill="none" xmlns="http://www.w3.org/2000/svg">
<path d="M57.6585 11.5366C55.0581 11.5366 52.5642 12.5696 50.7254 14.4084C48.8867 16.2471 47.8537 18.741 47.8537 21.3415C47.8537 23.9419 48.8867 26.4358 50.7254 28.2746C52.5642 30.1133 55.0581 31.1463 57.6585 31.1463C60.259 31.1463 62.7529 30.1133 64.5916 28.2746C66.4304 26.4358 67.4634 23.9419 67.4634 21.3415C67.4634 18.741 66.4304 16.2471 64.5916 14.4084C62.7529 12.5696 60.259 11.5366 57.6585 11.5366ZM41.3171 21.3415C41.3171 17.0074 43.0388 12.8509 46.1034 9.7863C49.168 6.72168 53.3245 5 57.6585 5C61.9926 5 66.1491 6.72168 69.2137 9.7863C72.2783 12.8509 74 17.0074 74 21.3415C74 25.6755 72.2783 29.832 69.2137 32.8966C66.1491 35.9612 61.9926 37.6829 57.6585 37.6829C53.3245 37.6829 49.168 35.9612 46.1034 32.8966C43.0388 29.832 41.3171 25.6755 41.3171 21.3415ZM7 6.63415H36.4146V36.0488H7V6.63415ZM13.5366 13.1707V29.5122H29.878V13.1707H13.5366ZM7 42.5854H36.4146V72H7V42.5854ZM13.5366 49.122V65.4634H29.878V49.122H13.5366ZM42.9512 42.5854H72.3659V72H42.9512V42.5854ZM65.8293 49.122H49.4878V65.4634H65.8293V49.122Z" fill="#1C262B" fill-opacity="0.49"/>
</svg>
