<svg width="83" height="83" viewBox="0 0 83 83" fill="none" xmlns="http://www.w3.org/2000/svg">
<g clip-path="url(#clip0_299_388)">
<path d="M73.5312 11.2626C72.6502 10.6926 71.6426 10.3477 70.597 10.2584C69.5515 10.169 68.5 10.3379 67.535 10.7501L35.9137 23.2038C35.1659 23.511 34.3648 23.6678 33.5562 23.6651H13.3125C11.6135 23.6651 9.984 24.34 8.7826 25.5414C7.58119 26.7428 6.90625 28.3723 6.90625 30.0713V30.5838H0.5V45.9588H6.90625V46.6251C6.9464 48.2973 7.63902 49.8876 8.8361 51.0559C10.0332 52.2243 11.6398 52.8781 13.3125 52.8776L21 69.1751C21.5205 70.2725 22.3401 71.201 23.3645 71.8537C24.3889 72.5064 25.5766 72.8569 26.7913 72.8651H30.02C31.7101 72.8516 33.3265 72.1706 34.5168 70.9707C35.7071 69.7708 36.3751 68.149 36.375 66.4588V53.4926L67.535 65.9463C68.3025 66.2478 69.1192 66.4042 69.9437 66.4076C71.223 66.384 72.4685 65.9926 73.5312 65.2801C74.3742 64.7109 75.0695 63.9492 75.5597 63.058C76.0498 62.1668 76.3207 61.1717 76.35 60.1551V16.5413C76.3453 15.4985 76.0861 14.4725 75.5949 13.5526C75.1036 12.6327 74.3953 11.8466 73.5312 11.2626ZM29.9688 30.0713V46.6251H13.3125V30.0713H29.9688ZM29.9688 66.4588H26.74L20.4363 52.8776H29.9688V66.4588ZM38.2712 47.3938C37.6626 47.0831 37.0282 46.8259 36.375 46.6251V29.7126C37.0218 29.5781 37.6561 29.3895 38.2712 29.1488L69.9437 16.5413V60.0013L38.2712 47.3938ZM76.5037 31.8651V44.6776C78.2028 44.6776 79.8322 44.0026 81.0337 42.8012C82.2351 41.5998 82.91 39.9704 82.91 38.2713C82.91 36.5723 82.2351 34.9428 81.0337 33.7414C79.8322 32.54 78.2028 31.8651 76.5037 31.8651Z" fill="#1C262B" fill-opacity="0.49"/>
</g>
<defs>
<clipPath id="clip0_299_388">
<rect width="82" height="82" fill="white" transform="translate(0.5 0.5)"/>
</clipPath>
</defs>
</svg>
