<svg width="81" height="81" viewBox="0 0 81 81" fill="none" xmlns="http://www.w3.org/2000/svg">
<path d="M18.0874 4.63373C18.5093 5.00128 18.7977 5.49801 18.9078 6.04655C19.0179 6.59508 18.9435 7.16462 18.6961 7.66645C18.651 7.81436 18.6288 7.96827 18.6302 8.12288C18.6302 8.44238 18.7113 9.05095 19.4773 9.81167C19.8476 10.1819 20.1316 10.4456 20.441 10.7347C20.6947 10.968 20.9635 11.2114 21.3034 11.5461C21.9628 12.175 22.6577 12.9154 23.2816 13.8435C24.5751 15.7858 25.2903 18.2151 25.2903 21.7498C25.2903 23.6871 24.9708 25.5027 24.3874 27.1104C22.7338 31.6747 19.0157 34.4285 15.1454 34.4285C11.275 34.4285 7.55691 31.6696 5.90328 27.1104C5.29327 25.3895 4.98774 23.5755 5.00038 21.7498C5.00038 20.0966 5.44168 18.1238 6.05038 16.3031C6.65908 14.4825 7.51126 12.5908 8.49532 11.0694C9.66707 9.09153 11.3156 7.43316 12.5939 6.31745C13.2973 5.70433 14.0285 5.12388 14.7852 4.57794L14.9374 4.47651L14.983 4.44101L14.9983 4.43087L15.0084 4.4258C15.4735 4.11581 16.0281 3.96815 16.5858 4.00575C17.1435 4.04335 17.6732 4.26412 18.0925 4.63373M15.1454 39.4999C18.3672 39.5081 21.4888 38.3804 23.9613 36.315C24.0628 36.6328 24.1592 36.954 24.2505 37.2786C25.2903 41.0923 25.2903 45.8088 25.2903 49.4551V49.6428C25.2903 60.0798 23.3374 66.2771 21.1258 69.9641C20.2879 71.4141 19.191 72.6981 17.8896 73.7524C17.3719 74.1529 16.8103 74.4932 16.2156 74.7667C16.2156 74.7667 15.5714 75 15.1454 75C14.7797 74.971 14.4196 74.8925 14.0751 74.7667C13.4804 74.4932 12.9188 74.1529 12.4011 73.7524C11.0998 72.6981 10.0029 71.4141 9.16489 69.9641C6.95328 66.2822 5.00038 60.0798 5.00038 49.6428V49.4602C5.00038 45.8088 5.00038 41.0974 6.04024 37.2735C6.12816 36.9557 6.22454 36.6345 6.32937 36.31C8.79974 38.3808 11.9216 39.514 15.1454 39.51M35.4252 54.5874C33.6669 54.3912 31.9374 53.9913 30.2715 53.3957C30.3324 52.1176 30.3628 50.7991 30.3628 49.4399V47.9388C31.9353 48.6843 33.6397 49.2066 35.4252 49.4602V39.4999C35.4252 36.8098 36.494 34.23 38.3966 32.3278C40.2991 30.4256 42.8795 29.357 45.5701 29.357H55.5376C55.1341 26.553 54.0652 23.8862 52.4202 21.5796C50.7752 19.273 48.6019 17.3935 46.0819 16.0983C43.562 14.8031 40.7685 14.1297 37.935 14.1345C35.1015 14.1392 32.3103 14.8219 29.7947 16.1256C29.3962 14.4676 28.7389 12.8828 27.8469 11.4295C31.1345 9.805 34.7652 8.9964 38.4316 9.0721C42.098 9.14781 45.6922 10.1056 48.91 11.8644C52.1277 13.6232 54.8742 16.1312 56.917 19.1761C58.9598 22.221 60.2388 25.7132 60.6456 29.357H65.855C68.5456 29.357 71.1261 30.4256 73.0286 32.3278C74.9312 34.23 76 36.8098 76 39.4999V59.7857C76 62.4757 74.9312 65.0556 73.0286 66.9578C71.1261 68.8599 68.5456 69.9286 65.855 69.9286H45.5651C42.8745 69.9286 40.294 68.8599 38.3915 66.9578C36.4889 65.0556 35.4201 62.4757 35.4201 59.7857L35.4252 54.5874ZM60.6507 34.4285C60.0761 39.5746 57.7682 44.3724 54.1059 48.0339C50.4437 51.6954 45.6449 54.0028 40.4977 54.5773V59.7857C40.4977 61.1307 41.0321 62.4206 41.9834 63.3717C42.9346 64.3228 44.2248 64.8571 45.5701 64.8571H65.8601C67.2054 64.8571 68.4956 64.3228 69.4469 63.3717C70.3982 62.4206 70.9326 61.1307 70.9326 59.7857V39.4999C70.9326 38.1549 70.3982 36.8649 69.4469 35.9138C68.4956 34.9628 67.2054 34.4285 65.8601 34.4285H60.6507ZM55.5376 34.4285H45.5701C44.2248 34.4285 42.9346 34.9628 41.9834 35.9138C41.0321 36.8649 40.4977 38.1549 40.4977 39.4999V49.4653C44.2924 48.9186 47.8082 47.1583 50.5192 44.4479C53.2302 41.7374 54.9907 38.2224 55.5376 34.4285Z" fill="#1C262B" fill-opacity="0.49"/>
</svg>
