<svg width="40" height="40" viewBox="0 0 40 40" fill="none" xmlns="http://www.w3.org/2000/svg">
<rect width="40" height="40" rx="20" transform="matrix(-1 0 0 1 40 0)" fill="#102254"/>
<path d="M23.255 10.8396C23.349 10.7401 23.4225 10.6231 23.4713 10.4953C23.52 10.3675 23.5431 10.2313 23.5393 10.0945C23.5354 9.95772 23.5046 9.82305 23.4487 9.69817C23.3928 9.57329 23.3128 9.46064 23.2134 9.36667C23.1139 9.27269 22.9969 9.19922 22.8691 9.15045C22.7413 9.10169 22.6051 9.07858 22.4683 9.08245C22.3315 9.08632 22.1968 9.11709 22.072 9.173C21.9471 9.22892 21.8344 9.30888 21.7405 9.40833L12.8863 18.7833C12.7034 18.9767 12.6016 19.2328 12.6016 19.499C12.6016 19.7651 12.7034 20.0212 12.8863 20.2146L21.7405 29.5906C21.8338 29.6922 21.9464 29.7743 22.0718 29.832C22.1971 29.8898 22.3327 29.922 22.4706 29.9269C22.6085 29.9318 22.746 29.9093 22.8751 29.8606C23.0043 29.8119 23.1224 29.738 23.2227 29.6433C23.3231 29.5485 23.4036 29.4348 23.4596 29.3087C23.5156 29.1826 23.546 29.0466 23.549 28.9086C23.552 28.7706 23.5276 28.6335 23.4771 28.505C23.4266 28.3766 23.3512 28.2594 23.255 28.1604L15.0759 19.499L23.255 10.8396Z" fill="white"/>
</svg>
