<svg width="40" height="40" viewBox="0 0 40 40" fill="none" xmlns="http://www.w3.org/2000/svg">
<rect width="40" height="40" rx="20" fill="#102254"/>
<path d="M16.745 10.8396C16.651 10.7401 16.5775 10.6231 16.5287 10.4953C16.48 10.3675 16.4569 10.2313 16.4607 10.0945C16.4646 9.95772 16.4954 9.82305 16.5513 9.69817C16.6072 9.57329 16.6872 9.46064 16.7866 9.36667C16.8861 9.27269 17.0031 9.19922 17.1309 9.15045C17.2587 9.10169 17.3949 9.07858 17.5317 9.08245C17.6685 9.08632 17.8032 9.11709 17.928 9.173C18.0529 9.22892 18.1656 9.30888 18.2595 9.40833L27.1137 18.7833C27.2966 18.9767 27.3984 19.2328 27.3984 19.499C27.3984 19.7651 27.2966 20.0212 27.1137 20.2146L18.2595 29.5906C18.1662 29.6922 18.0536 29.7743 17.9282 29.832C17.8029 29.8898 17.6673 29.922 17.5294 29.9269C17.3915 29.9318 17.254 29.9093 17.1249 29.8606C16.9957 29.8119 16.8776 29.738 16.7773 29.6433C16.6769 29.5485 16.5964 29.4348 16.5404 29.3087C16.4844 29.1826 16.454 29.0466 16.451 28.9086C16.448 28.7706 16.4724 28.6335 16.5229 28.505C16.5734 28.3766 16.6488 28.2594 16.745 28.1604L24.9241 19.499L16.745 10.8396Z" fill="white"/>
</svg>
