<svg width="52" height="71" viewBox="0 0 52 71" fill="none" xmlns="http://www.w3.org/2000/svg">
<path d="M25.9974 22.668L18.9141 15.5846L20.8974 13.5305L24.5807 17.2138V5.66797H27.4141V17.2138L31.0974 13.5305L33.0807 15.5846L25.9974 22.668ZM17.4974 28.3346C16.7182 28.3346 16.0515 28.0574 15.4971 27.5031C14.9427 26.9487 14.665 26.2814 14.6641 25.5013V21.2513H17.4974V25.5013H34.4974V21.2513H37.3307V25.5013C37.3307 26.2805 37.0535 26.9477 36.4991 27.5031C35.9448 28.0584 35.2775 28.3356 34.4974 28.3346H17.4974Z" fill="white"/>
<path d="M10.86 51.995H9.87V38.66H10.86V43.865H12.915V44.705H10.86V51.995ZM0.735 48.485C1.825 47.855 2.745 47.16 3.495 46.4C4.245 45.64 4.86 44.76 5.34 43.76C4.96 43.85 4.545 43.91 4.095 43.94C3.655 43.97 3.21 43.985 2.76 43.985L1.02 44V43.205L3.255 43.19C3.715 43.19 4.125 43.18 4.485 43.16C4.855 43.14 5.25 43.09 5.67 43.01C5.82 42.59 5.95 42.155 6.06 41.705C6.17 41.255 6.26 40.775 6.33 40.265H1.5V39.47H7.05C7.24 39.47 7.335 39.565 7.335 39.755C7.265 40.755 7.08 41.71 6.78 42.62C6.48 43.53 6.085 44.38 5.595 45.17C5.085 45.96 4.495 46.69 3.825 47.36C3.165 48.02 2.43 48.605 1.62 49.115L0.735 48.485ZM22.2911 44.405C22.0811 44.455 21.8061 44.505 21.4661 44.555C21.1261 44.595 20.7611 44.64 20.3711 44.69C19.9811 44.73 19.5861 44.77 19.1861 44.81C18.7961 44.85 18.4361 44.875 18.1061 44.885C17.7161 44.905 17.3061 44.92 16.8761 44.93C16.4561 44.94 16.0661 44.945 15.7061 44.945C15.3461 44.955 15.0411 44.96 14.7911 44.96C14.5511 44.95 14.4211 44.945 14.4011 44.945C14.2911 44.945 14.2161 44.925 14.1761 44.885C14.1361 44.835 14.1161 44.76 14.1161 44.66V39.455C14.1161 39.365 14.1361 39.295 14.1761 39.245C14.2161 39.195 14.2911 39.17 14.4011 39.17H20.1761V39.935H15.0011V41.63H20.0561V42.38H15.0011V44.165L17.5211 44.135C18.3711 44.135 19.2061 44.085 20.0261 43.985C20.8461 43.885 21.6011 43.775 22.2911 43.655V44.405ZM23.7911 45.605H22.8461V38.66H23.7911V41.51H25.6661V42.335H23.7911V45.605ZM24.1361 51.815H15.8111C15.7011 51.815 15.6261 51.795 15.5861 51.755C15.5461 51.715 15.5261 51.64 15.5261 51.53V48.95C15.5261 48.85 15.5461 48.78 15.5861 48.74C15.6261 48.69 15.7011 48.665 15.8111 48.665H22.8311V47.12H15.5261V46.325H23.5211C23.7111 46.325 23.8061 46.42 23.8061 46.61V49.175C23.8061 49.285 23.7811 49.36 23.7311 49.4C23.6911 49.44 23.6211 49.46 23.5211 49.46H16.4861V51.035H24.1361V51.815ZM38.2071 50.18H25.9371V49.37H31.5921V46.67H27.9321C27.8221 46.67 27.7471 46.645 27.7071 46.595C27.6671 46.545 27.6471 46.47 27.6471 46.37V42.92C27.6471 42.83 27.6671 42.765 27.7071 42.725C27.7471 42.675 27.8221 42.65 27.9321 42.65H35.3421V40.13H27.6021V39.35H36.0021C36.1921 39.35 36.2871 39.445 36.2871 39.635V43.145C36.2871 43.335 36.1921 43.43 36.0021 43.43H28.5771V45.89H36.8271V46.67H32.5221V49.37H38.2071V50.18ZM50.9882 49.97H38.7182V49.16H47.0582C47.2282 48.53 47.3982 47.825 47.5682 47.045C47.7382 46.265 47.8932 45.48 48.0332 44.69C48.1632 43.91 48.2682 43.16 48.3482 42.44C48.4382 41.72 48.4832 41.105 48.4832 40.595H40.2182V39.8H49.1582C49.3482 39.8 49.4432 39.895 49.4432 40.085C49.4032 40.835 49.3382 41.605 49.2482 42.395C49.1682 43.185 49.0632 43.975 48.9332 44.765C48.8132 45.555 48.6732 46.325 48.5132 47.075C48.3532 47.825 48.1832 48.52 48.0032 49.16H50.9882V49.97ZM9.27 64.87C8.95 64.93 8.575 64.995 8.145 65.065C7.725 65.135 7.285 65.2 6.825 65.26C6.345 65.32 5.88 65.37 5.43 65.41C4.98 65.44 4.57 65.455 4.2 65.455H1.665C1.555 65.455 1.48 65.435 1.44 65.395C1.4 65.345 1.38 65.27 1.38 65.17V56.755C1.38 56.665 1.4 56.595 1.44 56.545C1.48 56.495 1.555 56.47 1.665 56.47H7.41V57.28H2.325V64.6L4.02 64.585C4.56 64.585 5.1 64.565 5.64 64.525C6.19 64.475 6.705 64.42 7.185 64.36C7.665 64.3 8.085 64.24 8.445 64.18C8.815 64.11 9.09 64.055 9.27 64.015V64.87ZM10.815 68.995H9.825V55.66H10.815V60.34H12.87V61.18H10.815V68.995ZM19.2761 60.97C17.9161 60.97 16.8061 60.735 15.9461 60.265C15.1061 59.785 14.6861 59.12 14.6861 58.27C14.6861 57.45 15.1061 56.79 15.9461 56.29C16.3461 56.06 16.8261 55.885 17.3861 55.765C17.9561 55.635 18.5861 55.57 19.2761 55.57C19.9661 55.57 20.5911 55.635 21.1511 55.765C21.7111 55.885 22.1911 56.06 22.5911 56.29C22.9911 56.53 23.3011 56.815 23.5211 57.145C23.7511 57.475 23.8661 57.85 23.8661 58.27C23.8661 58.7 23.7511 59.085 23.5211 59.425C23.3011 59.755 22.9911 60.035 22.5911 60.265C22.1911 60.495 21.7111 60.67 21.1511 60.79C20.5911 60.91 19.9661 60.97 19.2761 60.97ZM21.8711 59.71C22.1911 59.54 22.4411 59.34 22.6211 59.11C22.8111 58.87 22.9061 58.605 22.9061 58.315C22.9061 58.025 22.8111 57.76 22.6211 57.52C22.4411 57.27 22.1911 57.06 21.8711 56.89C21.5511 56.71 21.1661 56.57 20.7161 56.47C20.2761 56.37 19.7961 56.32 19.2761 56.32C18.7361 56.32 18.2461 56.37 17.8061 56.47C17.3661 56.57 16.9861 56.71 16.6661 56.89C15.9861 57.25 15.6461 57.725 15.6461 58.315C15.6461 58.885 15.9861 59.35 16.6661 59.71C17.3161 60.06 18.1861 60.235 19.2761 60.235C19.7961 60.235 20.2761 60.19 20.7161 60.1C21.1661 60.01 21.5511 59.88 21.8711 59.71ZM25.3961 63.22H19.9211V66.34H18.9911V63.22H13.1861V62.425H25.3961V63.22ZM24.2111 68.695H15.1661C15.0561 68.695 14.9811 68.675 14.9411 68.635C14.9011 68.595 14.8811 68.52 14.8811 68.41V64.825H15.7661V67.885H24.2111V68.695ZM38.2071 67.18H25.9371V66.37H31.5921V63.67H27.9321C27.8221 63.67 27.7471 63.645 27.7071 63.595C27.6671 63.545 27.6471 63.47 27.6471 63.37V59.92C27.6471 59.83 27.6671 59.765 27.7071 59.725C27.7471 59.675 27.8221 59.65 27.9321 59.65H35.3421V57.13H27.6021V56.35H36.0021C36.1921 56.35 36.2871 56.445 36.2871 56.635V60.145C36.2871 60.335 36.1921 60.43 36.0021 60.43H28.5771V62.89H36.8271V63.67H32.5221V66.37H38.2071V67.18ZM49.5932 62.8H40.6982C40.5882 62.8 40.5132 62.78 40.4732 62.74C40.4332 62.69 40.4132 62.615 40.4132 62.515V56.755C40.4132 56.665 40.4332 56.595 40.4732 56.545C40.5132 56.495 40.5882 56.47 40.6982 56.47H49.4432V57.265H41.3432V62.005H49.5932V62.8ZM50.9882 67.015H38.7182V66.205H50.9882V67.015Z" fill="white"/>
</svg>
