<svg width="55" height="60" viewBox="0 0 55 60" fill="none" xmlns="http://www.w3.org/2000/svg">
<path d="M24.0007 13.9996C24.0007 13.7344 24.106 13.4801 24.2936 13.2925C24.4811 13.105 24.7355 12.9996 25.0007 12.9996H31.0007C31.2659 12.9996 31.5203 13.105 31.7078 13.2925C31.8953 13.4801 32.0007 13.7344 32.0007 13.9996C32.0007 14.2649 31.8953 14.5192 31.7078 14.7067C31.5203 14.8943 31.2659 14.9996 31.0007 14.9996H25.0007C24.7355 14.9996 24.4811 14.8943 24.2936 14.7067C24.106 14.5192 24.0007 14.2649 24.0007 13.9996ZM25.0007 16.9996C24.7355 16.9996 24.4811 17.105 24.2936 17.2925C24.106 17.4801 24.0007 17.7344 24.0007 17.9996C24.0007 18.2649 24.106 18.5192 24.2936 18.7067C24.4811 18.8943 24.7355 18.9996 25.0007 18.9996H29.0007C29.2659 18.9996 29.5203 18.8943 29.7078 18.7067C29.8953 18.5192 30.0007 18.2649 30.0007 17.9996C30.0007 17.7344 29.8953 17.4801 29.7078 17.2925C29.5203 17.105 29.2659 16.9996 29.0007 16.9996H25.0007ZM16.0007 15.9996C16.0012 13.3577 16.8735 10.7898 18.4824 8.6943C20.0912 6.59876 22.3467 5.09272 24.8988 4.4098C27.4509 3.72689 30.157 3.90527 32.5974 4.91728C35.0378 5.9293 37.076 7.71837 38.3959 10.007C39.7157 12.2956 40.2434 14.9557 39.8972 17.5749C39.5509 20.194 38.3499 22.6256 36.4807 24.4925C34.6114 26.3595 32.1782 27.5574 29.5587 27.9004C26.9392 28.2434 24.2796 27.7124 21.9927 26.3896L17.3167 27.9496C17.1439 28.0073 16.9587 28.0167 16.781 27.9768C16.6033 27.937 16.4398 27.8493 16.3083 27.7233C16.1768 27.5973 16.0821 27.4378 16.0346 27.262C15.9871 27.0862 15.9885 26.9007 16.0387 26.7256L17.4627 21.7436C16.5027 19.9813 16.0001 18.0064 16.0007 15.9996ZM28.0007 5.99964C26.2351 5.99953 24.5009 6.4669 22.9744 7.35425C21.4479 8.2416 20.1836 9.51729 19.31 11.0516C18.4364 12.586 17.9845 14.3243 18.0005 16.0899C18.0164 17.8554 18.4995 19.5853 19.4007 21.1036C19.47 21.2209 19.5147 21.3512 19.5319 21.4863C19.5491 21.6215 19.5384 21.7587 19.5007 21.8896L18.4827 25.4496L21.7987 24.3456C21.9395 24.2986 22.089 24.2836 22.2364 24.3016C22.3838 24.3196 22.5253 24.3701 22.6507 24.4496C23.9612 25.279 25.4467 25.7922 26.9897 25.9486C28.5328 26.1051 30.091 25.9005 31.5414 25.351C32.9917 24.8015 34.2943 23.9221 35.3463 22.7825C36.3983 21.6429 37.1708 20.2742 37.6027 18.7846C38.0347 17.2951 38.1142 15.7254 37.8351 14.1998C37.5559 12.6742 36.9258 11.2345 35.9944 9.99433C35.063 8.7542 33.8559 7.74771 32.4686 7.05441C31.0812 6.36111 29.5516 6 28.0007 5.99964Z" fill="white"/>
<path d="M10.672 44.448V41.2H3.184V44.448H10.672ZM11.664 44.992C11.664 45.12 11.6427 45.2053 11.6 45.248C11.5573 45.28 11.4827 45.296 11.376 45.296H2.528C2.4 45.296 2.31467 45.28 2.272 45.248C2.24 45.2053 2.224 45.12 2.224 44.992V40.656C2.224 40.5387 2.24 40.4587 2.272 40.416C2.31467 40.3733 2.4 40.352 2.528 40.352H11.376C11.4827 40.352 11.5573 40.3733 11.6 40.416C11.6427 40.4587 11.664 40.5387 11.664 40.656V44.992ZM13.456 48.096H7.616V51.376H6.624V48.096H0.432V47.248H13.456V48.096ZM12.192 53.808H2.544C2.42667 53.808 2.34667 53.7867 2.304 53.744C2.26133 53.7013 2.24 53.6213 2.24 53.504V49.68H3.184V52.944H12.192V53.808ZM22.4811 45.296C22.3105 45.7227 22.0651 46.0853 21.7451 46.384C21.0838 47.024 20.2091 47.344 19.1211 47.344C18.5665 47.344 18.0651 47.2587 17.6171 47.088C17.1798 46.9067 16.8011 46.656 16.4811 46.336C16.1718 46.0267 15.9318 45.664 15.7611 45.248C15.5905 44.8213 15.5051 44.368 15.5051 43.888C15.5051 43.3973 15.5905 42.944 15.7611 42.528C15.9318 42.1013 16.1771 41.728 16.4971 41.408C16.8065 41.0987 17.1851 40.8587 17.6331 40.688C18.0811 40.5067 18.5825 40.416 19.1371 40.416C19.6811 40.416 20.1718 40.5067 20.6091 40.688C21.0465 40.8587 21.4251 41.0987 21.7451 41.408C22.0651 41.7173 22.3105 42.0853 22.4811 42.512C22.6625 42.9387 22.7531 43.3973 22.7531 43.888C22.7531 44.336 22.6625 44.8053 22.4811 45.296ZM19.1211 46.48C19.9531 46.48 20.5931 46.2293 21.0411 45.728C21.4998 45.2373 21.7291 44.6187 21.7291 43.872C21.7291 43.1573 21.4998 42.5547 21.0411 42.064C20.5931 41.5627 19.9531 41.312 19.1211 41.312C18.2891 41.312 17.6545 41.5627 17.2171 42.064C16.7798 42.5653 16.5611 43.168 16.5611 43.872C16.5611 44.576 16.7798 45.1947 17.2171 45.728C17.6545 46.2293 18.2891 46.48 19.1211 46.48ZM24.5291 50.272C23.4305 50.432 22.1878 50.5547 20.8011 50.64C19.4145 50.7253 17.9051 50.768 16.2731 50.768H14.6571V49.872L18.9611 49.84C19.2278 49.84 19.5905 49.8293 20.0491 49.808C20.5078 49.776 20.9985 49.744 21.5211 49.712C22.0438 49.6693 22.5718 49.6213 23.1051 49.568C23.6385 49.5147 24.1131 49.456 24.5291 49.392V50.272ZM26.0171 54.112H24.9931V39.904H26.0171V54.112ZM34.3063 41.088H30.1783V40.224H34.3063V41.088ZM36.2743 43.376H28.1943V42.512H36.2743V43.376ZM32.2583 50.576C32.9836 50.576 33.5596 50.3307 33.9863 49.84C34.4343 49.3493 34.6583 48.7467 34.6583 48.032C34.6583 47.3387 34.4396 46.7413 34.0023 46.24C33.5649 45.7387 32.9836 45.488 32.2583 45.488C31.5223 45.488 30.9356 45.7387 30.4983 46.24C30.0716 46.7307 29.8583 47.328 29.8583 48.032C29.8583 48.7467 30.0716 49.3493 30.4983 49.84C30.9249 50.3307 31.5116 50.576 32.2583 50.576ZM34.7543 50.464C34.4556 50.7733 34.0929 51.0133 33.6663 51.184C33.2396 51.344 32.7703 51.424 32.2583 51.424C31.7143 51.424 31.2289 51.344 30.8023 51.184C30.3863 51.0133 30.0343 50.7787 29.7463 50.48C29.4476 50.1707 29.2183 49.8133 29.0583 49.408C28.8983 49.0027 28.8183 48.544 28.8183 48.032C28.8183 47.04 29.1329 46.2293 29.7623 45.6C30.0609 45.3013 30.4183 45.0667 30.8343 44.896C31.2609 44.7253 31.7356 44.64 32.2583 44.64C32.7703 44.64 33.2396 44.7253 33.6663 44.896C34.0929 45.0667 34.4556 45.3013 34.7543 45.6C35.0529 45.9093 35.2823 46.272 35.4423 46.688C35.6129 47.0933 35.6983 47.5413 35.6983 48.032C35.6983 48.5227 35.6129 48.976 35.4423 49.392C35.2823 49.808 35.0529 50.1653 34.7543 50.464ZM39.0583 54.128H38.0023V39.904H39.0583V45.776H41.2503V46.672H39.0583V54.128ZM41.8434 50.336C43.6674 49.3973 45.0594 48.2133 46.0194 46.784C46.9794 45.3547 47.5767 43.6373 47.8114 41.632H42.7394V40.768H48.5794C48.782 40.768 48.8834 40.8693 48.8834 41.072C48.7234 43.1733 48.1474 45.0507 47.1554 46.704C46.174 48.3573 44.718 49.7973 42.7874 51.024L41.8434 50.336ZM53.1234 54.112H52.0994V39.92H53.1234V54.112Z" fill="white"/>
</svg>
