<svg width="60" height="59" viewBox="0 0 60 59" fill="none" xmlns="http://www.w3.org/2000/svg">
<path d="M30.5026 18.0833C33.352 18.0833 35.6693 15.7661 35.6693 12.9167C35.6693 10.0672 33.352 7.75 30.5026 7.75C27.6532 7.75 25.3359 10.0672 25.3359 12.9167C25.3359 15.7661 27.6532 18.0833 30.5026 18.0833ZM30.5026 10.3333C31.9273 10.3333 33.0859 11.492 33.0859 12.9167C33.0859 14.3414 31.9273 15.5 30.5026 15.5C29.0779 15.5 27.9193 14.3414 27.9193 12.9167C27.9193 11.492 29.0779 10.3333 30.5026 10.3333Z" fill="white"/>
<path d="M29.7483 28.1751C29.9671 28.3309 30.229 28.4146 30.4975 28.4146C30.7661 28.4146 31.0279 28.3309 31.2467 28.1751C31.6393 27.8974 40.8683 21.2337 40.8308 12.9154C40.8308 7.21782 36.195 2.58203 30.4975 2.58203C24.8 2.58203 20.1642 7.21782 20.1642 12.9089C20.1267 21.2337 29.3557 27.8974 29.7483 28.1751ZM30.4975 5.16536C34.7716 5.16536 38.2475 8.64124 38.2475 12.9218C38.2746 18.6542 32.5797 23.8015 30.4975 25.4897C28.4166 23.8002 22.7204 18.6517 22.7475 12.9154C22.7475 8.64124 26.2234 5.16536 30.4975 5.16536Z" fill="white"/>
<path d="M5.632 48.552V40.76H2.512V48.552H5.632ZM6.592 49.112C6.592 49.24 6.57067 49.3253 6.528 49.368C6.48533 49.4 6.41067 49.416 6.304 49.416H1.856C1.728 49.416 1.64267 49.4 1.6 49.368C1.568 49.3253 1.552 49.24 1.552 49.112V40.216C1.552 40.0987 1.568 40.0187 1.6 39.976C1.64267 39.9333 1.728 39.912 1.856 39.912H6.304C6.41067 39.912 6.48533 39.9333 6.528 39.976C6.57067 40.0187 6.592 40.0987 6.592 40.216V49.112ZM12.384 53.112H11.36V44.872H9.28V52.44H8.256V39.144H9.28V43.944H11.36V38.904H12.384V53.112ZM22.3851 46.376C21.5531 45.992 20.8118 45.528 20.1611 44.984C19.5211 44.44 19.0251 43.816 18.6731 43.112C18.3958 43.8907 17.9638 44.5787 17.3771 45.176C16.8011 45.7733 16.0171 46.328 15.0251 46.84L14.1451 46.168C14.7531 45.912 15.3025 45.608 15.7931 45.256C16.2945 44.904 16.7158 44.504 17.0571 44.056C17.4091 43.608 17.6811 43.112 17.8731 42.568C18.0651 42.024 18.1611 41.432 18.1611 40.792V40.44H15.1531V39.592H22.1451V40.44H19.1851V40.824C19.1851 41.432 19.2865 41.9867 19.4891 42.488C19.6918 42.9893 19.9745 43.4427 20.3371 43.848C20.6891 44.2533 21.0998 44.6053 21.5691 44.904C22.0491 45.2027 22.5611 45.4427 23.1051 45.624L22.3851 46.376ZM25.5211 47.576H24.5291V38.904H25.5211V42.248H27.6171V43.112H25.5211V47.576ZM25.5531 51.72C25.2438 52.232 24.7158 52.632 23.9691 52.92C23.2331 53.2187 22.2998 53.368 21.1691 53.368C20.4331 53.368 19.7718 53.2987 19.1851 53.16C18.6091 53.032 18.1185 52.8453 17.7131 52.6C17.3185 52.3547 17.0145 52.0613 16.8011 51.72C16.5878 51.3893 16.4811 51.0213 16.4811 50.616C16.4811 50.2213 16.5878 49.8533 16.8011 49.512C17.0145 49.1707 17.3185 48.8827 17.7131 48.648C18.1185 48.4027 18.6091 48.2107 19.1851 48.072C19.7718 47.9333 20.4331 47.864 21.1691 47.864C21.9158 47.864 22.5825 47.9333 23.1691 48.072C23.7558 48.2107 24.2465 48.4027 24.6411 48.648C25.0465 48.8827 25.3505 49.1707 25.5531 49.512C25.7665 49.8533 25.8731 50.2213 25.8731 50.616C25.8731 51.0107 25.7665 51.3787 25.5531 51.72ZM21.1691 52.536C22.2571 52.536 23.1265 52.3707 23.7771 52.04C24.4705 51.72 24.8171 51.2453 24.8171 50.616C24.8171 49.976 24.4705 49.496 23.7771 49.176C23.0838 48.856 22.2145 48.696 21.1691 48.696C20.6571 48.696 20.1771 48.7387 19.7291 48.824C19.2918 48.8987 18.9078 49.016 18.5771 49.176C18.2465 49.336 17.9905 49.5387 17.8091 49.784C17.6278 50.0187 17.5371 50.296 17.5371 50.616C17.5371 50.936 17.6278 51.2133 17.8091 51.448C18.0011 51.6933 18.2571 51.896 18.5771 52.056C18.9078 52.216 19.2918 52.3333 19.7291 52.408C20.1771 52.4933 20.6571 52.536 21.1691 52.536ZM40.8509 46.008C40.7975 46.0613 40.7442 46.12 40.6909 46.184C40.6482 46.2373 40.6002 46.296 40.5469 46.36C39.7789 46.104 39.0535 45.752 38.3709 45.304C37.6882 44.8453 37.1495 44.264 36.7549 43.56C36.5629 43.976 36.3282 44.3493 36.0509 44.68C35.7842 45.0107 35.4855 45.3093 35.1549 45.576C34.8349 45.832 34.4882 46.0667 34.1149 46.28C33.7415 46.4933 33.3575 46.6907 32.9629 46.872C32.8562 46.776 32.7229 46.6587 32.5629 46.52C32.4135 46.3813 32.2749 46.264 32.1469 46.168C32.6269 45.9973 33.0909 45.7893 33.5389 45.544C33.9975 45.2987 34.4135 45.0053 34.7869 44.664C35.1495 44.3227 35.4535 43.928 35.6989 43.48C35.9549 43.032 36.1149 42.504 36.1789 41.896H33.1389V41.064H40.3069V41.896H37.2189C37.2509 42.44 37.3949 42.9147 37.6509 43.32C37.9175 43.7147 38.2429 44.0667 38.6269 44.376C39.0109 44.6747 39.4269 44.9307 39.8749 45.144C40.3335 45.3467 40.7762 45.5173 41.2029 45.656L40.8509 46.008ZM38.7389 39.752H34.7229V38.904H38.7389V39.752ZM43.4909 47.08H42.4829V38.904H43.4909V42.312H45.5229V43.192H43.4909V47.08ZM43.6669 53.064C42.5042 52.7653 41.5495 52.36 40.8029 51.848C40.0562 51.336 39.4962 50.744 39.1229 50.072C38.6429 50.776 38.0295 51.384 37.2829 51.896C36.5362 52.4187 35.6295 52.808 34.5629 53.064L33.7789 52.312C35.2295 52.024 36.3815 51.5493 37.2349 50.888C38.0775 50.2373 38.5309 49.5227 38.5949 48.744H34.5469V47.88H43.7149V48.744H39.6189C39.7255 49.5333 40.2055 50.2533 41.0589 50.904C41.8375 51.5547 42.9522 52.024 44.4029 52.312L43.6669 53.064ZM46.164 49.336C47.988 48.3973 49.38 47.2133 50.34 45.784C51.3 44.3547 51.8973 42.6373 52.132 40.632H47.06V39.768H52.9C53.1027 39.768 53.204 39.8693 53.204 40.072C53.044 42.1733 52.468 44.0507 51.476 45.704C50.4947 47.3573 49.0387 48.7973 47.108 50.024L46.164 49.336ZM57.444 53.112H56.42V38.92H57.444V53.112Z" fill="white"/>
</svg>
