<svg width="48" height="48" viewBox="0 0 48 48" fill="none" xmlns="http://www.w3.org/2000/svg">
<path fill-rule="evenodd" clip-rule="evenodd" d="M28.7702 30.8919C26.0741 33.0461 22.6555 34.0862 19.2165 33.7986C15.7775 33.511 12.5792 31.9174 10.2784 29.3453C7.97766 26.7732 6.7491 23.4177 6.84507 19.9681C6.94104 16.5184 8.35427 13.2364 10.7945 10.7962C13.2347 8.35598 16.5167 6.94275 19.9664 6.84678C23.416 6.75081 26.7715 7.97937 29.3436 10.2801C31.9157 12.5809 33.5093 15.7793 33.7969 19.2182C34.0845 22.6572 33.0444 26.0758 30.8902 28.7719L41.2022 39.0819C41.3496 39.2192 41.4678 39.3848 41.5497 39.5688C41.6317 39.7528 41.6758 39.9514 41.6794 40.1528C41.6829 40.3542 41.6459 40.5543 41.5704 40.7411C41.495 40.9279 41.3827 41.0975 41.2403 41.24C41.0978 41.3824 40.9282 41.4947 40.7414 41.5701C40.5546 41.6456 40.3545 41.6826 40.1531 41.6791C39.9517 41.6755 39.7531 41.6314 39.5691 41.5494C39.3851 41.4675 39.2195 41.3493 39.0822 41.2019L28.7702 30.8919ZM12.9202 27.7679C11.4523 26.2998 10.4525 24.4295 10.0472 22.3934C9.64192 20.3573 9.84933 18.2468 10.6432 16.3285C11.4371 14.4102 12.7818 12.7703 14.5074 11.6161C16.233 10.4618 18.2621 9.84505 20.3381 9.84366C22.4142 9.84226 24.4441 10.4563 26.1712 11.6082C27.8984 12.7602 29.2453 14.3982 30.0418 16.3154C30.8382 18.2326 31.0485 20.3429 30.6459 22.3796C30.2434 24.4162 29.2461 26.2878 27.7802 27.7579L27.7702 27.7679L27.7602 27.7759C25.7904 29.7411 23.121 30.8441 20.3385 30.8426C17.556 30.8412 14.8879 29.7353 12.9202 27.7679Z" fill="#102254"/>
</svg>
