<svg width="37" height="43" viewBox="0 0 37 43" fill="none" xmlns="http://www.w3.org/2000/svg">
<path d="M12.4651 42.125C11.446 42.125 10.5744 41.7622 9.85026 41.0365C9.12609 40.3108 8.76325 39.4399 8.76172 38.424V29.1244H4.30214C3.15325 29.1244 2.177 28.718 1.37339 27.9052C0.569774 27.0924 0.167969 26.1055 0.167969 24.9444C0.167969 24.1026 0.392552 23.3234 0.841719 22.6069C1.29089 21.8904 1.89436 21.3633 2.65214 21.0256L17.3555 14.4646V11.6115C16.0981 11.3502 15.0638 10.7246 14.2526 9.73459C13.4428 8.74612 13.038 7.6148 13.038 6.34063C13.038 4.82202 13.5673 3.53104 14.6261 2.46771C15.6848 1.40438 16.972 0.873476 18.4876 0.875003C19.5784 0.875003 20.5714 1.17598 21.4667 1.77792C22.362 2.37986 23.0335 3.17431 23.4811 4.16125C23.5117 4.22084 23.5445 4.38431 23.5796 4.65167C23.5796 4.98778 23.4651 5.27042 23.2359 5.49959C23.0067 5.72875 22.7226 5.84334 22.3834 5.84334C22.1252 5.84334 21.9098 5.78223 21.7371 5.66C21.566 5.53931 21.4285 5.3575 21.3246 5.11459C21.0756 4.51875 20.7013 4.04514 20.2017 3.69375C19.7021 3.34236 19.1353 3.16667 18.5013 3.16667C17.603 3.16667 16.8498 3.4707 16.2417 4.07875C15.6337 4.68681 15.3296 5.44077 15.3296 6.34063C15.3296 7.24049 15.6337 7.99368 16.2417 8.60021C16.8498 9.20674 17.603 9.51077 18.5013 9.5123C18.8267 9.5123 19.0987 9.6223 19.3171 9.8423C19.5356 10.0623 19.6456 10.3342 19.6471 10.6581V14.4669L34.3046 21.0233C35.0609 21.3701 35.672 21.898 36.138 22.6069C36.6024 23.3158 36.8346 24.0904 36.8346 24.9306C36.8346 26.0872 36.4282 27.0756 35.6155 27.896C34.8042 28.7149 33.818 29.1244 32.6569 29.1244H28.2409V38.424C28.2409 39.4415 27.878 40.3123 27.1523 41.0365C26.4266 41.7606 25.5558 42.1235 24.5398 42.125H12.4651ZM4.30214 26.8327H9.12839C9.43089 26.1758 9.87394 25.6517 10.4576 25.2606C11.0427 24.8695 11.7057 24.674 12.4467 24.674H24.5582C25.2976 24.674 25.9599 24.8695 26.5451 25.2606C27.1287 25.6502 27.5717 26.1742 27.8742 26.8327H32.6569C33.1886 26.8327 33.6362 26.6494 33.9998 26.2827C34.3619 25.916 34.543 25.4615 34.543 24.9192C34.543 24.5525 34.4513 24.2065 34.268 23.881C34.0846 23.5556 33.8096 23.3112 33.443 23.1477L18.5013 16.495L3.60547 23.1477C3.2388 23.3127 2.95616 23.5572 2.75755 23.881C2.55894 24.2049 2.45964 24.551 2.45964 24.9192C2.45964 25.46 2.63227 25.9145 2.97755 26.2827C3.32283 26.6494 3.76436 26.8327 4.30214 26.8327Z" fill="#1C262B"/>
</svg>
