<svg width="527" height="305" viewBox="0 0 527 305" fill="none" xmlns="http://www.w3.org/2000/svg">
<path d="M20.34 286.67C20.34 287.3 20.06 287.815 19.5 288.215C18.94 288.615 18.145 288.815 17.115 288.815C16.605 288.815 16.15 288.76 15.75 288.65C15.35 288.54 15.015 288.39 14.745 288.2C14.475 288 14.265 287.77 14.115 287.51C13.975 287.25 13.905 286.97 13.905 286.67C13.905 286.11 14.185 285.61 14.745 285.17C15.305 284.73 16.095 284.51 17.115 284.51C17.625 284.51 18.08 284.57 18.48 284.69C18.88 284.8 19.215 284.955 19.485 285.155C19.765 285.345 19.975 285.57 20.115 285.83C20.265 286.09 20.34 286.37 20.34 286.67ZM18.675 287.585C19.005 287.335 19.17 287.03 19.17 286.67C19.17 286.32 19.005 286.02 18.675 285.77C18.355 285.51 17.835 285.38 17.115 285.38C16.735 285.38 16.415 285.415 16.155 285.485C15.895 285.555 15.685 285.65 15.525 285.77C15.365 285.89 15.245 286.03 15.165 286.19C15.095 286.34 15.06 286.5 15.06 286.67C15.06 287.02 15.215 287.325 15.525 287.585C15.845 287.835 16.375 287.96 17.115 287.96C17.845 287.96 18.365 287.835 18.675 287.585ZM23.715 292.28H22.56V291.725H19.425V290.915H22.56V284.66H23.715V292.28ZM22.02 290.03C21.74 290.08 21.41 290.125 21.03 290.165C20.65 290.195 20.235 290.225 19.785 290.255C19.335 290.285 18.88 290.31 18.42 290.33C17.96 290.35 17.515 290.36 17.085 290.36V292.25H15.9V290.39H12.87V289.49H14.295C14.775 289.49 15.345 289.49 16.005 289.49C16.675 289.48 17.37 289.465 18.09 289.445C18.81 289.425 19.51 289.39 20.19 289.34C20.87 289.29 21.48 289.22 22.02 289.13V290.03ZM23.985 297.83H15.33C15.21 297.83 15.125 297.805 15.075 297.755C15.035 297.715 15.015 297.635 15.015 297.515V295.205C15.015 295.085 15.035 295.005 15.075 294.965C15.125 294.915 15.21 294.89 15.33 294.89H22.44V293.855H15.015V292.925H23.37C23.49 292.925 23.57 292.95 23.61 293C23.66 293.04 23.685 293.12 23.685 293.24V295.445C23.685 295.565 23.66 295.65 23.61 295.7C23.57 295.74 23.49 295.76 23.37 295.76H16.275V296.9H23.985V297.83Z" fill="#1C262B"/>
<path d="M7.59 11.605C7.31 11.465 7.01 11.3 6.69 11.11C6.38 10.92 6.075 10.7 5.775 10.45C5.475 10.21 5.195 9.94 4.935 9.64C4.675 9.34 4.46 9.01 4.29 8.65C4.15 9.03 3.96 9.385 3.72 9.715C3.48 10.045 3.21 10.355 2.91 10.645C2.61 10.925 2.29 11.18 1.95 11.41C1.62 11.64 1.29 11.84 0.96 12.01L0.045 11.17C0.555 10.94 1.025 10.675 1.455 10.375C1.895 10.065 2.28 9.7 2.61 9.28C2.93 8.88 3.18 8.43 3.36 7.93C3.55 7.42 3.645 6.85 3.645 6.22V4.99H4.89V6.235C4.89 6.805 4.985 7.33 5.175 7.81C5.365 8.28 5.62 8.7 5.94 9.07C6.26 9.45 6.63 9.775 7.05 10.045C7.47 10.305 7.905 10.515 8.355 10.675L7.59 11.605ZM10.95 12.685H9.78V4.66H10.95V7.765H12.81V8.785H10.95V12.685ZM11.25 15.535C11.25 16.375 10.845 17.025 10.035 17.485C9.225 17.965 8.13 18.205 6.75 18.205C5.38 18.205 4.285 17.965 3.465 17.485C2.655 17.005 2.25 16.355 2.25 15.535C2.25 15.135 2.355 14.77 2.565 14.44C2.785 14.1 3.09 13.815 3.48 13.585C3.87 13.355 4.335 13.175 4.875 13.045C5.425 12.915 6.045 12.85 6.735 12.85C8.135 12.85 9.23 13.095 10.02 13.585C10.84 14.075 11.25 14.725 11.25 15.535ZM6.735 17.275C7.685 17.275 8.465 17.12 9.075 16.81C9.695 16.51 10.005 16.09 10.005 15.55C10.005 15.01 9.695 14.59 9.075 14.29C8.465 13.98 7.685 13.825 6.735 13.825C6.275 13.825 5.845 13.865 5.445 13.945C5.055 14.025 4.715 14.135 4.425 14.275C3.815 14.585 3.51 15.005 3.51 15.535C3.51 15.805 3.59 16.045 3.75 16.255C3.92 16.475 4.15 16.66 4.44 16.81C5.02 17.12 5.785 17.275 6.735 17.275ZM23.9711 9.67C23.5211 9.57 23.0661 9.435 22.6061 9.265C22.1561 9.095 21.7211 8.89 21.3011 8.65C20.8811 8.42 20.4961 8.155 20.1461 7.855C19.7961 7.545 19.5161 7.2 19.3061 6.82C19.0861 7.2 18.8061 7.54 18.4661 7.84C18.1361 8.14 17.7611 8.41 17.3411 8.65C16.9211 8.88 16.4811 9.08 16.0211 9.25C15.5611 9.42 15.0911 9.56 14.6111 9.67L13.8311 8.785C14.4411 8.655 15.0361 8.485 15.6161 8.275C16.1961 8.055 16.7111 7.795 17.1611 7.495C17.6111 7.195 17.9711 6.855 18.2411 6.475C18.5111 6.095 18.6461 5.665 18.6461 5.185V4.69H19.9511V5.185C19.9511 5.695 20.1011 6.15 20.4011 6.55C20.7011 6.94 21.0911 7.285 21.5711 7.585C22.0511 7.875 22.5661 8.12 23.1161 8.32C23.6761 8.52 24.2161 8.675 24.7361 8.785L23.9711 9.67ZM25.3811 11.845H13.2011V10.84H25.3811V11.845ZM23.7311 16.645C23.4411 17.125 22.9161 17.505 22.1561 17.785C21.3961 18.065 20.4411 18.205 19.2911 18.205C18.5211 18.205 17.8411 18.14 17.2511 18.01C16.6611 17.88 16.1611 17.7 15.7511 17.47C15.3511 17.24 15.0461 16.965 14.8361 16.645C14.6361 16.325 14.5361 15.975 14.5361 15.595C14.5361 15.225 14.6361 14.88 14.8361 14.56C15.0461 14.24 15.3511 13.965 15.7511 13.735C16.1611 13.505 16.6611 13.325 17.2511 13.195C17.8411 13.065 18.5211 13 19.2911 13C20.0611 13 20.7411 13.065 21.3311 13.195C21.9211 13.325 22.4161 13.505 22.8161 13.735C23.2261 13.965 23.5311 14.24 23.7311 14.56C23.9411 14.88 24.0461 15.225 24.0461 15.595C24.0461 15.985 23.9411 16.335 23.7311 16.645ZM21.7511 16.81C22.3911 16.53 22.7111 16.13 22.7111 15.61C22.7111 15.09 22.3911 14.68 21.7511 14.38C21.1211 14.08 20.3011 13.93 19.2911 13.93C18.2411 13.93 17.4061 14.075 16.7861 14.365C16.1661 14.655 15.8561 15.065 15.8561 15.595C15.8561 16.105 16.1661 16.505 16.7861 16.795C17.4061 17.095 18.2411 17.245 19.2911 17.245C20.2311 17.245 21.0511 17.1 21.7511 16.81ZM36.7371 9.76H27.9321C27.8121 9.76 27.7271 9.74 27.6771 9.7C27.6371 9.65 27.6171 9.565 27.6171 9.445V7.255C27.6171 7.135 27.6371 7.055 27.6771 7.015C27.7271 6.965 27.8121 6.94 27.9321 6.94H35.1771V5.815H27.6171V4.945H36.1371C36.2571 4.945 36.3371 4.97 36.3771 5.02C36.4271 5.06 36.4521 5.14 36.4521 5.26V7.45C36.4521 7.57 36.4271 7.655 36.3771 7.705C36.3371 7.745 36.2571 7.765 36.1371 7.765H28.8771V8.905H36.7371V9.76ZM36.8421 17.83H27.9321C27.8121 17.83 27.7271 17.805 27.6771 17.755C27.6371 17.715 27.6171 17.635 27.6171 17.515V15.25C27.6171 15.13 27.6371 15.05 27.6771 15.01C27.7271 14.96 27.8121 14.935 27.9321 14.935H35.2521V13.765H27.6171V12.895H29.3271V11.635H25.9971V10.75H38.1621V11.635H34.8921V12.895H36.1971C36.3171 12.895 36.3971 12.92 36.4371 12.97C36.4871 13.01 36.5121 13.09 36.5121 13.21V15.46C36.5121 15.58 36.4871 15.665 36.4371 15.715C36.3971 15.755 36.3171 15.775 36.1971 15.775H28.8771V16.96H36.8421V17.83ZM33.7071 12.895V11.635H30.4971V12.895H33.7071ZM42.2732 18.43C41.7932 17.94 41.3632 17.405 40.9832 16.825C40.6132 16.245 40.2932 15.645 40.0232 15.025C39.7632 14.395 39.5632 13.76 39.4232 13.12C39.2932 12.47 39.2282 11.84 39.2282 11.23C39.2282 10.62 39.2982 9.995 39.4382 9.355C39.5782 8.705 39.7782 8.07 40.0382 7.45C40.2982 6.83 40.6132 6.23 40.9832 5.65C41.3632 5.07 41.7932 4.53 42.2732 4.03H43.1732C42.2632 5.21 41.5982 6.41 41.1782 7.63C40.7682 8.85 40.5632 10.05 40.5632 11.23C40.5632 12.41 40.7682 13.61 41.1782 14.83C41.5982 16.05 42.2632 17.25 43.1732 18.43H42.2732ZM46.6917 16.48H45.5817L51.5067 5.23H52.6167L46.6917 16.48ZM47.6367 10.42C47.4367 10.69 47.1867 10.905 46.8867 11.065C46.5867 11.225 46.2367 11.305 45.8367 11.305C45.4467 11.305 45.1017 11.225 44.8017 11.065C44.5017 10.905 44.2467 10.69 44.0367 10.42C43.8367 10.15 43.6867 9.84 43.5867 9.49C43.4867 9.13 43.4367 8.755 43.4367 8.365C43.4367 7.975 43.4867 7.605 43.5867 7.255C43.6867 6.895 43.8367 6.58 44.0367 6.31C44.2467 6.04 44.5017 5.825 44.8017 5.665C45.1017 5.495 45.4467 5.41 45.8367 5.41C46.2367 5.41 46.5867 5.495 46.8867 5.665C47.1867 5.825 47.4367 6.04 47.6367 6.31C47.8367 6.58 47.9867 6.895 48.0867 7.255C48.1967 7.605 48.2517 7.975 48.2517 8.365C48.2517 8.755 48.1967 9.13 48.0867 9.49C47.9867 9.84 47.8367 10.15 47.6367 10.42ZM54.1467 15.67C53.9467 15.94 53.6967 16.155 53.3967 16.315C53.0967 16.485 52.7517 16.57 52.3617 16.57C51.9717 16.57 51.6267 16.485 51.3267 16.315C51.0267 16.155 50.7717 15.94 50.5617 15.67C50.3617 15.4 50.2117 15.09 50.1117 14.74C50.0117 14.38 49.9617 14.005 49.9617 13.615C49.9617 13.225 50.0117 12.855 50.1117 12.505C50.2117 12.145 50.3617 11.83 50.5617 11.56C50.7717 11.29 51.0267 11.075 51.3267 10.915C51.6267 10.755 51.9717 10.675 52.3617 10.675C52.7517 10.675 53.0967 10.755 53.3967 10.915C53.6967 11.075 53.9467 11.29 54.1467 11.56C54.3567 11.83 54.5117 12.145 54.6117 12.505C54.7217 12.855 54.7767 13.225 54.7767 13.615C54.7767 14.005 54.7217 14.38 54.6117 14.74C54.5117 15.09 54.3567 15.4 54.1467 15.67ZM46.4517 10.3C46.7217 10.1 46.9117 9.825 47.0217 9.475C47.1317 9.125 47.1867 8.76 47.1867 8.38C47.1867 8.13 47.1617 7.875 47.1117 7.615C47.0717 7.355 46.9967 7.125 46.8867 6.925C46.7767 6.725 46.6317 6.56 46.4517 6.43C46.2817 6.3 46.0717 6.235 45.8217 6.235C45.5617 6.235 45.3467 6.3 45.1767 6.43C45.0167 6.56 44.8867 6.725 44.7867 6.925C44.6867 7.125 44.6167 7.355 44.5767 7.615C44.5367 7.875 44.5167 8.13 44.5167 8.38C44.5167 8.63 44.5367 8.88 44.5767 9.13C44.6167 9.38 44.6867 9.605 44.7867 9.805C44.8867 10.005 45.0167 10.17 45.1767 10.3C45.3467 10.42 45.5617 10.48 45.8217 10.48C46.0717 10.48 46.2817 10.42 46.4517 10.3ZM52.9767 15.55C53.2467 15.35 53.4367 15.075 53.5467 14.725C53.6567 14.375 53.7117 14.01 53.7117 13.63C53.7117 13.38 53.6867 13.13 53.6367 12.88C53.5967 12.62 53.5217 12.39 53.4117 12.19C53.3017 11.99 53.1567 11.83 52.9767 11.71C52.8067 11.58 52.5967 11.515 52.3467 11.515C52.0867 11.515 51.8717 11.58 51.7017 11.71C51.5417 11.83 51.4117 11.99 51.3117 12.19C51.2117 12.39 51.1417 12.62 51.1017 12.88C51.0617 13.13 51.0417 13.38 51.0417 13.63C51.0417 13.88 51.0617 14.13 51.1017 14.38C51.1417 14.63 51.2117 14.855 51.3117 15.055C51.4117 15.255 51.5417 15.42 51.7017 15.55C51.8717 15.67 52.0867 15.73 52.3467 15.73C52.5967 15.73 52.8067 15.67 52.9767 15.55ZM55.4821 18.43C56.3921 17.25 57.0521 16.05 57.4621 14.83C57.8821 13.61 58.0921 12.41 58.0921 11.23C58.0921 10.05 57.8821 8.85 57.4621 7.63C57.0521 6.41 56.3921 5.21 55.4821 4.03H56.3821C56.8621 4.53 57.2871 5.07 57.6571 5.65C58.0371 6.23 58.3571 6.83 58.6171 7.45C58.8771 8.07 59.0771 8.705 59.2171 9.355C59.3571 9.995 59.4271 10.62 59.4271 11.23C59.4271 11.84 59.3571 12.47 59.2171 13.12C59.0871 13.76 58.8871 14.395 58.6171 15.025C58.3571 15.645 58.0371 16.245 57.6571 16.825C57.2871 17.405 56.8621 17.94 56.3821 18.43H55.4821Z" fill="#1C262B"/>
<path d="M11.744 57.344C11.9253 58.9013 12.7733 59.68 14.288 59.68C15.088 59.68 15.712 59.472 16.16 59.056C16.6187 58.64 16.848 58.048 16.848 57.28C16.848 56.8853 16.7733 56.5493 16.624 56.272C16.4747 55.984 16.2773 55.7493 16.032 55.568C15.7867 55.3867 15.504 55.2533 15.184 55.168C14.864 55.072 14.5387 55.0187 14.208 55.008H13.568C13.4507 55.008 13.376 54.9973 13.344 54.976C13.3227 54.944 13.312 54.8693 13.312 54.752V54.16C13.312 54.032 13.3227 53.9467 13.344 53.904C13.376 53.8613 13.4507 53.84 13.568 53.84H14.096C14.4267 53.8293 14.7413 53.7867 15.04 53.712C15.3387 53.6267 15.6 53.504 15.824 53.344C16.0587 53.1733 16.2453 52.96 16.384 52.704C16.5227 52.448 16.592 52.1333 16.592 51.76C16.592 51.0773 16.368 50.56 15.92 50.208C15.4827 49.8453 14.928 49.664 14.256 49.664C12.8373 49.664 12.0587 50.368 11.92 51.776H10.64C10.6507 51.2853 10.7467 50.8427 10.928 50.448C11.1093 50.0427 11.36 49.7013 11.68 49.424C12 49.1467 12.3787 48.9333 12.816 48.784C13.264 48.6347 13.76 48.56 14.304 48.56C14.784 48.56 15.2373 48.624 15.664 48.752C16.0907 48.8693 16.4693 49.056 16.8 49.312C17.1307 49.568 17.392 49.8933 17.584 50.288C17.776 50.6827 17.872 51.152 17.872 51.696C17.872 52.0373 17.8133 52.3627 17.696 52.672C17.5893 52.9707 17.4293 53.2427 17.216 53.488C17.0133 53.7333 16.7627 53.9413 16.464 54.112C16.176 54.2827 15.856 54.4 15.504 54.464C15.8987 54.5173 16.256 54.6293 16.576 54.8C16.896 54.9707 17.168 55.184 17.392 55.44C17.6267 55.696 17.808 55.9947 17.936 56.336C18.064 56.6773 18.128 57.04 18.128 57.424C18.128 58.0213 18.016 58.5333 17.792 58.96C17.5787 59.376 17.2907 59.7227 16.928 60C16.576 60.2667 16.1653 60.464 15.696 60.592C15.2267 60.72 14.7413 60.784 14.24 60.784C13.664 60.784 13.1467 60.704 12.688 60.544C12.2293 60.3947 11.84 60.1707 11.52 59.872C11.2 59.5733 10.9493 59.2107 10.768 58.784C10.5867 58.3573 10.4907 57.8773 10.48 57.344H11.744ZM24.1996 59.44C24.5516 59.2267 24.829 58.928 25.0316 58.544C25.245 58.16 25.405 57.7387 25.5116 57.28C25.629 56.8213 25.7036 56.3573 25.7356 55.888C25.7676 55.4187 25.7836 54.992 25.7836 54.608C25.7836 54.16 25.757 53.6427 25.7036 53.056C25.6503 52.4587 25.533 51.8933 25.3516 51.36C25.181 50.8267 24.925 50.3787 24.5836 50.016C24.2423 49.6427 23.7836 49.456 23.2076 49.456C22.6423 49.456 22.1943 49.6427 21.8636 50.016C21.5436 50.3787 21.2983 50.8267 21.1276 51.36C20.9676 51.8933 20.8663 52.4587 20.8236 53.056C20.781 53.6427 20.7596 54.16 20.7596 54.608C20.7596 54.9067 20.765 55.2373 20.7756 55.6C20.797 55.9627 20.8343 56.336 20.8876 56.72C20.941 57.0933 21.021 57.4613 21.1276 57.824C21.2343 58.176 21.3783 58.4907 21.5596 58.768C21.741 59.0453 21.965 59.2693 22.2316 59.44C22.4983 59.6107 22.8236 59.696 23.2076 59.696C23.6023 59.696 23.933 59.6107 24.1996 59.44ZM26.3596 58.832C26.0823 59.4187 25.6876 59.8933 25.1756 60.256C24.6636 60.6293 24.0076 60.816 23.2076 60.816C22.4183 60.816 21.7783 60.6293 21.2876 60.256C20.797 59.8933 20.413 59.4187 20.1356 58.832C19.8583 58.2453 19.6716 57.584 19.5756 56.848C19.4796 56.1013 19.4316 55.3547 19.4316 54.608C19.4316 53.8613 19.4796 53.1147 19.5756 52.368C19.6716 51.6213 19.8583 50.9493 20.1356 50.352C20.413 49.7547 20.797 49.2747 21.2876 48.912C21.7783 48.5387 22.4183 48.352 23.2076 48.352C24.0076 48.352 24.6583 48.5387 25.1596 48.912C25.6716 49.2747 26.0716 49.7547 26.3596 50.352C26.6476 50.9493 26.845 51.6213 26.9516 52.368C27.0583 53.1147 27.1116 53.8613 27.1116 54.608C27.1116 55.376 27.0583 56.1227 26.9516 56.848C26.845 57.5627 26.6476 58.224 26.3596 58.832ZM18 106.512H10.976C10.88 106.512 10.816 106.496 10.784 106.464C10.7627 106.432 10.752 106.368 10.752 106.272V105.312C10.9973 105.077 11.3067 104.773 11.68 104.4C12.064 104.027 12.464 103.616 12.88 103.168C13.3067 102.709 13.728 102.235 14.144 101.744C14.5707 101.253 14.9493 100.768 15.28 100.288C15.6213 99.7973 15.8987 99.3333 16.112 98.896C16.3253 98.4587 16.432 98.0747 16.432 97.744C16.4427 97.04 16.24 96.5173 15.824 96.176C15.4187 95.8347 14.896 95.664 14.256 95.664C13.6373 95.664 13.1307 95.872 12.736 96.288C12.352 96.704 12.16 97.264 12.16 97.968H10.848C10.848 97.4453 10.9333 96.976 11.104 96.56C11.2853 96.144 11.5307 95.7867 11.84 95.488C12.1493 95.1893 12.512 94.96 12.928 94.8C13.344 94.64 13.7973 94.56 14.288 94.56C14.7787 94.56 15.232 94.6293 15.648 94.768C16.0747 94.896 16.4427 95.088 16.752 95.344C17.0613 95.6 17.3013 95.92 17.472 96.304C17.6533 96.688 17.744 97.136 17.744 97.648C17.744 98.0853 17.648 98.544 17.456 99.024C17.264 99.504 17.008 99.9893 16.688 100.48C16.3787 100.96 16.0213 101.44 15.616 101.92C15.2213 102.389 14.816 102.837 14.4 103.264C13.9947 103.691 13.6 104.091 13.216 104.464C12.832 104.827 12.496 105.141 12.208 105.408H18V106.512ZM20.9036 103.664C21.0103 104.315 21.2823 104.821 21.7196 105.184C22.1676 105.536 22.717 105.712 23.3676 105.712C23.6983 105.712 24.0076 105.648 24.2956 105.52C24.5943 105.381 24.845 105.184 25.0476 104.928C25.261 104.672 25.4263 104.368 25.5436 104.016C25.6716 103.653 25.7356 103.248 25.7356 102.8C25.7356 101.808 25.5116 101.072 25.0636 100.592C24.6263 100.101 24.0663 99.856 23.3836 99.856C22.8396 99.856 22.3703 99.9893 21.9756 100.256C21.581 100.523 21.3143 100.896 21.1756 101.376C21.1436 101.461 21.1116 101.531 21.0796 101.584C21.0476 101.627 20.973 101.648 20.8556 101.648H20.0876C19.9916 101.648 19.933 101.637 19.9116 101.616C19.8903 101.584 19.8796 101.515 19.8796 101.408L20.0556 95.136C20.0663 95.0187 20.0876 94.9387 20.1196 94.896C20.1516 94.8533 20.2156 94.832 20.3116 94.832H26.4076V95.92H21.2876L21.0636 99.856C21.309 99.5147 21.6556 99.2533 22.1036 99.072C22.5623 98.8907 23.0796 98.8 23.6556 98.8C24.1143 98.8 24.5463 98.8853 24.9516 99.056C25.3676 99.216 25.725 99.4613 26.0236 99.792C26.333 100.112 26.573 100.523 26.7436 101.024C26.925 101.525 27.0156 102.112 27.0156 102.784C27.0156 103.371 26.925 103.909 26.7436 104.4C26.573 104.891 26.3276 105.312 26.0076 105.664C25.6876 106.016 25.2983 106.288 24.8396 106.48C24.381 106.683 23.8743 106.784 23.3196 106.784C22.8183 106.784 22.349 106.715 21.9116 106.576C21.4743 106.448 21.0903 106.251 20.7596 105.984C20.4396 105.717 20.1783 105.392 19.9756 105.008C19.7836 104.613 19.6716 104.165 19.6396 103.664H20.9036ZM18 152.512H10.976C10.88 152.512 10.816 152.496 10.784 152.464C10.7627 152.432 10.752 152.368 10.752 152.272V151.312C10.9973 151.077 11.3067 150.773 11.68 150.4C12.064 150.027 12.464 149.616 12.88 149.168C13.3067 148.709 13.728 148.235 14.144 147.744C14.5707 147.253 14.9493 146.768 15.28 146.288C15.6213 145.797 15.8987 145.333 16.112 144.896C16.3253 144.459 16.432 144.075 16.432 143.744C16.4427 143.04 16.24 142.517 15.824 142.176C15.4187 141.835 14.896 141.664 14.256 141.664C13.6373 141.664 13.1307 141.872 12.736 142.288C12.352 142.704 12.16 143.264 12.16 143.968H10.848C10.848 143.445 10.9333 142.976 11.104 142.56C11.2853 142.144 11.5307 141.787 11.84 141.488C12.1493 141.189 12.512 140.96 12.928 140.8C13.344 140.64 13.7973 140.56 14.288 140.56C14.7787 140.56 15.232 140.629 15.648 140.768C16.0747 140.896 16.4427 141.088 16.752 141.344C17.0613 141.6 17.3013 141.92 17.472 142.304C17.6533 142.688 17.744 143.136 17.744 143.648C17.744 144.085 17.648 144.544 17.456 145.024C17.264 145.504 17.008 145.989 16.688 146.48C16.3787 146.96 16.0213 147.44 15.616 147.92C15.2213 148.389 14.816 148.837 14.4 149.264C13.9947 149.691 13.6 150.091 13.216 150.464C12.832 150.827 12.496 151.141 12.208 151.408H18V152.512ZM24.1996 151.44C24.5516 151.227 24.829 150.928 25.0316 150.544C25.245 150.16 25.405 149.739 25.5116 149.28C25.629 148.821 25.7036 148.357 25.7356 147.888C25.7676 147.419 25.7836 146.992 25.7836 146.608C25.7836 146.16 25.757 145.643 25.7036 145.056C25.6503 144.459 25.533 143.893 25.3516 143.36C25.181 142.827 24.925 142.379 24.5836 142.016C24.2423 141.643 23.7836 141.456 23.2076 141.456C22.6423 141.456 22.1943 141.643 21.8636 142.016C21.5436 142.379 21.2983 142.827 21.1276 143.36C20.9676 143.893 20.8663 144.459 20.8236 145.056C20.781 145.643 20.7596 146.16 20.7596 146.608C20.7596 146.907 20.765 147.237 20.7756 147.6C20.797 147.963 20.8343 148.336 20.8876 148.72C20.941 149.093 21.021 149.461 21.1276 149.824C21.2343 150.176 21.3783 150.491 21.5596 150.768C21.741 151.045 21.965 151.269 22.2316 151.44C22.4983 151.611 22.8236 151.696 23.2076 151.696C23.6023 151.696 23.933 151.611 24.1996 151.44ZM26.3596 150.832C26.0823 151.419 25.6876 151.893 25.1756 152.256C24.6636 152.629 24.0076 152.816 23.2076 152.816C22.4183 152.816 21.7783 152.629 21.2876 152.256C20.797 151.893 20.413 151.419 20.1356 150.832C19.8583 150.245 19.6716 149.584 19.5756 148.848C19.4796 148.101 19.4316 147.355 19.4316 146.608C19.4316 145.861 19.4796 145.115 19.5756 144.368C19.6716 143.621 19.8583 142.949 20.1356 142.352C20.413 141.755 20.797 141.275 21.2876 140.912C21.7783 140.539 22.4183 140.352 23.2076 140.352C24.0076 140.352 24.6583 140.539 25.1596 140.912C25.6716 141.275 26.0716 141.755 26.3596 142.352C26.6476 142.949 26.845 143.621 26.9516 144.368C27.0583 145.115 27.1116 145.861 27.1116 146.608C27.1116 147.376 27.0583 148.123 26.9516 148.848C26.845 149.563 26.6476 150.224 26.3596 150.832ZM15.568 198.512H14.304V188.208C14.016 188.517 13.6587 188.811 13.232 189.088C12.8053 189.365 12.3307 189.637 11.808 189.904V188.688C12.288 188.475 12.736 188.213 13.152 187.904C13.5787 187.584 13.9787 187.227 14.352 186.832H15.264C15.3813 186.832 15.4613 186.853 15.504 186.896C15.5467 186.939 15.568 187.019 15.568 187.136V198.512ZM20.9036 195.664C21.0103 196.315 21.2823 196.821 21.7196 197.184C22.1676 197.536 22.717 197.712 23.3676 197.712C23.6983 197.712 24.0076 197.648 24.2956 197.52C24.5943 197.381 24.845 197.184 25.0476 196.928C25.261 196.672 25.4263 196.368 25.5436 196.016C25.6716 195.653 25.7356 195.248 25.7356 194.8C25.7356 193.808 25.5116 193.072 25.0636 192.592C24.6263 192.101 24.0663 191.856 23.3836 191.856C22.8396 191.856 22.3703 191.989 21.9756 192.256C21.581 192.523 21.3143 192.896 21.1756 193.376C21.1436 193.461 21.1116 193.531 21.0796 193.584C21.0476 193.627 20.973 193.648 20.8556 193.648H20.0876C19.9916 193.648 19.933 193.637 19.9116 193.616C19.8903 193.584 19.8796 193.515 19.8796 193.408L20.0556 187.136C20.0663 187.019 20.0876 186.939 20.1196 186.896C20.1516 186.853 20.2156 186.832 20.3116 186.832H26.4076V187.92H21.2876L21.0636 191.856C21.309 191.515 21.6556 191.253 22.1036 191.072C22.5623 190.891 23.0796 190.8 23.6556 190.8C24.1143 190.8 24.5463 190.885 24.9516 191.056C25.3676 191.216 25.725 191.461 26.0236 191.792C26.333 192.112 26.573 192.523 26.7436 193.024C26.925 193.525 27.0156 194.112 27.0156 194.784C27.0156 195.371 26.925 195.909 26.7436 196.4C26.573 196.891 26.3276 197.312 26.0076 197.664C25.6876 198.016 25.2983 198.288 24.8396 198.48C24.381 198.683 23.8743 198.784 23.3196 198.784C22.8183 198.784 22.349 198.715 21.9116 198.576C21.4743 198.448 21.0903 198.251 20.7596 197.984C20.4396 197.717 20.1783 197.392 19.9756 197.008C19.7836 196.613 19.6716 196.165 19.6396 195.664H20.9036ZM15.568 244.512H14.304V234.208C14.016 234.517 13.6587 234.811 13.232 235.088C12.8053 235.365 12.3307 235.637 11.808 235.904V234.688C12.288 234.475 12.736 234.213 13.152 233.904C13.5787 233.584 13.9787 233.227 14.352 232.832H15.264C15.3813 232.832 15.4613 232.853 15.504 232.896C15.5467 232.939 15.568 233.019 15.568 233.136V244.512ZM24.1996 243.44C24.5516 243.227 24.829 242.928 25.0316 242.544C25.245 242.16 25.405 241.739 25.5116 241.28C25.629 240.821 25.7036 240.357 25.7356 239.888C25.7676 239.419 25.7836 238.992 25.7836 238.608C25.7836 238.16 25.757 237.643 25.7036 237.056C25.6503 236.459 25.533 235.893 25.3516 235.36C25.181 234.827 24.925 234.379 24.5836 234.016C24.2423 233.643 23.7836 233.456 23.2076 233.456C22.6423 233.456 22.1943 233.643 21.8636 234.016C21.5436 234.379 21.2983 234.827 21.1276 235.36C20.9676 235.893 20.8663 236.459 20.8236 237.056C20.781 237.643 20.7596 238.16 20.7596 238.608C20.7596 238.907 20.765 239.237 20.7756 239.6C20.797 239.963 20.8343 240.336 20.8876 240.72C20.941 241.093 21.021 241.461 21.1276 241.824C21.2343 242.176 21.3783 242.491 21.5596 242.768C21.741 243.045 21.965 243.269 22.2316 243.44C22.4983 243.611 22.8236 243.696 23.2076 243.696C23.6023 243.696 23.933 243.611 24.1996 243.44ZM26.3596 242.832C26.0823 243.419 25.6876 243.893 25.1756 244.256C24.6636 244.629 24.0076 244.816 23.2076 244.816C22.4183 244.816 21.7783 244.629 21.2876 244.256C20.797 243.893 20.413 243.419 20.1356 242.832C19.8583 242.245 19.6716 241.584 19.5756 240.848C19.4796 240.101 19.4316 239.355 19.4316 238.608C19.4316 237.861 19.4796 237.115 19.5756 236.368C19.6716 235.621 19.8583 234.949 20.1356 234.352C20.413 233.755 20.797 233.275 21.2876 232.912C21.7783 232.539 22.4183 232.352 23.2076 232.352C24.0076 232.352 24.6583 232.539 25.1596 232.912C25.6716 233.275 26.0716 233.755 26.3596 234.352C26.6476 234.949 26.845 235.621 26.9516 236.368C27.0583 237.115 27.1116 237.861 27.1116 238.608C27.1116 239.376 27.0583 240.123 26.9516 240.848C26.845 241.563 26.6476 242.224 26.3596 242.832Z" fill="#1C262B"/>
<path d="M457.504 297.44C457.856 297.227 458.133 296.928 458.336 296.544C458.549 296.16 458.709 295.739 458.816 295.28C458.933 294.821 459.008 294.357 459.04 293.888C459.072 293.419 459.088 292.992 459.088 292.608C459.088 292.16 459.061 291.643 459.008 291.056C458.955 290.459 458.837 289.893 458.656 289.36C458.485 288.827 458.229 288.379 457.888 288.016C457.547 287.643 457.088 287.456 456.512 287.456C455.947 287.456 455.499 287.643 455.168 288.016C454.848 288.379 454.603 288.827 454.432 289.36C454.272 289.893 454.171 290.459 454.128 291.056C454.085 291.643 454.064 292.16 454.064 292.608C454.064 292.907 454.069 293.237 454.08 293.6C454.101 293.963 454.139 294.336 454.192 294.72C454.245 295.093 454.325 295.461 454.432 295.824C454.539 296.176 454.683 296.491 454.864 296.768C455.045 297.045 455.269 297.269 455.536 297.44C455.803 297.611 456.128 297.696 456.512 297.696C456.907 297.696 457.237 297.611 457.504 297.44ZM459.664 296.832C459.387 297.419 458.992 297.893 458.48 298.256C457.968 298.629 457.312 298.816 456.512 298.816C455.723 298.816 455.083 298.629 454.592 298.256C454.101 297.893 453.717 297.419 453.44 296.832C453.163 296.245 452.976 295.584 452.88 294.848C452.784 294.101 452.736 293.355 452.736 292.608C452.736 291.861 452.784 291.115 452.88 290.368C452.976 289.621 453.163 288.949 453.44 288.352C453.717 287.755 454.101 287.275 454.592 286.912C455.083 286.539 455.723 286.352 456.512 286.352C457.312 286.352 457.963 286.539 458.464 286.912C458.976 287.275 459.376 287.755 459.664 288.352C459.952 288.949 460.149 289.621 460.256 290.368C460.363 291.115 460.416 291.861 460.416 292.608C460.416 293.376 460.363 294.123 460.256 294.848C460.149 295.563 459.952 296.224 459.664 296.832ZM466.92 291.312C467.133 291.131 467.304 290.912 467.432 290.656C467.56 290.389 467.624 290.085 467.624 289.744C467.624 289.424 467.56 289.136 467.432 288.88C467.304 288.613 467.133 288.389 466.92 288.208C466.706 288.016 466.45 287.872 466.152 287.776C465.853 287.68 465.538 287.632 465.208 287.632C464.877 287.632 464.562 287.68 464.264 287.776C463.976 287.872 463.72 288.016 463.496 288.208C463.282 288.389 463.112 288.613 462.984 288.88C462.856 289.136 462.792 289.424 462.792 289.744C462.792 290.085 462.85 290.389 462.968 290.656C463.096 290.912 463.266 291.131 463.48 291.312C463.693 291.483 463.949 291.616 464.248 291.712C464.546 291.808 464.866 291.856 465.208 291.856C465.538 291.856 465.853 291.808 466.152 291.712C466.45 291.616 466.706 291.483 466.92 291.312ZM467.08 297.056C467.538 296.629 467.768 296.064 467.768 295.36C467.768 294.976 467.693 294.64 467.544 294.352C467.394 294.053 467.197 293.808 466.952 293.616C466.717 293.413 466.445 293.264 466.136 293.168C465.837 293.072 465.528 293.024 465.208 293.024C464.888 293.024 464.573 293.072 464.264 293.168C463.954 293.264 463.677 293.413 463.432 293.616C463.197 293.808 463.005 294.053 462.856 294.352C462.717 294.64 462.648 294.976 462.648 295.36C462.648 296.064 462.872 296.629 463.32 297.056C463.778 297.483 464.408 297.696 465.208 297.696C465.997 297.696 466.621 297.483 467.08 297.056ZM467.672 292.096C467.416 292.288 467.128 292.427 466.808 292.512C467.512 292.704 468.061 293.051 468.456 293.552C468.85 294.043 469.048 294.64 469.048 295.344C469.048 295.888 468.952 296.373 468.76 296.8C468.578 297.227 468.317 297.589 467.976 297.888C467.634 298.176 467.224 298.395 466.744 298.544C466.274 298.693 465.757 298.768 465.192 298.768C464.626 298.768 464.109 298.693 463.64 298.544C463.17 298.395 462.765 298.176 462.424 297.888C462.093 297.589 461.832 297.227 461.64 296.8C461.458 296.373 461.368 295.888 461.368 295.344C461.368 294.885 461.474 294.448 461.688 294.032C461.912 293.616 462.232 293.253 462.648 292.944C462.722 292.891 462.792 292.843 462.856 292.8C462.93 292.757 463.01 292.715 463.096 292.672C463.181 292.629 463.266 292.592 463.352 292.56C463.448 292.517 463.538 292.48 463.624 292.448C463.293 292.384 462.994 292.267 462.728 292.096C462.472 291.915 462.253 291.701 462.072 291.456C461.89 291.211 461.752 290.939 461.656 290.64C461.56 290.341 461.512 290.037 461.512 289.728C461.512 289.227 461.602 288.779 461.784 288.384C461.965 287.989 462.216 287.659 462.536 287.392C462.866 287.115 463.256 286.907 463.704 286.768C464.162 286.629 464.664 286.56 465.208 286.56C465.752 286.56 466.248 286.629 466.696 286.768C467.154 286.907 467.544 287.115 467.864 287.392C468.194 287.659 468.45 287.989 468.632 288.384C468.813 288.779 468.904 289.227 468.904 289.728C468.904 290.155 468.792 290.581 468.568 291.008C468.344 291.435 468.045 291.797 467.672 292.096Z" fill="#1C262B"/>
<path d="M398.504 297.44C398.856 297.227 399.133 296.928 399.336 296.544C399.549 296.16 399.709 295.739 399.816 295.28C399.933 294.821 400.008 294.357 400.04 293.888C400.072 293.419 400.088 292.992 400.088 292.608C400.088 292.16 400.061 291.643 400.008 291.056C399.955 290.459 399.837 289.893 399.656 289.36C399.485 288.827 399.229 288.379 398.888 288.016C398.547 287.643 398.088 287.456 397.512 287.456C396.947 287.456 396.499 287.643 396.168 288.016C395.848 288.379 395.603 288.827 395.432 289.36C395.272 289.893 395.171 290.459 395.128 291.056C395.085 291.643 395.064 292.16 395.064 292.608C395.064 292.907 395.069 293.237 395.08 293.6C395.101 293.963 395.139 294.336 395.192 294.72C395.245 295.093 395.325 295.461 395.432 295.824C395.539 296.176 395.683 296.491 395.864 296.768C396.045 297.045 396.269 297.269 396.536 297.44C396.803 297.611 397.128 297.696 397.512 297.696C397.907 297.696 398.237 297.611 398.504 297.44ZM400.664 296.832C400.387 297.419 399.992 297.893 399.48 298.256C398.968 298.629 398.312 298.816 397.512 298.816C396.723 298.816 396.083 298.629 395.592 298.256C395.101 297.893 394.717 297.419 394.44 296.832C394.163 296.245 393.976 295.584 393.88 294.848C393.784 294.101 393.736 293.355 393.736 292.608C393.736 291.861 393.784 291.115 393.88 290.368C393.976 289.621 394.163 288.949 394.44 288.352C394.717 287.755 395.101 287.275 395.592 286.912C396.083 286.539 396.723 286.352 397.512 286.352C398.312 286.352 398.963 286.539 399.464 286.912C399.976 287.275 400.376 287.755 400.664 288.352C400.952 288.949 401.149 289.621 401.256 290.368C401.363 291.115 401.416 291.861 401.416 292.608C401.416 293.376 401.363 294.123 401.256 294.848C401.149 295.563 400.952 296.224 400.664 296.832ZM405.376 298.512H403.952L408.336 287.936H402.464V286.832H409.376C409.578 286.832 409.68 286.933 409.68 287.136V287.744C409.68 287.829 409.664 287.909 409.632 287.984C409.61 288.059 409.584 288.128 409.552 288.192L405.376 298.512Z" fill="#1C262B"/>
<path d="M339.504 297.44C339.856 297.227 340.133 296.928 340.336 296.544C340.549 296.16 340.709 295.739 340.816 295.28C340.933 294.821 341.008 294.357 341.04 293.888C341.072 293.419 341.088 292.992 341.088 292.608C341.088 292.16 341.061 291.643 341.008 291.056C340.955 290.459 340.837 289.893 340.656 289.36C340.485 288.827 340.229 288.379 339.888 288.016C339.547 287.643 339.088 287.456 338.512 287.456C337.947 287.456 337.499 287.643 337.168 288.016C336.848 288.379 336.603 288.827 336.432 289.36C336.272 289.893 336.171 290.459 336.128 291.056C336.085 291.643 336.064 292.16 336.064 292.608C336.064 292.907 336.069 293.237 336.08 293.6C336.101 293.963 336.139 294.336 336.192 294.72C336.245 295.093 336.325 295.461 336.432 295.824C336.539 296.176 336.683 296.491 336.864 296.768C337.045 297.045 337.269 297.269 337.536 297.44C337.803 297.611 338.128 297.696 338.512 297.696C338.907 297.696 339.237 297.611 339.504 297.44ZM341.664 296.832C341.387 297.419 340.992 297.893 340.48 298.256C339.968 298.629 339.312 298.816 338.512 298.816C337.723 298.816 337.083 298.629 336.592 298.256C336.101 297.893 335.717 297.419 335.44 296.832C335.163 296.245 334.976 295.584 334.88 294.848C334.784 294.101 334.736 293.355 334.736 292.608C334.736 291.861 334.784 291.115 334.88 290.368C334.976 289.621 335.163 288.949 335.44 288.352C335.717 287.755 336.101 287.275 336.592 286.912C337.083 286.539 337.723 286.352 338.512 286.352C339.312 286.352 339.963 286.539 340.464 286.912C340.976 287.275 341.376 287.755 341.664 288.352C341.952 288.949 342.149 289.621 342.256 290.368C342.363 291.115 342.416 291.861 342.416 292.608C342.416 293.376 342.363 294.123 342.256 294.848C342.149 295.563 341.952 296.224 341.664 296.832ZM348.264 297.488C348.744 297.264 349.106 296.917 349.352 296.448C349.597 295.968 349.72 295.419 349.72 294.8C349.72 294.416 349.666 294.048 349.56 293.696C349.453 293.344 349.293 293.035 349.08 292.768C348.877 292.501 348.621 292.293 348.312 292.144C348.002 291.984 347.645 291.904 347.24 291.904C346.877 291.904 346.546 291.979 346.248 292.128C345.949 292.277 345.688 292.48 345.464 292.736C345.25 292.992 345.08 293.285 344.952 293.616C344.834 293.947 344.776 294.293 344.776 294.656C344.776 295.093 344.834 295.499 344.952 295.872C345.069 296.235 345.234 296.555 345.448 296.832C345.661 297.109 345.917 297.328 346.216 297.488C346.514 297.637 346.845 297.712 347.208 297.712C347.528 297.712 347.88 297.637 348.264 297.488ZM349.544 289.616C349.533 289.317 349.469 289.045 349.352 288.8C349.234 288.555 349.074 288.347 348.872 288.176C348.68 288.005 348.456 287.877 348.2 287.792C347.944 287.696 347.672 287.648 347.384 287.648C346.818 287.648 346.349 287.824 345.976 288.176C345.602 288.528 345.304 288.971 345.08 289.504C344.856 290.027 344.696 290.597 344.6 291.216C344.514 291.835 344.472 292.411 344.472 292.944C344.717 292.24 345.112 291.728 345.656 291.408C346.21 291.077 346.845 290.912 347.56 290.912C348.082 290.912 348.557 291.008 348.984 291.2C349.41 291.381 349.768 291.643 350.056 291.984C350.354 292.325 350.584 292.741 350.744 293.232C350.904 293.712 350.984 294.245 350.984 294.832C350.984 295.387 350.898 295.904 350.728 296.384C350.568 296.864 350.328 297.285 350.008 297.648C349.698 298 349.32 298.277 348.872 298.48C348.424 298.683 347.917 298.784 347.352 298.784C346.445 298.784 345.693 298.549 345.096 298.08C344.498 297.621 344.072 297.035 343.816 296.32C343.666 295.883 343.554 295.413 343.48 294.912C343.405 294.4 343.368 293.776 343.368 293.04C343.368 291.973 343.469 291.04 343.672 290.24C343.874 289.429 344.152 288.752 344.504 288.208C344.856 287.664 345.277 287.259 345.768 286.992C346.258 286.715 346.792 286.576 347.368 286.576C348.37 286.576 349.165 286.848 349.752 287.392C350.349 287.936 350.701 288.677 350.808 289.616H349.544Z" fill="#1C262B"/>
<path d="M280.504 297.44C280.856 297.227 281.133 296.928 281.336 296.544C281.549 296.16 281.709 295.739 281.816 295.28C281.933 294.821 282.008 294.357 282.04 293.888C282.072 293.419 282.088 292.992 282.088 292.608C282.088 292.16 282.061 291.643 282.008 291.056C281.955 290.459 281.837 289.893 281.656 289.36C281.485 288.827 281.229 288.379 280.888 288.016C280.547 287.643 280.088 287.456 279.512 287.456C278.947 287.456 278.499 287.643 278.168 288.016C277.848 288.379 277.603 288.827 277.432 289.36C277.272 289.893 277.171 290.459 277.128 291.056C277.085 291.643 277.064 292.16 277.064 292.608C277.064 292.907 277.069 293.237 277.08 293.6C277.101 293.963 277.139 294.336 277.192 294.72C277.245 295.093 277.325 295.461 277.432 295.824C277.539 296.176 277.683 296.491 277.864 296.768C278.045 297.045 278.269 297.269 278.536 297.44C278.803 297.611 279.128 297.696 279.512 297.696C279.907 297.696 280.237 297.611 280.504 297.44ZM282.664 296.832C282.387 297.419 281.992 297.893 281.48 298.256C280.968 298.629 280.312 298.816 279.512 298.816C278.723 298.816 278.083 298.629 277.592 298.256C277.101 297.893 276.717 297.419 276.44 296.832C276.163 296.245 275.976 295.584 275.88 294.848C275.784 294.101 275.736 293.355 275.736 292.608C275.736 291.861 275.784 291.115 275.88 290.368C275.976 289.621 276.163 288.949 276.44 288.352C276.717 287.755 277.101 287.275 277.592 286.912C278.083 286.539 278.723 286.352 279.512 286.352C280.312 286.352 280.963 286.539 281.464 286.912C281.976 287.275 282.376 287.755 282.664 288.352C282.952 288.949 283.149 289.621 283.256 290.368C283.363 291.115 283.416 291.861 283.416 292.608C283.416 293.376 283.363 294.123 283.256 294.848C283.149 295.563 282.952 296.224 282.664 296.832ZM285.904 295.664C286.01 296.315 286.282 296.821 286.72 297.184C287.168 297.536 287.717 297.712 288.368 297.712C288.698 297.712 289.008 297.648 289.296 297.52C289.594 297.381 289.845 297.184 290.048 296.928C290.261 296.672 290.426 296.368 290.544 296.016C290.672 295.653 290.736 295.248 290.736 294.8C290.736 293.808 290.512 293.072 290.064 292.592C289.626 292.101 289.066 291.856 288.384 291.856C287.84 291.856 287.37 291.989 286.976 292.256C286.581 292.523 286.314 292.896 286.176 293.376C286.144 293.461 286.112 293.531 286.08 293.584C286.048 293.627 285.973 293.648 285.856 293.648H285.088C284.992 293.648 284.933 293.637 284.912 293.616C284.89 293.584 284.88 293.515 284.88 293.408L285.056 287.136C285.066 287.019 285.088 286.939 285.12 286.896C285.152 286.853 285.216 286.832 285.312 286.832H291.408V287.92H286.288L286.064 291.856C286.309 291.515 286.656 291.253 287.104 291.072C287.562 290.891 288.08 290.8 288.656 290.8C289.114 290.8 289.546 290.885 289.952 291.056C290.368 291.216 290.725 291.461 291.024 291.792C291.333 292.112 291.573 292.523 291.744 293.024C291.925 293.525 292.016 294.112 292.016 294.784C292.016 295.371 291.925 295.909 291.744 296.4C291.573 296.891 291.328 297.312 291.008 297.664C290.688 298.016 290.298 298.288 289.84 298.48C289.381 298.683 288.874 298.784 288.32 298.784C287.818 298.784 287.349 298.715 286.912 298.576C286.474 298.448 286.09 298.251 285.76 297.984C285.44 297.717 285.178 297.392 284.976 297.008C284.784 296.613 284.672 296.165 284.64 295.664H285.904Z" fill="#1C262B"/>
<path d="M221.504 297.44C221.856 297.227 222.133 296.928 222.336 296.544C222.549 296.16 222.709 295.739 222.816 295.28C222.933 294.821 223.008 294.357 223.04 293.888C223.072 293.419 223.088 292.992 223.088 292.608C223.088 292.16 223.061 291.643 223.008 291.056C222.955 290.459 222.837 289.893 222.656 289.36C222.485 288.827 222.229 288.379 221.888 288.016C221.547 287.643 221.088 287.456 220.512 287.456C219.947 287.456 219.499 287.643 219.168 288.016C218.848 288.379 218.603 288.827 218.432 289.36C218.272 289.893 218.171 290.459 218.128 291.056C218.085 291.643 218.064 292.16 218.064 292.608C218.064 292.907 218.069 293.237 218.08 293.6C218.101 293.963 218.139 294.336 218.192 294.72C218.245 295.093 218.325 295.461 218.432 295.824C218.539 296.176 218.683 296.491 218.864 296.768C219.045 297.045 219.269 297.269 219.536 297.44C219.803 297.611 220.128 297.696 220.512 297.696C220.907 297.696 221.237 297.611 221.504 297.44ZM223.664 296.832C223.387 297.419 222.992 297.893 222.48 298.256C221.968 298.629 221.312 298.816 220.512 298.816C219.723 298.816 219.083 298.629 218.592 298.256C218.101 297.893 217.717 297.419 217.44 296.832C217.163 296.245 216.976 295.584 216.88 294.848C216.784 294.101 216.736 293.355 216.736 292.608C216.736 291.861 216.784 291.115 216.88 290.368C216.976 289.621 217.163 288.949 217.44 288.352C217.717 287.755 218.101 287.275 218.592 286.912C219.083 286.539 219.723 286.352 220.512 286.352C221.312 286.352 221.963 286.539 222.464 286.912C222.976 287.275 223.376 287.755 223.664 288.352C223.952 288.949 224.149 289.621 224.256 290.368C224.363 291.115 224.416 291.861 224.416 292.608C224.416 293.376 224.363 294.123 224.256 294.848C224.149 295.563 223.952 296.224 223.664 296.832ZM230.312 294.848V289.552L230.344 288.08L226.216 294.848H230.312ZM231.528 298.512H230.28V295.952H225.304C225.101 295.952 225 295.851 225 295.648V294.976C225 294.827 225.048 294.677 225.144 294.528L229.816 286.864C229.88 286.725 229.986 286.656 230.136 286.656H231.224C231.341 286.656 231.421 286.677 231.464 286.72C231.506 286.763 231.528 286.843 231.528 286.96V294.848H233.272V295.952H231.528V298.512Z" fill="#1C262B"/>
<path d="M162.504 297.44C162.856 297.227 163.133 296.928 163.336 296.544C163.549 296.16 163.709 295.739 163.816 295.28C163.933 294.821 164.008 294.357 164.04 293.888C164.072 293.419 164.088 292.992 164.088 292.608C164.088 292.16 164.061 291.643 164.008 291.056C163.955 290.459 163.837 289.893 163.656 289.36C163.485 288.827 163.229 288.379 162.888 288.016C162.547 287.643 162.088 287.456 161.512 287.456C160.947 287.456 160.499 287.643 160.168 288.016C159.848 288.379 159.603 288.827 159.432 289.36C159.272 289.893 159.171 290.459 159.128 291.056C159.085 291.643 159.064 292.16 159.064 292.608C159.064 292.907 159.069 293.237 159.08 293.6C159.101 293.963 159.139 294.336 159.192 294.72C159.245 295.093 159.325 295.461 159.432 295.824C159.539 296.176 159.683 296.491 159.864 296.768C160.045 297.045 160.269 297.269 160.536 297.44C160.803 297.611 161.128 297.696 161.512 297.696C161.907 297.696 162.237 297.611 162.504 297.44ZM164.664 296.832C164.387 297.419 163.992 297.893 163.48 298.256C162.968 298.629 162.312 298.816 161.512 298.816C160.723 298.816 160.083 298.629 159.592 298.256C159.101 297.893 158.717 297.419 158.44 296.832C158.163 296.245 157.976 295.584 157.88 294.848C157.784 294.101 157.736 293.355 157.736 292.608C157.736 291.861 157.784 291.115 157.88 290.368C157.976 289.621 158.163 288.949 158.44 288.352C158.717 287.755 159.101 287.275 159.592 286.912C160.083 286.539 160.723 286.352 161.512 286.352C162.312 286.352 162.963 286.539 163.464 286.912C163.976 287.275 164.376 287.755 164.664 288.352C164.952 288.949 165.149 289.621 165.256 290.368C165.363 291.115 165.416 291.861 165.416 292.608C165.416 293.376 165.363 294.123 165.256 294.848C165.149 295.563 164.952 296.224 164.664 296.832ZM167.44 295.344C167.621 296.901 168.469 297.68 169.984 297.68C170.784 297.68 171.408 297.472 171.856 297.056C172.314 296.64 172.544 296.048 172.544 295.28C172.544 294.885 172.469 294.549 172.32 294.272C172.17 293.984 171.973 293.749 171.728 293.568C171.482 293.387 171.2 293.253 170.88 293.168C170.56 293.072 170.234 293.019 169.904 293.008H169.264C169.146 293.008 169.072 292.997 169.04 292.976C169.018 292.944 169.008 292.869 169.008 292.752V292.16C169.008 292.032 169.018 291.947 169.04 291.904C169.072 291.861 169.146 291.84 169.264 291.84H169.792C170.122 291.829 170.437 291.787 170.736 291.712C171.034 291.627 171.296 291.504 171.52 291.344C171.754 291.173 171.941 290.96 172.08 290.704C172.218 290.448 172.288 290.133 172.288 289.76C172.288 289.077 172.064 288.56 171.616 288.208C171.178 287.845 170.624 287.664 169.952 287.664C168.533 287.664 167.754 288.368 167.616 289.776H166.336C166.346 289.285 166.442 288.843 166.624 288.448C166.805 288.043 167.056 287.701 167.376 287.424C167.696 287.147 168.074 286.933 168.512 286.784C168.96 286.635 169.456 286.56 170 286.56C170.48 286.56 170.933 286.624 171.36 286.752C171.786 286.869 172.165 287.056 172.496 287.312C172.826 287.568 173.088 287.893 173.28 288.288C173.472 288.683 173.568 289.152 173.568 289.696C173.568 290.037 173.509 290.363 173.392 290.672C173.285 290.971 173.125 291.243 172.912 291.488C172.709 291.733 172.458 291.941 172.16 292.112C171.872 292.283 171.552 292.4 171.2 292.464C171.594 292.517 171.952 292.629 172.272 292.8C172.592 292.971 172.864 293.184 173.088 293.44C173.322 293.696 173.504 293.995 173.632 294.336C173.76 294.677 173.824 295.04 173.824 295.424C173.824 296.021 173.712 296.533 173.488 296.96C173.274 297.376 172.986 297.723 172.624 298C172.272 298.267 171.861 298.464 171.392 298.592C170.922 298.72 170.437 298.784 169.936 298.784C169.36 298.784 168.842 298.704 168.384 298.544C167.925 298.395 167.536 298.171 167.216 297.872C166.896 297.573 166.645 297.211 166.464 296.784C166.282 296.357 166.186 295.877 166.176 295.344H167.44Z" fill="#1C262B"/>
<path d="M103.504 297.44C103.856 297.227 104.133 296.928 104.336 296.544C104.549 296.16 104.709 295.739 104.816 295.28C104.933 294.821 105.008 294.357 105.04 293.888C105.072 293.419 105.088 292.992 105.088 292.608C105.088 292.16 105.061 291.643 105.008 291.056C104.955 290.459 104.837 289.893 104.656 289.36C104.485 288.827 104.229 288.379 103.888 288.016C103.547 287.643 103.088 287.456 102.512 287.456C101.947 287.456 101.499 287.643 101.168 288.016C100.848 288.379 100.603 288.827 100.432 289.36C100.272 289.893 100.171 290.459 100.128 291.056C100.085 291.643 100.064 292.16 100.064 292.608C100.064 292.907 100.069 293.237 100.08 293.6C100.101 293.963 100.139 294.336 100.192 294.72C100.245 295.093 100.325 295.461 100.432 295.824C100.539 296.176 100.683 296.491 100.864 296.768C101.045 297.045 101.269 297.269 101.536 297.44C101.803 297.611 102.128 297.696 102.512 297.696C102.907 297.696 103.237 297.611 103.504 297.44ZM105.664 296.832C105.387 297.419 104.992 297.893 104.48 298.256C103.968 298.629 103.312 298.816 102.512 298.816C101.723 298.816 101.083 298.629 100.592 298.256C100.101 297.893 99.7173 297.419 99.44 296.832C99.1627 296.245 98.976 295.584 98.88 294.848C98.784 294.101 98.736 293.355 98.736 292.608C98.736 291.861 98.784 291.115 98.88 290.368C98.976 289.621 99.1627 288.949 99.44 288.352C99.7173 287.755 100.101 287.275 100.592 286.912C101.083 286.539 101.723 286.352 102.512 286.352C103.312 286.352 103.963 286.539 104.464 286.912C104.976 287.275 105.376 287.755 105.664 288.352C105.952 288.949 106.149 289.621 106.256 290.368C106.363 291.115 106.416 291.861 106.416 292.608C106.416 293.376 106.363 294.123 106.256 294.848C106.149 295.563 105.952 296.224 105.664 296.832ZM114.696 298.512H107.672C107.576 298.512 107.512 298.496 107.48 298.464C107.458 298.432 107.448 298.368 107.448 298.272V297.312C107.693 297.077 108.002 296.773 108.376 296.4C108.76 296.027 109.16 295.616 109.576 295.168C110.002 294.709 110.424 294.235 110.84 293.744C111.266 293.253 111.645 292.768 111.976 292.288C112.317 291.797 112.594 291.333 112.808 290.896C113.021 290.459 113.128 290.075 113.128 289.744C113.138 289.04 112.936 288.517 112.52 288.176C112.114 287.835 111.592 287.664 110.952 287.664C110.333 287.664 109.826 287.872 109.432 288.288C109.048 288.704 108.856 289.264 108.856 289.968H107.544C107.544 289.445 107.629 288.976 107.8 288.56C107.981 288.144 108.226 287.787 108.536 287.488C108.845 287.189 109.208 286.96 109.624 286.8C110.04 286.64 110.493 286.56 110.984 286.56C111.474 286.56 111.928 286.629 112.344 286.768C112.77 286.896 113.138 287.088 113.448 287.344C113.757 287.6 113.997 287.92 114.168 288.304C114.349 288.688 114.44 289.136 114.44 289.648C114.44 290.085 114.344 290.544 114.152 291.024C113.96 291.504 113.704 291.989 113.384 292.48C113.074 292.96 112.717 293.44 112.312 293.92C111.917 294.389 111.512 294.837 111.096 295.264C110.69 295.691 110.296 296.091 109.912 296.464C109.528 296.827 109.192 297.141 108.904 297.408H114.696V298.512Z" fill="#1C262B"/>
<mask id="path-11-inside-1_399_704" fill="white">
<path d="M50 33H527V273H50V33Z"/>
</mask>
<path d="M50 273H49V274H50V273ZM527 273V272H50V273V274H527V273ZM50 273H51V33H50H49V273H50Z" fill="#102254" mask="url(#path-11-inside-1_399_704)"/>
<path d="M85 185C85 182.239 87.2386 180 90 180H124C126.761 180 129 182.239 129 185V273H85V185Z" fill="#102254" fill-opacity="0.2"/>
<path d="M144 149C144 146.239 146.239 144 149 144H183C185.761 144 188 146.239 188 149V273H144V149Z" fill="#102254" fill-opacity="0.2"/>
<path d="M203 121C203 118.239 205.239 116 208 116H242C244.761 116 247 118.239 247 121V273H203V121Z" fill="#102254" fill-opacity="0.2"/>
<path d="M262 107C262 104.239 264.239 102 267 102H301C303.761 102 306 104.239 306 107V273H262V107Z" fill="#102254" fill-opacity="0.2"/>
<path d="M321 97C321 94.2386 323.239 92 326 92H360C362.761 92 365 94.2386 365 97V273H321V97Z" fill="#102254" fill-opacity="0.2"/>
<path d="M380 83C380 80.2386 382.239 78 385 78H419C421.761 78 424 80.2386 424 83V273H380V83Z" fill="#102254" fill-opacity="0.2"/>
<path d="M439 49C439 46.2386 441.239 44 444 44H478C480.761 44 483 46.2386 483 49V273H439V49Z" fill="#102254"/>
<path d="M112.946 246.501C112.118 246.531 111.471 247.227 111.501 248.054C111.531 248.882 112.227 249.529 113.054 249.499L113 248L112.946 246.501ZM463 71L447.589 78.9066L462.142 88.2992L463 71ZM113 248L113.054 249.499C153.258 248.038 217.764 237.919 282.925 212.463C348.082 187.01 414.032 146.168 456.93 83.1691L455.691 82.3248L454.451 81.4805C412.012 143.803 346.664 184.343 281.833 209.669C217.007 234.993 152.836 245.051 112.946 246.501L113 248Z" fill="#42A5F5"/>
</svg>
