<svg width="83" height="57" viewBox="0 0 83 57" fill="none" xmlns="http://www.w3.org/2000/svg">
<path d="M49.9167 32.7083L54.125 24.2917M7.83333 3.25H30.6677C31.4027 3.25052 32.1246 3.44348 32.7618 3.80969C33.399 4.1759 33.9291 4.70258 34.2995 5.33733L38.7772 13.0091C39.6375 14.4844 40.7883 15.7699 42.1597 16.7876C43.5312 17.8054 45.0949 18.5343 46.7562 18.9302L66.4386 23.6183C70.1216 24.4948 73.4017 26.5872 75.749 29.5575C78.0963 32.5279 79.3737 36.2029 79.375 39.9887V49.5417C79.375 50.6578 78.9316 51.7282 78.1424 52.5174C77.3532 53.3066 76.2828 53.75 75.1667 53.75H7.83333C6.71721 53.75 5.64681 53.3066 4.85759 52.5174C4.06838 51.7282 3.625 50.6578 3.625 49.5417V7.45833C3.625 6.34221 4.06838 5.27181 4.85759 4.48259C5.64681 3.69338 6.71721 3.25 7.83333 3.25Z" stroke="#1C262B" stroke-opacity="0.7" stroke-width="6" stroke-linecap="round" stroke-linejoin="round"/>
</svg>
