<svg width="76" height="76" viewBox="0 0 76 76" fill="none" xmlns="http://www.w3.org/2000/svg">
<path d="M37.9984 22.1004C42.8957 22.0997 47.6422 23.7944 51.4314 26.8968C55.2207 29.9991 57.819 34.3177 58.785 39.1187L58.9175 39.1876L58.8327 39.3519C59.073 40.6345 59.1949 41.9507 59.1984 43.3004C59.1984 47.4934 57.9551 51.5922 55.6256 55.0785C53.2961 58.5648 49.9851 61.2821 46.1113 62.8866C42.2375 64.4912 37.9749 64.911 33.8625 64.093C29.7501 63.275 25.9726 61.2559 23.0078 58.2911C20.0429 55.3262 18.0238 51.5487 17.2058 47.4363C16.3878 43.3239 16.8076 39.0613 18.4122 35.1875C20.0168 31.3137 22.734 28.0027 26.2203 25.6732C29.7067 23.3437 33.8055 22.1004 37.9984 22.1004ZM24.6636 41.5408C28.204 39.9667 32.7885 39.2618 38.6397 40.7299C46.3936 42.6644 50.9993 40.3907 53.0875 38.276C51.9004 34.728 49.5005 31.712 46.3098 29.7583C43.119 27.8046 39.3417 27.0383 35.6419 27.5939C31.942 28.1496 28.5565 29.9918 26.0804 32.7965C23.6044 35.6013 22.1963 39.1892 22.1037 42.9294C22.9204 42.402 23.7762 41.9378 24.6636 41.5408ZM24.7484 14.1504C24.7484 15.2046 24.3296 16.2157 23.5842 16.9611C22.8387 17.7066 21.8277 18.1254 20.7734 18.1254C19.7192 18.1254 18.7081 17.7066 17.9627 16.9611C17.2172 16.2157 16.7984 15.2046 16.7984 14.1504C16.7984 13.0962 17.2172 12.0851 17.9627 11.3396C18.7081 10.5942 19.7192 10.1754 20.7734 10.1754C21.8277 10.1754 22.8387 10.5942 23.5842 11.3396C24.3296 12.0851 24.7484 13.0962 24.7484 14.1504ZM40.6484 11.5004C39.9456 11.5004 39.2716 11.7796 38.7746 12.2766C38.2776 12.7735 37.9984 13.4476 37.9984 14.1504C37.9984 14.8532 38.2776 15.5273 38.7746 16.0242C39.2716 16.5212 39.9456 16.8004 40.6484 16.8004H56.5484C57.2513 16.8004 57.9253 16.5212 58.4223 16.0242C58.9192 15.5273 59.1984 14.8532 59.1984 14.1504C59.1984 13.4476 58.9192 12.7735 58.4223 12.2766C57.9253 11.7796 57.2513 11.5004 56.5484 11.5004H40.6484ZM16.7984 0.900391C12.5815 0.900391 8.53727 2.57556 5.55544 5.55739C2.57361 8.53922 0.898438 12.5834 0.898438 16.8004V59.2004C0.898438 63.4173 2.57361 67.4616 5.55544 70.4434C8.53727 73.4252 12.5815 75.1004 16.7984 75.1004H59.1984C63.4154 75.1004 67.4596 73.4252 70.4414 70.4434C73.4233 67.4616 75.0984 63.4173 75.0984 59.2004V16.8004C75.0984 12.5834 73.4233 8.53922 70.4414 5.55739C67.4596 2.57556 63.4154 0.900391 59.1984 0.900391H16.7984ZM6.19844 16.8004C6.19844 13.9891 7.31522 11.2929 9.3031 9.30506C11.291 7.31717 13.9871 6.20039 16.7984 6.20039H59.1984C62.0097 6.20039 64.7059 7.31717 66.6938 9.30506C68.6816 11.2929 69.7984 13.9891 69.7984 16.8004V59.2004C69.7984 62.0117 68.6816 64.7078 66.6938 66.6957C64.7059 68.6836 62.0097 69.8004 59.1984 69.8004H16.7984C13.9871 69.8004 11.291 68.6836 9.3031 66.6957C7.31522 64.7078 6.19844 62.0117 6.19844 59.2004V16.8004Z" fill="#1C262B" fill-opacity="0.7"/>
</svg>
