<svg width="648" height="365" viewBox="0 0 648 365" fill="none" xmlns="http://www.w3.org/2000/svg">
<path d="M44.872 29.678C45.1987 29.482 45.46 29.2067 45.656 28.852C45.852 28.488 46.0013 28.096 46.104 27.676C46.216 27.256 46.286 26.8313 46.314 26.402C46.3513 25.9633 46.37 25.576 46.37 25.24C46.37 24.9693 46.3607 24.666 46.342 24.33C46.3233 23.994 46.2813 23.6533 46.216 23.308C46.16 22.9533 46.076 22.608 45.964 22.272C45.8613 21.936 45.7167 21.6373 45.53 21.376C45.3527 21.1147 45.1333 20.9047 44.872 20.746C44.6107 20.5873 44.3027 20.508 43.948 20.508C43.5933 20.508 43.29 20.5873 43.038 20.746C42.786 20.9047 42.5713 21.1147 42.394 21.376C42.226 21.6373 42.0907 21.936 41.988 22.272C41.8853 22.608 41.806 22.9533 41.75 23.308C41.7033 23.6533 41.6707 23.994 41.652 24.33C41.6427 24.666 41.638 24.9693 41.638 25.24C41.638 25.5013 41.6427 25.8 41.652 26.136C41.6707 26.472 41.7033 26.8127 41.75 27.158C41.806 27.5033 41.8853 27.844 41.988 28.18C42.0907 28.5067 42.226 28.8007 42.394 29.062C42.5713 29.314 42.786 29.5193 43.038 29.678C43.29 29.8367 43.5933 29.916 43.948 29.916C44.2933 29.916 44.6013 29.8367 44.872 29.678ZM46.664 28.992C46.4213 29.5053 46.0807 29.9207 45.642 30.238C45.2033 30.5647 44.6387 30.728 43.948 30.728C43.276 30.728 42.7253 30.5647 42.296 30.238C41.876 29.9207 41.5447 29.5053 41.302 28.992C41.0687 28.4693 40.9053 27.8813 40.812 27.228C40.728 26.5747 40.686 25.912 40.686 25.24C40.686 24.568 40.728 23.9053 40.812 23.252C40.9053 22.5893 41.0687 21.9967 41.302 21.474C41.5447 20.942 41.876 20.5173 42.296 20.2C42.7253 19.8733 43.276 19.71 43.948 19.71C44.6387 19.71 45.2033 19.8733 45.642 20.2C46.0807 20.5173 46.4213 20.942 46.664 21.474C46.916 21.9967 47.0887 22.5893 47.182 23.252C47.2753 23.9053 47.322 24.568 47.322 25.24C47.322 25.912 47.2753 26.5747 47.182 27.228C47.0887 27.872 46.916 28.46 46.664 28.992Z" fill="black" fill-opacity="0.7"/>
<path d="M164.743 24.092C164.949 23.924 165.112 23.7187 165.233 23.476C165.355 23.224 165.415 22.9393 165.415 22.622C165.415 22.3233 165.359 22.0527 165.247 21.81C165.135 21.558 164.977 21.348 164.771 21.18C164.566 21.0027 164.323 20.8673 164.043 20.774C163.773 20.6713 163.479 20.62 163.161 20.62C162.825 20.62 162.517 20.6713 162.237 20.774C161.967 20.8673 161.729 21.0027 161.523 21.18C161.318 21.348 161.159 21.558 161.047 21.81C160.935 22.0527 160.879 22.3233 160.879 22.622C160.879 22.9393 160.935 23.224 161.047 23.476C161.169 23.7187 161.332 23.924 161.537 24.092C161.743 24.26 161.981 24.3907 162.251 24.484C162.531 24.568 162.83 24.61 163.147 24.61C163.455 24.61 163.745 24.568 164.015 24.484C164.295 24.3907 164.538 24.26 164.743 24.092ZM164.883 29.356C165.322 28.964 165.541 28.4367 165.541 27.774C165.541 27.41 165.471 27.0927 165.331 26.822C165.191 26.542 165.005 26.3087 164.771 26.122C164.547 25.9353 164.291 25.7953 164.001 25.702C163.721 25.6087 163.437 25.562 163.147 25.562C162.849 25.562 162.555 25.6087 162.265 25.702C161.985 25.7953 161.733 25.9353 161.509 26.122C161.285 26.3087 161.103 26.542 160.963 26.822C160.823 27.0927 160.753 27.41 160.753 27.774C160.753 28.4273 160.968 28.9547 161.397 29.356C161.827 29.748 162.41 29.944 163.147 29.944C163.885 29.944 164.463 29.748 164.883 29.356ZM164.659 24.96C164.519 25.0253 164.361 25.0813 164.183 25.128C164.519 25.1933 164.827 25.31 165.107 25.478C165.387 25.646 165.625 25.8467 165.821 26.08C166.017 26.304 166.171 26.5607 166.283 26.85C166.395 27.13 166.451 27.424 166.451 27.732C166.442 28.712 166.139 29.4493 165.541 29.944C164.944 30.4387 164.141 30.686 163.133 30.686C162.116 30.686 161.313 30.4433 160.725 29.958C160.147 29.4633 159.853 28.7213 159.843 27.732C159.843 27.312 159.951 26.9107 160.165 26.528C160.389 26.136 160.711 25.8 161.131 25.52C161.43 25.3333 161.761 25.1933 162.125 25.1C161.761 25.0347 161.444 24.9227 161.173 24.764C160.912 24.6053 160.693 24.414 160.515 24.19C160.338 23.966 160.203 23.7233 160.109 23.462C160.025 23.1913 159.983 22.916 159.983 22.636C159.983 22.2347 160.053 21.866 160.193 21.53C160.343 21.1847 160.553 20.8953 160.823 20.662C161.103 20.4193 161.439 20.2327 161.831 20.102C162.223 19.962 162.667 19.892 163.161 19.892C163.637 19.892 164.067 19.9573 164.449 20.088C164.841 20.2187 165.173 20.4053 165.443 20.648C165.723 20.8813 165.938 21.1707 166.087 21.516C166.237 21.852 166.311 22.2253 166.311 22.636C166.311 23.028 166.204 23.406 165.989 23.77C165.775 24.134 165.471 24.4513 165.079 24.722C165.014 24.7687 164.944 24.8107 164.869 24.848C164.804 24.8853 164.734 24.9227 164.659 24.96Z" fill="black" fill-opacity="0.7"/>
<path d="M279.186 30.448H278.29V21.138C277.936 21.5113 277.572 21.8193 277.198 22.062C276.834 22.2953 276.456 22.5053 276.064 22.692V21.768C276.456 21.5907 276.839 21.362 277.212 21.082C277.595 20.7927 277.945 20.48 278.262 20.144H278.934C279.037 20.144 279.102 20.1627 279.13 20.2C279.168 20.228 279.186 20.2933 279.186 20.396V30.448ZM287.229 29.72C287.658 29.496 287.99 29.1693 288.223 28.74C288.466 28.3013 288.587 27.788 288.587 27.2C288.587 26.8547 288.54 26.5187 288.447 26.192C288.354 25.8653 288.209 25.5807 288.013 25.338C287.826 25.086 287.588 24.8853 287.299 24.736C287.01 24.5867 286.674 24.512 286.291 24.512C285.974 24.512 285.67 24.582 285.381 24.722C285.101 24.862 284.854 25.0533 284.639 25.296C284.434 25.5293 284.266 25.8 284.135 26.108C284.014 26.416 283.953 26.738 283.953 27.074C283.953 27.4753 284.009 27.8487 284.121 28.194C284.233 28.5393 284.387 28.8427 284.583 29.104C284.788 29.356 285.031 29.5567 285.311 29.706C285.591 29.8553 285.899 29.93 286.235 29.93C286.599 29.93 286.93 29.86 287.229 29.72ZM288.433 22.454C288.34 21.866 288.125 21.4227 287.789 21.124C287.453 20.8253 287.019 20.676 286.487 20.676C286.039 20.676 285.642 20.8067 285.297 21.068C284.961 21.3293 284.676 21.6887 284.443 22.146C284.219 22.594 284.042 23.1307 283.911 23.756C283.79 24.3813 283.72 25.058 283.701 25.786C283.897 25.142 284.238 24.652 284.723 24.316C285.208 23.9707 285.815 23.798 286.543 23.798C286.972 23.798 287.364 23.882 287.719 24.05C288.083 24.2087 288.396 24.442 288.657 24.75C288.918 25.0487 289.119 25.4127 289.259 25.842C289.408 26.262 289.483 26.7287 289.483 27.242C289.483 27.718 289.408 28.166 289.259 28.586C289.119 29.006 288.914 29.3747 288.643 29.692C288.372 30 288.041 30.2427 287.649 30.42C287.266 30.6067 286.837 30.7 286.361 30.7C285.605 30.7 284.961 30.4993 284.429 30.098C283.906 29.706 283.538 29.188 283.323 28.544C283.192 28.152 283.094 27.7367 283.029 27.298C282.964 26.85 282.931 26.29 282.931 25.618C282.931 24.666 283.02 23.8353 283.197 23.126C283.374 22.4073 283.617 21.81 283.925 21.334C284.233 20.858 284.597 20.5033 285.017 20.27C285.446 20.0273 285.908 19.906 286.403 19.906C287.28 19.906 287.962 20.1347 288.447 20.592C288.942 21.04 289.231 21.6607 289.315 22.454H288.433Z" fill="black" fill-opacity="0.7"/>
<path d="M400.546 30.448H394.568C394.465 30.448 394.395 30.4293 394.358 30.392C394.33 30.364 394.316 30.2987 394.316 30.196V29.524L395.142 28.698C395.478 28.362 395.832 27.9933 396.206 27.592C396.588 27.1813 396.971 26.7567 397.354 26.318C397.736 25.87 398.077 25.4313 398.376 25.002C398.684 24.5633 398.931 24.1433 399.118 23.742C399.314 23.3407 399.412 22.9813 399.412 22.664C399.412 22.3467 399.356 22.062 399.244 21.81C399.141 21.558 398.996 21.348 398.81 21.18C398.623 21.0027 398.399 20.872 398.138 20.788C397.886 20.6947 397.61 20.648 397.312 20.648C397.032 20.648 396.766 20.704 396.514 20.816C396.271 20.928 396.061 21.082 395.884 21.278C395.706 21.4647 395.566 21.6887 395.464 21.95C395.361 22.202 395.31 22.4727 395.31 22.762H394.4C394.4 22.3327 394.474 21.9407 394.624 21.586C394.773 21.2313 394.978 20.928 395.24 20.676C395.501 20.424 395.814 20.2327 396.178 20.102C396.542 19.962 396.934 19.892 397.354 19.892C397.783 19.892 398.175 19.948 398.53 20.06C398.894 20.172 399.206 20.34 399.468 20.564C399.738 20.788 399.948 21.0727 400.098 21.418C400.247 21.754 400.322 22.146 400.322 22.594C400.322 22.9953 400.233 23.406 400.056 23.826C399.888 24.246 399.664 24.6707 399.384 25.1C399.104 25.5293 398.782 25.954 398.418 26.374C398.054 26.794 397.685 27.2 397.312 27.592C396.938 27.984 396.57 28.3573 396.206 28.712C395.842 29.0573 395.52 29.37 395.24 29.65H400.546V30.448ZM406.53 27.354V22.496L406.572 20.746L402.596 27.354H406.53ZM407.384 30.448H406.502V28.152H402.05C401.948 28.152 401.878 28.138 401.84 28.11C401.812 28.0727 401.798 28.0027 401.798 27.9V27.382C401.798 27.2607 401.84 27.1347 401.924 27.004L406.068 20.116C406.106 20.032 406.18 19.99 406.292 19.99H407.132C407.235 19.99 407.3 20.0087 407.328 20.046C407.366 20.074 407.384 20.1393 407.384 20.242V27.354H408.952V28.152H407.384V30.448Z" fill="black" fill-opacity="0.7"/>
<path d="M514.187 27.802C514.252 28.4553 514.485 28.9687 514.887 29.342C515.297 29.7153 515.853 29.902 516.553 29.902C517.281 29.902 517.859 29.7013 518.289 29.3C518.727 28.8893 518.947 28.334 518.947 27.634C518.947 27.2887 518.872 26.9853 518.723 26.724C518.583 26.4533 518.396 26.2293 518.163 26.052C517.939 25.8747 517.677 25.7393 517.379 25.646C517.089 25.5527 516.791 25.5013 516.483 25.492H516.007C515.913 25.492 515.853 25.4827 515.825 25.464C515.806 25.436 515.797 25.3753 515.797 25.282V24.862C515.797 24.7687 515.806 24.7127 515.825 24.694C515.853 24.666 515.913 24.652 516.007 24.652H516.385C516.711 24.6427 517.015 24.596 517.295 24.512C517.575 24.4187 517.817 24.288 518.023 24.12C518.237 23.952 518.405 23.7467 518.527 23.504C518.648 23.2613 518.713 22.9767 518.723 22.65C518.723 22.3327 518.667 22.0527 518.555 21.81C518.443 21.5673 518.284 21.362 518.079 21.194C517.883 21.026 517.649 20.9 517.379 20.816C517.117 20.732 516.833 20.69 516.525 20.69C515.881 20.69 515.372 20.858 514.999 21.194C514.625 21.53 514.406 21.9967 514.341 22.594H513.417C513.426 22.174 513.505 21.8007 513.655 21.474C513.813 21.138 514.028 20.8533 514.299 20.62C514.579 20.3867 514.91 20.2093 515.293 20.088C515.675 19.9573 516.1 19.892 516.567 19.892C516.987 19.892 517.379 19.9527 517.743 20.074C518.116 20.186 518.443 20.3587 518.723 20.592C519.003 20.8253 519.222 21.1147 519.381 21.46C519.549 21.8053 519.633 22.2067 519.633 22.664C519.633 22.944 519.591 23.21 519.507 23.462C519.423 23.714 519.292 23.9473 519.115 24.162C518.947 24.3673 518.723 24.5493 518.443 24.708C518.163 24.8667 517.827 24.988 517.435 25.072C517.845 25.128 518.2 25.2353 518.499 25.394C518.807 25.5527 519.059 25.7533 519.255 25.996C519.46 26.2293 519.609 26.4953 519.703 26.794C519.805 27.0833 519.857 27.396 519.857 27.732C519.857 28.236 519.763 28.6747 519.577 29.048C519.39 29.412 519.143 29.72 518.835 29.972C518.527 30.2147 518.167 30.3967 517.757 30.518C517.355 30.6393 516.94 30.7 516.511 30.7C515.493 30.7 514.705 30.4433 514.145 29.93C513.585 29.4167 513.295 28.7073 513.277 27.802H514.187ZM527.633 30.448H521.655C521.553 30.448 521.483 30.4293 521.445 30.392C521.417 30.364 521.403 30.2987 521.403 30.196V29.524L522.229 28.698C522.565 28.362 522.92 27.9933 523.293 27.592C523.676 27.1813 524.059 26.7567 524.441 26.318C524.824 25.87 525.165 25.4313 525.463 25.002C525.771 24.5633 526.019 24.1433 526.205 23.742C526.401 23.3407 526.499 22.9813 526.499 22.664C526.499 22.3467 526.443 22.062 526.331 21.81C526.229 21.558 526.084 21.348 525.897 21.18C525.711 21.0027 525.487 20.872 525.225 20.788C524.973 20.6947 524.698 20.648 524.399 20.648C524.119 20.648 523.853 20.704 523.601 20.816C523.359 20.928 523.149 21.082 522.971 21.278C522.794 21.4647 522.654 21.6887 522.551 21.95C522.449 22.202 522.397 22.4727 522.397 22.762H521.487C521.487 22.3327 521.562 21.9407 521.711 21.586C521.861 21.2313 522.066 20.928 522.327 20.676C522.589 20.424 522.901 20.2327 523.265 20.102C523.629 19.962 524.021 19.892 524.441 19.892C524.871 19.892 525.263 19.948 525.617 20.06C525.981 20.172 526.294 20.34 526.555 20.564C526.826 20.788 527.036 21.0727 527.185 21.418C527.335 21.754 527.409 22.146 527.409 22.594C527.409 22.9953 527.321 23.406 527.143 23.826C526.975 24.246 526.751 24.6707 526.471 25.1C526.191 25.5293 525.869 25.954 525.505 26.374C525.141 26.794 524.773 27.2 524.399 27.592C524.026 27.984 523.657 28.3573 523.293 28.712C522.929 29.0573 522.607 29.37 522.327 29.65H527.633V30.448Z" fill="black" fill-opacity="0.7"/>
<path d="M637.04 27.354V22.496L637.082 20.746L633.106 27.354H637.04ZM637.894 30.448H637.012V28.152H632.56C632.457 28.152 632.387 28.138 632.35 28.11C632.322 28.0727 632.308 28.0027 632.308 27.9V27.382C632.308 27.2607 632.35 27.1347 632.434 27.004L636.578 20.116C636.615 20.032 636.69 19.99 636.802 19.99H637.642C637.745 19.99 637.81 20.0087 637.838 20.046C637.875 20.074 637.894 20.1393 637.894 20.242V27.354H639.462V28.152H637.894V30.448ZM644.761 29.678C645.087 29.482 645.349 29.2067 645.545 28.852C645.741 28.488 645.89 28.096 645.993 27.676C646.105 27.256 646.175 26.8313 646.203 26.402C646.24 25.9633 646.259 25.576 646.259 25.24C646.259 24.9693 646.249 24.666 646.231 24.33C646.212 23.994 646.17 23.6533 646.105 23.308C646.049 22.9533 645.965 22.608 645.853 22.272C645.75 21.936 645.605 21.6373 645.419 21.376C645.241 21.1147 645.022 20.9047 644.761 20.746C644.499 20.5873 644.191 20.508 643.837 20.508C643.482 20.508 643.179 20.5873 642.927 20.746C642.675 20.9047 642.46 21.1147 642.283 21.376C642.115 21.6373 641.979 21.936 641.877 22.272C641.774 22.608 641.695 22.9533 641.639 23.308C641.592 23.6533 641.559 23.994 641.541 24.33C641.531 24.666 641.527 24.9693 641.527 25.24C641.527 25.5013 641.531 25.8 641.541 26.136C641.559 26.472 641.592 26.8127 641.639 27.158C641.695 27.5033 641.774 27.844 641.877 28.18C641.979 28.5067 642.115 28.8007 642.283 29.062C642.46 29.314 642.675 29.5193 642.927 29.678C643.179 29.8367 643.482 29.916 643.837 29.916C644.182 29.916 644.49 29.8367 644.761 29.678ZM646.553 28.992C646.31 29.5053 645.969 29.9207 645.531 30.238C645.092 30.5647 644.527 30.728 643.837 30.728C643.165 30.728 642.614 30.5647 642.185 30.238C641.765 29.9207 641.433 29.5053 641.191 28.992C640.957 28.4693 640.794 27.8813 640.701 27.228C640.617 26.5747 640.575 25.912 640.575 25.24C640.575 24.568 640.617 23.9053 640.701 23.252C640.794 22.5893 640.957 21.9967 641.191 21.474C641.433 20.942 641.765 20.5173 642.185 20.2C642.614 19.8733 643.165 19.71 643.837 19.71C644.527 19.71 645.092 19.8733 645.531 20.2C645.969 20.5173 646.31 20.942 646.553 21.474C646.805 21.9967 646.977 22.5893 647.071 23.252C647.164 23.9053 647.211 24.568 647.211 25.24C647.211 25.912 647.164 26.5747 647.071 27.228C646.977 27.872 646.805 28.46 646.553 28.992Z" fill="black" fill-opacity="0.7"/>
<path d="M16.944 63.948H10.966C10.8633 63.948 10.7933 63.9293 10.756 63.892C10.728 63.864 10.714 63.7987 10.714 63.696V63.024L11.54 62.198C11.876 61.862 12.2307 61.4933 12.604 61.092C12.9867 60.6813 13.3693 60.2567 13.752 59.818C14.1347 59.37 14.4753 58.9313 14.774 58.502C15.082 58.0633 15.3293 57.6433 15.516 57.242C15.712 56.8407 15.81 56.4813 15.81 56.164C15.81 55.8467 15.754 55.562 15.642 55.31C15.5393 55.058 15.3947 54.848 15.208 54.68C15.0213 54.5027 14.7973 54.372 14.536 54.288C14.284 54.1947 14.0087 54.148 13.71 54.148C13.43 54.148 13.164 54.204 12.912 54.316C12.6693 54.428 12.4593 54.582 12.282 54.778C12.1047 54.9647 11.9647 55.1887 11.862 55.45C11.7593 55.702 11.708 55.9727 11.708 56.262H10.798C10.798 55.8327 10.8727 55.4407 11.022 55.086C11.1713 54.7313 11.3767 54.428 11.638 54.176C11.8993 53.924 12.212 53.7327 12.576 53.602C12.94 53.462 13.332 53.392 13.752 53.392C14.1813 53.392 14.5733 53.448 14.928 53.56C15.292 53.672 15.6047 53.84 15.866 54.064C16.1367 54.288 16.3467 54.5727 16.496 54.918C16.6453 55.254 16.72 55.646 16.72 56.094C16.72 56.4953 16.6313 56.906 16.454 57.326C16.286 57.746 16.062 58.1707 15.782 58.6C15.502 59.0293 15.18 59.454 14.816 59.874C14.452 60.294 14.0833 60.7 13.71 61.092C13.3367 61.484 12.968 61.8573 12.604 62.212C12.24 62.5573 11.918 62.87 11.638 63.15H16.944V63.948ZM22.7607 63.178C23.0873 62.982 23.3487 62.7067 23.5447 62.352C23.7407 61.988 23.89 61.596 23.9927 61.176C24.1047 60.756 24.1747 60.3313 24.2027 59.902C24.24 59.4633 24.2587 59.076 24.2587 58.74C24.2587 58.4693 24.2493 58.166 24.2307 57.83C24.212 57.494 24.17 57.1533 24.1047 56.808C24.0487 56.4533 23.9647 56.108 23.8527 55.772C23.75 55.436 23.6053 55.1373 23.4187 54.876C23.2413 54.6147 23.022 54.4047 22.7607 54.246C22.4993 54.0873 22.1913 54.008 21.8367 54.008C21.482 54.008 21.1787 54.0873 20.9267 54.246C20.6747 54.4047 20.46 54.6147 20.2827 54.876C20.1147 55.1373 19.9793 55.436 19.8767 55.772C19.774 56.108 19.6947 56.4533 19.6387 56.808C19.592 57.1533 19.5593 57.494 19.5407 57.83C19.5313 58.166 19.5267 58.4693 19.5267 58.74C19.5267 59.0013 19.5313 59.3 19.5407 59.636C19.5593 59.972 19.592 60.3127 19.6387 60.658C19.6947 61.0033 19.774 61.344 19.8767 61.68C19.9793 62.0067 20.1147 62.3007 20.2827 62.562C20.46 62.814 20.6747 63.0193 20.9267 63.178C21.1787 63.3367 21.482 63.416 21.8367 63.416C22.182 63.416 22.49 63.3367 22.7607 63.178ZM24.5527 62.492C24.31 63.0053 23.9693 63.4207 23.5307 63.738C23.092 64.0647 22.5273 64.228 21.8367 64.228C21.1647 64.228 20.614 64.0647 20.1847 63.738C19.7647 63.4207 19.4333 63.0053 19.1907 62.492C18.9573 61.9693 18.794 61.3813 18.7007 60.728C18.6167 60.0747 18.5747 59.412 18.5747 58.74C18.5747 58.068 18.6167 57.4053 18.7007 56.752C18.794 56.0893 18.9573 55.4967 19.1907 54.974C19.4333 54.442 19.7647 54.0173 20.1847 53.7C20.614 53.3733 21.1647 53.21 21.8367 53.21C22.5273 53.21 23.092 53.3733 23.5307 53.7C23.9693 54.0173 24.31 54.442 24.5527 54.974C24.8047 55.4967 24.9773 56.0893 25.0707 56.752C25.164 57.4053 25.2107 58.068 25.2107 58.74C25.2107 59.412 25.164 60.0747 25.0707 60.728C24.9773 61.372 24.8047 61.96 24.5527 62.492ZM32.7213 63.948H26.7433C26.6407 63.948 26.5707 63.9293 26.5333 63.892C26.5053 63.864 26.4913 63.7987 26.4913 63.696V63.024L27.3173 62.198C27.6533 61.862 28.008 61.4933 28.3813 61.092C28.764 60.6813 29.1467 60.2567 29.5293 59.818C29.912 59.37 30.2527 58.9313 30.5513 58.502C30.8593 58.0633 31.1067 57.6433 31.2933 57.242C31.4893 56.8407 31.5873 56.4813 31.5873 56.164C31.5873 55.8467 31.5313 55.562 31.4193 55.31C31.3167 55.058 31.172 54.848 30.9853 54.68C30.7987 54.5027 30.5747 54.372 30.3133 54.288C30.0613 54.1947 29.786 54.148 29.4873 54.148C29.2073 54.148 28.9413 54.204 28.6893 54.316C28.4467 54.428 28.2367 54.582 28.0593 54.778C27.882 54.9647 27.742 55.1887 27.6393 55.45C27.5367 55.702 27.4853 55.9727 27.4853 56.262H26.5753C26.5753 55.8327 26.65 55.4407 26.7993 55.086C26.9487 54.7313 27.154 54.428 27.4153 54.176C27.6767 53.924 27.9893 53.7327 28.3533 53.602C28.7173 53.462 29.1093 53.392 29.5293 53.392C29.9587 53.392 30.3507 53.448 30.7053 53.56C31.0693 53.672 31.382 53.84 31.6433 54.064C31.914 54.288 32.124 54.5727 32.2733 54.918C32.4227 55.254 32.4973 55.646 32.4973 56.094C32.4973 56.4953 32.4087 56.906 32.2313 57.326C32.0633 57.746 31.8393 58.1707 31.5593 58.6C31.2793 59.0293 30.9573 59.454 30.5933 59.874C30.2293 60.294 29.8607 60.7 29.4873 61.092C29.114 61.484 28.7453 61.8573 28.3813 62.212C28.0173 62.5573 27.6953 62.87 27.4153 63.15H32.7213V63.948ZM38.538 63.178C38.8647 62.982 39.126 62.7067 39.322 62.352C39.518 61.988 39.6673 61.596 39.77 61.176C39.882 60.756 39.952 60.3313 39.98 59.902C40.0173 59.4633 40.036 59.076 40.036 58.74C40.036 58.4693 40.0267 58.166 40.008 57.83C39.9893 57.494 39.9473 57.1533 39.882 56.808C39.826 56.4533 39.742 56.108 39.63 55.772C39.5273 55.436 39.3827 55.1373 39.196 54.876C39.0187 54.6147 38.7993 54.4047 38.538 54.246C38.2767 54.0873 37.9687 54.008 37.614 54.008C37.2593 54.008 36.956 54.0873 36.704 54.246C36.452 54.4047 36.2373 54.6147 36.06 54.876C35.892 55.1373 35.7567 55.436 35.654 55.772C35.5513 56.108 35.472 56.4533 35.416 56.808C35.3693 57.1533 35.3367 57.494 35.318 57.83C35.3087 58.166 35.304 58.4693 35.304 58.74C35.304 59.0013 35.3087 59.3 35.318 59.636C35.3367 59.972 35.3693 60.3127 35.416 60.658C35.472 61.0033 35.5513 61.344 35.654 61.68C35.7567 62.0067 35.892 62.3007 36.06 62.562C36.2373 62.814 36.452 63.0193 36.704 63.178C36.956 63.3367 37.2593 63.416 37.614 63.416C37.9593 63.416 38.2673 63.3367 38.538 63.178ZM40.33 62.492C40.0873 63.0053 39.7467 63.4207 39.308 63.738C38.8693 64.0647 38.3047 64.228 37.614 64.228C36.942 64.228 36.3913 64.0647 35.962 63.738C35.542 63.4207 35.2107 63.0053 34.968 62.492C34.7347 61.9693 34.5713 61.3813 34.478 60.728C34.394 60.0747 34.352 59.412 34.352 58.74C34.352 58.068 34.394 57.4053 34.478 56.752C34.5713 56.0893 34.7347 55.4967 34.968 54.974C35.2107 54.442 35.542 54.0173 35.962 53.7C36.3913 53.3733 36.942 53.21 37.614 53.21C38.3047 53.21 38.8693 53.3733 39.308 53.7C39.7467 54.0173 40.0873 54.442 40.33 54.974C40.582 55.4967 40.7547 56.0893 40.848 56.752C40.9413 57.4053 40.988 58.068 40.988 58.74C40.988 59.412 40.9413 60.0747 40.848 60.728C40.7547 61.372 40.582 61.96 40.33 62.492Z" fill="black" fill-opacity="0.7"/>
<path d="M16.944 108.948H10.966C10.8633 108.948 10.7933 108.929 10.756 108.892C10.728 108.864 10.714 108.799 10.714 108.696V108.024L11.54 107.198C11.876 106.862 12.2307 106.493 12.604 106.092C12.9867 105.681 13.3693 105.257 13.752 104.818C14.1347 104.37 14.4753 103.931 14.774 103.502C15.082 103.063 15.3293 102.643 15.516 102.242C15.712 101.841 15.81 101.481 15.81 101.164C15.81 100.847 15.754 100.562 15.642 100.31C15.5393 100.058 15.3947 99.848 15.208 99.68C15.0213 99.5027 14.7973 99.372 14.536 99.288C14.284 99.1947 14.0087 99.148 13.71 99.148C13.43 99.148 13.164 99.204 12.912 99.316C12.6693 99.428 12.4593 99.582 12.282 99.778C12.1047 99.9647 11.9647 100.189 11.862 100.45C11.7593 100.702 11.708 100.973 11.708 101.262H10.798C10.798 100.833 10.8727 100.441 11.022 100.086C11.1713 99.7313 11.3767 99.428 11.638 99.176C11.8993 98.924 12.212 98.7327 12.576 98.602C12.94 98.462 13.332 98.392 13.752 98.392C14.1813 98.392 14.5733 98.448 14.928 98.56C15.292 98.672 15.6047 98.84 15.866 99.064C16.1367 99.288 16.3467 99.5727 16.496 99.918C16.6453 100.254 16.72 100.646 16.72 101.094C16.72 101.495 16.6313 101.906 16.454 102.326C16.286 102.746 16.062 103.171 15.782 103.6C15.502 104.029 15.18 104.454 14.816 104.874C14.452 105.294 14.0833 105.7 13.71 106.092C13.3367 106.484 12.968 106.857 12.604 107.212C12.24 107.557 11.918 107.87 11.638 108.15H16.944V108.948ZM22.7607 108.178C23.0873 107.982 23.3487 107.707 23.5447 107.352C23.7407 106.988 23.89 106.596 23.9927 106.176C24.1047 105.756 24.1747 105.331 24.2027 104.902C24.24 104.463 24.2587 104.076 24.2587 103.74C24.2587 103.469 24.2493 103.166 24.2307 102.83C24.212 102.494 24.17 102.153 24.1047 101.808C24.0487 101.453 23.9647 101.108 23.8527 100.772C23.75 100.436 23.6053 100.137 23.4187 99.876C23.2413 99.6147 23.022 99.4047 22.7607 99.246C22.4993 99.0873 22.1913 99.008 21.8367 99.008C21.482 99.008 21.1787 99.0873 20.9267 99.246C20.6747 99.4047 20.46 99.6147 20.2827 99.876C20.1147 100.137 19.9793 100.436 19.8767 100.772C19.774 101.108 19.6947 101.453 19.6387 101.808C19.592 102.153 19.5593 102.494 19.5407 102.83C19.5313 103.166 19.5267 103.469 19.5267 103.74C19.5267 104.001 19.5313 104.3 19.5407 104.636C19.5593 104.972 19.592 105.313 19.6387 105.658C19.6947 106.003 19.774 106.344 19.8767 106.68C19.9793 107.007 20.1147 107.301 20.2827 107.562C20.46 107.814 20.6747 108.019 20.9267 108.178C21.1787 108.337 21.482 108.416 21.8367 108.416C22.182 108.416 22.49 108.337 22.7607 108.178ZM24.5527 107.492C24.31 108.005 23.9693 108.421 23.5307 108.738C23.092 109.065 22.5273 109.228 21.8367 109.228C21.1647 109.228 20.614 109.065 20.1847 108.738C19.7647 108.421 19.4333 108.005 19.1907 107.492C18.9573 106.969 18.794 106.381 18.7007 105.728C18.6167 105.075 18.5747 104.412 18.5747 103.74C18.5747 103.068 18.6167 102.405 18.7007 101.752C18.794 101.089 18.9573 100.497 19.1907 99.974C19.4333 99.442 19.7647 99.0173 20.1847 98.7C20.614 98.3733 21.1647 98.21 21.8367 98.21C22.5273 98.21 23.092 98.3733 23.5307 98.7C23.9693 99.0173 24.31 99.442 24.5527 99.974C24.8047 100.497 24.9773 101.089 25.0707 101.752C25.164 102.405 25.2107 103.068 25.2107 103.74C25.2107 104.412 25.164 105.075 25.0707 105.728C24.9773 106.372 24.8047 106.96 24.5527 107.492ZM32.7213 108.948H26.7433C26.6407 108.948 26.5707 108.929 26.5333 108.892C26.5053 108.864 26.4913 108.799 26.4913 108.696V108.024L27.3173 107.198C27.6533 106.862 28.008 106.493 28.3813 106.092C28.764 105.681 29.1467 105.257 29.5293 104.818C29.912 104.37 30.2527 103.931 30.5513 103.502C30.8593 103.063 31.1067 102.643 31.2933 102.242C31.4893 101.841 31.5873 101.481 31.5873 101.164C31.5873 100.847 31.5313 100.562 31.4193 100.31C31.3167 100.058 31.172 99.848 30.9853 99.68C30.7987 99.5027 30.5747 99.372 30.3133 99.288C30.0613 99.1947 29.786 99.148 29.4873 99.148C29.2073 99.148 28.9413 99.204 28.6893 99.316C28.4467 99.428 28.2367 99.582 28.0593 99.778C27.882 99.9647 27.742 100.189 27.6393 100.45C27.5367 100.702 27.4853 100.973 27.4853 101.262H26.5753C26.5753 100.833 26.65 100.441 26.7993 100.086C26.9487 99.7313 27.154 99.428 27.4153 99.176C27.6767 98.924 27.9893 98.7327 28.3533 98.602C28.7173 98.462 29.1093 98.392 29.5293 98.392C29.9587 98.392 30.3507 98.448 30.7053 98.56C31.0693 98.672 31.382 98.84 31.6433 99.064C31.914 99.288 32.124 99.5727 32.2733 99.918C32.4227 100.254 32.4973 100.646 32.4973 101.094C32.4973 101.495 32.4087 101.906 32.2313 102.326C32.0633 102.746 31.8393 103.171 31.5593 103.6C31.2793 104.029 30.9573 104.454 30.5933 104.874C30.2293 105.294 29.8607 105.7 29.4873 106.092C29.114 106.484 28.7453 106.857 28.3813 107.212C28.0173 107.557 27.6953 107.87 27.4153 108.15H32.7213V108.948ZM38.454 108.948H37.558V99.638C37.2033 100.011 36.8393 100.319 36.466 100.562C36.102 100.795 35.724 101.005 35.332 101.192V100.268C35.724 100.091 36.1067 99.862 36.48 99.582C36.8627 99.2927 37.2127 98.98 37.53 98.644H38.202C38.3047 98.644 38.37 98.6627 38.398 98.7C38.4353 98.728 38.454 98.7933 38.454 98.896V108.948Z" fill="black" fill-opacity="0.7"/>
<path d="M16.944 153.948H10.966C10.8633 153.948 10.7933 153.929 10.756 153.892C10.728 153.864 10.714 153.799 10.714 153.696V153.024L11.54 152.198C11.876 151.862 12.2307 151.493 12.604 151.092C12.9867 150.681 13.3693 150.257 13.752 149.818C14.1347 149.37 14.4753 148.931 14.774 148.502C15.082 148.063 15.3293 147.643 15.516 147.242C15.712 146.841 15.81 146.481 15.81 146.164C15.81 145.847 15.754 145.562 15.642 145.31C15.5393 145.058 15.3947 144.848 15.208 144.68C15.0213 144.503 14.7973 144.372 14.536 144.288C14.284 144.195 14.0087 144.148 13.71 144.148C13.43 144.148 13.164 144.204 12.912 144.316C12.6693 144.428 12.4593 144.582 12.282 144.778C12.1047 144.965 11.9647 145.189 11.862 145.45C11.7593 145.702 11.708 145.973 11.708 146.262H10.798C10.798 145.833 10.8727 145.441 11.022 145.086C11.1713 144.731 11.3767 144.428 11.638 144.176C11.8993 143.924 12.212 143.733 12.576 143.602C12.94 143.462 13.332 143.392 13.752 143.392C14.1813 143.392 14.5733 143.448 14.928 143.56C15.292 143.672 15.6047 143.84 15.866 144.064C16.1367 144.288 16.3467 144.573 16.496 144.918C16.6453 145.254 16.72 145.646 16.72 146.094C16.72 146.495 16.6313 146.906 16.454 147.326C16.286 147.746 16.062 148.171 15.782 148.6C15.502 149.029 15.18 149.454 14.816 149.874C14.452 150.294 14.0833 150.7 13.71 151.092C13.3367 151.484 12.968 151.857 12.604 152.212C12.24 152.557 11.918 152.87 11.638 153.15H16.944V153.948ZM22.7607 153.178C23.0873 152.982 23.3487 152.707 23.5447 152.352C23.7407 151.988 23.89 151.596 23.9927 151.176C24.1047 150.756 24.1747 150.331 24.2027 149.902C24.24 149.463 24.2587 149.076 24.2587 148.74C24.2587 148.469 24.2493 148.166 24.2307 147.83C24.212 147.494 24.17 147.153 24.1047 146.808C24.0487 146.453 23.9647 146.108 23.8527 145.772C23.75 145.436 23.6053 145.137 23.4187 144.876C23.2413 144.615 23.022 144.405 22.7607 144.246C22.4993 144.087 22.1913 144.008 21.8367 144.008C21.482 144.008 21.1787 144.087 20.9267 144.246C20.6747 144.405 20.46 144.615 20.2827 144.876C20.1147 145.137 19.9793 145.436 19.8767 145.772C19.774 146.108 19.6947 146.453 19.6387 146.808C19.592 147.153 19.5593 147.494 19.5407 147.83C19.5313 148.166 19.5267 148.469 19.5267 148.74C19.5267 149.001 19.5313 149.3 19.5407 149.636C19.5593 149.972 19.592 150.313 19.6387 150.658C19.6947 151.003 19.774 151.344 19.8767 151.68C19.9793 152.007 20.1147 152.301 20.2827 152.562C20.46 152.814 20.6747 153.019 20.9267 153.178C21.1787 153.337 21.482 153.416 21.8367 153.416C22.182 153.416 22.49 153.337 22.7607 153.178ZM24.5527 152.492C24.31 153.005 23.9693 153.421 23.5307 153.738C23.092 154.065 22.5273 154.228 21.8367 154.228C21.1647 154.228 20.614 154.065 20.1847 153.738C19.7647 153.421 19.4333 153.005 19.1907 152.492C18.9573 151.969 18.794 151.381 18.7007 150.728C18.6167 150.075 18.5747 149.412 18.5747 148.74C18.5747 148.068 18.6167 147.405 18.7007 146.752C18.794 146.089 18.9573 145.497 19.1907 144.974C19.4333 144.442 19.7647 144.017 20.1847 143.7C20.614 143.373 21.1647 143.21 21.8367 143.21C22.5273 143.21 23.092 143.373 23.5307 143.7C23.9693 144.017 24.31 144.442 24.5527 144.974C24.8047 145.497 24.9773 146.089 25.0707 146.752C25.164 147.405 25.2107 148.068 25.2107 148.74C25.2107 149.412 25.164 150.075 25.0707 150.728C24.9773 151.372 24.8047 151.96 24.5527 152.492ZM32.7213 153.948H26.7433C26.6407 153.948 26.5707 153.929 26.5333 153.892C26.5053 153.864 26.4913 153.799 26.4913 153.696V153.024L27.3173 152.198C27.6533 151.862 28.008 151.493 28.3813 151.092C28.764 150.681 29.1467 150.257 29.5293 149.818C29.912 149.37 30.2527 148.931 30.5513 148.502C30.8593 148.063 31.1067 147.643 31.2933 147.242C31.4893 146.841 31.5873 146.481 31.5873 146.164C31.5873 145.847 31.5313 145.562 31.4193 145.31C31.3167 145.058 31.172 144.848 30.9853 144.68C30.7987 144.503 30.5747 144.372 30.3133 144.288C30.0613 144.195 29.786 144.148 29.4873 144.148C29.2073 144.148 28.9413 144.204 28.6893 144.316C28.4467 144.428 28.2367 144.582 28.0593 144.778C27.882 144.965 27.742 145.189 27.6393 145.45C27.5367 145.702 27.4853 145.973 27.4853 146.262H26.5753C26.5753 145.833 26.65 145.441 26.7993 145.086C26.9487 144.731 27.154 144.428 27.4153 144.176C27.6767 143.924 27.9893 143.733 28.3533 143.602C28.7173 143.462 29.1093 143.392 29.5293 143.392C29.9587 143.392 30.3507 143.448 30.7053 143.56C31.0693 143.672 31.382 143.84 31.6433 144.064C31.914 144.288 32.124 144.573 32.2733 144.918C32.4227 145.254 32.4973 145.646 32.4973 146.094C32.4973 146.495 32.4087 146.906 32.2313 147.326C32.0633 147.746 31.8393 148.171 31.5593 148.6C31.2793 149.029 30.9573 149.454 30.5933 149.874C30.2293 150.294 29.8607 150.7 29.4873 151.092C29.114 151.484 28.7453 151.857 28.3813 152.212C28.0173 152.557 27.6953 152.87 27.4153 153.15H32.7213V153.948ZM40.61 153.948H34.632C34.5293 153.948 34.4593 153.929 34.422 153.892C34.394 153.864 34.38 153.799 34.38 153.696V153.024L35.206 152.198C35.542 151.862 35.8967 151.493 36.27 151.092C36.6527 150.681 37.0353 150.257 37.418 149.818C37.8007 149.37 38.1413 148.931 38.44 148.502C38.748 148.063 38.9953 147.643 39.182 147.242C39.378 146.841 39.476 146.481 39.476 146.164C39.476 145.847 39.42 145.562 39.308 145.31C39.2053 145.058 39.0607 144.848 38.874 144.68C38.6873 144.503 38.4633 144.372 38.202 144.288C37.95 144.195 37.6747 144.148 37.376 144.148C37.096 144.148 36.83 144.204 36.578 144.316C36.3353 144.428 36.1253 144.582 35.948 144.778C35.7707 144.965 35.6307 145.189 35.528 145.45C35.4253 145.702 35.374 145.973 35.374 146.262H34.464C34.464 145.833 34.5387 145.441 34.688 145.086C34.8373 144.731 35.0427 144.428 35.304 144.176C35.5653 143.924 35.878 143.733 36.242 143.602C36.606 143.462 36.998 143.392 37.418 143.392C37.8473 143.392 38.2393 143.448 38.594 143.56C38.958 143.672 39.2707 143.84 39.532 144.064C39.8027 144.288 40.0127 144.573 40.162 144.918C40.3113 145.254 40.386 145.646 40.386 146.094C40.386 146.495 40.2973 146.906 40.12 147.326C39.952 147.746 39.728 148.171 39.448 148.6C39.168 149.029 38.846 149.454 38.482 149.874C38.118 150.294 37.7493 150.7 37.376 151.092C37.0027 151.484 36.634 151.857 36.27 152.212C35.906 152.557 35.584 152.87 35.304 153.15H40.61V153.948Z" fill="black" fill-opacity="0.7"/>
<path d="M16.944 198.948H10.966C10.8633 198.948 10.7933 198.929 10.756 198.892C10.728 198.864 10.714 198.799 10.714 198.696V198.024L11.54 197.198C11.876 196.862 12.2307 196.493 12.604 196.092C12.9867 195.681 13.3693 195.257 13.752 194.818C14.1347 194.37 14.4753 193.931 14.774 193.502C15.082 193.063 15.3293 192.643 15.516 192.242C15.712 191.841 15.81 191.481 15.81 191.164C15.81 190.847 15.754 190.562 15.642 190.31C15.5393 190.058 15.3947 189.848 15.208 189.68C15.0213 189.503 14.7973 189.372 14.536 189.288C14.284 189.195 14.0087 189.148 13.71 189.148C13.43 189.148 13.164 189.204 12.912 189.316C12.6693 189.428 12.4593 189.582 12.282 189.778C12.1047 189.965 11.9647 190.189 11.862 190.45C11.7593 190.702 11.708 190.973 11.708 191.262H10.798C10.798 190.833 10.8727 190.441 11.022 190.086C11.1713 189.731 11.3767 189.428 11.638 189.176C11.8993 188.924 12.212 188.733 12.576 188.602C12.94 188.462 13.332 188.392 13.752 188.392C14.1813 188.392 14.5733 188.448 14.928 188.56C15.292 188.672 15.6047 188.84 15.866 189.064C16.1367 189.288 16.3467 189.573 16.496 189.918C16.6453 190.254 16.72 190.646 16.72 191.094C16.72 191.495 16.6313 191.906 16.454 192.326C16.286 192.746 16.062 193.171 15.782 193.6C15.502 194.029 15.18 194.454 14.816 194.874C14.452 195.294 14.0833 195.7 13.71 196.092C13.3367 196.484 12.968 196.857 12.604 197.212C12.24 197.557 11.918 197.87 11.638 198.15H16.944V198.948ZM22.7607 198.178C23.0873 197.982 23.3487 197.707 23.5447 197.352C23.7407 196.988 23.89 196.596 23.9927 196.176C24.1047 195.756 24.1747 195.331 24.2027 194.902C24.24 194.463 24.2587 194.076 24.2587 193.74C24.2587 193.469 24.2493 193.166 24.2307 192.83C24.212 192.494 24.17 192.153 24.1047 191.808C24.0487 191.453 23.9647 191.108 23.8527 190.772C23.75 190.436 23.6053 190.137 23.4187 189.876C23.2413 189.615 23.022 189.405 22.7607 189.246C22.4993 189.087 22.1913 189.008 21.8367 189.008C21.482 189.008 21.1787 189.087 20.9267 189.246C20.6747 189.405 20.46 189.615 20.2827 189.876C20.1147 190.137 19.9793 190.436 19.8767 190.772C19.774 191.108 19.6947 191.453 19.6387 191.808C19.592 192.153 19.5593 192.494 19.5407 192.83C19.5313 193.166 19.5267 193.469 19.5267 193.74C19.5267 194.001 19.5313 194.3 19.5407 194.636C19.5593 194.972 19.592 195.313 19.6387 195.658C19.6947 196.003 19.774 196.344 19.8767 196.68C19.9793 197.007 20.1147 197.301 20.2827 197.562C20.46 197.814 20.6747 198.019 20.9267 198.178C21.1787 198.337 21.482 198.416 21.8367 198.416C22.182 198.416 22.49 198.337 22.7607 198.178ZM24.5527 197.492C24.31 198.005 23.9693 198.421 23.5307 198.738C23.092 199.065 22.5273 199.228 21.8367 199.228C21.1647 199.228 20.614 199.065 20.1847 198.738C19.7647 198.421 19.4333 198.005 19.1907 197.492C18.9573 196.969 18.794 196.381 18.7007 195.728C18.6167 195.075 18.5747 194.412 18.5747 193.74C18.5747 193.068 18.6167 192.405 18.7007 191.752C18.794 191.089 18.9573 190.497 19.1907 189.974C19.4333 189.442 19.7647 189.017 20.1847 188.7C20.614 188.373 21.1647 188.21 21.8367 188.21C22.5273 188.21 23.092 188.373 23.5307 188.7C23.9693 189.017 24.31 189.442 24.5527 189.974C24.8047 190.497 24.9773 191.089 25.0707 191.752C25.164 192.405 25.2107 193.068 25.2107 193.74C25.2107 194.412 25.164 195.075 25.0707 195.728C24.9773 196.372 24.8047 196.96 24.5527 197.492ZM32.7213 198.948H26.7433C26.6407 198.948 26.5707 198.929 26.5333 198.892C26.5053 198.864 26.4913 198.799 26.4913 198.696V198.024L27.3173 197.198C27.6533 196.862 28.008 196.493 28.3813 196.092C28.764 195.681 29.1467 195.257 29.5293 194.818C29.912 194.37 30.2527 193.931 30.5513 193.502C30.8593 193.063 31.1067 192.643 31.2933 192.242C31.4893 191.841 31.5873 191.481 31.5873 191.164C31.5873 190.847 31.5313 190.562 31.4193 190.31C31.3167 190.058 31.172 189.848 30.9853 189.68C30.7987 189.503 30.5747 189.372 30.3133 189.288C30.0613 189.195 29.786 189.148 29.4873 189.148C29.2073 189.148 28.9413 189.204 28.6893 189.316C28.4467 189.428 28.2367 189.582 28.0593 189.778C27.882 189.965 27.742 190.189 27.6393 190.45C27.5367 190.702 27.4853 190.973 27.4853 191.262H26.5753C26.5753 190.833 26.65 190.441 26.7993 190.086C26.9487 189.731 27.154 189.428 27.4153 189.176C27.6767 188.924 27.9893 188.733 28.3533 188.602C28.7173 188.462 29.1093 188.392 29.5293 188.392C29.9587 188.392 30.3507 188.448 30.7053 188.56C31.0693 188.672 31.382 188.84 31.6433 189.064C31.914 189.288 32.124 189.573 32.2733 189.918C32.4227 190.254 32.4973 190.646 32.4973 191.094C32.4973 191.495 32.4087 191.906 32.2313 192.326C32.0633 192.746 31.8393 193.171 31.5593 193.6C31.2793 194.029 30.9573 194.454 30.5933 194.874C30.2293 195.294 29.8607 195.7 29.4873 196.092C29.114 196.484 28.7453 196.857 28.3813 197.212C28.0173 197.557 27.6953 197.87 27.4153 198.15H32.7213V198.948ZM35.052 196.302C35.1173 196.955 35.3507 197.469 35.752 197.842C36.1627 198.215 36.718 198.402 37.418 198.402C38.146 198.402 38.7247 198.201 39.154 197.8C39.5927 197.389 39.812 196.834 39.812 196.134C39.812 195.789 39.7373 195.485 39.588 195.224C39.448 194.953 39.2613 194.729 39.028 194.552C38.804 194.375 38.5427 194.239 38.244 194.146C37.9547 194.053 37.656 194.001 37.348 193.992H36.872C36.7787 193.992 36.718 193.983 36.69 193.964C36.6713 193.936 36.662 193.875 36.662 193.782V193.362C36.662 193.269 36.6713 193.213 36.69 193.194C36.718 193.166 36.7787 193.152 36.872 193.152H37.25C37.5767 193.143 37.88 193.096 38.16 193.012C38.44 192.919 38.6827 192.788 38.888 192.62C39.1027 192.452 39.2707 192.247 39.392 192.004C39.5133 191.761 39.5787 191.477 39.588 191.15C39.588 190.833 39.532 190.553 39.42 190.31C39.308 190.067 39.1493 189.862 38.944 189.694C38.748 189.526 38.5147 189.4 38.244 189.316C37.9827 189.232 37.698 189.19 37.39 189.19C36.746 189.19 36.2373 189.358 35.864 189.694C35.4907 190.03 35.2713 190.497 35.206 191.094H34.282C34.2913 190.674 34.3707 190.301 34.52 189.974C34.6787 189.638 34.8933 189.353 35.164 189.12C35.444 188.887 35.7753 188.709 36.158 188.588C36.5407 188.457 36.9653 188.392 37.432 188.392C37.852 188.392 38.244 188.453 38.608 188.574C38.9813 188.686 39.308 188.859 39.588 189.092C39.868 189.325 40.0873 189.615 40.246 189.96C40.414 190.305 40.498 190.707 40.498 191.164C40.498 191.444 40.456 191.71 40.372 191.962C40.288 192.214 40.1573 192.447 39.98 192.662C39.812 192.867 39.588 193.049 39.308 193.208C39.028 193.367 38.692 193.488 38.3 193.572C38.7107 193.628 39.0653 193.735 39.364 193.894C39.672 194.053 39.924 194.253 40.12 194.496C40.3253 194.729 40.4747 194.995 40.568 195.294C40.6707 195.583 40.722 195.896 40.722 196.232C40.722 196.736 40.6287 197.175 40.442 197.548C40.2553 197.912 40.008 198.22 39.7 198.472C39.392 198.715 39.0327 198.897 38.622 199.018C38.2207 199.139 37.8053 199.2 37.376 199.2C36.3587 199.2 35.57 198.943 35.01 198.43C34.45 197.917 34.1607 197.207 34.142 196.302H35.052Z" fill="black" fill-opacity="0.7"/>
<path d="M16.944 243.948H10.966C10.8633 243.948 10.7933 243.929 10.756 243.892C10.728 243.864 10.714 243.799 10.714 243.696V243.024L11.54 242.198C11.876 241.862 12.2307 241.493 12.604 241.092C12.9867 240.681 13.3693 240.257 13.752 239.818C14.1347 239.37 14.4753 238.931 14.774 238.502C15.082 238.063 15.3293 237.643 15.516 237.242C15.712 236.841 15.81 236.481 15.81 236.164C15.81 235.847 15.754 235.562 15.642 235.31C15.5393 235.058 15.3947 234.848 15.208 234.68C15.0213 234.503 14.7973 234.372 14.536 234.288C14.284 234.195 14.0087 234.148 13.71 234.148C13.43 234.148 13.164 234.204 12.912 234.316C12.6693 234.428 12.4593 234.582 12.282 234.778C12.1047 234.965 11.9647 235.189 11.862 235.45C11.7593 235.702 11.708 235.973 11.708 236.262H10.798C10.798 235.833 10.8727 235.441 11.022 235.086C11.1713 234.731 11.3767 234.428 11.638 234.176C11.8993 233.924 12.212 233.733 12.576 233.602C12.94 233.462 13.332 233.392 13.752 233.392C14.1813 233.392 14.5733 233.448 14.928 233.56C15.292 233.672 15.6047 233.84 15.866 234.064C16.1367 234.288 16.3467 234.573 16.496 234.918C16.6453 235.254 16.72 235.646 16.72 236.094C16.72 236.495 16.6313 236.906 16.454 237.326C16.286 237.746 16.062 238.171 15.782 238.6C15.502 239.029 15.18 239.454 14.816 239.874C14.452 240.294 14.0833 240.7 13.71 241.092C13.3367 241.484 12.968 241.857 12.604 242.212C12.24 242.557 11.918 242.87 11.638 243.15H16.944V243.948ZM22.7607 243.178C23.0873 242.982 23.3487 242.707 23.5447 242.352C23.7407 241.988 23.89 241.596 23.9927 241.176C24.1047 240.756 24.1747 240.331 24.2027 239.902C24.24 239.463 24.2587 239.076 24.2587 238.74C24.2587 238.469 24.2493 238.166 24.2307 237.83C24.212 237.494 24.17 237.153 24.1047 236.808C24.0487 236.453 23.9647 236.108 23.8527 235.772C23.75 235.436 23.6053 235.137 23.4187 234.876C23.2413 234.615 23.022 234.405 22.7607 234.246C22.4993 234.087 22.1913 234.008 21.8367 234.008C21.482 234.008 21.1787 234.087 20.9267 234.246C20.6747 234.405 20.46 234.615 20.2827 234.876C20.1147 235.137 19.9793 235.436 19.8767 235.772C19.774 236.108 19.6947 236.453 19.6387 236.808C19.592 237.153 19.5593 237.494 19.5407 237.83C19.5313 238.166 19.5267 238.469 19.5267 238.74C19.5267 239.001 19.5313 239.3 19.5407 239.636C19.5593 239.972 19.592 240.313 19.6387 240.658C19.6947 241.003 19.774 241.344 19.8767 241.68C19.9793 242.007 20.1147 242.301 20.2827 242.562C20.46 242.814 20.6747 243.019 20.9267 243.178C21.1787 243.337 21.482 243.416 21.8367 243.416C22.182 243.416 22.49 243.337 22.7607 243.178ZM24.5527 242.492C24.31 243.005 23.9693 243.421 23.5307 243.738C23.092 244.065 22.5273 244.228 21.8367 244.228C21.1647 244.228 20.614 244.065 20.1847 243.738C19.7647 243.421 19.4333 243.005 19.1907 242.492C18.9573 241.969 18.794 241.381 18.7007 240.728C18.6167 240.075 18.5747 239.412 18.5747 238.74C18.5747 238.068 18.6167 237.405 18.7007 236.752C18.794 236.089 18.9573 235.497 19.1907 234.974C19.4333 234.442 19.7647 234.017 20.1847 233.7C20.614 233.373 21.1647 233.21 21.8367 233.21C22.5273 233.21 23.092 233.373 23.5307 233.7C23.9693 234.017 24.31 234.442 24.5527 234.974C24.8047 235.497 24.9773 236.089 25.0707 236.752C25.164 237.405 25.2107 238.068 25.2107 238.74C25.2107 239.412 25.164 240.075 25.0707 240.728C24.9773 241.372 24.8047 241.96 24.5527 242.492ZM32.7213 243.948H26.7433C26.6407 243.948 26.5707 243.929 26.5333 243.892C26.5053 243.864 26.4913 243.799 26.4913 243.696V243.024L27.3173 242.198C27.6533 241.862 28.008 241.493 28.3813 241.092C28.764 240.681 29.1467 240.257 29.5293 239.818C29.912 239.37 30.2527 238.931 30.5513 238.502C30.8593 238.063 31.1067 237.643 31.2933 237.242C31.4893 236.841 31.5873 236.481 31.5873 236.164C31.5873 235.847 31.5313 235.562 31.4193 235.31C31.3167 235.058 31.172 234.848 30.9853 234.68C30.7987 234.503 30.5747 234.372 30.3133 234.288C30.0613 234.195 29.786 234.148 29.4873 234.148C29.2073 234.148 28.9413 234.204 28.6893 234.316C28.4467 234.428 28.2367 234.582 28.0593 234.778C27.882 234.965 27.742 235.189 27.6393 235.45C27.5367 235.702 27.4853 235.973 27.4853 236.262H26.5753C26.5753 235.833 26.65 235.441 26.7993 235.086C26.9487 234.731 27.154 234.428 27.4153 234.176C27.6767 233.924 27.9893 233.733 28.3533 233.602C28.7173 233.462 29.1093 233.392 29.5293 233.392C29.9587 233.392 30.3507 233.448 30.7053 233.56C31.0693 233.672 31.382 233.84 31.6433 234.064C31.914 234.288 32.124 234.573 32.2733 234.918C32.4227 235.254 32.4973 235.646 32.4973 236.094C32.4973 236.495 32.4087 236.906 32.2313 237.326C32.0633 237.746 31.8393 238.171 31.5593 238.6C31.2793 239.029 30.9573 239.454 30.5933 239.874C30.2293 240.294 29.8607 240.7 29.4873 241.092C29.114 241.484 28.7453 241.857 28.3813 242.212C28.0173 242.557 27.6953 242.87 27.4153 243.15H32.7213V243.948ZM38.706 240.854V235.996L38.748 234.246L34.772 240.854H38.706ZM39.56 243.948H38.678V241.652H34.226C34.1233 241.652 34.0533 241.638 34.016 241.61C33.988 241.573 33.974 241.503 33.974 241.4V240.882C33.974 240.761 34.016 240.635 34.1 240.504L38.244 233.616C38.2813 233.532 38.356 233.49 38.468 233.49H39.308C39.4107 233.49 39.476 233.509 39.504 233.546C39.5413 233.574 39.56 233.639 39.56 233.742V240.854H41.128V241.652H39.56V243.948Z" fill="black" fill-opacity="0.7"/>
<path d="M16.944 288.948H10.966C10.8633 288.948 10.7933 288.929 10.756 288.892C10.728 288.864 10.714 288.799 10.714 288.696V288.024L11.54 287.198C11.876 286.862 12.2307 286.493 12.604 286.092C12.9867 285.681 13.3693 285.257 13.752 284.818C14.1347 284.37 14.4753 283.931 14.774 283.502C15.082 283.063 15.3293 282.643 15.516 282.242C15.712 281.841 15.81 281.481 15.81 281.164C15.81 280.847 15.754 280.562 15.642 280.31C15.5393 280.058 15.3947 279.848 15.208 279.68C15.0213 279.503 14.7973 279.372 14.536 279.288C14.284 279.195 14.0087 279.148 13.71 279.148C13.43 279.148 13.164 279.204 12.912 279.316C12.6693 279.428 12.4593 279.582 12.282 279.778C12.1047 279.965 11.9647 280.189 11.862 280.45C11.7593 280.702 11.708 280.973 11.708 281.262H10.798C10.798 280.833 10.8727 280.441 11.022 280.086C11.1713 279.731 11.3767 279.428 11.638 279.176C11.8993 278.924 12.212 278.733 12.576 278.602C12.94 278.462 13.332 278.392 13.752 278.392C14.1813 278.392 14.5733 278.448 14.928 278.56C15.292 278.672 15.6047 278.84 15.866 279.064C16.1367 279.288 16.3467 279.573 16.496 279.918C16.6453 280.254 16.72 280.646 16.72 281.094C16.72 281.495 16.6313 281.906 16.454 282.326C16.286 282.746 16.062 283.171 15.782 283.6C15.502 284.029 15.18 284.454 14.816 284.874C14.452 285.294 14.0833 285.7 13.71 286.092C13.3367 286.484 12.968 286.857 12.604 287.212C12.24 287.557 11.918 287.87 11.638 288.15H16.944V288.948ZM22.7607 288.178C23.0873 287.982 23.3487 287.707 23.5447 287.352C23.7407 286.988 23.89 286.596 23.9927 286.176C24.1047 285.756 24.1747 285.331 24.2027 284.902C24.24 284.463 24.2587 284.076 24.2587 283.74C24.2587 283.469 24.2493 283.166 24.2307 282.83C24.212 282.494 24.17 282.153 24.1047 281.808C24.0487 281.453 23.9647 281.108 23.8527 280.772C23.75 280.436 23.6053 280.137 23.4187 279.876C23.2413 279.615 23.022 279.405 22.7607 279.246C22.4993 279.087 22.1913 279.008 21.8367 279.008C21.482 279.008 21.1787 279.087 20.9267 279.246C20.6747 279.405 20.46 279.615 20.2827 279.876C20.1147 280.137 19.9793 280.436 19.8767 280.772C19.774 281.108 19.6947 281.453 19.6387 281.808C19.592 282.153 19.5593 282.494 19.5407 282.83C19.5313 283.166 19.5267 283.469 19.5267 283.74C19.5267 284.001 19.5313 284.3 19.5407 284.636C19.5593 284.972 19.592 285.313 19.6387 285.658C19.6947 286.003 19.774 286.344 19.8767 286.68C19.9793 287.007 20.1147 287.301 20.2827 287.562C20.46 287.814 20.6747 288.019 20.9267 288.178C21.1787 288.337 21.482 288.416 21.8367 288.416C22.182 288.416 22.49 288.337 22.7607 288.178ZM24.5527 287.492C24.31 288.005 23.9693 288.421 23.5307 288.738C23.092 289.065 22.5273 289.228 21.8367 289.228C21.1647 289.228 20.614 289.065 20.1847 288.738C19.7647 288.421 19.4333 288.005 19.1907 287.492C18.9573 286.969 18.794 286.381 18.7007 285.728C18.6167 285.075 18.5747 284.412 18.5747 283.74C18.5747 283.068 18.6167 282.405 18.7007 281.752C18.794 281.089 18.9573 280.497 19.1907 279.974C19.4333 279.442 19.7647 279.017 20.1847 278.7C20.614 278.373 21.1647 278.21 21.8367 278.21C22.5273 278.21 23.092 278.373 23.5307 278.7C23.9693 279.017 24.31 279.442 24.5527 279.974C24.8047 280.497 24.9773 281.089 25.0707 281.752C25.164 282.405 25.2107 283.068 25.2107 283.74C25.2107 284.412 25.164 285.075 25.0707 285.728C24.9773 286.372 24.8047 286.96 24.5527 287.492ZM32.7213 288.948H26.7433C26.6407 288.948 26.5707 288.929 26.5333 288.892C26.5053 288.864 26.4913 288.799 26.4913 288.696V288.024L27.3173 287.198C27.6533 286.862 28.008 286.493 28.3813 286.092C28.764 285.681 29.1467 285.257 29.5293 284.818C29.912 284.37 30.2527 283.931 30.5513 283.502C30.8593 283.063 31.1067 282.643 31.2933 282.242C31.4893 281.841 31.5873 281.481 31.5873 281.164C31.5873 280.847 31.5313 280.562 31.4193 280.31C31.3167 280.058 31.172 279.848 30.9853 279.68C30.7987 279.503 30.5747 279.372 30.3133 279.288C30.0613 279.195 29.786 279.148 29.4873 279.148C29.2073 279.148 28.9413 279.204 28.6893 279.316C28.4467 279.428 28.2367 279.582 28.0593 279.778C27.882 279.965 27.742 280.189 27.6393 280.45C27.5367 280.702 27.4853 280.973 27.4853 281.262H26.5753C26.5753 280.833 26.65 280.441 26.7993 280.086C26.9487 279.731 27.154 279.428 27.4153 279.176C27.6767 278.924 27.9893 278.733 28.3533 278.602C28.7173 278.462 29.1093 278.392 29.5293 278.392C29.9587 278.392 30.3507 278.448 30.7053 278.56C31.0693 278.672 31.382 278.84 31.6433 279.064C31.914 279.288 32.124 279.573 32.2733 279.918C32.4227 280.254 32.4973 280.646 32.4973 281.094C32.4973 281.495 32.4087 281.906 32.2313 282.326C32.0633 282.746 31.8393 283.171 31.5593 283.6C31.2793 284.029 30.9573 284.454 30.5933 284.874C30.2293 285.294 29.8607 285.7 29.4873 286.092C29.114 286.484 28.7453 286.857 28.3813 287.212C28.0173 287.557 27.6953 287.87 27.4153 288.15H32.7213V288.948ZM35.458 286.582C35.5607 287.198 35.808 287.66 36.2 287.968C36.592 288.276 37.11 288.43 37.754 288.43C38.062 288.43 38.3513 288.365 38.622 288.234C38.8927 288.103 39.126 287.921 39.322 287.688C39.5273 287.445 39.686 287.156 39.798 286.82C39.9193 286.484 39.98 286.111 39.98 285.7C39.98 285.252 39.924 284.86 39.812 284.524C39.7 284.179 39.546 283.894 39.35 283.67C39.154 283.437 38.9207 283.264 38.65 283.152C38.3793 283.031 38.0853 282.97 37.768 282.97C37.264 282.97 36.83 283.096 36.466 283.348C36.1113 283.6 35.8547 283.95 35.696 284.398C35.668 284.473 35.6353 284.519 35.598 284.538C35.57 284.557 35.5187 284.566 35.444 284.566H35.01C34.842 284.566 34.758 284.482 34.758 284.314L34.926 278.896C34.926 278.793 34.94 278.728 34.968 278.7C35.0053 278.663 35.0753 278.644 35.178 278.644H40.344V279.414H35.752L35.584 283.32C35.8547 282.928 36.2047 282.648 36.634 282.48C37.0727 282.303 37.53 282.214 38.006 282.214C38.4073 282.214 38.7807 282.284 39.126 282.424C39.4807 282.564 39.7887 282.779 40.05 283.068C40.3113 283.348 40.5167 283.707 40.666 284.146C40.8153 284.585 40.89 285.098 40.89 285.686C40.89 286.209 40.8153 286.685 40.666 287.114C40.5167 287.543 40.302 287.912 40.022 288.22C39.742 288.528 39.406 288.766 39.014 288.934C38.622 289.111 38.1833 289.2 37.698 289.2C37.2593 289.2 36.8533 289.139 36.48 289.018C36.116 288.906 35.794 288.738 35.514 288.514C35.234 288.299 35.01 288.029 34.842 287.702C34.674 287.375 34.576 287.002 34.548 286.582H35.458Z" fill="black" fill-opacity="0.7"/>
<line x1="639.5" y1="37" x2="639.5" y2="307" stroke="#00001A" stroke-opacity="0.15" stroke-dasharray="2"/>
<line x1="520.898" y1="37" x2="520.898" y2="307" stroke="#00001A" stroke-opacity="0.15" stroke-dasharray="2"/>
<line x1="402.301" y1="37" x2="402.301" y2="307" stroke="#00001A" stroke-opacity="0.15" stroke-dasharray="2"/>
<line x1="283.699" y1="37" x2="283.699" y2="307" stroke="#00001A" stroke-opacity="0.15" stroke-dasharray="2"/>
<line x1="165.102" y1="37" x2="165.102" y2="307" stroke="#00001A" stroke-opacity="0.15" stroke-dasharray="2"/>
<line x1="46.5" y1="37" x2="46.5" y2="307" stroke="#00001A" stroke-opacity="0.3"/>
<rect opacity="0.6" x="121" y="54" width="22" height="74.25" transform="rotate(90 121 54)" fill="#A4C6E0"/>
<rect x="121" y="54" width="22" height="3" transform="rotate(90 121 54)" fill="#A4C6E0"/>
<rect opacity="0.6" x="269" y="99" width="22" height="221.75" transform="rotate(90 269 99)" fill="#A4C6E0"/>
<rect x="269" y="99" width="22" height="3" transform="rotate(90 269 99)" fill="#A4C6E0"/>
<rect opacity="0.6" x="357.801" y="144" width="22" height="310.85" transform="rotate(90 357.801 144)" fill="#A4C6E0"/>
<rect x="357.801" y="144" width="22" height="3" transform="rotate(90 357.801 144)" fill="#A4C6E0"/>
<rect opacity="0.6" x="417" y="189" width="22" height="370.25" transform="rotate(90 417 189)" fill="#A4C6E0"/>
<rect x="417" y="189" width="22" height="3" transform="rotate(90 417 189)" fill="#A4C6E0"/>
<rect opacity="0.6" x="550.199" y="234" width="22" height="502.9" transform="rotate(90 550.199 234)" fill="#A4C6E0"/>
<rect x="550.199" y="234" width="22" height="3" transform="rotate(90 550.199 234)" fill="#A4C6E0"/>
<rect opacity="0.6" x="609.398" y="279" width="22" height="562.3" transform="rotate(90 609.398 279)" fill="#A4C6E0"/>
<rect x="609.398" y="279" width="22" height="3" transform="rotate(90 609.398 279)" fill="#A4C6E0"/>
<rect x="283.5" y="345" width="7" height="7" fill="#A4C6E0" stroke="white"/>
<path d="M312.488 353.208H299.4V352.344H305.432V350.296C304.141 350.243 303.171 349.981 302.52 349.512C301.88 349.043 301.56 348.451 301.56 347.736C301.56 347.352 301.651 347.005 301.832 346.696C302.024 346.376 302.301 346.099 302.664 345.864C303.037 345.629 303.496 345.448 304.04 345.32C304.584 345.192 305.219 345.128 305.944 345.128C306.659 345.128 307.288 345.192 307.832 345.32C308.387 345.448 308.845 345.629 309.208 345.864C309.581 346.099 309.859 346.376 310.04 346.696C310.232 347.005 310.328 347.352 310.328 347.736C310.328 348.472 309.997 349.069 309.336 349.528C308.685 349.987 307.715 350.243 306.424 350.296V352.344H312.488V353.208ZM308.664 342.248H303.176V341.336H308.664V342.248ZM311.24 344.28H300.616V343.416H311.24V344.28ZM308.408 349.016C308.931 348.685 309.192 348.248 309.192 347.704C309.192 347.16 308.931 346.728 308.408 346.408C307.896 346.088 307.075 345.928 305.944 345.928C304.813 345.928 303.987 346.088 303.464 346.408C302.952 346.728 302.696 347.16 302.696 347.704C302.696 348.248 302.952 348.685 303.464 349.016C303.987 349.347 304.813 349.512 305.944 349.512C307.096 349.512 307.917 349.347 308.408 349.016ZM320.697 347.368C320.366 347.421 319.966 347.475 319.497 347.528C319.028 347.581 318.489 347.624 317.881 347.656C317.476 347.677 317.086 347.693 316.713 347.704C316.35 347.715 316.025 347.72 315.737 347.72C315.449 347.731 315.214 347.736 315.033 347.736C314.862 347.725 314.766 347.72 314.745 347.72C314.628 347.72 314.548 347.699 314.505 347.656C314.462 347.603 314.441 347.523 314.441 347.416V341.816C314.441 341.72 314.462 341.645 314.505 341.592C314.548 341.539 314.628 341.512 314.745 341.512H319.641V342.328H315.401V344.104H319.257V344.904H315.401V346.872L317.769 346.84C318.014 346.84 318.276 346.829 318.553 346.808C318.83 346.787 319.102 346.76 319.369 346.728C319.625 346.707 319.87 346.68 320.105 346.648C320.34 346.616 320.537 346.584 320.697 346.552V347.368ZM325.417 348.312H324.393V340.904H325.417V348.312ZM322.697 348.328H321.689V344.584H319.689V343.736H321.689V341.16H322.697V348.328ZM325.721 354.936H316.409C316.292 354.936 316.212 354.915 316.169 354.872C316.126 354.829 316.105 354.749 316.105 354.632V351.896C316.105 351.789 316.126 351.715 316.169 351.672C316.212 351.619 316.292 351.592 316.409 351.592H324.345V349.912H316.105V349.08H325.081C325.284 349.08 325.385 349.181 325.385 349.384V352.12C325.385 352.237 325.358 352.317 325.305 352.36C325.262 352.403 325.188 352.424 325.081 352.424H317.161V354.104H325.721V354.936ZM336.906 348.584C336.65 348.637 336.32 348.696 335.914 348.76C335.52 348.813 335.082 348.867 334.602 348.92C334.122 348.984 333.648 349.037 333.178 349.08C332.709 349.112 332.288 349.133 331.914 349.144C331.509 349.165 331.12 349.181 330.746 349.192C330.384 349.192 330.058 349.192 329.77 349.192H328.746C328.629 349.192 328.549 349.171 328.506 349.128C328.464 349.075 328.442 348.995 328.442 348.888V345.208C328.442 345.112 328.464 345.037 328.506 344.984C328.549 344.931 328.629 344.904 328.746 344.904H333.594V342.312H328.442V341.48H334.266C334.469 341.48 334.57 341.581 334.57 341.784V345.432C334.57 345.635 334.469 345.736 334.266 345.736H329.418V348.296L331.722 348.264C332.053 348.264 332.453 348.248 332.922 348.216C333.402 348.184 333.888 348.141 334.378 348.088C334.869 348.035 335.338 347.976 335.786 347.912C336.234 347.848 336.608 347.784 336.906 347.72V348.584ZM339.066 351.48H338.042V345.24H335.306V344.36H338.042V340.904H339.066V351.48ZM339.434 354.808H330.314C330.197 354.808 330.117 354.787 330.074 354.744C330.032 354.701 330.01 354.621 330.01 354.504V350.6H331.034V353.944H339.434V354.808ZM352.859 348.52H343.371C343.254 348.52 343.174 348.499 343.131 348.456C343.089 348.403 343.067 348.323 343.067 348.216V342.072C343.067 341.976 343.089 341.901 343.131 341.848C343.174 341.795 343.254 341.768 343.371 341.768H352.699V342.616H344.059V347.672H352.859V348.52ZM354.347 353.016H341.259V352.152H354.347V353.016ZM365.341 351.016C365.127 351.059 364.845 351.107 364.493 351.16C364.151 351.213 363.757 351.267 363.309 351.32C362.882 351.373 362.429 351.421 361.949 351.464C361.479 351.507 361.021 351.533 360.573 351.544C360.125 351.565 359.687 351.581 359.261 351.592C358.834 351.592 358.45 351.592 358.109 351.592H356.877C356.759 351.592 356.679 351.571 356.637 351.528C356.594 351.475 356.573 351.395 356.573 351.288V346.44C356.573 346.344 356.594 346.269 356.637 346.216C356.679 346.163 356.759 346.136 356.877 346.136H361.901V342.52H356.573V341.656H362.573C362.775 341.656 362.877 341.757 362.877 341.96V346.68C362.877 346.883 362.775 346.984 362.573 346.984H357.581V350.68L360.253 350.648C360.733 350.648 361.223 350.627 361.725 350.584C362.237 350.541 362.733 350.493 363.213 350.44C363.671 350.376 364.087 350.317 364.461 350.264C364.845 350.211 365.138 350.163 365.341 350.12V351.016ZM366.989 355.112H365.965V340.904H366.989V355.112Z" fill="black" fill-opacity="0.7"/>
</svg>
