<svg width="40" height="40" viewBox="0 0 40 40" fill="none" xmlns="http://www.w3.org/2000/svg">
<circle cx="20" cy="20" r="19.5" fill="white" stroke="#DDDDDD"/>
<path d="M16.8636 12.2263C16.7846 12.1428 16.7229 12.0445 16.682 11.9372C16.641 11.8298 16.6216 11.7154 16.6248 11.6005C16.6281 11.4856 16.6539 11.3725 16.7009 11.2676C16.7479 11.1627 16.815 11.068 16.8986 10.9891C16.9821 10.9102 17.0804 10.8484 17.1878 10.8075C17.2952 10.7665 17.4096 10.7471 17.5244 10.7504C17.6393 10.7536 17.7525 10.7794 17.8574 10.8264C17.9623 10.8734 18.0569 10.9406 18.1358 11.0241L25.5733 18.8991C25.7269 19.0616 25.8125 19.2766 25.8125 19.5002C25.8125 19.7238 25.7269 19.9389 25.5733 20.1013L18.1358 27.9772C18.0574 28.0626 17.9628 28.1315 17.8575 28.18C17.7522 28.2285 17.6384 28.2556 17.5225 28.2597C17.4067 28.2638 17.2912 28.2449 17.1827 28.204C17.0742 28.1631 16.975 28.101 16.8907 28.0215C16.8064 27.9419 16.7388 27.8463 16.6917 27.7404C16.6447 27.6344 16.6192 27.5202 16.6167 27.4043C16.6141 27.2884 16.6347 27.1732 16.677 27.0653C16.7194 26.9574 16.7828 26.859 16.8636 26.7758L23.7341 19.5002L16.8636 12.2263Z" fill="#666666"/>
</svg>
