<svg width="40" height="40" viewBox="0 0 40 40" fill="none" xmlns="http://www.w3.org/2000/svg">
<circle cx="20" cy="20" r="19.5" fill="white" stroke="#DDDDDD"/>
<path d="M14.0701 14.4701C13.981 14.381 13.9103 14.2752 13.8621 14.1588C13.8139 14.0424 13.7891 13.9176 13.7891 13.7916C13.7891 13.6656 13.8139 13.5408 13.8621 13.4244C13.9103 13.308 13.981 13.2022 14.0701 13.1131C14.1592 13.024 14.265 12.9533 14.3814 12.9051C14.4978 12.8569 14.6226 12.832 14.7486 12.832C14.8746 12.832 14.9994 12.8569 15.1158 12.9051C15.2322 12.9533 15.338 13.024 15.4271 13.1131L22.1354 19.8214C22.2247 19.9104 22.2955 20.0162 22.3438 20.1326C22.3921 20.249 22.417 20.3739 22.417 20.4999C22.417 20.626 22.3921 20.7508 22.3438 20.8672C22.2955 20.9836 22.2247 21.0894 22.1354 21.1784L15.4271 27.8867C15.338 27.9758 15.2322 28.0465 15.1158 28.0947C14.9994 28.143 14.8746 28.1678 14.7486 28.1678C14.6226 28.1678 14.4978 28.143 14.3814 28.0947C14.265 28.0465 14.1592 27.9758 14.0701 27.8867C13.981 27.7976 13.9103 27.6919 13.8621 27.5754C13.8139 27.459 13.7891 27.3343 13.7891 27.2082C13.7891 27.0822 13.8139 26.9575 13.8621 26.841C13.9103 26.7246 13.981 26.6188 14.0701 26.5297L20.1019 20.4999L14.0701 14.4701ZM28.1653 13.7916C28.1653 13.5374 28.0643 13.2937 27.8846 13.1139C27.7049 12.9342 27.4611 12.8332 27.2069 12.8332C26.9528 12.8332 26.709 12.9342 26.5293 13.1139C26.3496 13.2937 26.2486 13.5374 26.2486 13.7916V27.2082C26.2486 27.4624 26.3496 27.7062 26.5293 27.8859C26.709 28.0656 26.9528 28.1666 27.2069 28.1666C27.4611 28.1666 27.7049 28.0656 27.8846 27.8859C28.0643 27.7062 28.1653 27.4624 28.1653 27.2082V13.7916Z" fill="#666666"/>
</svg>
