<svg width="626" height="424" viewBox="0 0 626 424" fill="none" xmlns="http://www.w3.org/2000/svg">
<g filter="url(#filter0_d_447_375)">
<path d="M17 25C17 13.9543 25.9543 5 37 5H619V405H37C25.9543 405 17 396.046 17 385V25Z" fill="#A4C6E0" fill-opacity="0.2" shape-rendering="crispEdges"/>
</g>
<path d="M161 218C161 215.239 163.239 213 166 213H200C202.761 213 205 215.239 205 218V330H161V218Z" fill="#102254" fill-opacity="0.4"/>
<path d="M173 351.512H165.976C165.88 351.512 165.816 351.496 165.784 351.464C165.763 351.432 165.752 351.368 165.752 351.272V350.312C165.997 350.077 166.307 349.773 166.68 349.4C167.064 349.027 167.464 348.616 167.88 348.168C168.307 347.709 168.728 347.235 169.144 346.744C169.571 346.253 169.949 345.768 170.28 345.288C170.621 344.797 170.899 344.333 171.112 343.896C171.325 343.459 171.432 343.075 171.432 342.744C171.443 342.04 171.24 341.517 170.824 341.176C170.419 340.835 169.896 340.664 169.256 340.664C168.637 340.664 168.131 340.872 167.736 341.288C167.352 341.704 167.16 342.264 167.16 342.968H165.848C165.848 342.445 165.933 341.976 166.104 341.56C166.285 341.144 166.531 340.787 166.84 340.488C167.149 340.189 167.512 339.96 167.928 339.8C168.344 339.64 168.797 339.56 169.288 339.56C169.779 339.56 170.232 339.629 170.648 339.768C171.075 339.896 171.443 340.088 171.752 340.344C172.061 340.6 172.301 340.92 172.472 341.304C172.653 341.688 172.744 342.136 172.744 342.648C172.744 343.085 172.648 343.544 172.456 344.024C172.264 344.504 172.008 344.989 171.688 345.48C171.379 345.96 171.021 346.44 170.616 346.92C170.221 347.389 169.816 347.837 169.4 348.264C168.995 348.691 168.6 349.091 168.216 349.464C167.832 349.827 167.496 350.141 167.208 350.408H173V351.512ZM179.2 350.44C179.552 350.227 179.829 349.928 180.032 349.544C180.245 349.16 180.405 348.739 180.512 348.28C180.629 347.821 180.704 347.357 180.736 346.888C180.768 346.419 180.784 345.992 180.784 345.608C180.784 345.16 180.757 344.643 180.704 344.056C180.65 343.459 180.533 342.893 180.352 342.36C180.181 341.827 179.925 341.379 179.584 341.016C179.242 340.643 178.784 340.456 178.208 340.456C177.642 340.456 177.194 340.643 176.864 341.016C176.544 341.379 176.298 341.827 176.128 342.36C175.968 342.893 175.866 343.459 175.824 344.056C175.781 344.643 175.76 345.16 175.76 345.608C175.76 345.907 175.765 346.237 175.776 346.6C175.797 346.963 175.834 347.336 175.888 347.72C175.941 348.093 176.021 348.461 176.128 348.824C176.234 349.176 176.378 349.491 176.56 349.768C176.741 350.045 176.965 350.269 177.232 350.44C177.498 350.611 177.824 350.696 178.208 350.696C178.602 350.696 178.933 350.611 179.2 350.44ZM181.36 349.832C181.082 350.419 180.688 350.893 180.176 351.256C179.664 351.629 179.008 351.816 178.208 351.816C177.418 351.816 176.778 351.629 176.288 351.256C175.797 350.893 175.413 350.419 175.136 349.832C174.858 349.245 174.672 348.584 174.576 347.848C174.48 347.101 174.432 346.355 174.432 345.608C174.432 344.861 174.48 344.115 174.576 343.368C174.672 342.621 174.858 341.949 175.136 341.352C175.413 340.755 175.797 340.275 176.288 339.912C176.778 339.539 177.418 339.352 178.208 339.352C179.008 339.352 179.658 339.539 180.16 339.912C180.672 340.275 181.072 340.755 181.36 341.352C181.648 341.949 181.845 342.621 181.952 343.368C182.058 344.115 182.112 344.861 182.112 345.608C182.112 346.376 182.058 347.123 181.952 347.848C181.845 348.563 181.648 349.224 181.36 349.832ZM187.959 351.512H186.695V341.208C186.407 341.517 186.05 341.811 185.623 342.088C185.197 342.365 184.722 342.637 184.199 342.904V341.688C184.679 341.475 185.127 341.213 185.543 340.904C185.97 340.584 186.37 340.227 186.743 339.832H187.655C187.773 339.832 187.853 339.853 187.895 339.896C187.938 339.939 187.959 340.019 187.959 340.136V351.512ZM194.767 351.512H193.343L197.727 340.936H191.855V339.832H198.767C198.97 339.832 199.071 339.933 199.071 340.136V340.744C199.071 340.829 199.055 340.909 199.023 340.984C199.002 341.059 198.975 341.128 198.943 341.192L194.767 351.512Z" fill="#1C262B"/>
<path d="M164.962 201.012C165.166 202.764 166.12 203.64 167.824 203.64C168.724 203.64 169.426 203.406 169.93 202.938C170.446 202.47 170.704 201.804 170.704 200.94C170.704 200.496 170.62 200.118 170.452 199.806C170.284 199.482 170.062 199.218 169.786 199.014C169.51 198.81 169.192 198.66 168.832 198.564C168.472 198.456 168.106 198.396 167.734 198.384H167.014C166.882 198.384 166.798 198.372 166.762 198.348C166.738 198.312 166.726 198.228 166.726 198.096V197.43C166.726 197.286 166.738 197.19 166.762 197.142C166.798 197.094 166.882 197.07 167.014 197.07H167.608C167.98 197.058 168.334 197.01 168.67 196.926C169.006 196.83 169.3 196.692 169.552 196.512C169.816 196.32 170.026 196.08 170.182 195.792C170.338 195.504 170.416 195.15 170.416 194.73C170.416 193.962 170.164 193.38 169.66 192.984C169.168 192.576 168.544 192.372 167.788 192.372C166.192 192.372 165.316 193.164 165.16 194.748H163.72C163.732 194.196 163.84 193.698 164.044 193.254C164.248 192.798 164.53 192.414 164.89 192.102C165.25 191.79 165.676 191.55 166.168 191.382C166.672 191.214 167.23 191.13 167.842 191.13C168.382 191.13 168.892 191.202 169.372 191.346C169.852 191.478 170.278 191.688 170.65 191.976C171.022 192.264 171.316 192.63 171.532 193.074C171.748 193.518 171.856 194.046 171.856 194.658C171.856 195.042 171.79 195.408 171.658 195.756C171.538 196.092 171.358 196.398 171.118 196.674C170.89 196.95 170.608 197.184 170.272 197.376C169.948 197.568 169.588 197.7 169.192 197.772C169.636 197.832 170.038 197.958 170.398 198.15C170.758 198.342 171.064 198.582 171.316 198.87C171.58 199.158 171.784 199.494 171.928 199.878C172.072 200.262 172.144 200.67 172.144 201.102C172.144 201.774 172.018 202.35 171.766 202.83C171.526 203.298 171.202 203.688 170.794 204C170.398 204.3 169.936 204.522 169.408 204.666C168.88 204.81 168.334 204.882 167.77 204.882C167.122 204.882 166.54 204.792 166.024 204.612C165.508 204.444 165.07 204.192 164.71 203.856C164.35 203.52 164.068 203.112 163.864 202.632C163.66 202.152 163.552 201.612 163.54 201.012H164.962ZM179.101 200.454V194.496L179.137 192.84L174.493 200.454H179.101ZM180.469 204.576H179.065V201.696H173.467C173.239 201.696 173.125 201.582 173.125 201.354V200.598C173.125 200.43 173.179 200.262 173.287 200.094L178.543 191.472C178.615 191.316 178.735 191.238 178.903 191.238H180.127C180.259 191.238 180.349 191.262 180.397 191.31C180.445 191.358 180.469 191.448 180.469 191.58V200.454H182.431V201.696H180.469V204.576ZM188.757 203.37C189.153 203.13 189.465 202.794 189.693 202.362C189.933 201.93 190.113 201.456 190.233 200.94C190.365 200.424 190.449 199.902 190.485 199.374C190.521 198.846 190.539 198.366 190.539 197.934C190.539 197.43 190.509 196.848 190.449 196.188C190.389 195.516 190.257 194.88 190.053 194.28C189.861 193.68 189.573 193.176 189.189 192.768C188.805 192.348 188.289 192.138 187.641 192.138C187.005 192.138 186.501 192.348 186.129 192.768C185.769 193.176 185.493 193.68 185.301 194.28C185.121 194.88 185.007 195.516 184.959 196.188C184.911 196.848 184.887 197.43 184.887 197.934C184.887 198.27 184.893 198.642 184.905 199.05C184.929 199.458 184.971 199.878 185.031 200.31C185.091 200.73 185.181 201.144 185.301 201.552C185.421 201.948 185.583 202.302 185.787 202.614C185.991 202.926 186.243 203.178 186.543 203.37C186.843 203.562 187.209 203.658 187.641 203.658C188.085 203.658 188.457 203.562 188.757 203.37ZM191.187 202.686C190.875 203.346 190.431 203.88 189.855 204.288C189.279 204.708 188.541 204.918 187.641 204.918C186.753 204.918 186.033 204.708 185.481 204.288C184.929 203.88 184.497 203.346 184.185 202.686C183.873 202.026 183.663 201.282 183.555 200.454C183.447 199.614 183.393 198.774 183.393 197.934C183.393 197.094 183.447 196.254 183.555 195.414C183.663 194.574 183.873 193.818 184.185 193.146C184.497 192.474 184.929 191.934 185.481 191.526C186.033 191.106 186.753 190.896 187.641 190.896C188.541 190.896 189.273 191.106 189.837 191.526C190.413 191.934 190.863 192.474 191.187 193.146C191.511 193.818 191.733 194.574 191.853 195.414C191.973 196.254 192.033 197.094 192.033 197.934C192.033 198.798 191.973 199.638 191.853 200.454C191.733 201.258 191.511 202.002 191.187 202.686ZM196.488 204.576H194.886L199.818 192.678H193.212V191.436H200.988C201.216 191.436 201.33 191.55 201.33 191.778V192.462C201.33 192.558 201.312 192.648 201.276 192.732C201.252 192.816 201.222 192.894 201.186 192.966L196.488 204.576Z" fill="#1C262B"/>
<path d="M220 205C220 202.239 222.239 200 225 200H259C261.761 200 264 202.239 264 205V330H220V205Z" fill="#102254" fill-opacity="0.4"/>
<path d="M232 351.512H224.976C224.88 351.512 224.816 351.496 224.784 351.464C224.763 351.432 224.752 351.368 224.752 351.272V350.312C224.997 350.077 225.307 349.773 225.68 349.4C226.064 349.027 226.464 348.616 226.88 348.168C227.307 347.709 227.728 347.235 228.144 346.744C228.571 346.253 228.949 345.768 229.28 345.288C229.621 344.797 229.899 344.333 230.112 343.896C230.325 343.459 230.432 343.075 230.432 342.744C230.443 342.04 230.24 341.517 229.824 341.176C229.419 340.835 228.896 340.664 228.256 340.664C227.637 340.664 227.131 340.872 226.736 341.288C226.352 341.704 226.16 342.264 226.16 342.968H224.848C224.848 342.445 224.933 341.976 225.104 341.56C225.285 341.144 225.531 340.787 225.84 340.488C226.149 340.189 226.512 339.96 226.928 339.8C227.344 339.64 227.797 339.56 228.288 339.56C228.779 339.56 229.232 339.629 229.648 339.768C230.075 339.896 230.443 340.088 230.752 340.344C231.061 340.6 231.301 340.92 231.472 341.304C231.653 341.688 231.744 342.136 231.744 342.648C231.744 343.085 231.648 343.544 231.456 344.024C231.264 344.504 231.008 344.989 230.688 345.48C230.379 345.96 230.021 346.44 229.616 346.92C229.221 347.389 228.816 347.837 228.4 348.264C227.995 348.691 227.6 349.091 227.216 349.464C226.832 349.827 226.496 350.141 226.208 350.408H232V351.512ZM238.2 350.44C238.552 350.227 238.829 349.928 239.032 349.544C239.245 349.16 239.405 348.739 239.512 348.28C239.629 347.821 239.704 347.357 239.736 346.888C239.768 346.419 239.784 345.992 239.784 345.608C239.784 345.16 239.757 344.643 239.704 344.056C239.65 343.459 239.533 342.893 239.352 342.36C239.181 341.827 238.925 341.379 238.584 341.016C238.242 340.643 237.784 340.456 237.208 340.456C236.642 340.456 236.194 340.643 235.864 341.016C235.544 341.379 235.298 341.827 235.128 342.36C234.968 342.893 234.866 343.459 234.824 344.056C234.781 344.643 234.76 345.16 234.76 345.608C234.76 345.907 234.765 346.237 234.776 346.6C234.797 346.963 234.834 347.336 234.888 347.72C234.941 348.093 235.021 348.461 235.128 348.824C235.234 349.176 235.378 349.491 235.56 349.768C235.741 350.045 235.965 350.269 236.232 350.44C236.498 350.611 236.824 350.696 237.208 350.696C237.602 350.696 237.933 350.611 238.2 350.44ZM240.36 349.832C240.082 350.419 239.688 350.893 239.176 351.256C238.664 351.629 238.008 351.816 237.208 351.816C236.418 351.816 235.778 351.629 235.288 351.256C234.797 350.893 234.413 350.419 234.136 349.832C233.858 349.245 233.672 348.584 233.576 347.848C233.48 347.101 233.432 346.355 233.432 345.608C233.432 344.861 233.48 344.115 233.576 343.368C233.672 342.621 233.858 341.949 234.136 341.352C234.413 340.755 234.797 340.275 235.288 339.912C235.778 339.539 236.418 339.352 237.208 339.352C238.008 339.352 238.658 339.539 239.16 339.912C239.672 340.275 240.072 340.755 240.36 341.352C240.648 341.949 240.845 342.621 240.952 343.368C241.058 344.115 241.112 344.861 241.112 345.608C241.112 346.376 241.058 347.123 240.952 347.848C240.845 348.563 240.648 349.224 240.36 349.832ZM246.959 351.512H245.695V341.208C245.407 341.517 245.05 341.811 244.623 342.088C244.197 342.365 243.722 342.637 243.199 342.904V341.688C243.679 341.475 244.127 341.213 244.543 340.904C244.97 340.584 245.37 340.227 245.743 339.832H246.655C246.773 339.832 246.853 339.853 246.895 339.896C246.938 339.939 246.959 340.019 246.959 340.136V351.512ZM256.311 344.312C256.524 344.131 256.695 343.912 256.823 343.656C256.951 343.389 257.015 343.085 257.015 342.744C257.015 342.424 256.951 342.136 256.823 341.88C256.695 341.613 256.524 341.389 256.311 341.208C256.098 341.016 255.842 340.872 255.543 340.776C255.244 340.68 254.93 340.632 254.599 340.632C254.268 340.632 253.954 340.68 253.655 340.776C253.367 340.872 253.111 341.016 252.887 341.208C252.674 341.389 252.503 341.613 252.375 341.88C252.247 342.136 252.183 342.424 252.183 342.744C252.183 343.085 252.242 343.389 252.359 343.656C252.487 343.912 252.658 344.131 252.871 344.312C253.084 344.483 253.34 344.616 253.639 344.712C253.938 344.808 254.258 344.856 254.599 344.856C254.93 344.856 255.244 344.808 255.543 344.712C255.842 344.616 256.098 344.483 256.311 344.312ZM256.471 350.056C256.93 349.629 257.159 349.064 257.159 348.36C257.159 347.976 257.084 347.64 256.935 347.352C256.786 347.053 256.588 346.808 256.343 346.616C256.108 346.413 255.836 346.264 255.527 346.168C255.228 346.072 254.919 346.024 254.599 346.024C254.279 346.024 253.964 346.072 253.655 346.168C253.346 346.264 253.068 346.413 252.823 346.616C252.588 346.808 252.396 347.053 252.247 347.352C252.108 347.64 252.039 347.976 252.039 348.36C252.039 349.064 252.263 349.629 252.711 350.056C253.17 350.483 253.799 350.696 254.599 350.696C255.388 350.696 256.012 350.483 256.471 350.056ZM257.063 345.096C256.807 345.288 256.519 345.427 256.199 345.512C256.903 345.704 257.452 346.051 257.847 346.552C258.242 347.043 258.439 347.64 258.439 348.344C258.439 348.888 258.343 349.373 258.151 349.8C257.97 350.227 257.708 350.589 257.367 350.888C257.026 351.176 256.615 351.395 256.135 351.544C255.666 351.693 255.148 351.768 254.583 351.768C254.018 351.768 253.5 351.693 253.031 351.544C252.562 351.395 252.156 351.176 251.815 350.888C251.484 350.589 251.223 350.227 251.031 349.8C250.85 349.373 250.759 348.888 250.759 348.344C250.759 347.885 250.866 347.448 251.079 347.032C251.303 346.616 251.623 346.253 252.039 345.944C252.114 345.891 252.183 345.843 252.247 345.8C252.322 345.757 252.402 345.715 252.487 345.672C252.572 345.629 252.658 345.592 252.743 345.56C252.839 345.517 252.93 345.48 253.015 345.448C252.684 345.384 252.386 345.267 252.119 345.096C251.863 344.915 251.644 344.701 251.463 344.456C251.282 344.211 251.143 343.939 251.047 343.64C250.951 343.341 250.903 343.037 250.903 342.728C250.903 342.227 250.994 341.779 251.175 341.384C251.356 340.989 251.607 340.659 251.927 340.392C252.258 340.115 252.647 339.907 253.095 339.768C253.554 339.629 254.055 339.56 254.599 339.56C255.143 339.56 255.639 339.629 256.087 339.768C256.546 339.907 256.935 340.115 257.255 340.392C257.586 340.659 257.842 340.989 258.023 341.384C258.204 341.779 258.295 342.227 258.295 342.728C258.295 343.155 258.183 343.581 257.959 344.008C257.735 344.435 257.436 344.797 257.063 345.096Z" fill="#1C262B"/>
<path d="M223.962 190.012C224.166 191.764 225.12 192.64 226.824 192.64C227.724 192.64 228.426 192.406 228.93 191.938C229.446 191.47 229.704 190.804 229.704 189.94C229.704 189.496 229.62 189.118 229.452 188.806C229.284 188.482 229.062 188.218 228.786 188.014C228.51 187.81 228.192 187.66 227.832 187.564C227.472 187.456 227.106 187.396 226.734 187.384H226.014C225.882 187.384 225.798 187.372 225.762 187.348C225.738 187.312 225.726 187.228 225.726 187.096V186.43C225.726 186.286 225.738 186.19 225.762 186.142C225.798 186.094 225.882 186.07 226.014 186.07H226.608C226.98 186.058 227.334 186.01 227.67 185.926C228.006 185.83 228.3 185.692 228.552 185.512C228.816 185.32 229.026 185.08 229.182 184.792C229.338 184.504 229.416 184.15 229.416 183.73C229.416 182.962 229.164 182.38 228.66 181.984C228.168 181.576 227.544 181.372 226.788 181.372C225.192 181.372 224.316 182.164 224.16 183.748H222.72C222.732 183.196 222.84 182.698 223.044 182.254C223.248 181.798 223.53 181.414 223.89 181.102C224.25 180.79 224.676 180.55 225.168 180.382C225.672 180.214 226.23 180.13 226.842 180.13C227.382 180.13 227.892 180.202 228.372 180.346C228.852 180.478 229.278 180.688 229.65 180.976C230.022 181.264 230.316 181.63 230.532 182.074C230.748 182.518 230.856 183.046 230.856 183.658C230.856 184.042 230.79 184.408 230.658 184.756C230.538 185.092 230.358 185.398 230.118 185.674C229.89 185.95 229.608 186.184 229.272 186.376C228.948 186.568 228.588 186.7 228.192 186.772C228.636 186.832 229.038 186.958 229.398 187.15C229.758 187.342 230.064 187.582 230.316 187.87C230.58 188.158 230.784 188.494 230.928 188.878C231.072 189.262 231.144 189.67 231.144 190.102C231.144 190.774 231.018 191.35 230.766 191.83C230.526 192.298 230.202 192.688 229.794 193C229.398 193.3 228.936 193.522 228.408 193.666C227.88 193.81 227.334 193.882 226.77 193.882C226.122 193.882 225.54 193.792 225.024 193.612C224.508 193.444 224.07 193.192 223.71 192.856C223.35 192.52 223.068 192.112 222.864 191.632C222.66 191.152 222.552 190.612 222.54 190.012H223.962ZM235.923 193.576H234.321L239.253 181.678H232.647V180.436H240.423C240.651 180.436 240.765 180.55 240.765 180.778V181.462C240.765 181.558 240.747 181.648 240.711 181.732C240.687 181.816 240.657 181.894 240.621 181.966L235.923 193.576ZM245.705 193.576H244.103L249.035 181.678H242.429V180.436H250.205C250.433 180.436 250.547 180.55 250.547 180.778V181.462C250.547 181.558 250.529 181.648 250.493 181.732C250.469 181.816 250.439 181.894 250.403 181.966L245.705 193.576ZM260.348 193.576H252.446C252.338 193.576 252.266 193.558 252.23 193.522C252.206 193.486 252.194 193.414 252.194 193.306V192.226C252.47 191.962 252.818 191.62 253.238 191.2C253.67 190.78 254.12 190.318 254.588 189.814C255.068 189.298 255.542 188.764 256.01 188.212C256.49 187.66 256.916 187.114 257.288 186.574C257.672 186.022 257.984 185.5 258.224 185.008C258.464 184.516 258.584 184.084 258.584 183.712C258.596 182.92 258.368 182.332 257.9 181.948C257.444 181.564 256.856 181.372 256.136 181.372C255.44 181.372 254.87 181.606 254.426 182.074C253.994 182.542 253.778 183.172 253.778 183.964H252.302C252.302 183.376 252.398 182.848 252.59 182.38C252.794 181.912 253.07 181.51 253.418 181.174C253.766 180.838 254.174 180.58 254.642 180.4C255.11 180.22 255.62 180.13 256.172 180.13C256.724 180.13 257.234 180.208 257.702 180.364C258.182 180.508 258.596 180.724 258.944 181.012C259.292 181.3 259.562 181.66 259.754 182.092C259.958 182.524 260.06 183.028 260.06 183.604C260.06 184.096 259.952 184.612 259.736 185.152C259.52 185.692 259.232 186.238 258.872 186.79C258.524 187.33 258.122 187.87 257.666 188.41C257.222 188.938 256.766 189.442 256.298 189.922C255.842 190.402 255.398 190.852 254.966 191.272C254.534 191.68 254.156 192.034 253.832 192.334H260.348V193.576Z" fill="#1C262B"/>
<path d="M279 193C279 190.239 281.239 188 284 188H318C320.761 188 323 190.239 323 193V330H279V193Z" fill="#102254" fill-opacity="0.4"/>
<path d="M291 351.512H283.976C283.88 351.512 283.816 351.496 283.784 351.464C283.763 351.432 283.752 351.368 283.752 351.272V350.312C283.997 350.077 284.307 349.773 284.68 349.4C285.064 349.027 285.464 348.616 285.88 348.168C286.307 347.709 286.728 347.235 287.144 346.744C287.571 346.253 287.949 345.768 288.28 345.288C288.621 344.797 288.899 344.333 289.112 343.896C289.325 343.459 289.432 343.075 289.432 342.744C289.443 342.04 289.24 341.517 288.824 341.176C288.419 340.835 287.896 340.664 287.256 340.664C286.637 340.664 286.131 340.872 285.736 341.288C285.352 341.704 285.16 342.264 285.16 342.968H283.848C283.848 342.445 283.933 341.976 284.104 341.56C284.285 341.144 284.531 340.787 284.84 340.488C285.149 340.189 285.512 339.96 285.928 339.8C286.344 339.64 286.797 339.56 287.288 339.56C287.779 339.56 288.232 339.629 288.648 339.768C289.075 339.896 289.443 340.088 289.752 340.344C290.061 340.6 290.301 340.92 290.472 341.304C290.653 341.688 290.744 342.136 290.744 342.648C290.744 343.085 290.648 343.544 290.456 344.024C290.264 344.504 290.008 344.989 289.688 345.48C289.379 345.96 289.021 346.44 288.616 346.92C288.221 347.389 287.816 347.837 287.4 348.264C286.995 348.691 286.6 349.091 286.216 349.464C285.832 349.827 285.496 350.141 285.208 350.408H291V351.512ZM297.2 350.44C297.552 350.227 297.829 349.928 298.032 349.544C298.245 349.16 298.405 348.739 298.512 348.28C298.629 347.821 298.704 347.357 298.736 346.888C298.768 346.419 298.784 345.992 298.784 345.608C298.784 345.16 298.757 344.643 298.704 344.056C298.65 343.459 298.533 342.893 298.352 342.36C298.181 341.827 297.925 341.379 297.584 341.016C297.242 340.643 296.784 340.456 296.208 340.456C295.642 340.456 295.194 340.643 294.864 341.016C294.544 341.379 294.298 341.827 294.128 342.36C293.968 342.893 293.866 343.459 293.824 344.056C293.781 344.643 293.76 345.16 293.76 345.608C293.76 345.907 293.765 346.237 293.776 346.6C293.797 346.963 293.834 347.336 293.888 347.72C293.941 348.093 294.021 348.461 294.128 348.824C294.234 349.176 294.378 349.491 294.56 349.768C294.741 350.045 294.965 350.269 295.232 350.44C295.498 350.611 295.824 350.696 296.208 350.696C296.602 350.696 296.933 350.611 297.2 350.44ZM299.36 349.832C299.082 350.419 298.688 350.893 298.176 351.256C297.664 351.629 297.008 351.816 296.208 351.816C295.418 351.816 294.778 351.629 294.288 351.256C293.797 350.893 293.413 350.419 293.136 349.832C292.858 349.245 292.672 348.584 292.576 347.848C292.48 347.101 292.432 346.355 292.432 345.608C292.432 344.861 292.48 344.115 292.576 343.368C292.672 342.621 292.858 341.949 293.136 341.352C293.413 340.755 293.797 340.275 294.288 339.912C294.778 339.539 295.418 339.352 296.208 339.352C297.008 339.352 297.658 339.539 298.16 339.912C298.672 340.275 299.072 340.755 299.36 341.352C299.648 341.949 299.845 342.621 299.952 343.368C300.058 344.115 300.112 344.861 300.112 345.608C300.112 346.376 300.058 347.123 299.952 347.848C299.845 348.563 299.648 349.224 299.36 349.832ZM305.959 351.512H304.695V341.208C304.407 341.517 304.05 341.811 303.623 342.088C303.197 342.365 302.722 342.637 302.199 342.904V341.688C302.679 341.475 303.127 341.213 303.543 340.904C303.97 340.584 304.37 340.227 304.743 339.832H305.655C305.773 339.832 305.853 339.853 305.895 339.896C305.938 339.939 305.959 340.019 305.959 340.136V351.512ZM314.543 346.216C314.991 345.992 315.348 345.651 315.615 345.192C315.882 344.733 316.015 344.232 316.015 343.688C316.015 343.261 315.956 342.861 315.839 342.488C315.722 342.115 315.551 341.789 315.327 341.512C315.114 341.235 314.858 341.021 314.559 340.872C314.26 340.712 313.93 340.632 313.567 340.632C313.162 340.632 312.804 340.707 312.495 340.856C312.186 341.005 311.924 341.213 311.711 341.48C311.508 341.736 311.348 342.045 311.231 342.408C311.124 342.76 311.071 343.139 311.071 343.544C311.071 343.928 311.124 344.296 311.231 344.648C311.338 345 311.492 345.309 311.695 345.576C311.908 345.843 312.17 346.056 312.479 346.216C312.788 346.365 313.146 346.44 313.551 346.44C313.828 346.44 314.159 346.365 314.543 346.216ZM311.279 348.728C311.29 349.037 311.359 349.315 311.487 349.56C311.615 349.795 311.78 349.997 311.983 350.168C312.186 350.339 312.415 350.472 312.671 350.568C312.938 350.653 313.215 350.696 313.503 350.696C314.068 350.696 314.532 350.536 314.895 350.216C315.258 349.896 315.546 349.48 315.759 348.968C315.972 348.456 316.116 347.885 316.191 347.256C316.276 346.627 316.319 346.008 316.319 345.4C316.074 346.104 315.684 346.621 315.151 346.952C314.628 347.272 314.01 347.432 313.295 347.432C312.762 347.432 312.282 347.341 311.855 347.16C311.428 346.968 311.06 346.701 310.751 346.36C310.452 346.019 310.218 345.608 310.047 345.128C309.887 344.648 309.807 344.109 309.807 343.512C309.807 342.957 309.892 342.44 310.063 341.96C310.234 341.48 310.479 341.064 310.799 340.712C311.119 340.349 311.503 340.067 311.951 339.864C312.41 339.661 312.922 339.56 313.487 339.56C313.999 339.56 314.49 339.64 314.959 339.8C315.439 339.96 315.86 340.253 316.223 340.68C316.586 341.107 316.874 341.693 317.087 342.44C317.311 343.187 317.423 344.152 317.423 345.336C317.423 347.48 317.066 349.091 316.351 350.168C315.647 351.235 314.676 351.768 313.439 351.768C312.436 351.768 311.642 351.496 311.055 350.952C310.468 350.408 310.122 349.667 310.015 348.728H311.279Z" fill="#1C262B"/>
<path d="M287.318 178.454V172.496L287.354 170.84L282.71 178.454H287.318ZM288.686 182.576H287.282V179.696H281.684C281.456 179.696 281.342 179.582 281.342 179.354V178.598C281.342 178.43 281.396 178.262 281.504 178.094L286.76 169.472C286.832 169.316 286.952 169.238 287.12 169.238H288.344C288.476 169.238 288.566 169.262 288.614 169.31C288.662 169.358 288.686 169.448 288.686 169.58V178.454H290.648V179.696H288.686V182.576ZM296.975 181.37C297.371 181.13 297.683 180.794 297.911 180.362C298.151 179.93 298.331 179.456 298.451 178.94C298.583 178.424 298.667 177.902 298.703 177.374C298.739 176.846 298.757 176.366 298.757 175.934C298.757 175.43 298.727 174.848 298.667 174.188C298.607 173.516 298.475 172.88 298.271 172.28C298.079 171.68 297.791 171.176 297.407 170.768C297.023 170.348 296.507 170.138 295.859 170.138C295.223 170.138 294.719 170.348 294.347 170.768C293.987 171.176 293.711 171.68 293.519 172.28C293.339 172.88 293.225 173.516 293.177 174.188C293.129 174.848 293.105 175.43 293.105 175.934C293.105 176.27 293.111 176.642 293.123 177.05C293.147 177.458 293.189 177.878 293.249 178.31C293.309 178.73 293.399 179.144 293.519 179.552C293.639 179.948 293.801 180.302 294.005 180.614C294.209 180.926 294.461 181.178 294.761 181.37C295.061 181.562 295.427 181.658 295.859 181.658C296.303 181.658 296.675 181.562 296.975 181.37ZM299.405 180.686C299.093 181.346 298.649 181.88 298.073 182.288C297.497 182.708 296.759 182.918 295.859 182.918C294.971 182.918 294.251 182.708 293.699 182.288C293.147 181.88 292.715 181.346 292.403 180.686C292.091 180.026 291.881 179.282 291.773 178.454C291.665 177.614 291.611 176.774 291.611 175.934C291.611 175.094 291.665 174.254 291.773 173.414C291.881 172.574 292.091 171.818 292.403 171.146C292.715 170.474 293.147 169.934 293.699 169.526C294.251 169.106 294.971 168.896 295.859 168.896C296.759 168.896 297.491 169.106 298.055 169.526C298.631 169.934 299.081 170.474 299.405 171.146C299.729 171.818 299.951 172.574 300.071 173.414C300.191 174.254 300.251 175.094 300.251 175.934C300.251 176.798 300.191 177.638 300.071 178.454C299.951 179.258 299.729 180.002 299.405 180.686ZM306.703 176.618C307.207 176.366 307.609 175.982 307.909 175.466C308.209 174.95 308.359 174.386 308.359 173.774C308.359 173.294 308.293 172.844 308.161 172.424C308.029 172.004 307.837 171.638 307.585 171.326C307.345 171.014 307.057 170.774 306.721 170.606C306.385 170.426 306.013 170.336 305.605 170.336C305.149 170.336 304.747 170.42 304.399 170.588C304.051 170.756 303.757 170.99 303.517 171.29C303.289 171.578 303.109 171.926 302.977 172.334C302.857 172.73 302.797 173.156 302.797 173.612C302.797 174.044 302.857 174.458 302.977 174.854C303.097 175.25 303.271 175.598 303.499 175.898C303.739 176.198 304.033 176.438 304.381 176.618C304.729 176.786 305.131 176.87 305.587 176.87C305.899 176.87 306.271 176.786 306.703 176.618ZM303.031 179.444C303.043 179.792 303.121 180.104 303.265 180.38C303.409 180.644 303.595 180.872 303.823 181.064C304.051 181.256 304.309 181.406 304.597 181.514C304.897 181.61 305.209 181.658 305.533 181.658C306.169 181.658 306.691 181.478 307.099 181.118C307.507 180.758 307.831 180.29 308.071 179.714C308.311 179.138 308.473 178.496 308.557 177.788C308.653 177.08 308.701 176.384 308.701 175.7C308.425 176.492 307.987 177.074 307.387 177.446C306.799 177.806 306.103 177.986 305.299 177.986C304.699 177.986 304.159 177.884 303.679 177.68C303.199 177.464 302.785 177.164 302.437 176.78C302.101 176.396 301.837 175.934 301.645 175.394C301.465 174.854 301.375 174.248 301.375 173.576C301.375 172.952 301.471 172.37 301.663 171.83C301.855 171.29 302.131 170.822 302.491 170.426C302.851 170.018 303.283 169.7 303.787 169.472C304.303 169.244 304.879 169.13 305.515 169.13C306.091 169.13 306.643 169.22 307.171 169.4C307.711 169.58 308.185 169.91 308.593 170.39C309.001 170.87 309.325 171.53 309.565 172.37C309.817 173.21 309.943 174.296 309.943 175.628C309.943 178.04 309.541 179.852 308.737 181.064C307.945 182.264 306.853 182.864 305.461 182.864C304.333 182.864 303.439 182.558 302.779 181.946C302.119 181.334 301.729 180.5 301.609 179.444H303.031ZM316.612 181.424C317.152 181.172 317.56 180.782 317.836 180.254C318.112 179.714 318.25 179.096 318.25 178.4C318.25 177.968 318.19 177.554 318.07 177.158C317.95 176.762 317.77 176.414 317.53 176.114C317.302 175.814 317.014 175.58 316.666 175.412C316.318 175.232 315.916 175.142 315.46 175.142C315.052 175.142 314.68 175.226 314.344 175.394C314.008 175.562 313.714 175.79 313.462 176.078C313.222 176.366 313.03 176.696 312.886 177.068C312.754 177.44 312.688 177.83 312.688 178.238C312.688 178.73 312.754 179.186 312.886 179.606C313.018 180.014 313.204 180.374 313.444 180.686C313.684 180.998 313.972 181.244 314.308 181.424C314.644 181.592 315.016 181.676 315.424 181.676C315.784 181.676 316.18 181.592 316.612 181.424ZM318.052 172.568C318.04 172.232 317.968 171.926 317.836 171.65C317.704 171.374 317.524 171.14 317.296 170.948C317.08 170.756 316.828 170.612 316.54 170.516C316.252 170.408 315.946 170.354 315.622 170.354C314.986 170.354 314.458 170.552 314.038 170.948C313.618 171.344 313.282 171.842 313.03 172.442C312.778 173.03 312.598 173.672 312.49 174.368C312.394 175.064 312.346 175.712 312.346 176.312C312.622 175.52 313.066 174.944 313.678 174.584C314.302 174.212 315.016 174.026 315.82 174.026C316.408 174.026 316.942 174.134 317.422 174.35C317.902 174.554 318.304 174.848 318.628 175.232C318.964 175.616 319.222 176.084 319.402 176.636C319.582 177.176 319.672 177.776 319.672 178.436C319.672 179.06 319.576 179.642 319.384 180.182C319.204 180.722 318.934 181.196 318.574 181.604C318.226 182 317.8 182.312 317.296 182.54C316.792 182.768 316.222 182.882 315.586 182.882C314.566 182.882 313.72 182.618 313.048 182.09C312.376 181.574 311.896 180.914 311.608 180.11C311.44 179.618 311.314 179.09 311.23 178.526C311.146 177.95 311.104 177.248 311.104 176.42C311.104 175.22 311.218 174.17 311.446 173.27C311.674 172.358 311.986 171.596 312.382 170.984C312.778 170.372 313.252 169.916 313.804 169.616C314.356 169.304 314.956 169.148 315.604 169.148C316.732 169.148 317.626 169.454 318.286 170.066C318.958 170.678 319.354 171.512 319.474 172.568H318.052Z" fill="#1C262B"/>
<path d="M338 187C338 184.239 340.239 182 343 182H377C379.761 182 382 184.239 382 187V330H338V187Z" fill="#102254" fill-opacity="0.4"/>
<path d="M350 351.512H342.976C342.88 351.512 342.816 351.496 342.784 351.464C342.763 351.432 342.752 351.368 342.752 351.272V350.312C342.997 350.077 343.307 349.773 343.68 349.4C344.064 349.027 344.464 348.616 344.88 348.168C345.307 347.709 345.728 347.235 346.144 346.744C346.571 346.253 346.949 345.768 347.28 345.288C347.621 344.797 347.899 344.333 348.112 343.896C348.325 343.459 348.432 343.075 348.432 342.744C348.443 342.04 348.24 341.517 347.824 341.176C347.419 340.835 346.896 340.664 346.256 340.664C345.637 340.664 345.131 340.872 344.736 341.288C344.352 341.704 344.16 342.264 344.16 342.968H342.848C342.848 342.445 342.933 341.976 343.104 341.56C343.285 341.144 343.531 340.787 343.84 340.488C344.149 340.189 344.512 339.96 344.928 339.8C345.344 339.64 345.797 339.56 346.288 339.56C346.779 339.56 347.232 339.629 347.648 339.768C348.075 339.896 348.443 340.088 348.752 340.344C349.061 340.6 349.301 340.92 349.472 341.304C349.653 341.688 349.744 342.136 349.744 342.648C349.744 343.085 349.648 343.544 349.456 344.024C349.264 344.504 349.008 344.989 348.688 345.48C348.379 345.96 348.021 346.44 347.616 346.92C347.221 347.389 346.816 347.837 346.4 348.264C345.995 348.691 345.6 349.091 345.216 349.464C344.832 349.827 344.496 350.141 344.208 350.408H350V351.512ZM356.2 350.44C356.552 350.227 356.829 349.928 357.032 349.544C357.245 349.16 357.405 348.739 357.512 348.28C357.629 347.821 357.704 347.357 357.736 346.888C357.768 346.419 357.784 345.992 357.784 345.608C357.784 345.16 357.757 344.643 357.704 344.056C357.65 343.459 357.533 342.893 357.352 342.36C357.181 341.827 356.925 341.379 356.584 341.016C356.242 340.643 355.784 340.456 355.208 340.456C354.642 340.456 354.194 340.643 353.864 341.016C353.544 341.379 353.298 341.827 353.128 342.36C352.968 342.893 352.866 343.459 352.824 344.056C352.781 344.643 352.76 345.16 352.76 345.608C352.76 345.907 352.765 346.237 352.776 346.6C352.797 346.963 352.834 347.336 352.888 347.72C352.941 348.093 353.021 348.461 353.128 348.824C353.234 349.176 353.378 349.491 353.56 349.768C353.741 350.045 353.965 350.269 354.232 350.44C354.498 350.611 354.824 350.696 355.208 350.696C355.602 350.696 355.933 350.611 356.2 350.44ZM358.36 349.832C358.082 350.419 357.688 350.893 357.176 351.256C356.664 351.629 356.008 351.816 355.208 351.816C354.418 351.816 353.778 351.629 353.288 351.256C352.797 350.893 352.413 350.419 352.136 349.832C351.858 349.245 351.672 348.584 351.576 347.848C351.48 347.101 351.432 346.355 351.432 345.608C351.432 344.861 351.48 344.115 351.576 343.368C351.672 342.621 351.858 341.949 352.136 341.352C352.413 340.755 352.797 340.275 353.288 339.912C353.778 339.539 354.418 339.352 355.208 339.352C356.008 339.352 356.658 339.539 357.16 339.912C357.672 340.275 358.072 340.755 358.36 341.352C358.648 341.949 358.845 342.621 358.952 343.368C359.058 344.115 359.112 344.861 359.112 345.608C359.112 346.376 359.058 347.123 358.952 347.848C358.845 348.563 358.648 349.224 358.36 349.832ZM367.391 351.512H360.367C360.271 351.512 360.207 351.496 360.175 351.464C360.154 351.432 360.143 351.368 360.143 351.272V350.312C360.389 350.077 360.698 349.773 361.071 349.4C361.455 349.027 361.855 348.616 362.271 348.168C362.698 347.709 363.119 347.235 363.535 346.744C363.962 346.253 364.341 345.768 364.671 345.288C365.013 344.797 365.29 344.333 365.503 343.896C365.717 343.459 365.823 343.075 365.823 342.744C365.834 342.04 365.631 341.517 365.215 341.176C364.81 340.835 364.287 340.664 363.647 340.664C363.029 340.664 362.522 340.872 362.127 341.288C361.743 341.704 361.551 342.264 361.551 342.968H360.239C360.239 342.445 360.325 341.976 360.495 341.56C360.677 341.144 360.922 340.787 361.231 340.488C361.541 340.189 361.903 339.96 362.319 339.8C362.735 339.64 363.189 339.56 363.679 339.56C364.17 339.56 364.623 339.629 365.039 339.768C365.466 339.896 365.834 340.088 366.143 340.344C366.453 340.6 366.693 340.92 366.863 341.304C367.045 341.688 367.135 342.136 367.135 342.648C367.135 343.085 367.039 343.544 366.847 344.024C366.655 344.504 366.399 344.989 366.079 345.48C365.77 345.96 365.413 346.44 365.007 346.92C364.613 347.389 364.207 347.837 363.791 348.264C363.386 348.691 362.991 349.091 362.607 349.464C362.223 349.827 361.887 350.141 361.599 350.408H367.391V351.512ZM373.591 350.44C373.943 350.227 374.22 349.928 374.423 349.544C374.636 349.16 374.796 348.739 374.903 348.28C375.02 347.821 375.095 347.357 375.127 346.888C375.159 346.419 375.175 345.992 375.175 345.608C375.175 345.16 375.148 344.643 375.095 344.056C375.042 343.459 374.924 342.893 374.743 342.36C374.572 341.827 374.316 341.379 373.975 341.016C373.634 340.643 373.175 340.456 372.599 340.456C372.034 340.456 371.586 340.643 371.255 341.016C370.935 341.379 370.69 341.827 370.519 342.36C370.359 342.893 370.258 343.459 370.215 344.056C370.172 344.643 370.151 345.16 370.151 345.608C370.151 345.907 370.156 346.237 370.167 346.6C370.188 346.963 370.226 347.336 370.279 347.72C370.332 348.093 370.412 348.461 370.519 348.824C370.626 349.176 370.77 349.491 370.951 349.768C371.132 350.045 371.356 350.269 371.623 350.44C371.89 350.611 372.215 350.696 372.599 350.696C372.994 350.696 373.324 350.611 373.591 350.44ZM375.751 349.832C375.474 350.419 375.079 350.893 374.567 351.256C374.055 351.629 373.399 351.816 372.599 351.816C371.81 351.816 371.17 351.629 370.679 351.256C370.188 350.893 369.804 350.419 369.527 349.832C369.25 349.245 369.063 348.584 368.967 347.848C368.871 347.101 368.823 346.355 368.823 345.608C368.823 344.861 368.871 344.115 368.967 343.368C369.063 342.621 369.25 341.949 369.527 341.352C369.804 340.755 370.188 340.275 370.679 339.912C371.17 339.539 371.81 339.352 372.599 339.352C373.399 339.352 374.05 339.539 374.551 339.912C375.063 340.275 375.463 340.755 375.751 341.352C376.039 341.949 376.236 342.621 376.343 343.368C376.45 344.115 376.503 344.861 376.503 345.608C376.503 346.376 376.45 347.123 376.343 347.848C376.236 348.563 376.039 349.224 375.751 349.832Z" fill="#1C262B"/>
<path d="M347.318 173.454V167.496L347.354 165.84L342.71 173.454H347.318ZM348.686 177.576H347.282V174.696H341.684C341.456 174.696 341.342 174.582 341.342 174.354V173.598C341.342 173.43 341.396 173.262 341.504 173.094L346.76 164.472C346.832 164.316 346.952 164.238 347.12 164.238H348.344C348.476 164.238 348.566 164.262 348.614 164.31C348.662 164.358 348.686 164.448 348.686 164.58V173.454H350.648V174.696H348.686V177.576ZM359.783 177.576H351.881C351.773 177.576 351.701 177.558 351.665 177.522C351.641 177.486 351.629 177.414 351.629 177.306V176.226C351.905 175.962 352.253 175.62 352.673 175.2C353.105 174.78 353.555 174.318 354.023 173.814C354.503 173.298 354.977 172.764 355.445 172.212C355.925 171.66 356.351 171.114 356.723 170.574C357.107 170.022 357.419 169.5 357.659 169.008C357.899 168.516 358.019 168.084 358.019 167.712C358.031 166.92 357.803 166.332 357.335 165.948C356.879 165.564 356.291 165.372 355.571 165.372C354.875 165.372 354.305 165.606 353.861 166.074C353.429 166.542 353.213 167.172 353.213 167.964H351.737C351.737 167.376 351.833 166.848 352.025 166.38C352.229 165.912 352.505 165.51 352.853 165.174C353.201 164.838 353.609 164.58 354.077 164.4C354.545 164.22 355.055 164.13 355.607 164.13C356.159 164.13 356.669 164.208 357.137 164.364C357.617 164.508 358.031 164.724 358.379 165.012C358.727 165.3 358.997 165.66 359.189 166.092C359.393 166.524 359.495 167.028 359.495 167.604C359.495 168.096 359.387 168.612 359.171 169.152C358.955 169.692 358.667 170.238 358.307 170.79C357.959 171.33 357.557 171.87 357.101 172.41C356.657 172.938 356.201 173.442 355.733 173.922C355.277 174.402 354.833 174.852 354.401 175.272C353.969 175.68 353.591 176.034 353.267 176.334H359.783V177.576ZM363.049 174.372C363.169 175.104 363.475 175.674 363.967 176.082C364.471 176.478 365.089 176.676 365.821 176.676C366.193 176.676 366.541 176.604 366.865 176.46C367.201 176.304 367.483 176.082 367.711 175.794C367.951 175.506 368.137 175.164 368.269 174.768C368.413 174.36 368.485 173.904 368.485 173.4C368.485 172.284 368.233 171.456 367.729 170.916C367.237 170.364 366.607 170.088 365.839 170.088C365.227 170.088 364.699 170.238 364.255 170.538C363.811 170.838 363.511 171.258 363.355 171.798C363.319 171.894 363.283 171.972 363.247 172.032C363.211 172.08 363.127 172.104 362.995 172.104H362.131C362.023 172.104 361.957 172.092 361.933 172.068C361.909 172.032 361.897 171.954 361.897 171.834L362.095 164.778C362.107 164.646 362.131 164.556 362.167 164.508C362.203 164.46 362.275 164.436 362.383 164.436H369.241V165.66H363.481L363.229 170.088C363.505 169.704 363.895 169.41 364.399 169.206C364.915 169.002 365.497 168.9 366.145 168.9C366.661 168.9 367.147 168.996 367.603 169.188C368.071 169.368 368.473 169.644 368.809 170.016C369.157 170.376 369.427 170.838 369.619 171.402C369.823 171.966 369.925 172.626 369.925 173.382C369.925 174.042 369.823 174.648 369.619 175.2C369.427 175.752 369.151 176.226 368.791 176.622C368.431 177.018 367.993 177.324 367.477 177.54C366.961 177.768 366.391 177.882 365.767 177.882C365.203 177.882 364.675 177.804 364.183 177.648C363.691 177.504 363.259 177.282 362.887 176.982C362.527 176.682 362.233 176.316 362.005 175.884C361.789 175.44 361.663 174.936 361.627 174.372H363.049ZM379.348 177.576H371.446C371.338 177.576 371.266 177.558 371.23 177.522C371.206 177.486 371.194 177.414 371.194 177.306V176.226C371.47 175.962 371.818 175.62 372.238 175.2C372.67 174.78 373.12 174.318 373.588 173.814C374.068 173.298 374.542 172.764 375.01 172.212C375.49 171.66 375.916 171.114 376.288 170.574C376.672 170.022 376.984 169.5 377.224 169.008C377.464 168.516 377.584 168.084 377.584 167.712C377.596 166.92 377.368 166.332 376.9 165.948C376.444 165.564 375.856 165.372 375.136 165.372C374.44 165.372 373.87 165.606 373.426 166.074C372.994 166.542 372.778 167.172 372.778 167.964H371.302C371.302 167.376 371.398 166.848 371.59 166.38C371.794 165.912 372.07 165.51 372.418 165.174C372.766 164.838 373.174 164.58 373.642 164.4C374.11 164.22 374.62 164.13 375.172 164.13C375.724 164.13 376.234 164.208 376.702 164.364C377.182 164.508 377.596 164.724 377.944 165.012C378.292 165.3 378.562 165.66 378.754 166.092C378.958 166.524 379.06 167.028 379.06 167.604C379.06 168.096 378.952 168.612 378.736 169.152C378.52 169.692 378.232 170.238 377.872 170.79C377.524 171.33 377.122 171.87 376.666 172.41C376.222 172.938 375.766 173.442 375.298 173.922C374.842 174.402 374.398 174.852 373.966 175.272C373.534 175.68 373.156 176.034 372.832 176.334H379.348V177.576Z" fill="#1C262B"/>
<path d="M397 100C397 97.2386 399.239 95 402 95H436C438.761 95 441 97.2386 441 100V330H397V100Z" fill="#102254"/>
<path d="M409 351.512H401.976C401.88 351.512 401.816 351.496 401.784 351.464C401.763 351.432 401.752 351.368 401.752 351.272V350.312C401.997 350.077 402.307 349.773 402.68 349.4C403.064 349.027 403.464 348.616 403.88 348.168C404.307 347.709 404.728 347.235 405.144 346.744C405.571 346.253 405.949 345.768 406.28 345.288C406.621 344.797 406.899 344.333 407.112 343.896C407.325 343.459 407.432 343.075 407.432 342.744C407.443 342.04 407.24 341.517 406.824 341.176C406.419 340.835 405.896 340.664 405.256 340.664C404.637 340.664 404.131 340.872 403.736 341.288C403.352 341.704 403.16 342.264 403.16 342.968H401.848C401.848 342.445 401.933 341.976 402.104 341.56C402.285 341.144 402.531 340.787 402.84 340.488C403.149 340.189 403.512 339.96 403.928 339.8C404.344 339.64 404.797 339.56 405.288 339.56C405.779 339.56 406.232 339.629 406.648 339.768C407.075 339.896 407.443 340.088 407.752 340.344C408.061 340.6 408.301 340.92 408.472 341.304C408.653 341.688 408.744 342.136 408.744 342.648C408.744 343.085 408.648 343.544 408.456 344.024C408.264 344.504 408.008 344.989 407.688 345.48C407.379 345.96 407.021 346.44 406.616 346.92C406.221 347.389 405.816 347.837 405.4 348.264C404.995 348.691 404.6 349.091 404.216 349.464C403.832 349.827 403.496 350.141 403.208 350.408H409V351.512ZM415.2 350.44C415.552 350.227 415.829 349.928 416.032 349.544C416.245 349.16 416.405 348.739 416.512 348.28C416.629 347.821 416.704 347.357 416.736 346.888C416.768 346.419 416.784 345.992 416.784 345.608C416.784 345.16 416.757 344.643 416.704 344.056C416.65 343.459 416.533 342.893 416.352 342.36C416.181 341.827 415.925 341.379 415.584 341.016C415.242 340.643 414.784 340.456 414.208 340.456C413.642 340.456 413.194 340.643 412.864 341.016C412.544 341.379 412.298 341.827 412.128 342.36C411.968 342.893 411.866 343.459 411.824 344.056C411.781 344.643 411.76 345.16 411.76 345.608C411.76 345.907 411.765 346.237 411.776 346.6C411.797 346.963 411.834 347.336 411.888 347.72C411.941 348.093 412.021 348.461 412.128 348.824C412.234 349.176 412.378 349.491 412.56 349.768C412.741 350.045 412.965 350.269 413.232 350.44C413.498 350.611 413.824 350.696 414.208 350.696C414.602 350.696 414.933 350.611 415.2 350.44ZM417.36 349.832C417.082 350.419 416.688 350.893 416.176 351.256C415.664 351.629 415.008 351.816 414.208 351.816C413.418 351.816 412.778 351.629 412.288 351.256C411.797 350.893 411.413 350.419 411.136 349.832C410.858 349.245 410.672 348.584 410.576 347.848C410.48 347.101 410.432 346.355 410.432 345.608C410.432 344.861 410.48 344.115 410.576 343.368C410.672 342.621 410.858 341.949 411.136 341.352C411.413 340.755 411.797 340.275 412.288 339.912C412.778 339.539 413.418 339.352 414.208 339.352C415.008 339.352 415.658 339.539 416.16 339.912C416.672 340.275 417.072 340.755 417.36 341.352C417.648 341.949 417.845 342.621 417.952 343.368C418.058 344.115 418.112 344.861 418.112 345.608C418.112 346.376 418.058 347.123 417.952 347.848C417.845 348.563 417.648 349.224 417.36 349.832ZM426.391 351.512H419.367C419.271 351.512 419.207 351.496 419.175 351.464C419.154 351.432 419.143 351.368 419.143 351.272V350.312C419.389 350.077 419.698 349.773 420.071 349.4C420.455 349.027 420.855 348.616 421.271 348.168C421.698 347.709 422.119 347.235 422.535 346.744C422.962 346.253 423.341 345.768 423.671 345.288C424.013 344.797 424.29 344.333 424.503 343.896C424.717 343.459 424.823 343.075 424.823 342.744C424.834 342.04 424.631 341.517 424.215 341.176C423.81 340.835 423.287 340.664 422.647 340.664C422.029 340.664 421.522 340.872 421.127 341.288C420.743 341.704 420.551 342.264 420.551 342.968H419.239C419.239 342.445 419.325 341.976 419.495 341.56C419.677 341.144 419.922 340.787 420.231 340.488C420.541 340.189 420.903 339.96 421.319 339.8C421.735 339.64 422.189 339.56 422.679 339.56C423.17 339.56 423.623 339.629 424.039 339.768C424.466 339.896 424.834 340.088 425.143 340.344C425.453 340.6 425.693 340.92 425.863 341.304C426.045 341.688 426.135 342.136 426.135 342.648C426.135 343.085 426.039 343.544 425.847 344.024C425.655 344.504 425.399 344.989 425.079 345.48C424.77 345.96 424.413 346.44 424.007 346.92C423.613 347.389 423.207 347.837 422.791 348.264C422.386 348.691 421.991 349.091 421.607 349.464C421.223 349.827 420.887 350.141 420.599 350.408H426.391V351.512ZM432.655 351.512H431.391V341.208C431.103 341.517 430.746 341.811 430.319 342.088C429.892 342.365 429.418 342.637 428.895 342.904V341.688C429.375 341.475 429.823 341.213 430.239 340.904C430.666 340.584 431.066 340.227 431.439 339.832H432.351C432.468 339.832 432.548 339.853 432.591 339.896C432.634 339.939 432.655 340.019 432.655 340.136V351.512Z" fill="#1C262B"/>
<path d="M401.308 68.328C401.938 68.034 402.414 67.579 402.736 66.963C403.058 66.333 403.219 65.612 403.219 64.8C403.219 64.296 403.149 63.813 403.009 63.351C402.869 62.889 402.659 62.483 402.379 62.133C402.113 61.783 401.777 61.51 401.371 61.314C400.965 61.104 400.496 60.999 399.964 60.999C399.488 60.999 399.054 61.097 398.662 61.293C398.27 61.489 397.927 61.755 397.633 62.091C397.353 62.427 397.129 62.812 396.961 63.246C396.807 63.68 396.73 64.135 396.73 64.611C396.73 65.185 396.807 65.717 396.961 66.207C397.115 66.683 397.332 67.103 397.612 67.467C397.892 67.831 398.228 68.118 398.62 68.328C399.012 68.524 399.446 68.622 399.922 68.622C400.342 68.622 400.804 68.524 401.308 68.328ZM402.988 57.996C402.974 57.604 402.89 57.247 402.736 56.925C402.582 56.603 402.372 56.33 402.106 56.106C401.854 55.882 401.56 55.714 401.224 55.602C400.888 55.476 400.531 55.413 400.153 55.413C399.411 55.413 398.795 55.644 398.305 56.106C397.815 56.568 397.423 57.149 397.129 57.849C396.835 58.535 396.625 59.284 396.499 60.096C396.387 60.908 396.331 61.664 396.331 62.364C396.653 61.44 397.171 60.768 397.885 60.348C398.613 59.914 399.446 59.697 400.384 59.697C401.07 59.697 401.693 59.823 402.253 60.075C402.813 60.313 403.282 60.656 403.66 61.104C404.052 61.552 404.353 62.098 404.563 62.742C404.773 63.372 404.878 64.072 404.878 64.842C404.878 65.57 404.766 66.249 404.542 66.879C404.332 67.509 404.017 68.062 403.597 68.538C403.191 69 402.694 69.364 402.106 69.63C401.518 69.896 400.853 70.029 400.111 70.029C398.921 70.029 397.934 69.721 397.15 69.105C396.366 68.503 395.806 67.733 395.47 66.795C395.274 66.221 395.127 65.605 395.029 64.947C394.931 64.275 394.882 63.456 394.882 62.49C394.882 61.09 395.015 59.865 395.281 58.815C395.547 57.751 395.911 56.862 396.373 56.148C396.835 55.434 397.388 54.902 398.032 54.552C398.676 54.188 399.376 54.006 400.132 54.006C401.448 54.006 402.491 54.363 403.261 55.077C404.045 55.791 404.507 56.764 404.647 57.996H402.988ZM413.582 60.222C413.862 59.984 414.086 59.697 414.254 59.361C414.422 59.011 414.506 58.612 414.506 58.164C414.506 57.744 414.422 57.366 414.254 57.03C414.086 56.68 413.862 56.386 413.582 56.148C413.302 55.896 412.966 55.707 412.574 55.581C412.182 55.455 411.769 55.392 411.335 55.392C410.901 55.392 410.488 55.455 410.096 55.581C409.718 55.707 409.382 55.896 409.088 56.148C408.808 56.386 408.584 56.68 408.416 57.03C408.248 57.366 408.164 57.744 408.164 58.164C408.164 58.612 408.241 59.011 408.395 59.361C408.563 59.697 408.787 59.984 409.067 60.222C409.347 60.446 409.683 60.621 410.075 60.747C410.467 60.873 410.887 60.936 411.335 60.936C411.769 60.936 412.182 60.873 412.574 60.747C412.966 60.621 413.302 60.446 413.582 60.222ZM413.792 67.761C414.394 67.201 414.695 66.459 414.695 65.535C414.695 65.031 414.597 64.59 414.401 64.212C414.205 63.82 413.946 63.498 413.624 63.246C413.316 62.98 412.959 62.784 412.553 62.658C412.161 62.532 411.755 62.469 411.335 62.469C410.915 62.469 410.502 62.532 410.096 62.658C409.69 62.784 409.326 62.98 409.004 63.246C408.696 63.498 408.444 63.82 408.248 64.212C408.066 64.59 407.975 65.031 407.975 65.535C407.975 66.459 408.269 67.201 408.857 67.761C409.459 68.321 410.285 68.601 411.335 68.601C412.371 68.601 413.19 68.321 413.792 67.761ZM414.569 61.251C414.233 61.503 413.855 61.685 413.435 61.797C414.359 62.049 415.08 62.504 415.598 63.162C416.116 63.806 416.375 64.59 416.375 65.514C416.375 66.228 416.249 66.865 415.997 67.425C415.759 67.985 415.416 68.461 414.968 68.853C414.52 69.231 413.981 69.518 413.351 69.714C412.735 69.91 412.056 70.008 411.314 70.008C410.572 70.008 409.893 69.91 409.277 69.714C408.661 69.518 408.129 69.231 407.681 68.853C407.247 68.461 406.904 67.985 406.652 67.425C406.414 66.865 406.295 66.228 406.295 65.514C406.295 64.912 406.435 64.338 406.715 63.792C407.009 63.246 407.429 62.77 407.975 62.364C408.073 62.294 408.164 62.231 408.248 62.175C408.346 62.119 408.451 62.063 408.563 62.007C408.675 61.951 408.787 61.902 408.899 61.86C409.025 61.804 409.144 61.755 409.256 61.713C408.822 61.629 408.43 61.475 408.08 61.251C407.744 61.013 407.457 60.733 407.219 60.411C406.981 60.089 406.799 59.732 406.673 59.34C406.547 58.948 406.484 58.549 406.484 58.143C406.484 57.485 406.603 56.897 406.841 56.379C407.079 55.861 407.408 55.427 407.828 55.077C408.262 54.713 408.773 54.44 409.361 54.258C409.963 54.076 410.621 53.985 411.335 53.985C412.049 53.985 412.7 54.076 413.288 54.258C413.89 54.44 414.401 54.713 414.821 55.077C415.255 55.427 415.591 55.861 415.829 56.379C416.067 56.897 416.186 57.485 416.186 58.143C416.186 58.703 416.039 59.263 415.745 59.823C415.451 60.383 415.059 60.859 414.569 61.251ZM424.05 68.265C424.512 67.985 424.876 67.593 425.142 67.089C425.422 66.585 425.632 66.032 425.772 65.43C425.926 64.828 426.024 64.219 426.066 63.603C426.108 62.987 426.129 62.427 426.129 61.923C426.129 61.335 426.094 60.656 426.024 59.886C425.954 59.102 425.8 58.36 425.562 57.66C425.338 56.96 425.002 56.372 424.554 55.896C424.106 55.406 423.504 55.161 422.748 55.161C422.006 55.161 421.418 55.406 420.984 55.896C420.564 56.372 420.242 56.96 420.018 57.66C419.808 58.36 419.675 59.102 419.619 59.886C419.563 60.656 419.535 61.335 419.535 61.923C419.535 62.315 419.542 62.749 419.556 63.225C419.584 63.701 419.633 64.191 419.703 64.695C419.773 65.185 419.878 65.668 420.018 66.144C420.158 66.606 420.347 67.019 420.585 67.383C420.823 67.747 421.117 68.041 421.467 68.265C421.817 68.489 422.244 68.601 422.748 68.601C423.266 68.601 423.7 68.489 424.05 68.265ZM426.885 67.467C426.521 68.237 426.003 68.86 425.331 69.336C424.659 69.826 423.798 70.071 422.748 70.071C421.712 70.071 420.872 69.826 420.228 69.336C419.584 68.86 419.08 68.237 418.716 67.467C418.352 66.697 418.107 65.829 417.981 64.863C417.855 63.883 417.792 62.903 417.792 61.923C417.792 60.943 417.855 59.963 417.981 58.983C418.107 58.003 418.352 57.121 418.716 56.337C419.08 55.553 419.584 54.923 420.228 54.447C420.872 53.957 421.712 53.712 422.748 53.712C423.798 53.712 424.652 53.957 425.31 54.447C425.982 54.923 426.507 55.553 426.885 56.337C427.263 57.121 427.522 58.003 427.662 58.983C427.802 59.963 427.872 60.943 427.872 61.923C427.872 62.931 427.802 63.911 427.662 64.863C427.522 65.801 427.263 66.669 426.885 67.467ZM435.463 68.265C435.925 67.985 436.289 67.593 436.555 67.089C436.835 66.585 437.045 66.032 437.185 65.43C437.339 64.828 437.437 64.219 437.479 63.603C437.521 62.987 437.542 62.427 437.542 61.923C437.542 61.335 437.507 60.656 437.437 59.886C437.367 59.102 437.213 58.36 436.975 57.66C436.751 56.96 436.415 56.372 435.967 55.896C435.519 55.406 434.917 55.161 434.161 55.161C433.419 55.161 432.831 55.406 432.397 55.896C431.977 56.372 431.655 56.96 431.431 57.66C431.221 58.36 431.088 59.102 431.032 59.886C430.976 60.656 430.948 61.335 430.948 61.923C430.948 62.315 430.955 62.749 430.969 63.225C430.997 63.701 431.046 64.191 431.116 64.695C431.186 65.185 431.291 65.668 431.431 66.144C431.571 66.606 431.76 67.019 431.998 67.383C432.236 67.747 432.53 68.041 432.88 68.265C433.23 68.489 433.657 68.601 434.161 68.601C434.679 68.601 435.113 68.489 435.463 68.265ZM438.298 67.467C437.934 68.237 437.416 68.86 436.744 69.336C436.072 69.826 435.211 70.071 434.161 70.071C433.125 70.071 432.285 69.826 431.641 69.336C430.997 68.86 430.493 68.237 430.129 67.467C429.765 66.697 429.52 65.829 429.394 64.863C429.268 63.883 429.205 62.903 429.205 61.923C429.205 60.943 429.268 59.963 429.394 58.983C429.52 58.003 429.765 57.121 430.129 56.337C430.493 55.553 430.997 54.923 431.641 54.447C432.285 53.957 433.125 53.712 434.161 53.712C435.211 53.712 436.065 53.957 436.723 54.447C437.395 54.923 437.92 55.553 438.298 56.337C438.676 57.121 438.935 58.003 439.075 58.983C439.215 59.963 439.285 60.943 439.285 61.923C439.285 62.931 439.215 63.911 439.075 64.863C438.935 65.801 438.676 66.669 438.298 67.467Z" fill="#1C262B"/>
<path d="M380.192 89.592C379.68 89.0693 379.221 88.4987 378.816 87.88C378.421 87.2613 378.08 86.6213 377.792 85.96C377.515 85.288 377.301 84.6107 377.152 83.928C377.013 83.2347 376.944 82.5627 376.944 81.912C376.944 81.2613 377.019 80.5947 377.168 79.912C377.317 79.2187 377.531 78.5413 377.808 77.88C378.085 77.2187 378.421 76.5787 378.816 75.96C379.221 75.3413 379.68 74.7653 380.192 74.232H381.152C380.181 75.4907 379.472 76.7707 379.024 78.072C378.587 79.3733 378.368 80.6533 378.368 81.912C378.368 83.1707 378.587 84.4507 379.024 85.752C379.472 87.0533 380.181 88.3333 381.152 89.592H380.192ZM392.889 82.36H391.641V79.144H388.857C388.772 79.56 388.622 79.944 388.409 80.296C388.196 80.648 387.929 80.9467 387.609 81.192C387.289 81.4373 386.926 81.6293 386.521 81.768C386.126 81.9067 385.705 81.976 385.257 81.976C384.766 81.976 384.297 81.8907 383.849 81.72C383.412 81.5493 383.028 81.3093 382.697 81C382.366 80.7013 382.105 80.344 381.913 79.928C381.721 79.5013 381.625 79.032 381.625 78.52C381.625 78.008 381.716 77.544 381.897 77.128C382.089 76.712 382.35 76.3547 382.681 76.056C383.012 75.7467 383.396 75.5067 383.833 75.336C384.27 75.1653 384.745 75.08 385.257 75.08C385.705 75.08 386.137 75.1547 386.553 75.304C386.969 75.4533 387.337 75.656 387.657 75.912C387.988 76.1787 388.26 76.4933 388.473 76.856C388.686 77.2187 388.825 77.6133 388.889 78.04H391.641V74.904H392.889V82.36ZM387.641 78.536C387.641 77.8853 387.412 77.336 386.953 76.888C386.505 76.4293 385.94 76.2 385.257 76.2C384.916 76.2 384.601 76.264 384.313 76.392C384.025 76.52 383.774 76.6853 383.561 76.888C383.102 77.3147 382.873 77.864 382.873 78.536C382.873 78.8133 382.932 79.1173 383.049 79.448C383.156 79.7253 383.326 79.9653 383.561 80.168C384.009 80.616 384.574 80.84 385.257 80.84C385.961 80.84 386.532 80.616 386.969 80.168C387.417 79.72 387.641 79.176 387.641 78.536ZM391.641 87.896V85.912H384.937V87.896H391.641ZM392.873 88.6C392.873 88.728 392.846 88.8133 392.793 88.856C392.75 88.9093 392.665 88.936 392.537 88.936H384.025C383.897 88.936 383.806 88.9093 383.753 88.856C383.71 88.8133 383.689 88.728 383.689 88.6V83.112H384.937V84.872H391.641V83.112H392.873V88.6ZM394.73 85.192C396.224 84.2213 397.37 83.048 398.17 81.672C398.981 80.2853 399.402 78.7013 399.434 76.92H395.546V75.848H400.378C400.506 75.848 400.592 75.8747 400.634 75.928C400.688 75.9707 400.714 76.056 400.714 76.184C400.672 77.2827 400.549 78.2853 400.346 79.192C400.144 80.088 399.84 80.936 399.434 81.736C399.04 82.536 398.538 83.2827 397.93 83.976C397.322 84.6587 396.602 85.32 395.77 85.96L394.73 85.192ZM406.73 89.096H405.482V74.904H406.73V89.096ZM403.994 88.424H402.762V82.856H400.426V81.72H402.762V79.096H400.746V77.976H402.762V75.144H403.994V88.424ZM424.172 78.456H419.9C419.996 78.8827 420.204 79.2507 420.524 79.56C420.855 79.8693 421.26 80.1307 421.74 80.344C422.22 80.5573 422.727 80.7333 423.26 80.872C423.804 81.0107 424.348 81.1173 424.892 81.192C424.817 81.2773 424.743 81.3627 424.668 81.448C424.604 81.5333 424.535 81.624 424.46 81.72C424.385 81.8053 424.316 81.8907 424.252 81.976C424.188 82.0507 424.129 82.12 424.076 82.184C423.756 82.12 423.372 82.04 422.924 81.944C422.487 81.8373 422.039 81.6933 421.58 81.512C421.1 81.3307 420.647 81.1013 420.22 80.824C419.804 80.5467 419.457 80.2 419.18 79.784C418.636 80.5093 417.916 81.0533 417.02 81.416C416.124 81.768 415.196 82.024 414.236 82.184C414.14 82.0667 414.007 81.912 413.836 81.72C413.676 81.5173 413.521 81.336 413.372 81.176C413.948 81.08 414.508 80.968 415.052 80.84C415.607 80.7013 416.113 80.5307 416.572 80.328C417.052 80.1147 417.452 79.864 417.772 79.576C418.092 79.2773 418.311 78.904 418.428 78.456H414.124V77.384H424.172V78.456ZM421.772 76.024H416.508V74.968H421.772V76.024ZM425.66 84.488H419.868V89.08H418.572V84.488H412.668V83.4H425.66V84.488ZM434.381 82.632C434.104 82.5147 433.8 82.36 433.469 82.168C433.138 81.9653 432.813 81.736 432.493 81.48C432.173 81.224 431.869 80.936 431.581 80.616C431.293 80.296 431.053 79.944 430.861 79.56C430.733 79.9333 430.552 80.2907 430.317 80.632C430.082 80.9627 429.81 81.2773 429.501 81.576C429.192 81.8747 428.85 82.152 428.477 82.408C428.114 82.6533 427.736 82.872 427.341 83.064L426.397 82.216C426.909 82.0133 427.394 81.7573 427.853 81.448C428.312 81.128 428.712 80.7547 429.053 80.328C429.394 79.912 429.666 79.4427 429.869 78.92C430.082 78.3973 430.189 77.816 430.189 77.176V76.632H427.373V75.56H434.301V76.632H431.517V77.208C431.517 77.7947 431.618 78.328 431.821 78.808C432.024 79.288 432.296 79.72 432.637 80.104C432.978 80.4773 433.368 80.8027 433.805 81.08C434.242 81.3467 434.701 81.5547 435.181 81.704L434.381 82.632ZM438.349 83.496H437.101V79.192H434.157V78.136H437.101V74.904H438.349V83.496ZM438.605 86.456C438.605 87.3413 438.162 88.04 437.277 88.552C436.392 89.064 435.218 89.32 433.757 89.32C433.021 89.32 432.354 89.2507 431.757 89.112C431.17 88.984 430.669 88.7973 430.253 88.552C429.826 88.3067 429.501 88.008 429.277 87.656C429.053 87.304 428.941 86.904 428.941 86.456C428.941 86.0293 429.053 85.64 429.277 85.288C429.512 84.9253 429.842 84.6213 430.269 84.376C430.696 84.12 431.197 83.9227 431.773 83.784C432.36 83.6453 433.021 83.576 433.757 83.576C435.218 83.576 436.392 83.8427 437.277 84.376C438.162 84.9093 438.605 85.6027 438.605 86.456ZM436.269 87.832C436.578 87.672 436.824 87.4747 437.005 87.24C437.186 87.016 437.277 86.76 437.277 86.472C437.277 85.9067 436.941 85.4533 436.269 85.112C435.618 84.7813 434.781 84.616 433.757 84.616C432.754 84.616 431.928 84.7813 431.277 85.112C430.968 85.2613 430.722 85.4533 430.541 85.688C430.37 85.912 430.285 86.168 430.285 86.456C430.285 86.744 430.37 87.0053 430.541 87.24C430.722 87.4747 430.973 87.672 431.293 87.832C431.912 88.1627 432.733 88.328 433.757 88.328C434.781 88.328 435.618 88.1627 436.269 87.832ZM446.83 76.216H442.574V75.144H446.83V76.216ZM448.078 86.008C446.564 85.1013 445.454 83.7893 444.75 82.072C444.462 82.872 444.025 83.6187 443.438 84.312C442.862 85.0053 442.142 85.672 441.278 86.312L440.19 85.416C442.761 83.9867 444.052 82.0293 444.062 79.544V78.904H440.974V77.8H448.478V78.904H445.406V79.544C445.385 81.8053 446.574 83.656 448.974 85.096L448.078 86.008ZM452.078 89.08H450.814V74.904H452.078V89.08ZM453.103 89.592C454.074 88.3333 454.778 87.0533 455.215 85.752C455.663 84.4507 455.887 83.1707 455.887 81.912C455.887 80.6533 455.663 79.3733 455.215 78.072C454.778 76.7707 454.074 75.4907 453.103 74.232H454.063C454.575 74.7653 455.029 75.3413 455.423 75.96C455.829 76.5787 456.17 77.2187 456.447 77.88C456.725 78.5413 456.938 79.2187 457.087 79.912C457.237 80.5947 457.311 81.2613 457.311 81.912C457.311 82.5627 457.237 83.2347 457.087 83.928C456.949 84.6107 456.735 85.288 456.447 85.96C456.17 86.6213 455.829 87.2613 455.423 87.88C455.029 88.4987 454.575 89.0693 454.063 89.592H453.103Z" fill="#1C262B"/>
<path d="M324.115 372.43H321.19V373.72C321.19 375.08 321.485 376.28 322.075 377.32C322.685 378.44 323.61 379.355 324.85 380.065C324.72 380.175 324.57 380.315 324.4 380.485C324.23 380.655 324.095 380.795 323.995 380.905C323.655 380.695 323.325 380.455 323.005 380.185C322.685 379.915 322.39 379.615 322.12 379.285C321.47 378.545 320.96 377.7 320.59 376.75C320.46 377.2 320.275 377.64 320.035 378.07C319.805 378.49 319.54 378.895 319.24 379.285C318.94 379.705 318.615 380.085 318.265 380.425C317.915 380.755 317.575 381.035 317.245 381.265C317.105 381.145 316.935 381.01 316.735 380.86C316.545 380.71 316.36 380.575 316.18 380.455C316.79 380.085 317.33 379.665 317.8 379.195C318.27 378.725 318.665 378.19 318.985 377.59C319.305 377.02 319.55 376.395 319.72 375.715C319.89 375.035 319.975 374.305 319.975 373.525V372.43H317.14V371.425H324.115V372.43ZM326.98 383.965H325.81V370.66H326.98V375.76H328.96V376.825H326.98V383.965ZM341.411 382.315H329.186V381.295H332.666V378.805H331.166C331.046 378.805 330.961 378.785 330.911 378.745C330.871 378.695 330.851 378.61 330.851 378.49V374.89C330.851 374.77 330.871 374.69 330.911 374.65C330.961 374.6 331.046 374.575 331.166 374.575H338.426V372.295H330.836V371.29H339.281C339.401 371.29 339.481 371.315 339.521 371.365C339.571 371.405 339.596 371.485 339.596 371.605V375.25C339.596 375.37 339.571 375.455 339.521 375.505C339.481 375.545 339.401 375.565 339.281 375.565H332.006V377.8H340.031V378.805H338.201V381.295H341.411V382.315ZM337.016 381.295V378.805H333.821V381.295H337.016ZM344.772 374.83H343.227V373.285H344.772V374.83ZM344.772 380.95H343.227V379.405H344.772V380.95ZM359.614 375.61C359.734 375.01 359.829 374.43 359.899 373.87C359.969 373.31 360.019 372.71 360.049 372.07H351.889V371.05H360.949C361.069 371.05 361.149 371.075 361.189 371.125C361.239 371.165 361.264 371.245 361.264 371.365C361.234 372.245 361.169 373.025 361.069 373.705C360.969 374.375 360.864 375.01 360.754 375.61H359.614ZM362.659 377.65H350.479V376.615H355.339V373.81H356.539V376.615H362.659V377.65ZM356.569 384.205C355.019 384.205 353.834 383.95 353.014 383.44C352.184 382.94 351.769 382.305 351.769 381.535C351.769 380.775 352.184 380.14 353.014 379.63C353.834 379.12 355.019 378.865 356.569 378.865C358.099 378.865 359.279 379.12 360.109 379.63C360.939 380.14 361.354 380.775 361.354 381.535C361.354 382.305 360.939 382.94 360.109 383.44C359.279 383.95 358.099 384.205 356.569 384.205ZM356.569 383.26C357.589 383.26 358.424 383.11 359.074 382.81C359.734 382.53 360.064 382.1 360.064 381.52C360.064 380.98 359.734 380.565 359.074 380.275C358.424 379.975 357.589 379.825 356.569 379.825C355.519 379.825 354.674 379.975 354.034 380.275C353.404 380.565 353.089 380.98 353.089 381.52C353.089 382.09 353.404 382.52 354.034 382.81C354.674 383.11 355.519 383.26 356.569 383.26ZM370.835 377.905C370.575 377.795 370.29 377.65 369.98 377.47C369.67 377.28 369.365 377.065 369.065 376.825C368.765 376.585 368.48 376.315 368.21 376.015C367.94 375.715 367.715 375.385 367.535 375.025C367.415 375.375 367.245 375.71 367.025 376.03C366.805 376.34 366.55 376.635 366.26 376.915C365.97 377.195 365.65 377.455 365.3 377.695C364.96 377.925 364.605 378.13 364.235 378.31L363.35 377.515C363.83 377.325 364.285 377.085 364.715 376.795C365.145 376.495 365.52 376.145 365.84 375.745C366.16 375.355 366.415 374.915 366.605 374.425C366.805 373.935 366.905 373.39 366.905 372.79V372.28H364.265V371.275H370.76V372.28H368.15V372.82C368.15 373.37 368.245 373.87 368.435 374.32C368.625 374.77 368.88 375.175 369.2 375.535C369.52 375.885 369.885 376.19 370.295 376.45C370.705 376.7 371.135 376.895 371.585 377.035L370.835 377.905ZM374.555 378.715H373.385V374.68H370.625V373.69H373.385V370.66H374.555V378.715ZM374.795 381.49C374.795 382.32 374.38 382.975 373.55 383.455C372.72 383.935 371.62 384.175 370.25 384.175C369.56 384.175 368.935 384.11 368.375 383.98C367.825 383.86 367.355 383.685 366.965 383.455C366.565 383.225 366.26 382.945 366.05 382.615C365.84 382.285 365.735 381.91 365.735 381.49C365.735 381.09 365.84 380.725 366.05 380.395C366.27 380.055 366.58 379.77 366.98 379.54C367.38 379.3 367.85 379.115 368.39 378.985C368.94 378.855 369.56 378.79 370.25 378.79C371.62 378.79 372.72 379.04 373.55 379.54C374.38 380.04 374.795 380.69 374.795 381.49ZM372.605 382.78C372.895 382.63 373.125 382.445 373.295 382.225C373.465 382.015 373.55 381.775 373.55 381.505C373.55 380.975 373.235 380.55 372.605 380.23C371.995 379.92 371.21 379.765 370.25 379.765C369.31 379.765 368.535 379.92 367.925 380.23C367.635 380.37 367.405 380.55 367.235 380.77C367.075 380.98 366.995 381.22 366.995 381.49C366.995 381.76 367.075 382.005 367.235 382.225C367.405 382.445 367.64 382.63 367.94 382.78C368.52 383.09 369.29 383.245 370.25 383.245C371.21 383.245 371.995 383.09 372.605 382.78ZM376.491 380.395C377.271 379.995 377.976 379.525 378.606 378.985C379.236 378.435 379.781 377.825 380.241 377.155C380.701 376.485 381.066 375.76 381.336 374.98C381.616 374.19 381.791 373.35 381.861 372.46H377.256V371.425H382.866C382.986 371.425 383.066 371.45 383.106 371.5C383.156 371.54 383.181 371.62 383.181 371.74C383.131 372.8 382.961 373.79 382.671 374.71C382.381 375.62 381.981 376.48 381.471 377.29C380.951 378.11 380.356 378.845 379.686 379.495C379.016 380.135 378.271 380.7 377.451 381.19L376.491 380.395ZM387.171 383.95H385.971V376.615H383.091V375.535H385.971V370.66H387.171V383.95ZM395.557 380.32C395.437 380.35 395.232 380.385 394.942 380.425C394.662 380.455 394.342 380.49 393.982 380.53C393.622 380.56 393.237 380.585 392.827 380.605C392.417 380.625 392.027 380.635 391.657 380.635H390.157C390.037 380.635 389.952 380.615 389.902 380.575C389.862 380.525 389.842 380.44 389.842 380.32V375.85C389.842 375.73 389.862 375.65 389.902 375.61C389.952 375.56 390.037 375.535 390.157 375.535H393.427V372.415H389.842V371.38H394.252C394.372 371.38 394.452 371.405 394.492 371.455C394.542 371.495 394.567 371.575 394.567 371.695V376.225C394.567 376.345 394.542 376.43 394.492 376.48C394.452 376.52 394.372 376.54 394.252 376.54H390.997V379.6H392.002C392.272 379.6 392.582 379.595 392.932 379.585C393.292 379.565 393.642 379.54 393.982 379.51C394.332 379.48 394.647 379.45 394.927 379.42C395.217 379.38 395.427 379.345 395.557 379.315V380.32ZM400.087 383.965H398.932V376.48H397.267V383.32H396.112V370.885H397.267V375.34H398.932V370.66H400.087V383.965ZM409.583 373.75C409.583 374.19 409.503 374.565 409.343 374.875C409.183 375.245 408.968 375.55 408.698 375.79C408.408 376.05 408.058 376.255 407.648 376.405C407.238 376.555 406.773 376.63 406.253 376.63C405.713 376.63 405.238 376.555 404.828 376.405C404.428 376.255 404.083 376.05 403.793 375.79C403.503 375.53 403.283 375.225 403.133 374.875C402.983 374.525 402.908 374.15 402.908 373.75C402.908 373.36 402.983 372.99 403.133 372.64C403.283 372.29 403.498 371.98 403.778 371.71C404.068 371.44 404.418 371.225 404.828 371.065C405.238 370.905 405.713 370.825 406.253 370.825C406.773 370.825 407.238 370.905 407.648 371.065C408.068 371.225 408.418 371.44 408.698 371.71C408.988 371.98 409.208 372.29 409.358 372.64C409.508 372.99 409.583 373.36 409.583 373.75ZM408.458 373.735C408.458 373.225 408.278 372.775 407.918 372.385C407.578 371.985 407.023 371.785 406.253 371.785C405.503 371.785 404.948 371.985 404.588 372.385C404.228 372.775 404.048 373.225 404.048 373.735C404.048 374.225 404.223 374.675 404.573 375.085C404.933 375.475 405.493 375.67 406.253 375.67C407.013 375.67 407.568 375.475 407.918 375.085C408.278 374.695 408.458 374.245 408.458 373.735ZM412.853 383.95H411.668V370.66H412.853V383.95ZM406.628 383.665H405.503V379.03H402.068V377.995H405.908C406.168 377.995 406.523 377.99 406.973 377.98C407.423 377.96 407.903 377.935 408.413 377.905C408.923 377.875 409.413 377.84 409.883 377.8C410.363 377.76 410.758 377.715 411.068 377.665V378.655C410.438 378.765 409.743 378.845 408.983 378.895C408.233 378.945 407.448 378.985 406.628 379.015V383.665ZM415.824 373.135C415.824 372.435 416.099 371.84 416.649 371.35C417.199 370.84 418.019 370.585 419.109 370.585C419.649 370.585 420.124 370.65 420.534 370.78C420.944 370.91 421.289 371.09 421.569 371.32C421.849 371.55 422.059 371.82 422.199 372.13C422.349 372.44 422.424 372.775 422.424 373.135C422.424 373.885 422.134 374.485 421.554 374.935C420.984 375.385 420.169 375.61 419.109 375.61C418.029 375.61 417.209 375.38 416.649 374.92C416.099 374.45 415.824 373.855 415.824 373.135ZM420.744 374.2C421.064 373.91 421.224 373.555 421.224 373.135C421.224 372.925 421.184 372.725 421.104 372.535C421.034 372.345 420.914 372.185 420.744 372.055C420.584 371.915 420.369 371.805 420.099 371.725C419.829 371.645 419.499 371.605 419.109 371.605C418.709 371.605 418.374 371.645 418.104 371.725C417.834 371.805 417.614 371.915 417.444 372.055C417.284 372.195 417.169 372.36 417.099 372.55C417.029 372.73 416.994 372.925 416.994 373.135C416.994 373.555 417.149 373.905 417.459 374.185C417.779 374.465 418.329 374.605 419.109 374.605C419.879 374.605 420.424 374.47 420.744 374.2ZM423.954 377.14C423.684 377.19 423.359 377.235 422.979 377.275C422.599 377.315 422.184 377.35 421.734 377.38C421.284 377.41 420.824 377.435 420.354 377.455C419.894 377.475 419.449 377.485 419.019 377.485V379.63H417.834V377.515H414.804V376.51H418.794C419.154 376.51 419.574 376.5 420.054 376.48C420.544 376.46 421.044 376.43 421.554 376.39C422.044 376.35 422.504 376.31 422.934 376.27C423.374 376.23 423.714 376.185 423.954 376.135V377.14ZM425.664 380.8H424.509V379.51H421.359V378.55H424.509V370.675H425.664V380.8ZM425.949 383.68H417.279C417.159 383.68 417.074 383.655 417.024 383.605C416.984 383.565 416.964 383.485 416.964 383.365V380.335H418.194V382.66H425.949V383.68ZM435.7 373.9H428.38V372.895H435.7V373.9ZM433.975 371.89H430.105V370.9H433.975V371.89ZM436.87 381.1C436.33 381.18 435.755 381.245 435.145 381.295C434.545 381.335 433.915 381.365 433.255 381.385C432.595 381.415 431.925 381.435 431.245 381.445C430.565 381.455 429.895 381.455 429.235 381.445H427.765V380.395H431.5V379.075C431.12 379.035 430.77 378.95 430.45 378.82C430.14 378.69 429.87 378.53 429.64 378.34C429.41 378.14 429.23 377.915 429.1 377.665C428.97 377.405 428.905 377.125 428.905 376.825C428.905 376.155 429.2 375.615 429.79 375.205C430.37 374.785 431.13 374.575 432.07 374.575C433.01 374.575 433.775 374.785 434.365 375.205C434.955 375.615 435.25 376.155 435.25 376.825C435.25 377.115 435.19 377.385 435.07 377.635C434.95 377.885 434.775 378.11 434.545 378.31C434.325 378.51 434.06 378.675 433.75 378.805C433.44 378.935 433.1 379.02 432.73 379.06V380.38C433.44 380.35 434.165 380.315 434.905 380.275C435.645 380.225 436.3 380.165 436.87 380.095V381.1ZM433.54 377.785C433.9 377.535 434.08 377.215 434.08 376.825C434.08 376.425 433.9 376.1 433.54 375.85C433.19 375.6 432.7 375.475 432.07 375.475C431.44 375.475 430.95 375.6 430.6 375.85C430.26 376.1 430.09 376.425 430.09 376.825C430.09 377.215 430.26 377.535 430.6 377.785C430.95 378.035 431.44 378.16 432.07 378.16C432.71 378.16 433.2 378.035 433.54 377.785ZM438.58 383.965H437.395V370.66H438.58V383.965Z" fill="#666666"/>
<path d="M50.52 74.888L49.48 75.432L48.536 73.288L47.56 75.48L46.52 74.888L47.848 72.84L45.688 73.016V71.896L47.848 72.088L46.472 70.088L47.56 69.512L48.536 71.624L49.496 69.512L50.536 70.072L49.224 72.088L51.4 71.896V73.016L49.24 72.824L50.52 74.888ZM59.9166 76.312C59.618 76.1627 59.298 75.9867 58.9566 75.784C58.626 75.5813 58.3006 75.3467 57.9806 75.08C57.6606 74.824 57.362 74.536 57.0846 74.216C56.8073 73.896 56.578 73.544 56.3966 73.16C56.2473 73.5653 56.0446 73.944 55.7886 74.296C55.5326 74.648 55.2446 74.9787 54.9246 75.288C54.6046 75.5867 54.2633 75.8587 53.9006 76.104C53.5486 76.3493 53.1966 76.5627 52.8446 76.744L51.8686 75.848C52.4126 75.6027 52.914 75.32 53.3726 75C53.842 74.6693 54.2526 74.28 54.6046 73.832C54.946 73.4053 55.2126 72.9253 55.4046 72.392C55.6073 71.848 55.7086 71.24 55.7086 70.568V69.256H57.0366V70.584C57.0366 71.192 57.138 71.752 57.3406 72.264C57.5433 72.7653 57.8153 73.2133 58.1566 73.608C58.498 74.0133 58.8926 74.36 59.3406 74.648C59.7886 74.9253 60.2526 75.1493 60.7326 75.32L59.9166 76.312ZM63.5006 77.464H62.2526V68.904H63.5006V72.216H65.4846V73.304H63.5006V77.464ZM63.8206 80.504C63.8206 81.4 63.3886 82.0933 62.5246 82.584C61.6606 83.096 60.4926 83.352 59.0206 83.352C57.5593 83.352 56.3913 83.096 55.5166 82.584C54.6526 82.072 54.2206 81.3787 54.2206 80.504C54.2206 80.0773 54.3326 79.688 54.5566 79.336C54.7913 78.9733 55.1166 78.6693 55.5326 78.424C55.9486 78.1787 56.4446 77.9867 57.0206 77.848C57.6073 77.7093 58.2686 77.64 59.0046 77.64C60.498 77.64 61.666 77.9013 62.5086 78.424C63.3833 78.9467 63.8206 79.64 63.8206 80.504ZM59.0046 82.36C60.018 82.36 60.85 82.1947 61.5006 81.864C62.162 81.544 62.4926 81.096 62.4926 80.52C62.4926 79.944 62.162 79.496 61.5006 79.176C60.85 78.8453 60.018 78.68 59.0046 78.68C58.514 78.68 58.0553 78.7227 57.6286 78.808C57.2126 78.8933 56.85 79.0107 56.5406 79.16C55.89 79.4907 55.5646 79.9387 55.5646 80.504C55.5646 80.792 55.65 81.048 55.8206 81.272C56.002 81.5067 56.2473 81.704 56.5566 81.864C57.1753 82.1947 57.9913 82.36 59.0046 82.36ZM74.4138 72.2C74.4138 72.6693 74.3284 73.0693 74.1578 73.4C73.9871 73.7947 73.7578 74.12 73.4698 74.376C73.1604 74.6533 72.7871 74.872 72.3498 75.032C71.9124 75.192 71.4164 75.272 70.8618 75.272C70.2858 75.272 69.7791 75.192 69.3418 75.032C68.9151 74.872 68.5471 74.6533 68.2378 74.376C67.9284 74.0987 67.6938 73.7733 67.5338 73.4C67.3738 73.0267 67.2938 72.6267 67.2938 72.2C67.2938 71.784 67.3738 71.3893 67.5338 71.016C67.6938 70.6427 67.9231 70.312 68.2218 70.024C68.5311 69.736 68.9044 69.5067 69.3418 69.336C69.7791 69.1653 70.2858 69.08 70.8618 69.08C71.4164 69.08 71.9124 69.1653 72.3498 69.336C72.7978 69.5067 73.1711 69.736 73.4698 70.024C73.7791 70.312 74.0138 70.6427 74.1738 71.016C74.3338 71.3893 74.4138 71.784 74.4138 72.2ZM73.2138 72.184C73.2138 71.64 73.0218 71.16 72.6378 70.744C72.2751 70.3173 71.6831 70.104 70.8618 70.104C70.0618 70.104 69.4698 70.3173 69.0858 70.744C68.7018 71.16 68.5098 71.64 68.5098 72.184C68.5098 72.7067 68.6964 73.1867 69.0698 73.624C69.4538 74.04 70.0511 74.248 70.8618 74.248C71.6724 74.248 72.2644 74.04 72.6378 73.624C73.0218 73.208 73.2138 72.728 73.2138 72.184ZM77.9018 83.08H76.6378V68.904H77.9018V83.08ZM71.2618 82.776H70.0618V77.832H66.3978V76.728H70.4938C70.7711 76.728 71.1498 76.7227 71.6298 76.712C72.1098 76.6907 72.6218 76.664 73.1658 76.632C73.7098 76.6 74.2324 76.5627 74.7338 76.52C75.2458 76.4773 75.6671 76.4293 75.9978 76.376V77.432C75.3258 77.5493 74.5844 77.6347 73.7738 77.688C72.9738 77.7413 72.1364 77.784 71.2618 77.816V82.776ZM88.9755 80.488C89.4555 80.264 89.8182 79.9173 90.0635 79.448C90.3088 78.968 90.4315 78.4187 90.4315 77.8C90.4315 77.416 90.3782 77.048 90.2715 76.696C90.1648 76.344 90.0048 76.0347 89.7915 75.768C89.5888 75.5013 89.3328 75.2933 89.0235 75.144C88.7142 74.984 88.3568 74.904 87.9515 74.904C87.5888 74.904 87.2582 74.9787 86.9595 75.128C86.6608 75.2773 86.3995 75.48 86.1755 75.736C85.9622 75.992 85.7915 76.2853 85.6635 76.616C85.5462 76.9467 85.4875 77.2933 85.4875 77.656C85.4875 78.0933 85.5462 78.4987 85.6635 78.872C85.7808 79.2347 85.9462 79.5547 86.1595 79.832C86.3728 80.1093 86.6288 80.328 86.9275 80.488C87.2262 80.6373 87.5568 80.712 87.9195 80.712C88.2395 80.712 88.5915 80.6373 88.9755 80.488ZM90.2555 72.616C90.2448 72.3173 90.1808 72.0453 90.0635 71.8C89.9462 71.5547 89.7862 71.3467 89.5835 71.176C89.3915 71.0053 89.1675 70.8773 88.9115 70.792C88.6555 70.696 88.3835 70.648 88.0955 70.648C87.5302 70.648 87.0608 70.824 86.6875 71.176C86.3142 71.528 86.0155 71.9707 85.7915 72.504C85.5675 73.0267 85.4075 73.5973 85.3115 74.216C85.2262 74.8347 85.1835 75.4107 85.1835 75.944C85.4288 75.24 85.8235 74.728 86.3675 74.408C86.9222 74.0773 87.5568 73.912 88.2715 73.912C88.7942 73.912 89.2688 74.008 89.6955 74.2C90.1222 74.3813 90.4795 74.6427 90.7675 74.984C91.0662 75.3253 91.2955 75.7413 91.4555 76.232C91.6155 76.712 91.6955 77.2453 91.6955 77.832C91.6955 78.3867 91.6102 78.904 91.4395 79.384C91.2795 79.864 91.0395 80.2853 90.7195 80.648C90.4102 81 90.0315 81.2773 89.5835 81.48C89.1355 81.6827 88.6288 81.784 88.0635 81.784C87.1568 81.784 86.4048 81.5493 85.8075 81.08C85.2102 80.6213 84.7835 80.0347 84.5275 79.32C84.3782 78.8827 84.2662 78.4133 84.1915 77.912C84.1168 77.4 84.0795 76.776 84.0795 76.04C84.0795 74.9733 84.1808 74.04 84.3835 73.24C84.5862 72.4293 84.8635 71.752 85.2155 71.208C85.5675 70.664 85.9888 70.2587 86.4795 69.992C86.9702 69.7147 87.5035 69.576 88.0795 69.576C89.0822 69.576 89.8768 69.848 90.4635 70.392C91.0608 70.936 91.4128 71.6773 91.5195 72.616H90.2555ZM92.5991 79.192C94.0925 78.2213 95.2391 77.048 96.0391 75.672C96.8391 74.2853 97.2551 72.7013 97.2871 70.92H93.4151V69.848H98.2311C98.3591 69.848 98.4445 69.8747 98.4871 69.928C98.5405 69.9707 98.5671 70.056 98.5671 70.184C98.5245 71.2827 98.4018 72.2853 98.1991 73.192C97.9965 74.088 97.6978 74.936 97.3031 75.736C96.8978 76.536 96.3911 77.2827 95.7831 77.976C95.1858 78.6587 94.4711 79.32 93.6391 79.96L92.5991 79.192ZM104.551 83.096H103.319V75.336H101.415V82.424H100.183V69.144H101.415V74.12H103.319V68.904H104.551V83.096ZM115.401 72.328C115.401 73.064 115.476 73.752 115.625 74.392C115.774 75.0213 116.004 75.5973 116.313 76.12C116.996 77.304 117.988 78.2747 119.289 79.032C119.204 79.096 119.113 79.1707 119.017 79.256C118.932 79.3413 118.846 79.4213 118.761 79.496C118.676 79.5813 118.596 79.6667 118.521 79.752C118.446 79.8267 118.382 79.8907 118.329 79.944C117.998 79.72 117.662 79.464 117.321 79.176C116.99 78.8773 116.67 78.552 116.361 78.2C116.03 77.816 115.726 77.4 115.449 76.952C115.172 76.504 114.937 76.0187 114.745 75.496C114.617 75.976 114.425 76.4453 114.169 76.904C113.913 77.352 113.625 77.784 113.305 78.2C112.974 78.648 112.622 79.0533 112.249 79.416C111.876 79.768 111.513 80.0613 111.161 80.296C111.033 80.1787 110.862 80.04 110.649 79.88C110.436 79.7093 110.238 79.5653 110.057 79.448C111.348 78.648 112.356 77.608 113.081 76.328C113.412 75.72 113.662 75.064 113.833 74.36C114.004 73.656 114.089 72.904 114.089 72.104V69.448H115.401V72.328ZM121.737 83.096H120.473V68.904H121.737V74.344H123.833V75.48H121.737V83.096ZM135.946 76.36H134.698V73.144H131.914C131.829 73.56 131.679 73.944 131.466 74.296C131.253 74.648 130.986 74.9467 130.666 75.192C130.346 75.4373 129.983 75.6293 129.578 75.768C129.183 75.9067 128.762 75.976 128.314 75.976C127.823 75.976 127.354 75.8907 126.906 75.72C126.469 75.5493 126.085 75.3093 125.754 75C125.423 74.7013 125.162 74.344 124.97 73.928C124.778 73.5013 124.682 73.032 124.682 72.52C124.682 72.008 124.773 71.544 124.954 71.128C125.146 70.712 125.407 70.3547 125.738 70.056C126.069 69.7467 126.453 69.5067 126.89 69.336C127.327 69.1653 127.802 69.08 128.314 69.08C128.762 69.08 129.194 69.1547 129.61 69.304C130.026 69.4533 130.394 69.656 130.714 69.912C131.045 70.1787 131.317 70.4933 131.53 70.856C131.743 71.2187 131.882 71.6133 131.946 72.04H134.698V68.904H135.946V76.36ZM130.698 72.536C130.698 71.8853 130.469 71.336 130.01 70.888C129.562 70.4293 128.997 70.2 128.314 70.2C127.973 70.2 127.658 70.264 127.37 70.392C127.082 70.52 126.831 70.6853 126.618 70.888C126.159 71.3147 125.93 71.864 125.93 72.536C125.93 72.8133 125.989 73.1173 126.106 73.448C126.213 73.7253 126.383 73.9653 126.618 74.168C127.066 74.616 127.631 74.84 128.314 74.84C129.018 74.84 129.589 74.616 130.026 74.168C130.474 73.72 130.698 73.176 130.698 72.536ZM134.698 81.896V79.912H127.994V81.896H134.698ZM135.93 82.6C135.93 82.728 135.903 82.8133 135.85 82.856C135.807 82.9093 135.722 82.936 135.594 82.936H127.082C126.954 82.936 126.863 82.9093 126.81 82.856C126.767 82.8133 126.746 82.728 126.746 82.6V77.112H127.994V78.872H134.698V77.112H135.93V82.6ZM145.979 70.792H142.859V72.168C142.859 73.6187 143.174 74.8987 143.803 76.008C144.454 77.2027 145.44 78.1787 146.763 78.936C146.624 79.0533 146.464 79.2027 146.283 79.384C146.102 79.5653 145.958 79.7147 145.851 79.832C145.488 79.608 145.136 79.352 144.795 79.064C144.454 78.776 144.139 78.456 143.851 78.104C143.158 77.3147 142.614 76.4133 142.219 75.4C142.08 75.88 141.883 76.3493 141.627 76.808C141.382 77.256 141.099 77.688 140.779 78.104C140.459 78.552 140.112 78.9573 139.739 79.32C139.366 79.672 139.003 79.9707 138.651 80.216C138.502 80.088 138.32 79.944 138.107 79.784C137.904 79.624 137.707 79.48 137.515 79.352C138.166 78.9573 138.742 78.5093 139.243 78.008C139.744 77.5067 140.166 76.936 140.507 76.296C140.848 75.688 141.11 75.0213 141.291 74.296C141.472 73.5707 141.563 72.792 141.563 71.96V70.792H138.539V69.72H145.979V70.792ZM149.035 83.096H147.787V68.904H149.035V74.344H151.147V75.48H149.035V83.096ZM156.205 79.256C157.037 78.8293 157.789 78.328 158.461 77.752C159.133 77.176 159.709 76.5307 160.189 75.816C160.68 75.1013 161.074 74.328 161.373 73.496C161.672 72.6533 161.858 71.7627 161.933 70.824H157.037V69.72H163.005C163.133 69.72 163.218 69.7467 163.261 69.8C163.314 69.8427 163.341 69.928 163.341 70.056C163.288 71.1867 163.106 72.2427 162.797 73.224C162.488 74.2053 162.061 75.1173 161.517 75.96C160.973 76.824 160.338 77.6027 159.613 78.296C158.898 78.9893 158.104 79.592 157.229 80.104L156.205 79.256ZM167.597 83.08H166.317V68.904H167.597V83.08ZM180.846 74.824C180.355 74.7173 179.854 74.568 179.342 74.376C178.841 74.1733 178.361 73.9333 177.902 73.656C177.443 73.3893 177.033 73.0853 176.67 72.744C176.318 72.4027 176.046 72.0347 175.854 71.64C175.342 72.504 174.654 73.1867 173.79 73.688C172.937 74.1787 171.961 74.552 170.862 74.808L170.046 73.864C172.979 73.2347 174.67 72.072 175.118 70.376H170.974V69.304H180.734V70.376H176.59C176.697 70.8667 176.921 71.304 177.262 71.688C177.603 72.072 178.003 72.408 178.462 72.696C178.942 72.984 179.454 73.2293 179.998 73.432C180.553 73.624 181.102 73.768 181.646 73.864L180.846 74.824ZM182.35 77.08H176.67V80.296H175.422V77.08H169.358V75.992H182.35V77.08ZM181.118 82.792H171.438C171.31 82.792 171.219 82.7653 171.166 82.712C171.123 82.6693 171.102 82.584 171.102 82.456V78.552H172.35V81.704H181.118V82.792Z" fill="#666666"/>
<path d="M58.904 46.638V42.92H50.214V46.638H58.904ZM61.368 48.112C61.368 48.3467 61.3167 48.508 61.214 48.596C61.126 48.684 60.972 48.728 60.752 48.728H48.322C48.0873 48.728 47.926 48.6913 47.838 48.618C47.7647 48.53 47.728 48.3687 47.728 48.134V41.468C47.728 41.248 47.772 41.094 47.86 41.006C47.948 40.9033 48.1093 40.852 48.344 40.852H60.752C61.1627 40.852 61.368 41.0573 61.368 41.468V48.112ZM63.634 53.304H55.868V59.948H53.338V53.304H45.484V51.214H63.634V53.304ZM73.9755 49.454C73.5209 49.938 72.9635 50.3193 72.3035 50.598C71.6582 50.8767 70.9322 51.016 70.1255 51.016C69.2895 51.016 68.5489 50.8767 67.9035 50.598C67.2582 50.3193 66.7082 49.938 66.2535 49.454C65.7989 48.9847 65.4542 48.4347 65.2195 47.804C64.9849 47.1587 64.8675 46.4767 64.8675 45.758C64.8675 44.2913 65.3295 43.0593 66.2535 42.062C66.7082 41.5927 67.2582 41.2187 67.9035 40.94C68.5489 40.6613 69.2895 40.522 70.1255 40.522C70.9615 40.522 71.7022 40.6613 72.3475 40.94C72.9929 41.2187 73.5355 41.5927 73.9755 42.062C74.4302 42.546 74.7749 43.1033 75.0095 43.734C75.2589 44.3647 75.3835 45.0393 75.3835 45.758C75.3835 46.4767 75.2589 47.1587 75.0095 47.804C74.7749 48.4347 74.4302 48.9847 73.9755 49.454ZM70.1255 48.904C71.0055 48.904 71.6875 48.596 72.1715 47.98C72.6555 47.364 72.8975 46.6233 72.8975 45.758C72.8975 45.318 72.8315 44.9073 72.6995 44.526C72.5822 44.1447 72.4062 43.8147 72.1715 43.536C71.9369 43.2573 71.6435 43.0373 71.2915 42.876C70.9542 42.7147 70.5655 42.634 70.1255 42.634C69.6855 42.634 69.2895 42.7147 68.9375 42.876C68.6002 43.0373 68.3142 43.2573 68.0795 43.536C67.8449 43.8147 67.6615 44.1447 67.5295 44.526C67.4122 44.9073 67.3535 45.318 67.3535 45.758C67.3535 46.6233 67.5955 47.364 68.0795 47.98C68.5635 48.596 69.2455 48.904 70.1255 48.904ZM80.9055 54.778H78.4415V40.258H80.9055V54.778ZM81.3675 59.574H68.2555C68.0209 59.574 67.8595 59.53 67.7715 59.442C67.6982 59.354 67.6615 59.1927 67.6615 58.958V52.974H70.1695V57.462H81.3675V59.574ZM98.464 47.826V45.252H96.242V47.826H98.464ZM94.174 47.826V45.252H91.974V47.826H94.174ZM100.708 49.146C100.708 49.3807 100.657 49.542 100.554 49.63C100.466 49.718 100.312 49.762 100.092 49.762H90.324C90.0893 49.762 89.928 49.718 89.84 49.63C89.7666 49.542 89.73 49.3807 89.73 49.146V40.808H91.974V43.338H94.174V40.94H96.242V43.338H98.464V40.808H100.708V49.146ZM105.042 50.444H102.666V40.258H105.042V43.822H107.55V45.956H105.042V50.444ZM105.482 59.816H92.766C92.5313 59.816 92.37 59.772 92.282 59.684C92.194 59.596 92.15 59.4347 92.15 59.2V55.262C92.15 55.042 92.194 54.888 92.282 54.8C92.37 54.6973 92.5313 54.646 92.766 54.646H102.38V53.106H92.15V51.192H104.426C104.837 51.192 105.042 51.3973 105.042 51.808V55.724C105.042 55.9587 104.991 56.12 104.888 56.208C104.8 56.296 104.646 56.34 104.426 56.34H94.834V57.902H105.482V59.816ZM117.452 54.778C117.232 54.8073 116.953 54.8513 116.616 54.91C116.278 54.954 115.897 54.998 115.472 55.042C115.046 55.086 114.577 55.13 114.064 55.174C113.55 55.2033 113.015 55.218 112.458 55.218L109.642 55.24C109.407 55.24 109.246 55.196 109.158 55.108C109.07 55.02 109.026 54.8587 109.026 54.624V47.848C109.026 47.628 109.07 47.474 109.158 47.386C109.246 47.2833 109.407 47.232 109.642 47.232H113.8V43.382H109.026V41.27H115.648C116.058 41.27 116.264 41.4753 116.264 41.886V48.684C116.264 48.9187 116.212 49.08 116.11 49.168C116.022 49.256 115.868 49.3 115.648 49.3H111.468V53.128L113.338 53.106C113.66 53.106 114.012 53.0987 114.394 53.084C114.775 53.0547 115.149 53.018 115.516 52.974C116.293 52.9153 116.938 52.8273 117.452 52.71V54.778ZM124.602 59.948H122.226V49.256H120.422V59.024H118.002V40.588H120.422V46.836H122.226V40.258H124.602V59.948ZM134.393 48.53V45.736H129.927V48.53H134.393ZM142.401 52.38H139.893V40.258H142.401V44.548H144.931V46.638H142.401V52.38ZM136.813 50.004C136.813 50.2387 136.762 50.4 136.659 50.488C136.571 50.576 136.417 50.62 136.197 50.62H128.035C127.8 50.62 127.639 50.576 127.551 50.488C127.478 50.4 127.441 50.2387 127.441 50.004V40.852H129.927V43.646H134.393V40.852H136.813V50.004ZM142.357 58.078C141.99 58.5767 141.506 58.9873 140.905 59.31C140.274 59.6327 139.534 59.8747 138.683 60.036C137.832 60.212 136.901 60.3 135.889 60.3C134.877 60.3 133.946 60.212 133.095 60.036C132.259 59.8747 131.533 59.6327 130.917 59.31C130.301 58.9727 129.817 58.562 129.465 58.078C129.128 57.6087 128.959 57.044 128.959 56.384C128.959 55.768 129.135 55.218 129.487 54.734C129.839 54.25 130.33 53.8393 130.961 53.502C131.592 53.1647 132.325 52.908 133.161 52.732C134.012 52.5413 134.928 52.446 135.911 52.446C136.923 52.446 137.847 52.534 138.683 52.71C139.534 52.886 140.274 53.1427 140.905 53.48C141.521 53.8173 142.005 54.2353 142.357 54.734C142.709 55.218 142.885 55.768 142.885 56.384C142.885 57.0587 142.709 57.6233 142.357 58.078ZM139.013 57.792C139.805 57.4253 140.201 56.9487 140.201 56.362C140.201 55.746 139.82 55.2693 139.057 54.932C138.294 54.58 137.246 54.404 135.911 54.404C134.635 54.404 133.601 54.58 132.809 54.932C132.017 55.2693 131.621 55.746 131.621 56.362C131.621 56.67 131.724 56.9413 131.929 57.176C132.149 57.4253 132.442 57.638 132.809 57.814C133.19 57.99 133.645 58.122 134.173 58.21C134.701 58.3127 135.28 58.364 135.911 58.364C137.143 58.364 138.177 58.1733 139.013 57.792ZM160.487 42.04H154.415V40.17H160.487V42.04ZM162.665 45.164H151.775V43.25H162.665V45.164ZM162.445 49.388C162.445 50.312 162.013 51.1187 161.147 51.808C160.282 52.468 159.035 52.798 157.407 52.798C155.765 52.798 154.518 52.468 153.667 51.808C152.817 51.1333 152.391 50.3267 152.391 49.388C152.391 48.4493 152.809 47.65 153.645 46.99C154.496 46.33 155.75 46 157.407 46C158.214 46 158.933 46.088 159.563 46.264C160.194 46.44 160.722 46.682 161.147 46.99C161.573 47.298 161.895 47.6573 162.115 48.068C162.335 48.4787 162.445 48.9187 162.445 49.388ZM159.211 50.554C159.666 50.3193 159.893 49.9307 159.893 49.388C159.893 48.904 159.666 48.53 159.211 48.266C158.771 47.9873 158.17 47.848 157.407 47.848C156.615 47.848 156.007 47.9873 155.581 48.266C155.156 48.53 154.943 48.904 154.943 49.388C154.943 49.916 155.156 50.3047 155.581 50.554C156.007 50.8033 156.615 50.928 157.407 50.928C158.141 50.928 158.742 50.8033 159.211 50.554ZM168.165 54.976H165.679V51.742H162.819V49.718H165.679V47.672H162.863V45.648H165.679V40.258H168.165V54.976ZM168.605 59.574H155.493C155.259 59.574 155.097 59.53 155.009 59.442C154.936 59.354 154.899 59.1927 154.899 58.958V54.03H157.473V57.462H168.605V59.574ZM182.005 44.35H170.961V42.612H182.005V44.35ZM179.365 41.82H173.535V40.104H179.365V41.82ZM183.039 52.666C182.672 52.7247 182.218 52.7833 181.675 52.842C181.147 52.886 180.553 52.93 179.893 52.974C179.262 53.018 178.602 53.0547 177.913 53.084C177.238 53.1133 176.571 53.128 175.911 53.128C175.735 53.128 175.442 53.1353 175.031 53.15C174.62 53.15 174.144 53.15 173.601 53.15H170.103V51.28H175.163V50.092C173.96 49.9747 173.051 49.696 172.435 49.256C171.819 48.8013 171.511 48.2367 171.511 47.562C171.511 46.77 171.929 46.1467 172.765 45.692C173.616 45.2227 174.862 44.988 176.505 44.988C178.148 44.988 179.387 45.2227 180.223 45.692C181.074 46.1467 181.499 46.77 181.499 47.562C181.499 48.222 181.191 48.7793 180.575 49.234C179.974 49.674 179.079 49.96 177.891 50.092V51.236C178.067 51.236 178.36 51.2287 178.771 51.214C179.182 51.1847 179.636 51.148 180.135 51.104C180.619 51.06 181.118 51.016 181.631 50.972C182.159 50.9133 182.628 50.8547 183.039 50.796V52.666ZM186.031 53.876H183.545V40.258H186.031V46.528H188.627V48.684H186.031V53.876ZM185.987 58.32C185.576 58.9067 184.814 59.376 183.699 59.728C182.584 60.0947 181.14 60.278 179.365 60.278C178.162 60.278 177.114 60.19 176.219 60.014C175.339 59.8527 174.606 59.6253 174.019 59.332C173.447 59.0533 173.014 58.716 172.721 58.32C172.442 57.924 172.303 57.4987 172.303 57.044C172.303 56.12 172.882 55.3573 174.041 54.756C175.2 54.1547 176.974 53.854 179.365 53.854C181.741 53.854 183.508 54.1547 184.667 54.756C185.84 55.3573 186.427 56.12 186.427 57.044C186.427 57.4693 186.28 57.8947 185.987 58.32ZM182.445 58.188C183.222 57.968 183.611 57.594 183.611 57.066C183.611 56.5527 183.237 56.1787 182.489 55.944C181.741 55.7093 180.7 55.592 179.365 55.592C178.03 55.592 176.989 55.7093 176.241 55.944C175.493 56.1787 175.119 56.5527 175.119 57.066C175.119 57.594 175.493 57.968 176.241 58.188C176.989 58.408 178.03 58.518 179.365 58.518C180.641 58.518 181.668 58.408 182.445 58.188ZM178.199 48.354C178.639 48.178 178.859 47.914 178.859 47.562C178.859 47.2247 178.639 46.9753 178.199 46.814C177.759 46.6527 177.187 46.572 176.483 46.572C175.779 46.572 175.214 46.6527 174.789 46.814C174.378 46.9753 174.173 47.2247 174.173 47.562C174.173 47.914 174.378 48.178 174.789 48.354C175.214 48.5153 175.779 48.596 176.483 48.596C177.114 48.596 177.686 48.5153 178.199 48.354ZM199.123 60.52C198.419 59.8893 197.789 59.1633 197.231 58.342C196.689 57.5353 196.234 56.6773 195.867 55.768C195.501 54.8587 195.222 53.9127 195.031 52.93C194.841 51.9473 194.745 50.972 194.745 50.004C194.745 49.0213 194.841 48.046 195.031 47.078C195.222 46.0953 195.501 45.1493 195.867 44.24C196.234 43.3307 196.689 42.4727 197.231 41.666C197.789 40.8593 198.419 40.1333 199.123 39.488H201.081C200.363 40.412 199.769 41.3287 199.299 42.238C198.83 43.1473 198.456 44.042 198.177 44.922C197.913 45.802 197.723 46.6673 197.605 47.518C197.503 48.3687 197.451 49.1973 197.451 50.004C197.451 50.8107 197.503 51.6393 197.605 52.49C197.723 53.3407 197.913 54.206 198.177 55.086C198.456 55.966 198.83 56.8607 199.299 57.77C199.769 58.6793 200.363 59.596 201.081 60.52H199.123ZM213.7 49.982C213.348 50.07 212.893 50.158 212.336 50.246C211.779 50.3193 211.17 50.3927 210.51 50.466C209.85 50.554 209.168 50.6273 208.464 50.686C207.76 50.73 207.078 50.752 206.418 50.752C206.257 50.752 205.978 50.7593 205.582 50.774C205.186 50.774 204.775 50.774 204.35 50.774H202.678C202.443 50.774 202.282 50.73 202.194 50.642C202.121 50.554 202.084 50.3927 202.084 50.158V41.666C202.084 41.446 202.128 41.292 202.216 41.204C202.304 41.1013 202.465 41.05 202.7 41.05H211.456V43.162H204.548V48.618L207.254 48.596C207.665 48.596 208.171 48.574 208.772 48.53C209.373 48.486 209.982 48.4273 210.598 48.354C211.214 48.2953 211.801 48.2293 212.358 48.156C212.915 48.068 213.363 47.9873 213.7 47.914V49.982ZM216.89 54.514H214.404V40.258H216.89V45.054H219.442V47.166H216.89V54.514ZM217.462 59.574H204.614C204.379 59.574 204.218 59.53 204.13 59.442C204.057 59.354 204.02 59.1927 204.02 58.958V52.886H206.572V57.462H217.462V59.574ZM221.776 43.162C222.025 42.6193 222.362 42.1573 222.788 41.776C223.213 41.3653 223.734 41.0427 224.35 40.808C224.98 40.5587 225.692 40.434 226.484 40.434C227.217 40.434 227.921 40.5587 228.596 40.808C229.197 41.0427 229.718 41.3653 230.158 41.776C230.598 42.172 230.935 42.634 231.17 43.162C231.404 43.69 231.522 44.24 231.522 44.812C231.522 45.384 231.404 45.934 231.17 46.462C230.935 46.99 230.598 47.4593 230.158 47.87C229.732 48.2807 229.212 48.6033 228.596 48.838C227.98 49.0727 227.276 49.19 226.484 49.19C225.692 49.19 224.98 49.0727 224.35 48.838C223.734 48.6033 223.213 48.2807 222.788 47.87C222.348 47.4593 222.01 46.99 221.776 46.462C221.556 45.934 221.446 45.384 221.446 44.812C221.446 44.24 221.556 43.69 221.776 43.162ZM227.606 47.012C228.09 46.8067 228.449 46.506 228.684 46.11C228.933 45.714 229.058 45.2813 229.058 44.812C229.058 44.2253 228.838 43.6753 228.398 43.162C227.972 42.6487 227.334 42.392 226.484 42.392C225.604 42.392 224.951 42.6487 224.526 43.162C224.115 43.6607 223.91 44.2107 223.91 44.812C223.91 45.12 223.961 45.4207 224.064 45.714C224.166 45.9927 224.32 46.2493 224.526 46.484C224.746 46.704 225.017 46.88 225.34 47.012C225.662 47.144 226.044 47.21 226.484 47.21C226.894 47.21 227.268 47.144 227.606 47.012ZM227.54 59.486H225.076V52.996H220.17V50.884H225.934C226.3 50.884 226.806 50.8767 227.452 50.862C228.097 50.8473 228.779 50.818 229.498 50.774C230.216 50.73 230.928 50.6787 231.632 50.62C232.336 50.5467 232.93 50.466 233.414 50.378V52.512C232.651 52.644 231.756 52.7467 230.73 52.82C229.718 52.8787 228.654 52.9227 227.54 52.952V59.486ZM236.538 59.948H234.074V40.258H236.538V59.948ZM248.904 46.726H245.934V43.91H248.904V46.726ZM248.904 55.504H245.934V52.688H248.904V55.504ZM250.827 54.492C254.772 51.8667 256.789 48.244 256.877 43.624H251.883V41.556H258.835C259.246 41.556 259.451 41.7613 259.451 42.172C259.363 45.12 258.798 47.76 257.757 50.092C256.716 52.424 255.132 54.382 253.005 55.966L250.827 54.492ZM267.767 59.948H265.369V49.674H263.411V59.024H261.035V40.588H263.411V47.232H265.369V40.236H267.767V59.948ZM268.89 60.52C269.609 59.596 270.196 58.6793 270.65 57.77C271.12 56.8607 271.494 55.966 271.772 55.086C272.051 54.206 272.242 53.3407 272.344 52.49C272.462 51.6393 272.52 50.8107 272.52 50.004C272.52 49.1973 272.462 48.3687 272.344 47.518C272.242 46.6673 272.051 45.802 271.772 44.922C271.494 44.042 271.12 43.1473 270.65 42.238C270.196 41.3287 269.609 40.412 268.89 39.488H270.848C271.552 40.1333 272.176 40.8593 272.718 41.666C273.276 42.4727 273.738 43.3307 274.104 44.24C274.471 45.1493 274.75 46.0953 274.94 47.078C275.131 48.046 275.226 49.0213 275.226 50.004C275.226 50.972 275.131 51.9473 274.94 52.93C274.75 53.9127 274.471 54.8587 274.104 55.768C273.738 56.6773 273.276 57.5353 272.718 58.342C272.176 59.1633 271.552 59.8893 270.848 60.52H268.89Z" fill="#1C262B"/>
<defs>
<filter id="filter0_d_447_375" x="0" y="0" width="626" height="424" filterUnits="userSpaceOnUse" color-interpolation-filters="sRGB">
<feFlood flood-opacity="0" result="BackgroundImageFix"/>
<feColorMatrix in="SourceAlpha" type="matrix" values="0 0 0 0 0 0 0 0 0 0 0 0 0 0 0 0 0 0 127 0" result="hardAlpha"/>
<feMorphology radius="1" operator="dilate" in="SourceAlpha" result="effect1_dropShadow_447_375"/>
<feOffset dx="-5" dy="7"/>
<feGaussianBlur stdDeviation="5.5"/>
<feComposite in2="hardAlpha" operator="out"/>
<feColorMatrix type="matrix" values="0 0 0 0 0.643137 0 0 0 0 0.776471 0 0 0 0 0.878431 0 0 0 0.25 0"/>
<feBlend mode="normal" in2="BackgroundImageFix" result="effect1_dropShadow_447_375"/>
<feBlend mode="normal" in="SourceGraphic" in2="effect1_dropShadow_447_375" result="shape"/>
</filter>
</defs>
</svg>
