<svg width="74" height="74" viewBox="0 0 74 74" fill="none" xmlns="http://www.w3.org/2000/svg">
<g clip-path="url(#clip0_299_768)">
<path fill-rule="evenodd" clip-rule="evenodd" d="M50.875 69.375C55.7815 69.375 60.4871 67.4259 63.9565 63.9565C67.4259 60.4871 69.375 55.7815 69.375 50.875C69.375 45.9685 67.4259 41.2629 63.9565 37.7935C60.4871 34.3241 55.7815 32.375 50.875 32.375C45.9685 32.375 41.2629 34.3241 37.7935 37.7935C34.3241 41.2629 32.375 45.9685 32.375 50.875C32.375 55.7815 34.3241 60.4871 37.7935 63.9565C41.2629 67.4259 45.9685 69.375 50.875 69.375ZM74 50.875C74 57.0081 71.5636 62.8901 67.2268 67.2268C62.8901 71.5636 57.0081 74 50.875 74C44.7419 74 38.8599 71.5636 34.5232 67.2268C30.1864 62.8901 27.75 57.0081 27.75 50.875C27.75 44.7419 30.1864 38.8599 34.5232 34.5232C38.8599 30.1864 44.7419 27.75 50.875 27.75C57.0081 27.75 62.8901 30.1864 67.2268 34.5232C71.5636 38.8599 74 44.7419 74 50.875Z" fill="#1C262B"/>
<path d="M43.6531 55.241C43.8704 57.9975 46.0488 60.1435 49.9569 60.4025V62.4375H51.6913V60.3886C55.7382 60.1065 58.1016 57.942 58.1016 54.8063C58.1016 51.948 56.2978 50.4773 53.0603 49.7188L51.6913 49.395V43.845C53.4303 44.0439 54.5311 44.992 54.7947 46.3055H57.8379C57.6206 43.6461 55.3404 41.5695 51.6913 41.3429V39.3125H49.9569V41.3937C46.5021 41.7314 44.1526 43.808 44.1526 46.7495C44.1526 49.3487 45.9008 51.0045 48.8099 51.6797L49.9569 51.9619V57.8449C48.1809 57.5766 47.0016 56.5961 46.7379 55.241H43.6531ZM49.9431 48.9788C48.2364 48.5856 47.3114 47.7762 47.3114 46.5645C47.3114 45.2047 48.3104 44.1872 49.9569 43.8912V48.9788H49.9431ZM51.9411 52.429C54.0177 52.91 54.9704 53.687 54.9704 55.0606C54.9704 56.6285 53.7818 57.7015 51.6913 57.9004V52.3735L51.9411 52.429Z" fill="#1C262B"/>
<path d="M4.625 0C3.39837 0 2.22199 0.487275 1.35463 1.35463C0.487275 2.22199 0 3.39837 0 4.625L0 41.625C0 42.8516 0.487275 44.028 1.35463 44.8954C2.22199 45.7627 3.39837 46.25 4.625 46.25H23.5089C23.7802 44.6559 24.178 43.1143 24.7021 41.625H13.875C13.875 39.1717 12.9004 36.819 11.1657 35.0843C9.43103 33.3496 7.07825 32.375 4.625 32.375V13.875C7.07825 13.875 9.43103 12.9004 11.1657 11.1657C12.9004 9.43103 13.875 7.07825 13.875 4.625H60.125C60.125 7.07825 61.0996 9.43103 62.8343 11.1657C64.569 12.9004 66.9217 13.875 69.375 13.875V30.192C71.1325 31.7645 72.6911 33.559 74 35.5293V4.625C74 3.39837 73.5127 2.22199 72.6454 1.35463C71.778 0.487275 70.6016 0 69.375 0L4.625 0Z" fill="#1C262B"/>
<path d="M46.2408 23.5092L46.25 23.1254C46.2491 21.5325 45.8368 19.9668 45.0531 18.58C44.2694 17.1933 43.1409 16.0324 41.7769 15.2098C40.4128 14.3872 38.8595 13.9307 37.2673 13.8847C35.675 13.8387 34.0979 14.2046 32.6886 14.9471C31.2793 15.6895 30.0857 16.7833 29.2232 18.1225C28.3607 19.4617 27.8587 21.0009 27.7658 22.5911C27.6728 24.1813 27.9921 25.7685 28.6926 27.1991C29.3932 28.6296 30.4513 29.855 31.7645 30.7566C35.7623 26.9557 40.8023 24.4325 46.2408 23.5092Z" fill="#1C262B"/>
</g>
<defs>
<clipPath id="clip0_299_768">
<rect width="74" height="74" fill="white"/>
</clipPath>
</defs>
</svg>
