<svg width="626" height="424" viewBox="0 0 626 424" fill="none" xmlns="http://www.w3.org/2000/svg">
<g filter="url(#filter0_d_447_374)">
<path d="M12 5H594C605.046 5 614 13.9543 614 25V385C614 396.046 605.046 405 594 405H12V5Z" fill="#A4C6E0" fill-opacity="0.2" shape-rendering="crispEdges"/>
</g>
<g filter="url(#filter1_d_447_374)">
<path d="M407.127 63.8533C407.123 63.1979 406.985 62.55 406.723 61.9483C406.46 61.3465 406.078 60.8032 405.599 60.3507C405.12 59.8982 404.554 59.5458 403.935 59.3145C403.315 59.0832 402.655 58.9777 401.993 59.0043C364.085 60.5284 328.216 76.4031 301.793 103.35C275.371 130.297 260.413 166.258 260.008 203.807C259.604 241.356 273.784 277.625 299.62 305.123C325.456 332.622 360.975 349.25 398.842 351.574C399.503 351.614 400.165 351.523 400.79 351.304C401.414 351.086 401.988 350.746 402.476 350.304C402.965 349.861 403.359 349.326 403.634 348.73C403.909 348.134 404.06 347.489 404.079 346.834L408 205.369L407.127 63.8533Z" fill="#1976D2" fill-opacity="0.7"/>
<path d="M405.825 346.871C405.815 347.526 405.938 348.177 406.187 348.784C406.437 349.391 406.807 349.943 407.276 350.405C407.745 350.868 408.304 351.232 408.918 351.476C409.533 351.721 410.191 351.84 410.853 351.827C431.966 351.424 452.747 346.554 471.801 337.544C490.855 328.534 507.741 315.592 521.323 299.588C521.749 299.087 522.068 298.505 522.262 297.878C522.456 297.252 522.521 296.593 522.452 295.941C522.384 295.289 522.183 294.658 521.862 294.084C521.542 293.511 521.108 293.007 520.587 292.603L408 205.369L405.825 346.871Z" fill="#B3CDE3"/>
<path d="M521.655 291.234C522.182 291.632 522.783 291.921 523.425 292.083C524.066 292.246 524.734 292.279 525.389 292.18C526.044 292.082 526.672 291.854 527.236 291.511C527.799 291.167 528.288 290.714 528.671 290.18C547.323 264.182 556.895 232.871 555.934 200.999C555.914 200.344 555.762 199.699 555.485 199.104C555.208 198.509 554.813 197.974 554.323 197.533C553.834 197.092 553.259 196.753 552.634 196.536C552.009 196.32 551.347 196.23 550.686 196.272L408 205.368L521.655 291.234Z" fill="#CCEBC5"/>
<path d="M550.563 194.548C551.223 194.498 551.866 194.317 552.454 194.015C553.042 193.714 553.563 193.298 553.985 192.794C554.408 192.289 554.723 191.705 554.913 191.077C555.102 190.449 555.162 189.79 555.089 189.138C553.042 170.973 547.579 153.347 538.982 137.17C538.673 136.59 538.25 136.077 537.738 135.663C537.225 135.248 536.633 134.94 535.997 134.756C535.362 134.572 534.695 134.517 534.038 134.594C533.38 134.671 532.745 134.878 532.17 135.203L408 205.369L550.563 194.548Z" fill="#DECBE4"/>
<path d="M531.294 133.706C531.865 133.374 532.363 132.932 532.758 132.406C533.152 131.879 533.436 131.28 533.591 130.643C533.747 130.006 533.771 129.344 533.663 128.698C533.555 128.051 533.316 127.433 532.961 126.879C524.228 113.258 513.281 101.158 500.562 91.0679C500.046 90.658 499.451 90.3553 498.814 90.1777C498.176 90.0002 497.509 89.9514 496.852 90.0344C496.195 90.1174 495.562 90.3305 494.99 90.6608C494.418 90.9912 493.92 91.4321 493.524 91.9573L408 205.369L531.294 133.706Z" fill="#FED9A6"/>
<path d="M492.117 90.9318C492.507 90.4018 492.785 89.7996 492.934 89.1612C493.083 88.5227 493.102 87.8609 492.987 87.2154C492.873 86.5699 492.628 85.9537 492.268 85.4037C491.908 84.8537 491.44 84.3811 490.891 84.014C468.108 68.7693 441.485 60.1088 414.007 59.004C413.345 58.9774 412.685 59.0829 412.065 59.3143C411.446 59.5456 410.88 59.898 410.401 60.3505C409.922 60.803 409.54 61.3463 409.277 61.948C409.015 62.5498 408.877 63.1976 408.873 63.853L408 205.369L492.117 90.9318Z" fill="#FFFFEA"/>
<path d="M318.144 226.17V221.312L318.186 219.562L314.21 226.17H318.144ZM318.998 229.264H318.116V226.968H313.664C313.561 226.968 313.491 226.954 313.454 226.926C313.426 226.889 313.412 226.819 313.412 226.716V226.198C313.412 226.077 313.454 225.951 313.538 225.82L317.682 218.932C317.719 218.848 317.794 218.806 317.906 218.806H318.746C318.849 218.806 318.914 218.825 318.942 218.862C318.979 218.89 318.998 218.956 318.998 219.058V226.17H320.566V226.968H318.998V229.264ZM325.767 224.686C326.187 224.481 326.532 224.164 326.803 223.734C327.073 223.305 327.209 222.838 327.209 222.334C327.209 221.933 327.153 221.56 327.041 221.214C326.929 220.869 326.77 220.57 326.565 220.318C326.369 220.057 326.131 219.852 325.851 219.702C325.571 219.553 325.263 219.478 324.927 219.478C324.553 219.478 324.222 219.553 323.933 219.702C323.643 219.842 323.396 220.034 323.191 220.276C322.995 220.519 322.841 220.808 322.729 221.144C322.626 221.48 322.575 221.835 322.575 222.208C322.575 222.563 322.621 222.904 322.715 223.23C322.808 223.548 322.948 223.832 323.135 224.084C323.331 224.327 323.573 224.523 323.863 224.672C324.152 224.822 324.488 224.896 324.871 224.896C325.188 224.896 325.487 224.826 325.767 224.686ZM322.729 226.954C322.822 227.542 323.037 227.986 323.373 228.284C323.709 228.583 324.143 228.732 324.675 228.732C325.123 228.732 325.515 228.602 325.851 228.34C326.196 228.079 326.481 227.724 326.705 227.276C326.938 226.819 327.115 226.278 327.237 225.652C327.367 225.027 327.442 224.35 327.461 223.622C327.227 224.304 326.863 224.808 326.369 225.134C325.874 225.452 325.291 225.61 324.619 225.61C324.189 225.61 323.793 225.531 323.429 225.372C323.074 225.204 322.766 224.971 322.505 224.672C322.243 224.364 322.038 224 321.889 223.58C321.749 223.16 321.679 222.689 321.679 222.166C321.679 221.69 321.749 221.242 321.889 220.822C322.038 220.402 322.248 220.038 322.519 219.73C322.789 219.413 323.116 219.166 323.499 218.988C323.891 218.802 324.325 218.708 324.801 218.708C325.557 218.708 326.196 218.909 326.719 219.31C327.251 219.702 327.624 220.22 327.839 220.864C327.969 221.256 328.067 221.676 328.133 222.124C328.198 222.563 328.231 223.118 328.231 223.79C328.231 224.742 328.142 225.578 327.965 226.296C327.787 227.006 327.545 227.598 327.237 228.074C326.929 228.55 326.56 228.905 326.131 229.138C325.711 229.381 325.253 229.502 324.759 229.502C323.881 229.502 323.195 229.274 322.701 228.816C322.215 228.368 321.931 227.748 321.847 226.954H322.729ZM331.443 229.446H330.239V228.186H331.443V229.446ZM337.853 224.686C338.273 224.481 338.618 224.164 338.889 223.734C339.159 223.305 339.295 222.838 339.295 222.334C339.295 221.933 339.239 221.56 339.127 221.214C339.015 220.869 338.856 220.57 338.651 220.318C338.455 220.057 338.217 219.852 337.937 219.702C337.657 219.553 337.349 219.478 337.013 219.478C336.639 219.478 336.308 219.553 336.019 219.702C335.729 219.842 335.482 220.034 335.277 220.276C335.081 220.519 334.927 220.808 334.815 221.144C334.712 221.48 334.661 221.835 334.661 222.208C334.661 222.563 334.707 222.904 334.801 223.23C334.894 223.548 335.034 223.832 335.221 224.084C335.417 224.327 335.659 224.523 335.949 224.672C336.238 224.822 336.574 224.896 336.957 224.896C337.274 224.896 337.573 224.826 337.853 224.686ZM334.815 226.954C334.908 227.542 335.123 227.986 335.459 228.284C335.795 228.583 336.229 228.732 336.761 228.732C337.209 228.732 337.601 228.602 337.937 228.34C338.282 228.079 338.567 227.724 338.791 227.276C339.024 226.819 339.201 226.278 339.323 225.652C339.453 225.027 339.528 224.35 339.547 223.622C339.313 224.304 338.949 224.808 338.455 225.134C337.96 225.452 337.377 225.61 336.705 225.61C336.275 225.61 335.879 225.531 335.515 225.372C335.16 225.204 334.852 224.971 334.591 224.672C334.329 224.364 334.124 224 333.975 223.58C333.835 223.16 333.765 222.689 333.765 222.166C333.765 221.69 333.835 221.242 333.975 220.822C334.124 220.402 334.334 220.038 334.605 219.73C334.875 219.413 335.202 219.166 335.585 218.988C335.977 218.802 336.411 218.708 336.887 218.708C337.643 218.708 338.282 218.909 338.805 219.31C339.337 219.702 339.71 220.22 339.925 220.864C340.055 221.256 340.153 221.676 340.219 222.124C340.284 222.563 340.317 223.118 340.317 223.79C340.317 224.742 340.228 225.578 340.051 226.296C339.873 227.006 339.631 227.598 339.323 228.074C339.015 228.55 338.646 228.905 338.217 229.138C337.797 229.381 337.339 229.502 336.845 229.502C335.967 229.502 335.281 229.274 334.787 228.816C334.301 228.368 334.017 227.748 333.933 226.954H334.815ZM344.621 229.264H343.725L349.283 218.666H350.165L344.621 229.264ZM345.517 223.594C345.331 223.846 345.097 224.047 344.817 224.196C344.547 224.336 344.229 224.406 343.865 224.406C343.511 224.406 343.193 224.336 342.913 224.196C342.643 224.047 342.414 223.846 342.227 223.594C342.05 223.342 341.915 223.053 341.821 222.726C341.728 222.4 341.681 222.054 341.681 221.69C341.681 221.326 341.728 220.976 341.821 220.64C341.915 220.304 342.05 220.01 342.227 219.758C342.414 219.506 342.643 219.306 342.913 219.156C343.193 219.007 343.511 218.932 343.865 218.932C344.229 218.932 344.547 219.007 344.817 219.156C345.097 219.306 345.331 219.506 345.517 219.758C345.713 220.01 345.858 220.304 345.951 220.64C346.045 220.976 346.091 221.326 346.091 221.69C346.091 222.054 346.045 222.4 345.951 222.726C345.858 223.053 345.713 223.342 345.517 223.594ZM351.635 228.508C351.449 228.76 351.215 228.961 350.935 229.11C350.665 229.26 350.352 229.334 349.997 229.334C349.643 229.334 349.33 229.26 349.059 229.11C348.789 228.97 348.565 228.779 348.387 228.536C348.21 228.284 348.075 227.995 347.981 227.668C347.897 227.342 347.855 226.996 347.855 226.632C347.855 226.268 347.897 225.918 347.981 225.582C348.075 225.246 348.21 224.952 348.387 224.7C348.565 224.439 348.789 224.234 349.059 224.084C349.33 223.926 349.643 223.846 349.997 223.846C350.352 223.846 350.665 223.921 350.935 224.07C351.215 224.22 351.449 224.42 351.635 224.672C351.831 224.924 351.976 225.218 352.069 225.554C352.172 225.881 352.223 226.226 352.223 226.59C352.223 226.954 352.172 227.304 352.069 227.64C351.976 227.967 351.831 228.256 351.635 228.508ZM344.509 223.608C344.78 223.422 344.967 223.151 345.069 222.796C345.181 222.442 345.237 222.078 345.237 221.704C345.237 221.452 345.214 221.2 345.167 220.948C345.121 220.696 345.046 220.468 344.943 220.262C344.841 220.057 344.696 219.889 344.509 219.758C344.332 219.628 344.113 219.562 343.851 219.562C343.59 219.562 343.375 219.628 343.207 219.758C343.039 219.889 342.904 220.057 342.801 220.262C342.708 220.468 342.643 220.696 342.605 220.948C342.568 221.2 342.549 221.452 342.549 221.704C342.549 221.947 342.568 222.194 342.605 222.446C342.643 222.689 342.708 222.913 342.801 223.118C342.904 223.314 343.039 223.478 343.207 223.608C343.375 223.73 343.59 223.79 343.851 223.79C344.113 223.79 344.332 223.73 344.509 223.608ZM350.641 228.494C350.912 228.298 351.099 228.032 351.201 227.696C351.313 227.36 351.369 226.996 351.369 226.604C351.369 226.352 351.346 226.105 351.299 225.862C351.253 225.61 351.173 225.382 351.061 225.176C350.959 224.971 350.819 224.808 350.641 224.686C350.464 224.556 350.245 224.49 349.983 224.49C349.722 224.49 349.507 224.556 349.339 224.686C349.171 224.808 349.036 224.971 348.933 225.176C348.84 225.382 348.775 225.61 348.737 225.862C348.7 226.105 348.681 226.352 348.681 226.604C348.681 226.847 348.7 227.094 348.737 227.346C348.775 227.589 348.84 227.808 348.933 228.004C349.036 228.2 349.171 228.364 349.339 228.494C349.507 228.616 349.722 228.676 349.983 228.676C350.245 228.676 350.464 228.616 350.641 228.494Z" fill="white"/>
<path d="M437.892 288.663H436.996V279.353C436.641 279.726 436.277 280.034 435.904 280.277C435.54 280.51 435.162 280.72 434.77 280.907V279.983C435.162 279.806 435.545 279.577 435.918 279.297C436.301 279.008 436.651 278.695 436.968 278.359H437.64C437.743 278.359 437.808 278.378 437.836 278.415C437.873 278.443 437.892 278.508 437.892 278.611V288.663ZM446.033 285.569V280.711L446.075 278.961L442.099 285.569H446.033ZM446.887 288.663H446.005V286.367H441.553C441.45 286.367 441.38 286.353 441.343 286.325C441.315 286.288 441.301 286.218 441.301 286.115V285.597C441.301 285.476 441.343 285.35 441.427 285.219L445.571 278.331C445.608 278.247 445.683 278.205 445.795 278.205H446.635C446.737 278.205 446.803 278.224 446.831 278.261C446.868 278.289 446.887 278.354 446.887 278.457V285.569H448.455V286.367H446.887V288.663ZM451.443 288.845H450.239V287.585H451.443V288.845ZM458.623 282.307C458.828 282.139 458.991 281.934 459.113 281.691C459.234 281.439 459.295 281.154 459.295 280.837C459.295 280.538 459.239 280.268 459.127 280.025C459.015 279.773 458.856 279.563 458.651 279.395C458.445 279.218 458.203 279.082 457.923 278.989C457.652 278.886 457.358 278.835 457.041 278.835C456.705 278.835 456.397 278.886 456.117 278.989C455.846 279.082 455.608 279.218 455.403 279.395C455.197 279.563 455.039 279.773 454.927 280.025C454.815 280.268 454.759 280.538 454.759 280.837C454.759 281.154 454.815 281.439 454.927 281.691C455.048 281.934 455.211 282.139 455.417 282.307C455.622 282.475 455.86 282.606 456.131 282.699C456.411 282.783 456.709 282.825 457.027 282.825C457.335 282.825 457.624 282.783 457.895 282.699C458.175 282.606 458.417 282.475 458.623 282.307ZM458.763 287.571C459.201 287.179 459.421 286.652 459.421 285.989C459.421 285.625 459.351 285.308 459.211 285.037C459.071 284.757 458.884 284.524 458.651 284.337C458.427 284.15 458.17 284.01 457.881 283.917C457.601 283.824 457.316 283.777 457.027 283.777C456.728 283.777 456.434 283.824 456.145 283.917C455.865 284.01 455.613 284.15 455.389 284.337C455.165 284.524 454.983 284.757 454.843 285.037C454.703 285.308 454.633 285.625 454.633 285.989C454.633 286.642 454.847 287.17 455.277 287.571C455.706 287.963 456.289 288.159 457.027 288.159C457.764 288.159 458.343 287.963 458.763 287.571ZM458.539 283.175C458.399 283.24 458.24 283.296 458.063 283.343C458.399 283.408 458.707 283.525 458.987 283.693C459.267 283.861 459.505 284.062 459.701 284.295C459.897 284.519 460.051 284.776 460.163 285.065C460.275 285.345 460.331 285.639 460.331 285.947C460.321 286.927 460.018 287.664 459.421 288.159C458.823 288.654 458.021 288.901 457.013 288.901C455.995 288.901 455.193 288.658 454.605 288.173C454.026 287.678 453.732 286.936 453.723 285.947C453.723 285.527 453.83 285.126 454.045 284.743C454.269 284.351 454.591 284.015 455.011 283.735C455.309 283.548 455.641 283.408 456.005 283.315C455.641 283.25 455.323 283.138 455.053 282.979C454.791 282.82 454.572 282.629 454.395 282.405C454.217 282.181 454.082 281.938 453.989 281.677C453.905 281.406 453.863 281.131 453.863 280.851C453.863 280.45 453.933 280.081 454.073 279.745C454.222 279.4 454.432 279.11 454.703 278.877C454.983 278.634 455.319 278.448 455.711 278.317C456.103 278.177 456.546 278.107 457.041 278.107C457.517 278.107 457.946 278.172 458.329 278.303C458.721 278.434 459.052 278.62 459.323 278.863C459.603 279.096 459.817 279.386 459.967 279.731C460.116 280.067 460.191 280.44 460.191 280.851C460.191 281.243 460.083 281.621 459.869 281.985C459.654 282.349 459.351 282.666 458.959 282.937C458.893 282.984 458.823 283.026 458.749 283.063C458.683 283.1 458.613 283.138 458.539 283.175ZM464.621 288.663H463.725L469.283 278.065H470.165L464.621 288.663ZM465.517 282.993C465.331 283.245 465.097 283.446 464.817 283.595C464.547 283.735 464.229 283.805 463.865 283.805C463.511 283.805 463.193 283.735 462.913 283.595C462.643 283.446 462.414 283.245 462.227 282.993C462.05 282.741 461.915 282.452 461.821 282.125C461.728 281.798 461.681 281.453 461.681 281.089C461.681 280.725 461.728 280.375 461.821 280.039C461.915 279.703 462.05 279.409 462.227 279.157C462.414 278.905 462.643 278.704 462.913 278.555C463.193 278.406 463.511 278.331 463.865 278.331C464.229 278.331 464.547 278.406 464.817 278.555C465.097 278.704 465.331 278.905 465.517 279.157C465.713 279.409 465.858 279.703 465.951 280.039C466.045 280.375 466.091 280.725 466.091 281.089C466.091 281.453 466.045 281.798 465.951 282.125C465.858 282.452 465.713 282.741 465.517 282.993ZM471.635 287.907C471.449 288.159 471.215 288.36 470.935 288.509C470.665 288.658 470.352 288.733 469.997 288.733C469.643 288.733 469.33 288.658 469.059 288.509C468.789 288.369 468.565 288.178 468.387 287.935C468.21 287.683 468.075 287.394 467.981 287.067C467.897 286.74 467.855 286.395 467.855 286.031C467.855 285.667 467.897 285.317 467.981 284.981C468.075 284.645 468.21 284.351 468.387 284.099C468.565 283.838 468.789 283.632 469.059 283.483C469.33 283.324 469.643 283.245 469.997 283.245C470.352 283.245 470.665 283.32 470.935 283.469C471.215 283.618 471.449 283.819 471.635 284.071C471.831 284.323 471.976 284.617 472.069 284.953C472.172 285.28 472.223 285.625 472.223 285.989C472.223 286.353 472.172 286.703 472.069 287.039C471.976 287.366 471.831 287.655 471.635 287.907ZM464.509 283.007C464.78 282.82 464.967 282.55 465.069 282.195C465.181 281.84 465.237 281.476 465.237 281.103C465.237 280.851 465.214 280.599 465.167 280.347C465.121 280.095 465.046 279.866 464.943 279.661C464.841 279.456 464.696 279.288 464.509 279.157C464.332 279.026 464.113 278.961 463.851 278.961C463.59 278.961 463.375 279.026 463.207 279.157C463.039 279.288 462.904 279.456 462.801 279.661C462.708 279.866 462.643 280.095 462.605 280.347C462.568 280.599 462.549 280.851 462.549 281.103C462.549 281.346 462.568 281.593 462.605 281.845C462.643 282.088 462.708 282.312 462.801 282.517C462.904 282.713 463.039 282.876 463.207 283.007C463.375 283.128 463.59 283.189 463.851 283.189C464.113 283.189 464.332 283.128 464.509 283.007ZM470.641 287.893C470.912 287.697 471.099 287.431 471.201 287.095C471.313 286.759 471.369 286.395 471.369 286.003C471.369 285.751 471.346 285.504 471.299 285.261C471.253 285.009 471.173 284.78 471.061 284.575C470.959 284.37 470.819 284.206 470.641 284.085C470.464 283.954 470.245 283.889 469.983 283.889C469.722 283.889 469.507 283.954 469.339 284.085C469.171 284.206 469.036 284.37 468.933 284.575C468.84 284.78 468.775 285.009 468.737 285.261C468.7 285.504 468.681 285.751 468.681 286.003C468.681 286.246 468.7 286.493 468.737 286.745C468.775 286.988 468.84 287.207 468.933 287.403C469.036 287.599 469.171 287.762 469.339 287.893C469.507 288.014 469.722 288.075 469.983 288.075C470.245 288.075 470.464 288.014 470.641 287.893Z" fill="#1C262B"/>
<path d="M496.892 227.546H495.996V218.236C495.641 218.609 495.277 218.917 494.904 219.16C494.54 219.393 494.162 219.603 493.77 219.79V218.866C494.162 218.688 494.545 218.46 494.918 218.18C495.301 217.89 495.651 217.578 495.968 217.242H496.64C496.743 217.242 496.808 217.26 496.836 217.298C496.873 217.326 496.892 217.391 496.892 217.494V227.546ZM504.781 227.546H503.885V218.236C503.53 218.609 503.166 218.917 502.793 219.16C502.429 219.393 502.051 219.603 501.659 219.79V218.866C502.051 218.688 502.433 218.46 502.807 218.18C503.189 217.89 503.539 217.578 503.857 217.242H504.529C504.631 217.242 504.697 217.26 504.725 217.298C504.762 217.326 504.781 217.391 504.781 217.494V227.546ZM510.443 227.728H509.239V226.468H510.443V227.728ZM513.871 225.18C513.973 225.796 514.221 226.258 514.613 226.566C515.005 226.874 515.523 227.028 516.167 227.028C516.475 227.028 516.764 226.962 517.035 226.832C517.305 226.701 517.539 226.519 517.735 226.286C517.94 226.043 518.099 225.754 518.211 225.418C518.332 225.082 518.393 224.708 518.393 224.298C518.393 223.85 518.337 223.458 518.225 223.122C518.113 222.776 517.959 222.492 517.763 222.268C517.567 222.034 517.333 221.862 517.063 221.75C516.792 221.628 516.498 221.568 516.181 221.568C515.677 221.568 515.243 221.694 514.879 221.946C514.524 222.198 514.267 222.548 514.109 222.996C514.081 223.07 514.048 223.117 514.011 223.136C513.983 223.154 513.931 223.164 513.857 223.164H513.423C513.255 223.164 513.171 223.08 513.171 222.912L513.339 217.494C513.339 217.391 513.353 217.326 513.381 217.298C513.418 217.26 513.488 217.242 513.591 217.242H518.757V218.012H514.165L513.997 221.918C514.267 221.526 514.617 221.246 515.047 221.078C515.485 220.9 515.943 220.812 516.419 220.812C516.82 220.812 517.193 220.882 517.539 221.022C517.893 221.162 518.201 221.376 518.463 221.666C518.724 221.946 518.929 222.305 519.079 222.744C519.228 223.182 519.303 223.696 519.303 224.284C519.303 224.806 519.228 225.282 519.079 225.712C518.929 226.141 518.715 226.51 518.435 226.818C518.155 227.126 517.819 227.364 517.427 227.532C517.035 227.709 516.596 227.798 516.111 227.798C515.672 227.798 515.266 227.737 514.893 227.616C514.529 227.504 514.207 227.336 513.927 227.112C513.647 226.897 513.423 226.626 513.255 226.3C513.087 225.973 512.989 225.6 512.961 225.18H513.871ZM523.621 227.546H522.725L528.283 216.948H529.165L523.621 227.546ZM524.517 221.876C524.331 222.128 524.097 222.328 523.817 222.478C523.547 222.618 523.229 222.688 522.865 222.688C522.511 222.688 522.193 222.618 521.913 222.478C521.643 222.328 521.414 222.128 521.227 221.876C521.05 221.624 520.915 221.334 520.821 221.008C520.728 220.681 520.681 220.336 520.681 219.972C520.681 219.608 520.728 219.258 520.821 218.922C520.915 218.586 521.05 218.292 521.227 218.04C521.414 217.788 521.643 217.587 521.913 217.438C522.193 217.288 522.511 217.214 522.865 217.214C523.229 217.214 523.547 217.288 523.817 217.438C524.097 217.587 524.331 217.788 524.517 218.04C524.713 218.292 524.858 218.586 524.951 218.922C525.045 219.258 525.091 219.608 525.091 219.972C525.091 220.336 525.045 220.681 524.951 221.008C524.858 221.334 524.713 221.624 524.517 221.876ZM530.635 226.79C530.449 227.042 530.215 227.242 529.935 227.392C529.665 227.541 529.352 227.616 528.997 227.616C528.643 227.616 528.33 227.541 528.059 227.392C527.789 227.252 527.565 227.06 527.387 226.818C527.21 226.566 527.075 226.276 526.981 225.95C526.897 225.623 526.855 225.278 526.855 224.914C526.855 224.55 526.897 224.2 526.981 223.864C527.075 223.528 527.21 223.234 527.387 222.982C527.565 222.72 527.789 222.515 528.059 222.366C528.33 222.207 528.643 222.128 528.997 222.128C529.352 222.128 529.665 222.202 529.935 222.352C530.215 222.501 530.449 222.702 530.635 222.954C530.831 223.206 530.976 223.5 531.069 223.836C531.172 224.162 531.223 224.508 531.223 224.872C531.223 225.236 531.172 225.586 531.069 225.922C530.976 226.248 530.831 226.538 530.635 226.79ZM523.509 221.89C523.78 221.703 523.967 221.432 524.069 221.078C524.181 220.723 524.237 220.359 524.237 219.986C524.237 219.734 524.214 219.482 524.167 219.23C524.121 218.978 524.046 218.749 523.943 218.544C523.841 218.338 523.696 218.17 523.509 218.04C523.332 217.909 523.113 217.844 522.851 217.844C522.59 217.844 522.375 217.909 522.207 218.04C522.039 218.17 521.904 218.338 521.801 218.544C521.708 218.749 521.643 218.978 521.605 219.23C521.568 219.482 521.549 219.734 521.549 219.986C521.549 220.228 521.568 220.476 521.605 220.728C521.643 220.97 521.708 221.194 521.801 221.4C521.904 221.596 522.039 221.759 522.207 221.89C522.375 222.011 522.59 222.072 522.851 222.072C523.113 222.072 523.332 222.011 523.509 221.89ZM529.641 226.776C529.912 226.58 530.099 226.314 530.201 225.978C530.313 225.642 530.369 225.278 530.369 224.886C530.369 224.634 530.346 224.386 530.299 224.144C530.253 223.892 530.173 223.663 530.061 223.458C529.959 223.252 529.819 223.089 529.641 222.968C529.464 222.837 529.245 222.772 528.983 222.772C528.722 222.772 528.507 222.837 528.339 222.968C528.171 223.089 528.036 223.252 527.933 223.458C527.84 223.663 527.775 223.892 527.737 224.144C527.7 224.386 527.681 224.634 527.681 224.886C527.681 225.128 527.7 225.376 527.737 225.628C527.775 225.87 527.84 226.09 527.933 226.286C528.036 226.482 528.171 226.645 528.339 226.776C528.507 226.897 528.722 226.958 528.983 226.958C529.245 226.958 529.464 226.897 529.641 226.776Z" fill="#1C262B"/>
<path d="M481.977 187.846H480.997L484.903 178.326H479.583V177.542H485.533C485.636 177.542 485.701 177.561 485.729 177.598C485.766 177.626 485.785 177.692 485.785 177.794V178.186C485.785 178.354 485.752 178.499 485.687 178.62L481.977 187.846ZM489.306 188.028H488.102V186.768H489.306V188.028ZM495.729 187.846H494.833V178.536C494.478 178.91 494.114 179.218 493.741 179.46C493.377 179.694 492.999 179.904 492.607 180.09V179.166C492.999 178.989 493.382 178.76 493.755 178.48C494.138 178.191 494.488 177.878 494.805 177.542H495.477C495.58 177.542 495.645 177.561 495.673 177.598C495.71 177.626 495.729 177.692 495.729 177.794V187.846ZM502.484 187.846H501.588L507.146 177.248H508.028L502.484 187.846ZM503.38 182.176C503.193 182.428 502.96 182.629 502.68 182.778C502.409 182.918 502.092 182.988 501.728 182.988C501.373 182.988 501.056 182.918 500.776 182.778C500.505 182.629 500.276 182.428 500.09 182.176C499.912 181.924 499.777 181.635 499.684 181.308C499.59 180.982 499.544 180.636 499.544 180.272C499.544 179.908 499.59 179.558 499.684 179.222C499.777 178.886 499.912 178.592 500.09 178.34C500.276 178.088 500.505 177.888 500.776 177.738C501.056 177.589 501.373 177.514 501.728 177.514C502.092 177.514 502.409 177.589 502.68 177.738C502.96 177.888 503.193 178.088 503.38 178.34C503.576 178.592 503.72 178.886 503.814 179.222C503.907 179.558 503.954 179.908 503.954 180.272C503.954 180.636 503.907 180.982 503.814 181.308C503.72 181.635 503.576 181.924 503.38 182.176ZM509.498 187.09C509.311 187.342 509.078 187.543 508.798 187.692C508.527 187.842 508.214 187.916 507.86 187.916C507.505 187.916 507.192 187.842 506.922 187.692C506.651 187.552 506.427 187.361 506.25 187.118C506.072 186.866 505.937 186.577 505.844 186.25C505.76 185.924 505.718 185.578 505.718 185.214C505.718 184.85 505.76 184.5 505.844 184.164C505.937 183.828 506.072 183.534 506.25 183.282C506.427 183.021 506.651 182.816 506.922 182.666C507.192 182.508 507.505 182.428 507.86 182.428C508.214 182.428 508.527 182.503 508.798 182.652C509.078 182.802 509.311 183.002 509.498 183.254C509.694 183.506 509.838 183.8 509.932 184.136C510.034 184.463 510.086 184.808 510.086 185.172C510.086 185.536 510.034 185.886 509.932 186.222C509.838 186.549 509.694 186.838 509.498 187.09ZM502.372 182.19C502.642 182.004 502.829 181.733 502.932 181.378C503.044 181.024 503.1 180.66 503.1 180.286C503.1 180.034 503.076 179.782 503.03 179.53C502.983 179.278 502.908 179.05 502.806 178.844C502.703 178.639 502.558 178.471 502.372 178.34C502.194 178.21 501.975 178.144 501.714 178.144C501.452 178.144 501.238 178.21 501.07 178.34C500.902 178.471 500.766 178.639 500.664 178.844C500.57 179.05 500.505 179.278 500.468 179.53C500.43 179.782 500.412 180.034 500.412 180.286C500.412 180.529 500.43 180.776 500.468 181.028C500.505 181.271 500.57 181.495 500.664 181.7C500.766 181.896 500.902 182.06 501.07 182.19C501.238 182.312 501.452 182.372 501.714 182.372C501.975 182.372 502.194 182.312 502.372 182.19ZM508.504 187.076C508.774 186.88 508.961 186.614 509.064 186.278C509.176 185.942 509.232 185.578 509.232 185.186C509.232 184.934 509.208 184.687 509.162 184.444C509.115 184.192 509.036 183.964 508.924 183.758C508.821 183.553 508.681 183.39 508.504 183.268C508.326 183.138 508.107 183.072 507.846 183.072C507.584 183.072 507.37 183.138 507.202 183.268C507.034 183.39 506.898 183.553 506.796 183.758C506.702 183.964 506.637 184.192 506.6 184.444C506.562 184.687 506.544 184.934 506.544 185.186C506.544 185.429 506.562 185.676 506.6 185.928C506.637 186.171 506.702 186.39 506.796 186.586C506.898 186.782 507.034 186.946 507.202 187.076C507.37 187.198 507.584 187.258 507.846 187.258C508.107 187.258 508.326 187.198 508.504 187.076Z" fill="#1C262B"/>
<path d="M469.063 143.465C469.492 143.241 469.823 142.914 470.057 142.485C470.299 142.046 470.421 141.533 470.421 140.945C470.421 140.6 470.374 140.264 470.281 139.937C470.187 139.61 470.043 139.326 469.847 139.083C469.66 138.831 469.422 138.63 469.133 138.481C468.843 138.332 468.507 138.257 468.125 138.257C467.807 138.257 467.504 138.327 467.215 138.467C466.935 138.607 466.687 138.798 466.473 139.041C466.267 139.274 466.099 139.545 465.969 139.853C465.847 140.161 465.787 140.483 465.787 140.819C465.787 141.22 465.843 141.594 465.955 141.939C466.067 142.284 466.221 142.588 466.417 142.849C466.622 143.101 466.865 143.302 467.145 143.451C467.425 143.6 467.733 143.675 468.069 143.675C468.433 143.675 468.764 143.605 469.063 143.465ZM470.267 136.199C470.173 135.611 469.959 135.168 469.623 134.869C469.287 134.57 468.853 134.421 468.321 134.421C467.873 134.421 467.476 134.552 467.131 134.813C466.795 135.074 466.51 135.434 466.277 135.891C466.053 136.339 465.875 136.876 465.745 137.501C465.623 138.126 465.553 138.803 465.535 139.531C465.731 138.887 466.071 138.397 466.557 138.061C467.042 137.716 467.649 137.543 468.377 137.543C468.806 137.543 469.198 137.627 469.553 137.795C469.917 137.954 470.229 138.187 470.491 138.495C470.752 138.794 470.953 139.158 471.093 139.587C471.242 140.007 471.317 140.474 471.317 140.987C471.317 141.463 471.242 141.911 471.093 142.331C470.953 142.751 470.747 143.12 470.477 143.437C470.206 143.745 469.875 143.988 469.483 144.165C469.1 144.352 468.671 144.445 468.195 144.445C467.439 144.445 466.795 144.244 466.263 143.843C465.74 143.451 465.371 142.933 465.157 142.289C465.026 141.897 464.928 141.482 464.863 141.043C464.797 140.595 464.765 140.035 464.765 139.363C464.765 138.411 464.853 137.58 465.031 136.871C465.208 136.152 465.451 135.555 465.759 135.079C466.067 134.603 466.431 134.248 466.851 134.015C467.28 133.772 467.742 133.651 468.237 133.651C469.114 133.651 469.795 133.88 470.281 134.337C470.775 134.785 471.065 135.406 471.149 136.199H470.267ZM474.571 144.375H473.367V143.115H474.571V144.375ZM481.247 141.099V136.241L481.289 134.491L477.313 141.099H481.247ZM482.101 144.193H481.219V141.897H476.767C476.664 141.897 476.594 141.883 476.557 141.855C476.529 141.818 476.515 141.748 476.515 141.645V141.127C476.515 141.006 476.557 140.88 476.641 140.749L480.785 133.861C480.822 133.777 480.897 133.735 481.009 133.735H481.849C481.951 133.735 482.017 133.754 482.045 133.791C482.082 133.819 482.101 133.884 482.101 133.987V141.099H483.669V141.897H482.101V144.193ZM487.749 144.193H486.853L492.411 133.595H493.293L487.749 144.193ZM488.645 138.523C488.459 138.775 488.225 138.976 487.945 139.125C487.675 139.265 487.357 139.335 486.993 139.335C486.639 139.335 486.321 139.265 486.041 139.125C485.771 138.976 485.542 138.775 485.355 138.523C485.178 138.271 485.043 137.982 484.949 137.655C484.856 137.328 484.809 136.983 484.809 136.619C484.809 136.255 484.856 135.905 484.949 135.569C485.043 135.233 485.178 134.939 485.355 134.687C485.542 134.435 485.771 134.234 486.041 134.085C486.321 133.936 486.639 133.861 486.993 133.861C487.357 133.861 487.675 133.936 487.945 134.085C488.225 134.234 488.459 134.435 488.645 134.687C488.841 134.939 488.986 135.233 489.079 135.569C489.173 135.905 489.219 136.255 489.219 136.619C489.219 136.983 489.173 137.328 489.079 137.655C488.986 137.982 488.841 138.271 488.645 138.523ZM494.763 143.437C494.577 143.689 494.343 143.89 494.063 144.039C493.793 144.188 493.48 144.263 493.125 144.263C492.771 144.263 492.458 144.188 492.187 144.039C491.917 143.899 491.693 143.708 491.515 143.465C491.338 143.213 491.203 142.924 491.109 142.597C491.025 142.27 490.983 141.925 490.983 141.561C490.983 141.197 491.025 140.847 491.109 140.511C491.203 140.175 491.338 139.881 491.515 139.629C491.693 139.368 491.917 139.162 492.187 139.013C492.458 138.854 492.771 138.775 493.125 138.775C493.48 138.775 493.793 138.85 494.063 138.999C494.343 139.148 494.577 139.349 494.763 139.601C494.959 139.853 495.104 140.147 495.197 140.483C495.3 140.81 495.351 141.155 495.351 141.519C495.351 141.883 495.3 142.233 495.197 142.569C495.104 142.896 494.959 143.185 494.763 143.437ZM487.637 138.537C487.908 138.35 488.095 138.08 488.197 137.725C488.309 137.37 488.365 137.006 488.365 136.633C488.365 136.381 488.342 136.129 488.295 135.877C488.249 135.625 488.174 135.396 488.071 135.191C487.969 134.986 487.824 134.818 487.637 134.687C487.46 134.556 487.241 134.491 486.979 134.491C486.718 134.491 486.503 134.556 486.335 134.687C486.167 134.818 486.032 134.986 485.929 135.191C485.836 135.396 485.771 135.625 485.733 135.877C485.696 136.129 485.677 136.381 485.677 136.633C485.677 136.876 485.696 137.123 485.733 137.375C485.771 137.618 485.836 137.842 485.929 138.047C486.032 138.243 486.167 138.406 486.335 138.537C486.503 138.658 486.718 138.719 486.979 138.719C487.241 138.719 487.46 138.658 487.637 138.537ZM493.769 143.423C494.04 143.227 494.227 142.961 494.329 142.625C494.441 142.289 494.497 141.925 494.497 141.533C494.497 141.281 494.474 141.034 494.427 140.791C494.381 140.539 494.301 140.31 494.189 140.105C494.087 139.9 493.947 139.736 493.769 139.615C493.592 139.484 493.373 139.419 493.111 139.419C492.85 139.419 492.635 139.484 492.467 139.615C492.299 139.736 492.164 139.9 492.061 140.105C491.968 140.31 491.903 140.539 491.865 140.791C491.828 141.034 491.809 141.281 491.809 141.533C491.809 141.776 491.828 142.023 491.865 142.275C491.903 142.518 491.968 142.737 492.061 142.933C492.164 143.129 492.299 143.292 492.467 143.423C492.635 143.544 492.85 143.605 493.111 143.605C493.373 143.605 493.592 143.544 493.769 143.423Z" fill="#1C262B"/>
<path d="M427.44 119.056H426.544V109.746C426.189 110.12 425.825 110.428 425.452 110.67C425.088 110.904 424.71 111.114 424.318 111.3V110.376C424.71 110.199 425.093 109.97 425.466 109.69C425.849 109.401 426.199 109.088 426.516 108.752H427.188C427.291 108.752 427.356 108.771 427.384 108.808C427.421 108.836 427.44 108.902 427.44 109.004V119.056ZM435.413 118.286C435.739 118.09 436.001 117.815 436.197 117.46C436.393 117.096 436.542 116.704 436.645 116.284C436.757 115.864 436.827 115.44 436.855 115.01C436.892 114.572 436.911 114.184 436.911 113.848C436.911 113.578 436.901 113.274 436.883 112.938C436.864 112.602 436.822 112.262 436.757 111.916C436.701 111.562 436.617 111.216 436.505 110.88C436.402 110.544 436.257 110.246 436.071 109.984C435.893 109.723 435.674 109.513 435.413 109.354C435.151 109.196 434.843 109.116 434.489 109.116C434.134 109.116 433.831 109.196 433.579 109.354C433.327 109.513 433.112 109.723 432.935 109.984C432.767 110.246 432.631 110.544 432.529 110.88C432.426 111.216 432.347 111.562 432.291 111.916C432.244 112.262 432.211 112.602 432.193 112.938C432.183 113.274 432.179 113.578 432.179 113.848C432.179 114.11 432.183 114.408 432.193 114.744C432.211 115.08 432.244 115.421 432.291 115.766C432.347 116.112 432.426 116.452 432.529 116.788C432.631 117.115 432.767 117.409 432.935 117.67C433.112 117.922 433.327 118.128 433.579 118.286C433.831 118.445 434.134 118.524 434.489 118.524C434.834 118.524 435.142 118.445 435.413 118.286ZM437.205 117.6C436.962 118.114 436.621 118.529 436.183 118.846C435.744 119.173 435.179 119.336 434.489 119.336C433.817 119.336 433.266 119.173 432.837 118.846C432.417 118.529 432.085 118.114 431.843 117.6C431.609 117.078 431.446 116.49 431.353 115.836C431.269 115.183 431.227 114.52 431.227 113.848C431.227 113.176 431.269 112.514 431.353 111.86C431.446 111.198 431.609 110.605 431.843 110.082C432.085 109.55 432.417 109.126 432.837 108.808C433.266 108.482 433.817 108.318 434.489 108.318C435.179 108.318 435.744 108.482 436.183 108.808C436.621 109.126 436.962 109.55 437.205 110.082C437.457 110.605 437.629 111.198 437.723 111.86C437.816 112.514 437.863 113.176 437.863 113.848C437.863 114.52 437.816 115.183 437.723 115.836C437.629 116.48 437.457 117.068 437.205 117.6ZM442.083 119.056H441.187L446.745 108.458H447.627L442.083 119.056ZM442.979 113.386C442.793 113.638 442.559 113.839 442.279 113.988C442.009 114.128 441.691 114.198 441.327 114.198C440.973 114.198 440.655 114.128 440.375 113.988C440.105 113.839 439.876 113.638 439.689 113.386C439.512 113.134 439.377 112.845 439.283 112.518C439.19 112.192 439.143 111.846 439.143 111.482C439.143 111.118 439.19 110.768 439.283 110.432C439.377 110.096 439.512 109.802 439.689 109.55C439.876 109.298 440.105 109.098 440.375 108.948C440.655 108.799 440.973 108.724 441.327 108.724C441.691 108.724 442.009 108.799 442.279 108.948C442.559 109.098 442.793 109.298 442.979 109.55C443.175 109.802 443.32 110.096 443.413 110.432C443.507 110.768 443.553 111.118 443.553 111.482C443.553 111.846 443.507 112.192 443.413 112.518C443.32 112.845 443.175 113.134 442.979 113.386ZM449.097 118.3C448.911 118.552 448.677 118.753 448.397 118.902C448.127 119.052 447.814 119.126 447.459 119.126C447.105 119.126 446.792 119.052 446.521 118.902C446.251 118.762 446.027 118.571 445.849 118.328C445.672 118.076 445.537 117.787 445.443 117.46C445.359 117.134 445.317 116.788 445.317 116.424C445.317 116.06 445.359 115.71 445.443 115.374C445.537 115.038 445.672 114.744 445.849 114.492C446.027 114.231 446.251 114.026 446.521 113.876C446.792 113.718 447.105 113.638 447.459 113.638C447.814 113.638 448.127 113.713 448.397 113.862C448.677 114.012 448.911 114.212 449.097 114.464C449.293 114.716 449.438 115.01 449.531 115.346C449.634 115.673 449.685 116.018 449.685 116.382C449.685 116.746 449.634 117.096 449.531 117.432C449.438 117.759 449.293 118.048 449.097 118.3ZM441.971 113.4C442.242 113.214 442.429 112.943 442.531 112.588C442.643 112.234 442.699 111.87 442.699 111.496C442.699 111.244 442.676 110.992 442.629 110.74C442.583 110.488 442.508 110.26 442.405 110.054C442.303 109.849 442.158 109.681 441.971 109.55C441.794 109.42 441.575 109.354 441.313 109.354C441.052 109.354 440.837 109.42 440.669 109.55C440.501 109.681 440.366 109.849 440.263 110.054C440.17 110.26 440.105 110.488 440.067 110.74C440.03 110.992 440.011 111.244 440.011 111.496C440.011 111.739 440.03 111.986 440.067 112.238C440.105 112.481 440.17 112.705 440.263 112.91C440.366 113.106 440.501 113.27 440.669 113.4C440.837 113.522 441.052 113.582 441.313 113.582C441.575 113.582 441.794 113.522 441.971 113.4ZM448.103 118.286C448.374 118.09 448.561 117.824 448.663 117.488C448.775 117.152 448.831 116.788 448.831 116.396C448.831 116.144 448.808 115.897 448.761 115.654C448.715 115.402 448.635 115.174 448.523 114.968C448.421 114.763 448.281 114.6 448.103 114.478C447.926 114.348 447.707 114.282 447.445 114.282C447.184 114.282 446.969 114.348 446.801 114.478C446.633 114.6 446.498 114.763 446.395 114.968C446.302 115.174 446.237 115.402 446.199 115.654C446.162 115.897 446.143 116.144 446.143 116.396C446.143 116.639 446.162 116.886 446.199 117.138C446.237 117.381 446.302 117.6 446.395 117.796C446.498 117.992 446.633 118.156 446.801 118.286C446.969 118.408 447.184 118.468 447.445 118.468C447.707 118.468 447.926 118.408 448.103 118.286Z" fill="#1C262B"/>
<path d="M295.12 188.166C295.348 188.166 295.462 188.28 295.462 188.508C295.174 190.164 294.43 191.616 293.23 192.864C292.042 194.112 290.344 195.114 288.136 195.87L287.29 194.988C291.238 193.812 293.536 191.862 294.184 189.138H288.316V188.166H295.12ZM300.178 195.69H299.044V193.638H295.498V192.702H299.044V190.614H295.984V189.678H299.044V187.392H300.178V195.69ZM300.574 203.178H290.296C290.164 203.178 290.074 203.154 290.026 203.106C289.978 203.058 289.954 202.968 289.954 202.836V199.722C289.954 199.602 289.978 199.518 290.026 199.47C290.074 199.41 290.164 199.38 290.296 199.38H298.99V197.544H289.954V196.572H299.836C300.064 196.572 300.178 196.686 300.178 196.914V200.01C300.178 200.142 300.148 200.232 300.088 200.28C300.04 200.328 299.956 200.352 299.836 200.352H291.124V202.242H300.574V203.178ZM310.349 199.614C309.521 199.038 308.843 198.366 308.315 197.598C307.799 196.818 307.397 195.918 307.109 194.898C306.857 195.954 306.419 196.944 305.795 197.868C305.171 198.792 304.427 199.596 303.563 200.28L302.429 199.578C303.149 199.074 303.767 198.522 304.283 197.922C304.811 197.322 305.237 196.656 305.561 195.924C305.897 195.192 306.143 194.388 306.299 193.512C306.467 192.624 306.551 191.646 306.551 190.578V189.462H303.743V188.508H310.475V189.462H307.721V190.992C307.721 192.816 307.997 194.376 308.549 195.672C309.101 197.04 310.013 198.09 311.285 198.822L310.349 199.614ZM316.487 203.376H315.371V187.392H316.487V203.376ZM313.373 202.62H312.239V193.692H309.323V192.648H312.239V187.662H313.373V202.62ZM325.381 194.736V191.658H320.431V194.736H325.381ZM326.461 195.33C326.461 195.474 326.437 195.57 326.389 195.618C326.341 195.654 326.251 195.672 326.119 195.672H319.693C319.549 195.672 319.459 195.654 319.423 195.618C319.387 195.57 319.369 195.474 319.369 195.33V187.986H320.431V190.722H325.381V187.986H326.461V195.33ZM331.015 197.346H329.899V187.392H331.015V190.992H333.337V191.964H331.015V197.346ZM331.015 201.882C330.655 202.434 330.049 202.866 329.197 203.178C328.357 203.502 327.301 203.664 326.029 203.664C325.201 203.664 324.457 203.592 323.797 203.448C323.137 203.304 322.573 203.1 322.105 202.836C321.649 202.572 321.301 202.254 321.061 201.882C320.821 201.51 320.701 201.096 320.701 200.64C320.701 200.196 320.821 199.788 321.061 199.416C321.301 199.044 321.649 198.726 322.105 198.462C322.573 198.186 323.137 197.976 323.797 197.832C324.457 197.688 325.201 197.616 326.029 197.616C326.869 197.616 327.619 197.688 328.279 197.832C328.951 197.976 329.515 198.186 329.971 198.462C330.427 198.726 330.775 199.044 331.015 199.416C331.255 199.788 331.375 200.196 331.375 200.64C331.375 201.084 331.255 201.498 331.015 201.882ZM330.187 200.64C330.187 199.932 329.791 199.404 328.999 199.056C328.291 198.72 327.301 198.552 326.029 198.552C325.453 198.552 324.913 198.594 324.409 198.678C323.905 198.762 323.467 198.888 323.095 199.056C322.711 199.224 322.411 199.44 322.195 199.704C321.991 199.968 321.889 200.28 321.889 200.64C321.889 201 321.997 201.306 322.213 201.558C322.429 201.822 322.723 202.044 323.095 202.224C323.467 202.392 323.905 202.518 324.409 202.602C324.913 202.686 325.453 202.728 326.029 202.728C326.617 202.728 327.163 202.686 327.667 202.602C328.171 202.518 328.609 202.392 328.981 202.224C329.353 202.044 329.647 201.822 329.863 201.558C330.079 201.306 330.187 201 330.187 200.64ZM343.166 195.996C342.302 195.6 341.492 195.108 340.736 194.52C339.98 193.92 339.398 193.188 338.99 192.324C338.822 192.768 338.624 193.182 338.396 193.566C338.168 193.95 337.886 194.316 337.55 194.664C337.226 195 336.842 195.324 336.398 195.636C335.966 195.936 335.462 196.23 334.886 196.518L333.896 195.708C335.24 195.132 336.326 194.352 337.154 193.368C337.994 192.384 338.414 191.148 338.414 189.66V187.824H339.584V189.696C339.584 191.052 339.992 192.174 340.808 193.062C341.6 193.926 342.662 194.604 343.994 195.096L343.166 195.996ZM347.27 196.968H346.136V187.392H347.27V196.968ZM347.252 203.484H346.118V198.804H336.812V197.832H346.91C347.138 197.832 347.252 197.946 347.252 198.174V203.484ZM361.203 191.748V190.092H352.779V191.748H361.203ZM362.319 192.324C362.319 192.468 362.295 192.564 362.247 192.612C362.199 192.648 362.109 192.666 361.977 192.666H352.023C351.879 192.666 351.789 192.648 351.753 192.612C351.717 192.564 351.699 192.468 351.699 192.324V187.572H352.779V189.192H361.203V187.572H362.319V192.324ZM362.679 203.178H352.059C351.927 203.178 351.837 203.154 351.789 203.106C351.741 203.058 351.717 202.968 351.717 202.836V199.956C351.717 199.836 351.741 199.752 351.789 199.704C351.837 199.644 351.927 199.614 352.059 199.614H361.149V197.94H351.717V197.022H356.415V195.186H349.683V194.25H364.335V195.186H357.549V197.022H361.977C362.205 197.022 362.319 197.136 362.319 197.364V200.172C362.319 200.304 362.289 200.394 362.229 200.442C362.181 200.49 362.097 200.514 361.977 200.514H352.869V202.278H362.679V203.178ZM372.473 194.664V189.12H367.523V194.664H372.473ZM373.553 195.258C373.553 195.402 373.529 195.498 373.481 195.546C373.433 195.582 373.349 195.6 373.229 195.6H366.803C366.659 195.6 366.563 195.582 366.515 195.546C366.479 195.498 366.461 195.402 366.461 195.258V188.526C366.461 188.394 366.479 188.304 366.515 188.256C366.563 188.208 366.659 188.184 366.803 188.184H373.229C373.349 188.184 373.433 188.208 373.481 188.256C373.529 188.304 373.553 188.394 373.553 188.526V195.258ZM378.107 199.29H376.973V187.392H378.107V191.424H380.375V192.414H378.107V199.29ZM378.647 203.034H368.549C368.417 203.034 368.327 203.01 368.279 202.962C368.231 202.914 368.207 202.824 368.207 202.692V197.814H369.341V202.062H378.647V203.034Z" fill="white"/>
<path d="M432.758 310.048C432.619 310.069 432.427 310.096 432.182 310.128C431.947 310.16 431.68 310.187 431.382 310.208C431.094 310.24 430.79 310.267 430.47 310.288C430.16 310.309 429.872 310.325 429.606 310.336C429.254 310.357 428.928 310.373 428.63 310.384C428.342 310.384 428.086 310.384 427.862 310.384C427.638 310.395 427.456 310.4 427.318 310.4C427.179 310.389 427.104 310.384 427.094 310.384C426.976 310.384 426.896 310.363 426.854 310.32C426.811 310.267 426.79 310.187 426.79 310.08V301.2C426.79 301.104 426.811 301.029 426.854 300.976C426.896 300.923 426.976 300.896 427.094 300.896H431.654V301.744H427.782V309.472L429.75 309.424C429.942 309.424 430.176 309.413 430.454 309.392C430.742 309.371 431.03 309.344 431.318 309.312C431.606 309.291 431.878 309.264 432.134 309.232C432.39 309.2 432.598 309.168 432.758 309.136V310.048ZM437.478 314.112H436.454V306.208H434.374V313.44H433.35V300.144H434.374V305.28H436.454V299.904H437.478V314.112ZM439.991 310.336C441.815 309.397 443.207 308.213 444.167 306.784C445.127 305.355 445.724 303.637 445.959 301.632H440.887V300.768H446.727C446.93 300.768 447.031 300.869 447.031 301.072C446.871 303.173 446.295 305.051 445.303 306.704C444.322 308.357 442.866 309.797 440.935 311.024L439.991 310.336ZM451.271 314.112H450.247V299.92H451.271V314.112ZM463.672 303.776V302.304H456.184V303.776H463.672ZM464.664 304.288C464.664 304.416 464.643 304.501 464.6 304.544C464.557 304.576 464.477 304.592 464.36 304.592H455.512C455.384 304.592 455.304 304.576 455.272 304.544C455.24 304.501 455.224 304.416 455.224 304.288V300.064H456.184V301.504H463.672V300.064H464.664V304.288ZM464.984 313.936H455.544C455.427 313.936 455.347 313.915 455.304 313.872C455.261 313.829 455.24 313.749 455.24 313.632V311.072C455.24 310.965 455.261 310.891 455.304 310.848C455.347 310.795 455.427 310.768 455.544 310.768H463.624V309.28H455.24V308.464H459.416V306.832H453.432V306H466.456V306.832H460.424V308.464H464.36C464.563 308.464 464.664 308.565 464.664 308.768V311.264C464.664 311.381 464.637 311.461 464.584 311.504C464.541 311.547 464.467 311.568 464.36 311.568H456.264V313.136H464.984V313.936ZM473.689 306.368V301.44H469.289V306.368H473.689ZM474.649 306.896C474.649 307.024 474.628 307.109 474.585 307.152C474.542 307.184 474.468 307.2 474.361 307.2H468.649C468.521 307.2 468.436 307.184 468.393 307.152C468.361 307.109 468.345 307.024 468.345 306.896V300.912C468.345 300.795 468.361 300.715 468.393 300.672C468.436 300.629 468.521 300.608 468.649 300.608H474.361C474.468 300.608 474.542 300.629 474.585 300.672C474.628 300.715 474.649 300.795 474.649 300.912V306.896ZM478.697 310.48H477.689V299.904H478.697V303.488H480.713V304.368H478.697V310.48ZM479.177 313.808H470.201C470.084 313.808 470.004 313.787 469.961 313.744C469.918 313.701 469.897 313.621 469.897 313.504V309.168H470.905V312.944H479.177V313.808Z" fill="#1C262B"/>
<path d="M489.534 244.192C488.424 244.192 487.544 243.904 486.894 243.328C486.254 242.784 485.934 242.064 485.934 241.168C485.934 240.304 486.254 239.584 486.894 239.008C487.544 238.432 488.424 238.144 489.534 238.144C490.622 238.144 491.496 238.432 492.158 239.008C492.808 239.584 493.134 240.304 493.134 241.168C493.134 241.648 493.048 242.053 492.878 242.384C492.696 242.747 492.456 243.061 492.158 243.328C491.518 243.904 490.643 244.192 489.534 244.192ZM489.534 243.36C490.43 243.36 491.086 243.141 491.502 242.704C491.928 242.277 492.142 241.765 492.142 241.168C492.142 240.581 491.928 240.075 491.502 239.648C491.086 239.2 490.43 238.976 489.534 238.976C488.627 238.976 487.966 239.2 487.55 239.648C487.134 240.096 486.926 240.603 486.926 241.168C486.926 241.744 487.134 242.256 487.55 242.704C487.966 243.141 488.627 243.36 489.534 243.36ZM489.806 251.776H488.846V246.688H485.07V245.824C485.518 245.824 485.998 245.829 486.51 245.84C487.032 245.84 487.555 245.835 488.078 245.824C488.6 245.824 489.112 245.819 489.614 245.808C490.126 245.797 490.595 245.776 491.022 245.744C491.406 245.733 491.79 245.717 492.174 245.696C492.568 245.664 492.936 245.632 493.278 245.6C493.619 245.568 493.928 245.536 494.206 245.504C494.483 245.472 494.712 245.44 494.894 245.408V246.272C494.616 246.315 494.27 246.363 493.854 246.416C493.438 246.459 492.99 246.496 492.51 246.528C492.03 246.571 491.555 246.608 491.086 246.64C490.616 246.661 490.19 246.672 489.806 246.672V251.776ZM496.494 252.112H495.47V237.904H496.494V252.112ZM505.039 245.488C504.367 245.136 503.78 244.693 503.279 244.16C502.778 243.627 502.394 243.008 502.127 242.304C501.871 243.104 501.519 243.781 501.071 244.336C500.623 244.891 500.031 245.424 499.295 245.936L498.399 245.232C498.922 244.912 499.38 244.576 499.775 244.224C500.18 243.872 500.516 243.472 500.783 243.024C501.06 242.576 501.268 242.091 501.407 241.568C501.546 241.035 501.615 240.416 501.615 239.712V238.368H502.639V239.744C502.639 241.024 502.938 242.075 503.535 242.896C504.132 243.728 504.879 244.325 505.775 244.688L505.039 245.488ZM510.431 246.608H509.439V242.32H507.471V246.112H506.463V238.144H507.471V241.408H509.439V237.904H510.431V246.608ZM510.511 249.552C510.511 250.373 510.09 251.045 509.247 251.568C508.415 252.112 507.22 252.384 505.663 252.384C504.116 252.384 502.922 252.112 502.079 251.568C501.236 251.045 500.815 250.373 500.815 249.552C500.815 248.752 501.236 248.08 502.079 247.536C502.922 246.992 504.116 246.72 505.663 246.72C507.22 246.72 508.415 246.992 509.247 247.536C510.09 248.08 510.511 248.752 510.511 249.552ZM509.439 249.552C509.439 248.901 509.082 248.411 508.367 248.08C507.642 247.728 506.735 247.552 505.647 247.552C505.103 247.552 504.602 247.6 504.143 247.696C503.695 247.781 503.3 247.909 502.959 248.08C502.628 248.24 502.367 248.448 502.175 248.704C501.983 248.949 501.887 249.232 501.887 249.552C501.887 249.872 501.983 250.155 502.175 250.4C502.367 250.645 502.634 250.853 502.975 251.024C503.306 251.195 503.695 251.323 504.143 251.408C504.602 251.504 505.103 251.552 505.647 251.552C506.191 251.552 506.692 251.504 507.151 251.408C507.61 251.323 508.01 251.195 508.351 251.024C508.692 250.853 508.959 250.645 509.151 250.4C509.343 250.155 509.439 249.872 509.439 249.552ZM518.96 243.776C519.024 243.509 519.088 243.189 519.152 242.816C519.216 242.432 519.275 242.037 519.328 241.632C519.381 241.227 519.424 240.832 519.456 240.448C519.499 240.053 519.536 239.701 519.568 239.392H513.504V238.544H520.272C520.475 238.544 520.576 238.645 520.576 238.848C520.555 239.232 520.523 239.643 520.48 240.08C520.448 240.517 520.405 240.96 520.352 241.408C520.288 241.856 520.219 242.283 520.144 242.688C520.08 243.093 520.011 243.456 519.936 243.776H518.96ZM522.288 245.76C521.552 245.877 520.533 245.989 519.232 246.096C517.941 246.192 516.288 246.24 514.272 246.24H512.544V245.376H515.76V241.76H516.72V245.36C517.04 245.36 517.435 245.349 517.904 245.328C518.373 245.307 518.869 245.275 519.392 245.232C519.915 245.2 520.427 245.157 520.928 245.104C521.44 245.051 521.893 244.992 522.288 244.928V245.76ZM523.744 248.88H522.736V237.904H523.744V242.704H525.792V243.584H523.744V248.88ZM524.224 251.808H515.264C515.147 251.808 515.067 251.787 515.024 251.744C514.981 251.701 514.96 251.621 514.96 251.504V247.536H515.968V250.944H524.224V251.808ZM536.481 248.016C536.268 248.059 535.985 248.107 535.633 248.16C535.292 248.213 534.897 248.267 534.449 248.32C534.022 248.373 533.569 248.421 533.089 248.464C532.62 248.507 532.161 248.533 531.713 248.544C531.265 248.565 530.828 248.581 530.401 248.592C529.974 248.592 529.59 248.592 529.249 248.592H528.017C527.9 248.592 527.82 248.571 527.777 248.528C527.734 248.475 527.713 248.395 527.713 248.288V243.44C527.713 243.344 527.734 243.269 527.777 243.216C527.82 243.163 527.9 243.136 528.017 243.136H533.041V239.52H527.713V238.656H533.713C533.916 238.656 534.017 238.757 534.017 238.96V243.68C534.017 243.883 533.916 243.984 533.713 243.984H528.721V247.68L531.393 247.648C531.873 247.648 532.364 247.627 532.865 247.584C533.377 247.541 533.873 247.493 534.353 247.44C534.812 247.376 535.228 247.317 535.601 247.264C535.985 247.211 536.278 247.163 536.481 247.12V248.016ZM538.129 252.112H537.105V237.904H538.129V252.112Z" fill="#1C262B"/>
<path d="M522.783 171.784C521.951 171.208 521.188 170.531 520.495 169.752C519.812 168.973 519.29 168.045 518.927 166.968C518.81 167.427 518.628 167.896 518.383 168.376C518.148 168.856 517.866 169.325 517.535 169.784C517.204 170.243 516.836 170.68 516.431 171.096C516.036 171.501 515.615 171.864 515.167 172.184L514.191 171.48C514.799 171.096 515.359 170.653 515.871 170.152C516.394 169.64 516.842 169.064 517.215 168.424C517.588 167.784 517.882 167.085 518.095 166.328C518.319 165.56 518.431 164.707 518.431 163.768V161.512H519.455V164.088C519.455 165.688 519.812 167.053 520.527 168.184C521.252 169.304 522.276 170.248 523.599 171.016L522.783 171.784ZM526.271 175.112H525.247V160.904H526.271V175.112ZM536.592 167.64C535.728 167.267 534.992 166.856 534.384 166.408C533.776 165.96 533.275 165.368 532.88 164.632C532.56 165.432 532.08 166.115 531.44 166.68C530.811 167.235 530.075 167.709 529.232 168.104L528.352 167.384C528.907 167.181 529.429 166.931 529.92 166.632C530.411 166.333 530.837 165.987 531.2 165.592C531.552 165.197 531.835 164.744 532.048 164.232C532.261 163.72 532.368 163.139 532.368 162.488V161.208H533.408V162.52C533.408 163.064 533.509 163.565 533.712 164.024C533.915 164.483 534.192 164.899 534.544 165.272C534.896 165.635 535.312 165.949 535.792 166.216C536.272 166.483 536.784 166.691 537.328 166.84L536.592 167.64ZM540.24 168.36H539.232V164.232H535.888V163.384H539.232V160.904H540.24V168.36ZM540.592 174.936H531.456C531.339 174.936 531.259 174.915 531.216 174.872C531.173 174.829 531.152 174.749 531.152 174.632V171.864C531.152 171.757 531.173 171.683 531.216 171.64C531.259 171.587 531.339 171.56 531.456 171.56H539.184V169.928H531.152V169.064H539.936C540.139 169.064 540.24 169.165 540.24 169.368V172.12C540.24 172.237 540.213 172.317 540.16 172.36C540.117 172.403 540.043 172.424 539.936 172.424H532.192V174.104H540.592V174.936Z" fill="#1C262B"/>
<path d="M490.639 121.304C494.244 119.384 496.239 116.499 496.623 112.648H491.567V111.784H497.423C497.626 111.784 497.727 111.885 497.727 112.088C497.546 114.211 496.959 116.093 495.967 117.736C494.975 119.368 493.503 120.776 491.551 121.96L490.639 121.304ZM501.615 125.128H500.575V110.904H501.615V116.792H503.823V117.72H501.615V125.128ZM511.76 111.592C511.963 111.592 512.064 111.693 512.064 111.896C511.84 113.603 511.195 115.069 510.128 116.296C509.072 117.512 507.536 118.472 505.52 119.176L504.752 118.392C508.389 117.293 510.459 115.315 510.96 112.456H505.696V111.592H511.76ZM516.24 119.416H515.232V116.696H512.08V115.832H515.232V113.832H512.512V112.968H515.232V110.904H516.24V119.416ZM516.224 125.208H515.216V121.048H506.944V120.184H515.92C516.123 120.184 516.224 120.285 516.224 120.488V125.208Z" fill="#1C262B"/>
<path d="M424.365 92.128C426.417 91.072 427.983 89.74 429.063 88.132C430.143 86.524 430.815 84.592 431.079 82.336H425.373V81.364H431.943C432.171 81.364 432.285 81.478 432.285 81.706C432.105 84.07 431.457 86.182 430.341 88.042C429.237 89.902 427.599 91.522 425.427 92.902L424.365 92.128ZM437.055 96.376H435.903V80.41H437.055V96.376ZM450.124 91.696C449.848 91.756 449.512 91.816 449.116 91.876C448.72 91.936 448.306 91.996 447.874 92.056C447.43 92.104 446.986 92.152 446.542 92.2C446.11 92.236 445.714 92.26 445.354 92.272C444.874 92.308 444.382 92.332 443.878 92.344C443.374 92.356 442.912 92.362 442.492 92.362C442.06 92.374 441.7 92.38 441.412 92.38C441.136 92.368 440.98 92.362 440.944 92.362C440.812 92.362 440.722 92.338 440.674 92.29C440.626 92.23 440.602 92.14 440.602 92.02V81.58C440.602 81.472 440.626 81.388 440.674 81.328C440.722 81.268 440.812 81.238 440.944 81.238H448.126V82.192H441.7V86.17H447.838V87.142H441.7V91.354H442.978C443.338 91.354 443.728 91.348 444.148 91.336C444.58 91.324 445 91.306 445.408 91.282C446.092 91.246 446.86 91.186 447.712 91.102C448.564 91.018 449.368 90.904 450.124 90.76V91.696ZM451.978 96.394H450.79V80.392H451.978V86.188H454.48V87.196H451.978V96.394Z" fill="#1C262B"/>
</g>
<path d="M64.032 90.826V88.252H61.81V90.826H64.032ZM59.742 90.826V88.252H57.542V90.826H59.742ZM66.276 92.146C66.276 92.3807 66.2247 92.542 66.122 92.63C66.034 92.718 65.88 92.762 65.66 92.762H55.892C55.6573 92.762 55.496 92.718 55.408 92.63C55.3347 92.542 55.298 92.3807 55.298 92.146V83.808H57.542V86.338H59.742V83.94H61.81V86.338H64.032V83.808H66.276V92.146ZM70.61 93.444H68.234V83.258H70.61V86.822H73.118V88.956H70.61V93.444ZM71.05 102.816H58.334C58.0993 102.816 57.938 102.772 57.85 102.684C57.762 102.596 57.718 102.435 57.718 102.2V98.262C57.718 98.042 57.762 97.888 57.85 97.8C57.938 97.6973 58.0993 97.646 58.334 97.646H67.948V96.106H57.718V94.192H69.994C70.4047 94.192 70.61 94.3973 70.61 94.808V98.724C70.61 98.9587 70.5587 99.12 70.456 99.208C70.368 99.296 70.214 99.34 69.994 99.34H60.402V100.902H71.05V102.816ZM83.0195 97.778C82.7995 97.8073 82.5209 97.8513 82.1835 97.91C81.8462 97.954 81.4649 97.998 81.0395 98.042C80.6142 98.086 80.1449 98.13 79.6315 98.174C79.1182 98.2033 78.5829 98.218 78.0255 98.218L75.2095 98.24C74.9749 98.24 74.8135 98.196 74.7255 98.108C74.6375 98.02 74.5935 97.8587 74.5935 97.624V90.848C74.5935 90.628 74.6375 90.474 74.7255 90.386C74.8135 90.2833 74.9749 90.232 75.2095 90.232H79.3675V86.382H74.5935V84.27H81.2155C81.6262 84.27 81.8315 84.4753 81.8315 84.886V91.684C81.8315 91.9187 81.7802 92.08 81.6775 92.168C81.5895 92.256 81.4355 92.3 81.2155 92.3H77.0355V96.128L78.9055 96.106C79.2282 96.106 79.5802 96.0987 79.9615 96.084C80.3429 96.0547 80.7169 96.018 81.0835 95.974C81.8609 95.9153 82.5062 95.8273 83.0195 95.71V97.778ZM90.1695 102.948H87.7935V92.256H85.9895V102.024H83.5695V83.588H85.9895V89.836H87.7935V83.258H90.1695V102.948ZM99.9611 91.53V88.736H95.4951V91.53H99.9611ZM107.969 95.38H105.461V83.258H107.969V87.548H110.499V89.638H107.969V95.38ZM102.381 93.004C102.381 93.2387 102.33 93.4 102.227 93.488C102.139 93.576 101.985 93.62 101.765 93.62H93.6031C93.3684 93.62 93.2071 93.576 93.1191 93.488C93.0458 93.4 93.0091 93.2387 93.0091 93.004V83.852H95.4951V86.646H99.9611V83.852H102.381V93.004ZM107.925 101.078C107.558 101.577 107.074 101.987 106.473 102.31C105.842 102.633 105.102 102.875 104.251 103.036C103.4 103.212 102.469 103.3 101.457 103.3C100.445 103.3 99.5138 103.212 98.6631 103.036C97.8271 102.875 97.1011 102.633 96.4851 102.31C95.8691 101.973 95.3851 101.562 95.0331 101.078C94.6958 100.609 94.5271 100.044 94.5271 99.384C94.5271 98.768 94.7031 98.218 95.0551 97.734C95.4071 97.25 95.8984 96.8393 96.5291 96.502C97.1598 96.1647 97.8931 95.908 98.7291 95.732C99.5798 95.5413 100.496 95.446 101.479 95.446C102.491 95.446 103.415 95.534 104.251 95.71C105.102 95.886 105.842 96.1427 106.473 96.48C107.089 96.8173 107.573 97.2353 107.925 97.734C108.277 98.218 108.453 98.768 108.453 99.384C108.453 100.059 108.277 100.623 107.925 101.078ZM104.581 100.792C105.373 100.425 105.769 99.9487 105.769 99.362C105.769 98.746 105.388 98.2693 104.625 97.932C103.862 97.58 102.814 97.404 101.479 97.404C100.203 97.404 99.1691 97.58 98.3771 97.932C97.5851 98.2693 97.1891 98.746 97.1891 99.362C97.1891 99.67 97.2918 99.9413 97.4971 100.176C97.7171 100.425 98.0104 100.638 98.3771 100.814C98.7584 100.99 99.2131 101.122 99.7411 101.21C100.269 101.313 100.848 101.364 101.479 101.364C102.711 101.364 103.745 101.173 104.581 100.792ZM123.834 96.238C124.186 95.93 124.457 95.556 124.648 95.116C124.868 94.632 125.029 94.0673 125.132 93.422C125.249 92.762 125.308 92.0507 125.308 91.288C125.308 90.54 125.249 89.8433 125.132 89.198C125.029 88.538 124.868 87.9733 124.648 87.504C124.442 87.0347 124.171 86.668 123.834 86.404C123.511 86.1253 123.13 85.986 122.69 85.986C122.235 85.986 121.839 86.1253 121.502 86.404C121.179 86.668 120.915 87.0347 120.71 87.504C120.49 87.9733 120.328 88.538 120.226 89.198C120.123 89.8433 120.072 90.54 120.072 91.288C120.072 92.0507 120.123 92.762 120.226 93.422C120.328 94.0673 120.49 94.632 120.71 95.116C120.915 95.5853 121.179 95.9593 121.502 96.238C121.839 96.502 122.235 96.634 122.69 96.634C123.115 96.634 123.496 96.502 123.834 96.238ZM126.364 85.59C127.317 86.8073 127.794 88.714 127.794 91.31C127.779 93.906 127.295 95.8127 126.342 97.03C125.388 98.2473 124.171 98.856 122.69 98.856C121.194 98.856 119.969 98.2473 119.016 97.03C118.062 95.8127 117.586 93.906 117.586 91.31C117.586 88.714 118.062 86.8073 119.016 85.59C119.969 84.3727 121.194 83.764 122.69 83.764C124.186 83.764 125.41 84.3727 126.364 85.59ZM133.316 102.948H130.83V83.258H133.316V102.948ZM151.775 99.516C151.775 100.675 151.166 101.599 149.949 102.288C148.732 102.977 146.906 103.322 144.471 103.322C142.022 103.322 140.188 102.977 138.971 102.288C137.768 101.599 137.167 100.675 137.167 99.516C137.167 98.372 137.776 97.4553 138.993 96.766C140.21 96.062 142.036 95.71 144.471 95.71C146.891 95.71 148.71 96.062 149.927 96.766C151.159 97.4553 151.775 98.372 151.775 99.516ZM147.749 100.924C148.57 100.631 148.981 100.154 148.981 99.494C148.981 98.878 148.57 98.4087 147.749 98.086C146.942 97.7633 145.85 97.602 144.471 97.602C143.048 97.602 141.941 97.7633 141.149 98.086C140.357 98.4087 139.961 98.878 139.961 99.494C139.961 100.154 140.357 100.631 141.149 100.924C141.941 101.232 143.048 101.386 144.471 101.386C145.835 101.386 146.928 101.232 147.749 100.924ZM153.557 94.588H135.407V92.498H140.093V89.946C139.169 89.638 138.465 89.22 137.981 88.692C137.497 88.164 137.255 87.548 137.255 86.844C137.255 85.744 137.893 84.8493 139.169 84.16C140.474 83.4707 142.242 83.126 144.471 83.126C146.686 83.126 148.446 83.4707 149.751 84.16C151.042 84.8347 151.687 85.7293 151.687 86.844C151.687 87.548 151.445 88.164 150.961 88.692C150.477 89.2053 149.795 89.616 148.915 89.924V92.498H153.557V94.588ZM146.473 92.498V90.474C146.165 90.518 145.842 90.5473 145.505 90.562C145.168 90.5767 144.823 90.584 144.471 90.584C144.119 90.584 143.782 90.5767 143.459 90.562C143.136 90.5473 142.828 90.518 142.535 90.474V92.498H146.473ZM147.705 88.23C148.116 88.0687 148.431 87.878 148.651 87.658C148.871 87.438 148.981 87.1813 148.981 86.888C148.981 86.58 148.871 86.3087 148.651 86.074C148.431 85.8393 148.123 85.6413 147.727 85.48C147.331 85.304 146.854 85.172 146.297 85.084C145.74 84.996 145.131 84.952 144.471 84.952C143.107 84.952 142.014 85.128 141.193 85.48C140.372 85.8173 139.961 86.2867 139.961 86.888C139.961 87.1813 140.071 87.438 140.291 87.658C140.511 87.878 140.819 88.0687 141.215 88.23C141.611 88.3913 142.088 88.516 142.645 88.604C143.202 88.6773 143.811 88.714 144.471 88.714C145.131 88.714 145.732 88.6773 146.275 88.604C146.832 88.516 147.309 88.3913 147.705 88.23ZM178.243 93.818H170.411V95.754C172.435 95.886 173.946 96.282 174.943 96.942C175.955 97.602 176.461 98.46 176.461 99.516C176.461 100.675 175.853 101.599 174.635 102.288C173.418 102.977 171.592 103.322 169.157 103.322C166.708 103.322 164.875 102.977 163.657 102.288C162.455 101.599 161.853 100.675 161.853 99.516C161.853 98.46 162.345 97.602 163.327 96.942C164.325 96.282 165.821 95.886 167.815 95.754V93.818H160.093V91.75H178.243V93.818ZM172.435 100.924C173.257 100.631 173.667 100.154 173.667 99.494C173.667 98.878 173.257 98.4087 172.435 98.086C171.629 97.7633 170.536 97.602 169.157 97.602C167.735 97.602 166.627 97.7633 165.835 98.086C165.043 98.4087 164.647 98.878 164.647 99.494C164.647 100.154 165.043 100.631 165.835 100.924C166.627 101.232 167.735 101.386 169.157 101.386C170.521 101.386 171.614 101.232 172.435 100.924ZM175.867 90.782C175.207 90.6793 174.547 90.5547 173.887 90.408C173.242 90.2613 172.611 90.0707 171.995 89.836C171.379 89.616 170.822 89.352 170.323 89.044C169.825 88.7213 169.421 88.3473 169.113 87.922C168.761 88.3473 168.343 88.714 167.859 89.022C167.375 89.33 166.825 89.6013 166.209 89.836C165.623 90.0707 165.007 90.2687 164.361 90.43C163.716 90.5767 163.063 90.694 162.403 90.782L160.885 89C161.765 88.8533 162.587 88.692 163.349 88.516C164.112 88.34 164.801 88.1347 165.417 87.9C166.004 87.6507 166.495 87.3647 166.891 87.042C167.287 86.7047 167.551 86.3087 167.683 85.854H162.183V83.764H176.131V85.854H170.609C170.756 86.3673 171.049 86.8 171.489 87.152C171.929 87.504 172.465 87.7973 173.095 88.032C173.711 88.2813 174.386 88.4793 175.119 88.626C175.867 88.7727 176.615 88.89 177.363 88.978L175.867 90.782ZM54.704 131.624C59.5147 128.969 62.052 125.259 62.316 120.492H55.804V118.38H64.472C64.8827 118.38 65.088 118.585 65.088 118.996C64.912 122.105 64.142 124.841 62.778 127.202C61.414 129.563 59.412 131.587 56.772 133.274L54.704 131.624ZM70.324 136.948H67.86V117.236H70.324V124.914H73.008V127.136H70.324V136.948ZM83.9435 128.126C83.5329 127.95 83.1002 127.73 82.6455 127.466C82.2055 127.187 81.7802 126.894 81.3695 126.586C80.9589 126.278 80.5849 125.955 80.2475 125.618C79.9249 125.266 79.6755 124.921 79.4995 124.584C79.1475 125.376 78.5462 126.117 77.6955 126.806C76.8595 127.495 75.9355 128.104 74.9235 128.632L73.0755 126.982C74.6742 126.351 75.9209 125.515 76.8155 124.474C77.7102 123.418 78.1575 122.223 78.1575 120.888V120.162H74.6155V118.094H84.4055V120.162H80.8195V120.932C80.8195 122.179 81.2082 123.264 81.9855 124.188C82.7629 125.112 83.9289 125.831 85.4835 126.344L83.9435 128.126ZM89.5755 129.226H87.0675V117.258H89.5755V121.614H92.0835V123.704H89.5755V129.226ZM79.1035 136.728C78.7662 136.625 78.4289 136.471 78.0915 136.266C77.4609 135.929 76.9695 135.518 76.6175 135.034C76.2802 134.55 76.1115 133.978 76.1115 133.318C76.1115 132.687 76.2875 132.123 76.6395 131.624C77.0062 131.125 77.5049 130.707 78.1355 130.37C78.7662 130.018 79.5069 129.754 80.3575 129.578C81.2082 129.387 82.1175 129.292 83.0855 129.292C84.0975 129.292 85.0289 129.387 85.8795 129.578C86.7302 129.754 87.4709 130.011 88.1015 130.348C88.7322 130.7 89.2235 131.125 89.5755 131.624C89.9275 132.123 90.1035 132.687 90.1035 133.318C90.1035 133.978 89.9275 134.55 89.5755 135.034C89.2235 135.533 88.7322 135.951 88.1015 136.288C87.4709 136.625 86.7229 136.875 85.8575 137.036C85.0069 137.212 84.0755 137.3 83.0635 137.3C82.0515 137.3 81.1202 137.212 80.2695 137.036C80.0642 137.007 79.8662 136.963 79.6755 136.904C79.4849 136.86 79.2942 136.801 79.1035 136.728ZM78.7075 133.274C78.7075 133.934 79.1182 134.455 79.9395 134.836C80.7462 135.232 81.7875 135.43 83.0635 135.43C84.3835 135.43 85.4469 135.232 86.2535 134.836C87.0749 134.455 87.4855 133.934 87.4855 133.274C87.4855 132.614 87.0749 132.101 86.2535 131.734C85.4469 131.367 84.3835 131.184 83.0635 131.184C82.4182 131.184 81.8315 131.235 81.3035 131.338C80.7755 131.426 80.3135 131.558 79.9175 131.734C79.5362 131.91 79.2355 132.13 79.0155 132.394C78.8102 132.658 78.7075 132.951 78.7075 133.274ZM111.38 122.208V120.734H102.558V122.208H111.38ZM113.866 123.44C113.866 123.675 113.815 123.836 113.712 123.924C113.624 124.012 113.47 124.056 113.25 124.056H100.688C100.453 124.056 100.292 124.012 100.204 123.924C100.131 123.836 100.094 123.675 100.094 123.44V117.302H102.558V119.018H111.38V117.302H113.866V123.44ZM114.218 136.816H100.776C100.541 136.816 100.38 136.772 100.292 136.684C100.204 136.596 100.16 136.435 100.16 136.2V132.504C100.16 132.284 100.204 132.13 100.292 132.042C100.38 131.939 100.541 131.888 100.776 131.888H110.984V130.59H100.16V128.72H105.682V127.202H97.916V125.288H116.066V127.202H108.256V128.72H113.184C113.595 128.72 113.8 128.925 113.8 129.336V132.966C113.8 133.201 113.749 133.362 113.646 133.45C113.558 133.538 113.404 133.582 113.184 133.582H102.976V134.968H114.218V136.816ZM129.4 128.104C128.021 128.265 126.503 128.383 124.846 128.456C123.188 128.515 121.34 128.544 119.302 128.544H117.124V126.476H119.28L119.236 120.14H117.564V118.05H128.3V120.14H126.782L126.738 126.322C127.192 126.278 127.64 126.234 128.08 126.19C128.52 126.146 128.96 126.087 129.4 126.014V128.104ZM133.602 131.778H131.116V125.486H128.322V123.462H131.116V122.12H128.498V120.118H131.094V117.258H133.602V131.778ZM134.02 136.574H120.93C120.695 136.574 120.534 136.53 120.446 136.442C120.372 136.354 120.336 136.193 120.336 135.958V130.062H122.844V134.462H134.02V136.574ZM123.372 126.454C123.518 126.454 123.665 126.454 123.812 126.454C123.973 126.439 124.142 126.432 124.318 126.432L124.34 120.14H121.612L121.656 126.454H123.372ZM145.263 122.054H135.913V120.25H145.263V122.054ZM143.085 119.216H138.047V117.412H143.085V119.216ZM144.647 127.136C144.354 127.693 143.855 128.148 143.151 128.5C142.447 128.852 141.589 129.028 140.577 129.028C139.917 129.028 139.316 128.947 138.773 128.786C138.245 128.625 137.79 128.405 137.409 128.126C137.028 127.847 136.734 127.517 136.529 127.136C136.324 126.74 136.221 126.307 136.221 125.838C136.221 124.914 136.602 124.159 137.365 123.572C138.142 122.971 139.213 122.67 140.577 122.67C141.252 122.67 141.86 122.751 142.403 122.912C142.96 123.059 143.422 123.279 143.789 123.572C144.17 123.851 144.464 124.188 144.669 124.584C144.874 124.965 144.977 125.383 144.977 125.838C144.977 126.307 144.867 126.74 144.647 127.136ZM142.029 126.938C142.381 126.659 142.557 126.307 142.557 125.882C142.557 125.457 142.381 125.097 142.029 124.804C141.677 124.496 141.193 124.342 140.577 124.342C139.961 124.342 139.484 124.496 139.147 124.804C138.81 125.097 138.641 125.457 138.641 125.882C138.641 126.307 138.81 126.659 139.147 126.938C139.484 127.217 139.961 127.356 140.577 127.356C141.222 127.356 141.706 127.217 142.029 126.938ZM152.699 129.358H150.301V124.606H148.585V129.314H146.187V117.566H148.585V122.34H150.301V117.258H152.699V129.358ZM152.413 137.08C151.577 136.596 150.866 136.097 150.279 135.584C149.692 135.071 149.223 134.484 148.871 133.824C148.504 134.484 148.042 135.063 147.485 135.562C146.942 136.075 146.275 136.574 145.483 137.058C144.823 136.633 144.185 136.141 143.569 135.584C142.968 135.041 142.484 134.462 142.117 133.846C141.706 134.521 141.193 135.144 140.577 135.716C139.961 136.288 139.323 136.743 138.663 137.08L136.903 135.54C137.431 135.305 137.944 135.019 138.443 134.682C138.942 134.345 139.382 133.956 139.763 133.516C140.144 133.091 140.438 132.614 140.643 132.086C140.863 131.543 140.958 130.957 140.929 130.326V130.106H143.393V130.26C143.364 130.832 143.415 131.331 143.547 131.756C143.679 132.167 143.848 132.533 144.053 132.856C144.258 133.164 144.493 133.435 144.757 133.67C145.036 133.905 145.307 134.117 145.571 134.308C145.864 134.088 146.136 133.853 146.385 133.604C146.649 133.34 146.876 133.047 147.067 132.724C147.272 132.401 147.426 132.035 147.529 131.624C147.646 131.213 147.705 130.744 147.705 130.216V130.106H150.169V130.238C150.14 130.942 150.228 131.573 150.433 132.13C150.653 132.673 150.946 133.157 151.313 133.582C151.694 134.007 152.127 134.381 152.611 134.704C153.11 135.027 153.63 135.298 154.173 135.518L152.413 137.08ZM166.671 127.774C166.421 127.847 166.055 127.921 165.571 127.994C165.101 128.067 164.559 128.133 163.943 128.192C163.327 128.251 162.674 128.302 161.985 128.346C161.295 128.39 160.613 128.412 159.939 128.412C159.777 128.427 159.491 128.441 159.081 128.456C158.685 128.456 158.274 128.456 157.849 128.456H156.155C155.92 128.456 155.759 128.412 155.671 128.324C155.597 128.236 155.561 128.075 155.561 127.84V118.666C155.561 118.446 155.605 118.292 155.693 118.204C155.781 118.101 155.942 118.05 156.177 118.05H164.779V120.162H158.003V126.366L160.401 126.3C161.017 126.285 161.633 126.263 162.249 126.234C162.865 126.205 163.451 126.161 164.009 126.102C164.566 126.058 165.072 126.007 165.527 125.948C165.996 125.889 166.377 125.823 166.671 125.75V127.774ZM170.807 131.514H168.321V123.924H163.261V121.834H168.321V117.258H170.807V131.514ZM171.203 136.574H158.135C157.9 136.574 157.739 136.53 157.651 136.442C157.577 136.354 157.541 136.193 157.541 135.958V130.106H160.049V134.462H171.203V136.574ZM189.597 128.082C188.629 127.627 187.742 127.099 186.935 126.498C186.143 125.882 185.549 125.222 185.153 124.518C184.86 125.222 184.28 125.941 183.415 126.674C182.55 127.407 181.604 128.045 180.577 128.588L178.729 126.938C180.372 126.307 181.626 125.471 182.491 124.43C183.371 123.374 183.811 122.179 183.811 120.844V120.162H180.269V118.094H190.059V120.162H186.473V120.866C186.473 121.511 186.583 122.113 186.803 122.67C187.023 123.227 187.338 123.741 187.749 124.21C188.16 124.665 188.651 125.068 189.223 125.42C189.795 125.772 190.433 126.058 191.137 126.278L189.597 128.082ZM195.889 128.676H193.403V123.704H189.619V121.57H193.403V117.258H195.889V128.676ZM193.425 134.704V131.536H185.131V134.704H193.425ZM195.889 136.112C195.889 136.347 195.838 136.508 195.735 136.596C195.647 136.684 195.493 136.728 195.273 136.728H183.283C183.048 136.728 182.887 136.684 182.799 136.596C182.711 136.508 182.667 136.347 182.667 136.112V130.106C182.667 129.886 182.711 129.732 182.799 129.644C182.887 129.541 183.048 129.49 183.283 129.49H195.273C195.684 129.49 195.889 129.695 195.889 130.106V136.112Z" fill="#1C262B"/>
<defs>
<filter id="filter0_d_447_374" x="0" y="0" width="626" height="424" filterUnits="userSpaceOnUse" color-interpolation-filters="sRGB">
<feFlood flood-opacity="0" result="BackgroundImageFix"/>
<feColorMatrix in="SourceAlpha" type="matrix" values="0 0 0 0 0 0 0 0 0 0 0 0 0 0 0 0 0 0 127 0" result="hardAlpha"/>
<feMorphology radius="1" operator="dilate" in="SourceAlpha" result="effect1_dropShadow_447_374"/>
<feOffset dy="7"/>
<feGaussianBlur stdDeviation="5.5"/>
<feComposite in2="hardAlpha" operator="out"/>
<feColorMatrix type="matrix" values="0 0 0 0 0.643137 0 0 0 0 0.776471 0 0 0 0 0.878431 0 0 0 0.25 0"/>
<feBlend mode="normal" in2="BackgroundImageFix" result="effect1_dropShadow_447_374"/>
<feBlend mode="normal" in="SourceGraphic" in2="effect1_dropShadow_447_374" result="shape"/>
</filter>
<filter id="filter1_d_447_374" x="256" y="59" width="304" height="300.828" filterUnits="userSpaceOnUse" color-interpolation-filters="sRGB">
<feFlood flood-opacity="0" result="BackgroundImageFix"/>
<feColorMatrix in="SourceAlpha" type="matrix" values="0 0 0 0 0 0 0 0 0 0 0 0 0 0 0 0 0 0 127 0" result="hardAlpha"/>
<feOffset dy="4"/>
<feGaussianBlur stdDeviation="2"/>
<feComposite in2="hardAlpha" operator="out"/>
<feColorMatrix type="matrix" values="0 0 0 0 0 0 0 0 0 0 0 0 0 0 0 0 0 0 0.25 0"/>
<feBlend mode="normal" in2="BackgroundImageFix" result="effect1_dropShadow_447_374"/>
<feBlend mode="normal" in="SourceGraphic" in2="effect1_dropShadow_447_374" result="shape"/>
</filter>
</defs>
</svg>
