<svg width="300" height="80" viewBox="0 0 300 80" fill="none" xmlns="http://www.w3.org/2000/svg">
<rect x="0.5" y="0.5" width="299" height="79" rx="7.5" fill="white" stroke="#102254"/>
<path d="M118.126 32.88V28.68H106.096V32.88H118.126ZM121.456 34.89C121.456 35.21 121.386 35.43 121.246 35.55C121.126 35.67 120.916 35.73 120.616 35.73H103.546C103.226 35.73 103.006 35.68 102.886 35.58C102.786 35.46 102.736 35.24 102.736 34.92V26.67C102.736 26.37 102.796 26.16 102.916 26.04C103.036 25.9 103.256 25.83 103.576 25.83H120.616C121.176 25.83 121.456 26.11 121.456 26.67V34.89ZM124.486 41.16H114.286V46.47H110.836V41.16H99.7358V38.28H124.486V41.16ZM122.296 51.51H103.636C103.316 51.51 103.096 51.45 102.976 51.33C102.876 51.21 102.826 50.99 102.826 50.67V43.29H106.246V48.63H122.296V51.51ZM141.258 35.61C140.918 36.43 140.438 37.15 139.818 37.77C139.178 38.39 138.418 38.87 137.538 39.21C136.678 39.55 135.708 39.72 134.628 39.72C133.548 39.72 132.568 39.55 131.688 39.21C130.808 38.87 130.048 38.39 129.408 37.77C128.788 37.15 128.308 36.43 127.968 35.61C127.628 34.77 127.458 33.84 127.458 32.82C127.458 31.86 127.628 30.96 127.968 30.12C128.308 29.28 128.788 28.55 129.408 27.93C130.048 27.31 130.808 26.83 131.688 26.49C132.568 26.13 133.548 25.95 134.628 25.95C135.708 25.95 136.678 26.13 137.538 26.49C138.418 26.83 139.178 27.31 139.818 27.93C140.438 28.55 140.918 29.28 141.258 30.12C141.618 30.96 141.798 31.86 141.798 32.82C141.798 33.84 141.618 34.77 141.258 35.61ZM134.628 36.9C135.828 36.9 136.748 36.51 137.388 35.73C138.048 34.93 138.378 33.96 138.378 32.82C138.378 31.66 138.048 30.7 137.388 29.94C136.748 29.18 135.828 28.8 134.628 28.8C133.428 28.8 132.498 29.18 131.838 29.94C131.198 30.7 130.878 31.66 130.878 32.82C130.878 33.96 131.198 34.93 131.838 35.73C132.498 36.51 133.428 36.9 134.628 36.9ZM144.348 45.36C142.468 45.78 140.248 46.09 137.688 46.29C135.148 46.47 132.358 46.56 129.318 46.56H126.228V43.62L134.388 43.53C134.848 43.53 135.478 43.51 136.278 43.47C137.078 43.41 137.958 43.34 138.918 43.26C139.878 43.18 140.828 43.08 141.768 42.96C142.728 42.84 143.588 42.71 144.348 42.57V45.36ZM148.428 52.02H145.038V25.17H148.428V52.02ZM163.58 28.29H155.21V25.53H163.58V28.29ZM167.18 32.88H151.52V30H167.18V32.88ZM165.92 43.44C165.6 44.26 165.13 44.95 164.51 45.51C163.89 46.09 163.14 46.54 162.26 46.86C161.4 47.18 160.45 47.34 159.41 47.34C158.33 47.34 157.36 47.18 156.5 46.86C155.64 46.54 154.91 46.09 154.31 45.51C153.69 44.93 153.21 44.24 152.87 43.44C152.53 42.64 152.36 41.76 152.36 40.8C152.36 39.88 152.52 39.02 152.84 38.22C153.16 37.42 153.63 36.73 154.25 36.15C154.87 35.57 155.61 35.12 156.47 34.8C157.35 34.46 158.33 34.29 159.41 34.29C160.49 34.29 161.46 34.46 162.32 34.8C163.18 35.12 163.92 35.57 164.54 36.15C165.16 36.73 165.63 37.42 165.95 38.22C166.29 39.02 166.46 39.88 166.46 40.8C166.46 41.76 166.28 42.64 165.92 43.44ZM159.41 44.46C160.51 44.46 161.38 44.12 162.02 43.44C162.66 42.76 162.98 41.88 162.98 40.8C162.98 39.78 162.66 38.92 162.02 38.22C161.38 37.52 160.51 37.17 159.41 37.17C158.27 37.17 157.39 37.52 156.77 38.22C156.15 38.92 155.84 39.78 155.84 40.8C155.84 41.88 156.15 42.76 156.77 43.44C157.39 44.12 158.27 44.46 159.41 44.46ZM172.85 51.99H169.49V25.17H172.85V35.85H176.51V38.94H172.85V51.99ZM177.142 44.76C183.622 41.26 187.082 36.2 187.522 29.58H178.612V26.7H190.462C191.022 26.7 191.302 26.98 191.302 27.54C191.062 31.7 190.032 35.41 188.212 38.67C186.392 41.93 183.652 44.71 179.992 47.01L177.142 44.76ZM199.282 52.02H195.892V25.17H199.282V52.02Z" fill="#102254"/>
</svg>
