<svg width="34" height="26" viewBox="0 0 34 26" fill="none" xmlns="http://www.w3.org/2000/svg">
<path d="M8.056 22.56C9.03733 22.56 9.82667 22.2293 10.424 21.568C11.0213 20.8853 11.4693 20.064 11.768 19.104C12.0667 18.1227 12.2587 17.088 12.344 16C12.4507 14.8907 12.504 13.8987 12.504 13.024C12.504 12.448 12.4827 11.8187 12.44 11.136C12.4187 10.432 12.344 9.728 12.216 9.024C12.1093 8.29867 11.96 7.60533 11.768 6.944C11.576 6.26133 11.3093 5.664 10.968 5.152C10.648 4.61867 10.2427 4.20267 9.752 3.904C9.28267 3.584 8.71733 3.424 8.056 3.424C7.39467 3.424 6.82933 3.584 6.36 3.904C5.912 4.20267 5.528 4.61867 5.208 5.152C4.888 5.664 4.632 6.26133 4.44 6.944C4.26933 7.60533 4.13067 8.29867 4.024 9.024C3.93867 9.728 3.87467 10.432 3.832 11.136C3.81067 11.8187 3.8 12.448 3.8 13.024C3.8 13.6 3.81067 14.24 3.832 14.944C3.87467 15.6267 3.93867 16.32 4.024 17.024C4.13067 17.728 4.26933 18.4213 4.44 19.104C4.632 19.7653 4.888 20.352 5.208 20.864C5.528 21.376 5.912 21.792 6.36 22.112C6.82933 22.4107 7.39467 22.56 8.056 22.56ZM14.648 21.568C14.0507 22.784 13.2187 23.7653 12.152 24.512C11.1067 25.2587 9.74133 25.632 8.056 25.632C6.392 25.632 5.03733 25.248 3.992 24.48C2.968 23.7333 2.15733 22.7627 1.56 21.568C0.984 20.352 0.589333 18.9973 0.376 17.504C0.184 15.9893 0.0880001 14.496 0.0880001 13.024C0.0880001 11.552 0.184 10.0693 0.376 8.576C0.589333 7.06133 0.984 5.70667 1.56 4.512C2.136 3.296 2.94667 2.304 3.992 1.536C5.03733 0.767999 6.392 0.383999 8.056 0.383999C9.74133 0.383999 11.1067 0.767999 12.152 1.536C13.2187 2.304 14.0507 3.296 14.648 4.512C15.2453 5.70667 15.6507 7.06133 15.864 8.576C16.0987 10.0693 16.216 11.552 16.216 13.024C16.216 14.496 16.0987 15.9893 15.864 17.504C15.6507 18.9973 15.2453 20.352 14.648 21.568ZM20.5193 17.92C20.6899 19.5413 21.1379 20.7147 21.8633 21.44C22.5886 22.1653 23.6339 22.528 24.9993 22.528C26.4073 22.528 27.4953 22.176 28.2633 21.472C29.0313 20.768 29.4153 19.712 29.4153 18.304C29.4153 17.5787 29.2873 16.9707 29.0313 16.48C28.7966 15.968 28.4659 15.552 28.0393 15.232C27.6126 14.912 27.1219 14.6773 26.5673 14.528C26.0126 14.3787 25.4366 14.2933 24.8393 14.272H23.6233C23.2819 14.272 23.0579 14.2187 22.9513 14.112C22.8446 14.0053 22.7913 13.7813 22.7913 13.44V11.968C22.7913 11.6267 22.8446 11.4027 22.9513 11.296C23.0579 11.1893 23.2819 11.136 23.6233 11.136H24.6153C25.2126 11.1147 25.7673 11.04 26.2793 10.912C26.8126 10.784 27.2713 10.5813 27.6553 10.304C28.0393 10.0053 28.3379 9.632 28.5513 9.184C28.7859 8.736 28.9033 8.17067 28.9033 7.488C28.9033 6.272 28.5406 5.36533 27.8153 4.768C27.1113 4.14933 26.1513 3.84 24.9353 3.84C23.6979 3.84 22.7486 4.17067 22.0873 4.832C21.4259 5.472 21.0206 6.528 20.8713 8H17.2553C17.2766 6.86933 17.4793 5.856 17.8633 4.96C18.2473 4.064 18.7806 3.30667 19.4633 2.688C20.1459 2.06933 20.9566 1.6 21.8953 1.28C22.8339 0.959999 23.8686 0.799999 24.9993 0.799999C25.9806 0.799999 26.9193 0.938666 27.8153 1.216C28.7326 1.472 29.5433 1.87733 30.2473 2.432C30.9513 2.96533 31.5059 3.648 31.9113 4.48C32.3379 5.312 32.5513 6.28267 32.5513 7.392C32.5513 8.8 32.1886 9.97333 31.4633 10.912C30.7379 11.8293 29.6713 12.4373 28.2633 12.736C29.8846 13.0133 31.0793 13.6533 31.8473 14.656C32.6366 15.6587 33.0313 16.96 33.0313 18.56C33.0313 19.776 32.7966 20.8213 32.3273 21.696C31.8579 22.5707 31.2393 23.296 30.4713 23.872C29.7246 24.448 28.8606 24.8747 27.8793 25.152C26.8979 25.4293 25.8953 25.568 24.8713 25.568C23.6979 25.568 22.6313 25.3973 21.6713 25.056C20.7113 24.7147 19.8793 24.2133 19.1753 23.552C18.4926 22.8907 17.9593 22.0907 17.5753 21.152C17.1913 20.192 16.9886 19.1147 16.9673 17.92H20.5193Z" fill="#1C262B"/>
</svg>
