<svg width="34" height="26" viewBox="0 0 34 26" fill="none" xmlns="http://www.w3.org/2000/svg">
<path d="M8.056 22.56C9.03733 22.56 9.82667 22.2293 10.424 21.568C11.0213 20.8853 11.4693 20.064 11.768 19.104C12.0667 18.1227 12.2587 17.088 12.344 16C12.4507 14.8907 12.504 13.8987 12.504 13.024C12.504 12.448 12.4827 11.8187 12.44 11.136C12.4187 10.432 12.344 9.728 12.216 9.024C12.1093 8.29867 11.96 7.60533 11.768 6.944C11.576 6.26133 11.3093 5.664 10.968 5.152C10.648 4.61867 10.2427 4.20267 9.752 3.904C9.28267 3.584 8.71733 3.424 8.056 3.424C7.39467 3.424 6.82933 3.584 6.36 3.904C5.912 4.20267 5.528 4.61867 5.208 5.152C4.888 5.664 4.632 6.26133 4.44 6.944C4.26933 7.60533 4.13067 8.29867 4.024 9.024C3.93867 9.728 3.87467 10.432 3.832 11.136C3.81067 11.8187 3.8 12.448 3.8 13.024C3.8 13.6 3.81067 14.24 3.832 14.944C3.87467 15.6267 3.93867 16.32 4.024 17.024C4.13067 17.728 4.26933 18.4213 4.44 19.104C4.632 19.7653 4.888 20.352 5.208 20.864C5.528 21.376 5.912 21.792 6.36 22.112C6.82933 22.4107 7.39467 22.56 8.056 22.56ZM14.648 21.568C14.0507 22.784 13.2187 23.7653 12.152 24.512C11.1067 25.2587 9.74133 25.632 8.056 25.632C6.392 25.632 5.03733 25.248 3.992 24.48C2.968 23.7333 2.15733 22.7627 1.56 21.568C0.984 20.352 0.589333 18.9973 0.376 17.504C0.184 15.9893 0.0880001 14.496 0.0880001 13.024C0.0880001 11.552 0.184 10.0693 0.376 8.576C0.589333 7.06133 0.984 5.70667 1.56 4.512C2.136 3.296 2.94667 2.304 3.992 1.536C5.03733 0.767999 6.392 0.383999 8.056 0.383999C9.74133 0.383999 11.1067 0.767999 12.152 1.536C13.2187 2.304 14.0507 3.296 14.648 4.512C15.2453 5.70667 15.6507 7.06133 15.864 8.576C16.0987 10.0693 16.216 11.552 16.216 13.024C16.216 14.496 16.0987 15.9893 15.864 17.504C15.6507 18.9973 15.2453 20.352 14.648 21.568ZM21.4153 18.56C21.6499 19.968 22.1299 20.992 22.8553 21.632C23.5806 22.272 24.5193 22.592 25.6713 22.592C26.8873 22.592 27.8793 22.144 28.6473 21.248C29.4153 20.352 29.7993 19.04 29.7993 17.312C29.7993 15.456 29.4153 14.112 28.6473 13.28C27.9006 12.4267 26.9299 12 25.7353 12C24.8393 12 24.0499 12.2347 23.3673 12.704C22.7059 13.152 22.2473 13.792 21.9913 14.624C21.9486 14.7947 21.8739 14.9867 21.7673 15.2C21.6819 15.392 21.4686 15.488 21.1273 15.488H19.2073C18.8659 15.488 18.6313 15.424 18.5033 15.296C18.3966 15.1467 18.3433 14.9227 18.3433 14.624L18.6953 2.24C18.6953 1.89867 18.7486 1.67467 18.8553 1.568C18.9833 1.44 19.2179 1.376 19.5593 1.376H32.2313V4.384H22.2153L21.8633 10.72C22.2686 10.2293 22.8446 9.83467 23.5913 9.536C24.3593 9.216 25.2553 9.056 26.2793 9.056C27.2393 9.056 28.1566 9.23733 29.0313 9.6C29.9059 9.94133 30.6633 10.4533 31.3033 11.136C31.9646 11.8187 32.4873 12.6827 32.8713 13.728C33.2553 14.752 33.4473 15.936 33.4473 17.28C33.4473 18.4533 33.2553 19.552 32.8713 20.576C32.5086 21.5787 31.9859 22.4533 31.3033 23.2C30.6206 23.9253 29.7993 24.5013 28.8393 24.928C27.8793 25.3547 26.8126 25.568 25.6393 25.568C24.5939 25.568 23.6126 25.4187 22.6953 25.12C21.7779 24.8213 20.9673 24.3733 20.2633 23.776C19.5593 23.1787 18.9939 22.4533 18.5673 21.6C18.1406 20.7253 17.8953 19.712 17.8313 18.56H21.4153Z" fill="#1C262B"/>
</svg>
