<svg width="33" height="26" viewBox="0 0 33 26" fill="none" xmlns="http://www.w3.org/2000/svg">
<path d="M8.056 22.56C9.03733 22.56 9.82667 22.2293 10.424 21.568C11.0213 20.8853 11.4693 20.064 11.768 19.104C12.0667 18.1227 12.2587 17.088 12.344 16C12.4507 14.8907 12.504 13.8987 12.504 13.024C12.504 12.448 12.4827 11.8187 12.44 11.136C12.4187 10.432 12.344 9.728 12.216 9.024C12.1093 8.29867 11.96 7.60533 11.768 6.944C11.576 6.26133 11.3093 5.664 10.968 5.152C10.648 4.61867 10.2427 4.20267 9.752 3.904C9.28267 3.584 8.71733 3.424 8.056 3.424C7.39467 3.424 6.82933 3.584 6.36 3.904C5.912 4.20267 5.528 4.61867 5.208 5.152C4.888 5.664 4.632 6.26133 4.44 6.944C4.26933 7.60533 4.13067 8.29867 4.024 9.024C3.93867 9.728 3.87467 10.432 3.832 11.136C3.81067 11.8187 3.8 12.448 3.8 13.024C3.8 13.6 3.81067 14.24 3.832 14.944C3.87467 15.6267 3.93867 16.32 4.024 17.024C4.13067 17.728 4.26933 18.4213 4.44 19.104C4.632 19.7653 4.888 20.352 5.208 20.864C5.528 21.376 5.912 21.792 6.36 22.112C6.82933 22.4107 7.39467 22.56 8.056 22.56ZM14.648 21.568C14.0507 22.784 13.2187 23.7653 12.152 24.512C11.1067 25.2587 9.74133 25.632 8.056 25.632C6.392 25.632 5.03733 25.248 3.992 24.48C2.968 23.7333 2.15733 22.7627 1.56 21.568C0.984 20.352 0.589333 18.9973 0.376 17.504C0.184 15.9893 0.0880001 14.496 0.0880001 13.024C0.0880001 11.552 0.184 10.0693 0.376 8.576C0.589333 7.06133 0.984 5.70667 1.56 4.512C2.136 3.296 2.94667 2.304 3.992 1.536C5.03733 0.767999 6.392 0.383999 8.056 0.383999C9.74133 0.383999 11.1067 0.767999 12.152 1.536C13.2187 2.304 14.0507 3.296 14.648 4.512C15.2453 5.70667 15.6507 7.06133 15.864 8.576C16.0987 10.0693 16.216 11.552 16.216 13.024C16.216 14.496 16.0987 15.9893 15.864 17.504C15.6507 18.9973 15.2453 20.352 14.648 21.568ZM32.8073 25.024H18.3433C18.0019 25.024 17.7673 24.96 17.6393 24.832C17.5326 24.7253 17.4793 24.5013 17.4793 24.16V22.08C17.9913 21.5893 18.6206 20.9813 19.3673 20.256C20.1139 19.5093 20.8926 18.7093 21.7033 17.856C22.5353 16.9813 23.3566 16.0747 24.1673 15.136C24.9993 14.176 25.7353 13.2373 26.3753 12.32C27.0366 11.4027 27.5699 10.5387 27.9753 9.728C28.3806 8.896 28.5833 8.16 28.5833 7.52C28.6046 6.24 28.2846 5.312 27.6233 4.736C26.9619 4.16 26.0766 3.872 24.9673 3.872C23.8793 3.872 23.0046 4.256 22.3433 5.024C21.7033 5.77067 21.3833 6.89067 21.3833 8.384H17.6713C17.6713 7.21067 17.8633 6.16533 18.2473 5.248C18.6313 4.30933 19.1433 3.52 19.7833 2.88C20.4446 2.21867 21.2126 1.71733 22.0873 1.376C22.9833 1.01333 23.9433 0.831999 24.9673 0.831999C25.9913 0.831999 26.9406 0.981332 27.8153 1.28C28.7113 1.55733 29.4899 1.97333 30.1513 2.528C30.8126 3.06133 31.3353 3.73333 31.7193 4.544C32.1033 5.35467 32.2953 6.272 32.2953 7.296C32.2953 8.23467 32.1033 9.184 31.7193 10.144C31.3353 11.104 30.8339 12.0533 30.2153 12.992C29.5966 13.9307 28.9033 14.848 28.1353 15.744C27.3886 16.6187 26.6313 17.4507 25.8633 18.24C25.0953 19.008 24.3699 19.712 23.6873 20.352C23.0259 20.992 22.4819 21.536 22.0553 21.984H32.8073V25.024Z" fill="#1C262B"/>
</svg>
