<svg width="154" height="154" viewBox="0 0 154 154" fill="none" xmlns="http://www.w3.org/2000/svg">
<g filter="url(#filter0_d_299_832)">
<rect x="7" width="140" height="140" rx="30" fill="white"/>
</g>
<g clip-path="url(#clip0_299_832)">
<g filter="url(#filter1_d_299_832)">
<path d="M76.9987 43.333C62.2947 43.333 50.332 55.2957 50.332 69.9997V81.0477C50.332 83.7783 52.724 85.9997 55.6654 85.9997H58.332C59.0393 85.9997 59.7176 85.7187 60.2176 85.2186C60.7177 84.7185 60.9987 84.0402 60.9987 83.333V69.6183C60.9987 68.9111 60.7177 68.2328 60.2176 67.7327C59.7176 67.2326 59.0393 66.9517 58.332 66.9517H55.9107C57.3934 56.6317 66.2734 48.6663 76.9987 48.6663C87.724 48.6663 96.604 56.6317 98.0867 66.9517H95.6654C94.9581 66.9517 94.2798 67.2326 93.7797 67.7327C93.2796 68.2328 92.9987 68.9111 92.9987 69.6183V85.9997C92.9987 88.941 90.6067 91.333 87.6654 91.333H82.332V88.6663H71.6654V96.6663H87.6654C93.548 96.6663 98.332 91.8823 98.332 85.9997C101.273 85.9997 103.665 83.7783 103.665 81.0477V69.9997C103.665 55.2957 91.7027 43.333 76.9987 43.333Z" fill="#1C262B"/>
</g>
</g>
<defs>
<filter id="filter0_d_299_832" x="0" y="0" width="154" height="154" filterUnits="userSpaceOnUse" color-interpolation-filters="sRGB">
<feFlood flood-opacity="0" result="BackgroundImageFix"/>
<feColorMatrix in="SourceAlpha" type="matrix" values="0 0 0 0 0 0 0 0 0 0 0 0 0 0 0 0 0 0 127 0" result="hardAlpha"/>
<feMorphology radius="4" operator="erode" in="SourceAlpha" result="effect1_dropShadow_299_832"/>
<feOffset dy="7"/>
<feGaussianBlur stdDeviation="5.5"/>
<feComposite in2="hardAlpha" operator="out"/>
<feColorMatrix type="matrix" values="0 0 0 0 0.0627451 0 0 0 0 0.133333 0 0 0 0 0.329412 0 0 0 0.1 0"/>
<feBlend mode="normal" in2="BackgroundImageFix" result="effect1_dropShadow_299_832"/>
<feBlend mode="normal" in="SourceGraphic" in2="effect1_dropShadow_299_832" result="shape"/>
</filter>
<filter id="filter1_d_299_832" x="46.332" y="41.333" width="61.332" height="61.3335" filterUnits="userSpaceOnUse" color-interpolation-filters="sRGB">
<feFlood flood-opacity="0" result="BackgroundImageFix"/>
<feColorMatrix in="SourceAlpha" type="matrix" values="0 0 0 0 0 0 0 0 0 0 0 0 0 0 0 0 0 0 127 0" result="hardAlpha"/>
<feOffset dy="2"/>
<feGaussianBlur stdDeviation="2"/>
<feComposite in2="hardAlpha" operator="out"/>
<feColorMatrix type="matrix" values="0 0 0 0 0 0 0 0 0 0 0 0 0 0 0 0 0 0 0.25 0"/>
<feBlend mode="normal" in2="BackgroundImageFix" result="effect1_dropShadow_299_832"/>
<feBlend mode="normal" in="SourceGraphic" in2="effect1_dropShadow_299_832" result="shape"/>
</filter>
<clipPath id="clip0_299_832">
<rect width="64" height="64" fill="white" transform="translate(45 38)"/>
</clipPath>
</defs>
</svg>
