<svg width="154" height="154" viewBox="0 0 154 154" fill="none" xmlns="http://www.w3.org/2000/svg">
<g filter="url(#filter0_d_299_810)">
<rect x="7" width="140" height="140" rx="30" fill="white"/>
</g>
<g filter="url(#filter1_d_299_810)">
<path d="M57.25 100.875C55.3465 100.875 53.7456 100.226 52.4474 98.9276C51.1491 97.6294 50.5 96.0285 50.5 94.125V84.7762H60.625V40.125H104.5V94.125C104.5 96.0285 103.851 97.6294 102.553 98.9276C101.254 100.226 99.6535 100.875 97.75 100.875H57.25ZM97.75 97.5C98.7062 97.5 99.5084 97.176 100.156 96.528C100.804 95.88 101.127 95.079 101.125 94.125V43.5H64V84.7762H94.375V94.125C94.375 95.0812 94.699 95.8834 95.347 96.5314C95.995 97.1794 96.796 97.5023 97.75 97.5ZM68.6744 58.2994V54.9244H96.4506V58.2994H68.6744ZM68.6744 67.6448V64.2698H96.4506V67.6448H68.6744Z" fill="#1C262B"/>
</g>
<defs>
<filter id="filter0_d_299_810" x="0" y="0" width="154" height="154" filterUnits="userSpaceOnUse" color-interpolation-filters="sRGB">
<feFlood flood-opacity="0" result="BackgroundImageFix"/>
<feColorMatrix in="SourceAlpha" type="matrix" values="0 0 0 0 0 0 0 0 0 0 0 0 0 0 0 0 0 0 127 0" result="hardAlpha"/>
<feMorphology radius="4" operator="erode" in="SourceAlpha" result="effect1_dropShadow_299_810"/>
<feOffset dy="7"/>
<feGaussianBlur stdDeviation="5.5"/>
<feComposite in2="hardAlpha" operator="out"/>
<feColorMatrix type="matrix" values="0 0 0 0 0.0627451 0 0 0 0 0.133333 0 0 0 0 0.329412 0 0 0 0.1 0"/>
<feBlend mode="normal" in2="BackgroundImageFix" result="effect1_dropShadow_299_810"/>
<feBlend mode="normal" in="SourceGraphic" in2="effect1_dropShadow_299_810" result="shape"/>
</filter>
<filter id="filter1_d_299_810" x="46.5" y="38.125" width="62" height="68.75" filterUnits="userSpaceOnUse" color-interpolation-filters="sRGB">
<feFlood flood-opacity="0" result="BackgroundImageFix"/>
<feColorMatrix in="SourceAlpha" type="matrix" values="0 0 0 0 0 0 0 0 0 0 0 0 0 0 0 0 0 0 127 0" result="hardAlpha"/>
<feOffset dy="2"/>
<feGaussianBlur stdDeviation="2"/>
<feComposite in2="hardAlpha" operator="out"/>
<feColorMatrix type="matrix" values="0 0 0 0 0 0 0 0 0 0 0 0 0 0 0 0 0 0 0.25 0"/>
<feBlend mode="normal" in2="BackgroundImageFix" result="effect1_dropShadow_299_810"/>
<feBlend mode="normal" in="SourceGraphic" in2="effect1_dropShadow_299_810" result="shape"/>
</filter>
</defs>
</svg>
