<svg width="80" height="68" viewBox="0 0 80 68" fill="none" xmlns="http://www.w3.org/2000/svg">
<path d="M40 0L0 36H12V68H68V36H80L40 0ZM40 22C49.36 22 57.84 25.72 64 31.76L59.2 36.48C54.08 31.4482 47.1785 28.6445 40 28.68C32.48 28.68 25.68 31.64 20.8 36.48L16 31.76C22.408 25.4814 31.0288 21.9756 40 22ZM40 35.32C45.6 35.32 50.68 37.56 54.4 41.2L49.6 45.88C47.0368 43.3714 43.5864 41.9769 40 42C36.24 42 32.84 43.48 30.4 45.88L25.6 41.2C29.4424 37.4262 34.6144 35.3144 40 35.32ZM40 48.68C43.76 48.68 46.8 51.64 46.8 55.32C46.8 59 43.76 62 40 62C36.24 62 33.2 59 33.2 55.32C33.2 51.64 36.24 48.68 40 48.68Z" fill="#1C262B"/>
</svg>
