<svg width="80" height="80" viewBox="0 0 80 80" fill="none" xmlns="http://www.w3.org/2000/svg">
<path d="M56.6658 40.0003C57.5498 40.0003 58.3977 40.3515 59.0228 40.9766C59.6479 41.6018 59.9991 42.4496 59.9991 43.3337V73.3337H53.3325V46.667H26.6658V73.3337H19.9991V43.3337C19.9991 42.4496 20.3503 41.6018 20.9754 40.9766C21.6005 40.3515 22.4484 40.0003 23.3324 40.0003H56.6658ZM39.9991 53.3337V60.0003H33.3324V53.3337H39.9991ZM39.9991 20.0003C43.7139 19.9992 47.3556 21.0327 50.516 22.985C53.6765 24.9373 56.2307 27.7313 57.8925 31.0537L51.9258 34.037C50.8186 31.8217 49.1163 29.9586 47.0098 28.6565C44.9032 27.3543 42.4756 26.6646 39.9991 26.6646C37.5226 26.6646 35.095 27.3543 32.9884 28.6565C30.8819 29.9586 29.1796 31.8217 28.0724 34.037L22.1058 31.0537C23.7675 27.7313 26.3218 24.9373 29.4822 22.985C32.6426 21.0327 36.2843 19.9992 39.9991 20.0003ZM39.9991 6.66699C46.1908 6.66504 52.2606 8.38763 57.5282 11.6417C62.7958 14.8957 67.0529 19.5526 69.8225 25.0903L63.8558 28.0737C61.6405 23.6436 58.2352 19.918 54.0215 17.3145C49.8078 14.711 44.9522 13.3326 39.9991 13.3337C35.046 13.3326 30.1905 14.711 25.9768 17.3145C21.7631 19.918 18.3577 23.6436 16.1424 28.0737L10.1758 25.0903C12.9453 19.5526 17.2025 14.8957 22.4701 11.6417C27.7377 8.38763 33.8075 6.66504 39.9991 6.66699Z" fill="#102254" fill-opacity="0.5"/>
</svg>
