<svg width="73" height="73" viewBox="0 0 73 73" fill="none" xmlns="http://www.w3.org/2000/svg">
<path d="M36.4987 42.583C37.1003 42.583 37.6884 42.4046 38.1886 42.0704C38.6888 41.7362 39.0786 41.2611 39.3088 40.7053C39.5391 40.1495 39.5993 39.538 39.4819 38.9479C39.3646 38.3579 39.0749 37.8159 38.6495 37.3906C38.2241 36.9652 37.6821 36.6755 37.0921 36.5581C36.5021 36.4408 35.8905 36.501 35.3347 36.7312C34.7789 36.9614 34.3039 37.3513 33.9696 37.8515C33.6354 38.3517 33.457 38.9398 33.457 39.5413C33.457 40.348 33.7775 41.1217 34.3479 41.6921C34.9183 42.2625 35.692 42.583 36.4987 42.583ZM51.707 42.583C52.3086 42.583 52.8967 42.4046 53.3969 42.0704C53.8971 41.7362 54.2869 41.2611 54.5172 40.7053C54.7474 40.1495 54.8076 39.538 54.6903 38.9479C54.5729 38.3579 54.2832 37.8159 53.8578 37.3906C53.4324 36.9652 52.8905 36.6755 52.3004 36.5581C51.7104 36.4408 51.0988 36.501 50.543 36.7312C49.9872 36.9614 49.5122 37.3513 49.178 37.8515C48.8438 38.3517 48.6654 38.9398 48.6654 39.5413C48.6654 40.348 48.9858 41.1217 49.5562 41.6921C50.1267 42.2625 50.9003 42.583 51.707 42.583ZM36.4987 54.7497C37.1003 54.7497 37.6884 54.5713 38.1886 54.2371C38.6888 53.9028 39.0786 53.4278 39.3088 52.872C39.5391 52.3162 39.5993 51.7046 39.4819 51.1146C39.3646 50.5246 39.0749 49.9826 38.6495 49.5572C38.2241 49.1318 37.6821 48.8422 37.0921 48.7248C36.5021 48.6074 35.8905 48.6677 35.3347 48.8979C34.7789 49.1281 34.3039 49.5179 33.9696 50.0181C33.6354 50.5183 33.457 51.1064 33.457 51.708C33.457 52.5147 33.7775 53.2884 34.3479 53.8588C34.9183 54.4292 35.692 54.7497 36.4987 54.7497ZM51.707 54.7497C52.3086 54.7497 52.8967 54.5713 53.3969 54.2371C53.8971 53.9028 54.2869 53.4278 54.5172 52.872C54.7474 52.3162 54.8076 51.7046 54.6903 51.1146C54.5729 50.5246 54.2832 49.9826 53.8578 49.5572C53.4324 49.1318 52.8905 48.8422 52.3004 48.7248C51.7104 48.6074 51.0988 48.6677 50.543 48.8979C49.9872 49.1281 49.5122 49.5179 49.178 50.0181C48.8438 50.5183 48.6654 51.1064 48.6654 51.708C48.6654 52.5147 48.9858 53.2884 49.5562 53.8588C50.1267 54.4292 50.9003 54.7497 51.707 54.7497ZM21.2904 42.583C21.8919 42.583 22.48 42.4046 22.9802 42.0704C23.4804 41.7362 23.8703 41.2611 24.1005 40.7053C24.3307 40.1495 24.391 39.538 24.2736 38.9479C24.1562 38.3579 23.8665 37.8159 23.4411 37.3906C23.0158 36.9652 22.4738 36.6755 21.8838 36.5581C21.2937 36.4408 20.6822 36.501 20.1264 36.7312C19.5706 36.9614 19.0955 37.3513 18.7613 37.8515C18.4271 38.3517 18.2487 38.9398 18.2487 39.5413C18.2487 40.348 18.5692 41.1217 19.1396 41.6921C19.71 42.2625 20.4837 42.583 21.2904 42.583ZM57.7904 12.1663H54.7487V9.12467C54.7487 8.31797 54.4282 7.54431 53.8578 6.97389C53.2874 6.40347 52.5137 6.08301 51.707 6.08301C50.9003 6.08301 50.1267 6.40347 49.5562 6.97389C48.9858 7.54431 48.6654 8.31797 48.6654 9.12467V12.1663H24.332V9.12467C24.332 8.31797 24.0116 7.54431 23.4411 6.97389C22.8707 6.40347 22.0971 6.08301 21.2904 6.08301C20.4837 6.08301 19.71 6.40347 19.1396 6.97389C18.5692 7.54431 18.2487 8.31797 18.2487 9.12467V12.1663H15.207C12.7869 12.1663 10.466 13.1277 8.75468 14.839C7.04341 16.5503 6.08203 18.8712 6.08203 21.2913V57.7913C6.08203 60.2114 7.04341 62.5324 8.75468 64.2437C10.466 65.955 12.7869 66.9163 15.207 66.9163H57.7904C60.2105 66.9163 62.5314 65.955 64.2427 64.2437C65.954 62.5324 66.9154 60.2114 66.9154 57.7913V21.2913C66.9154 18.8712 65.954 16.5503 64.2427 14.839C62.5314 13.1277 60.2105 12.1663 57.7904 12.1663ZM60.832 57.7913C60.832 58.598 60.5116 59.3717 59.9412 59.9421C59.3707 60.5126 58.5971 60.833 57.7904 60.833H15.207C14.4003 60.833 13.6267 60.5126 13.0562 59.9421C12.4858 59.3717 12.1654 58.598 12.1654 57.7913V30.4163H60.832V57.7913ZM60.832 24.333H12.1654V21.2913C12.1654 20.4846 12.4858 19.711 13.0562 19.1406C13.6267 18.5701 14.4003 18.2497 15.207 18.2497H57.7904C58.5971 18.2497 59.3707 18.5701 59.9412 19.1406C60.5116 19.711 60.832 20.4846 60.832 21.2913V24.333ZM21.2904 54.7497C21.8919 54.7497 22.48 54.5713 22.9802 54.2371C23.4804 53.9028 23.8703 53.4278 24.1005 52.872C24.3307 52.3162 24.391 51.7046 24.2736 51.1146C24.1562 50.5246 23.8665 49.9826 23.4411 49.5572C23.0158 49.1318 22.4738 48.8422 21.8838 48.7248C21.2937 48.6074 20.6822 48.6677 20.1264 48.8979C19.5706 49.1281 19.0955 49.5179 18.7613 50.0181C18.4271 50.5183 18.2487 51.1064 18.2487 51.708C18.2487 52.5147 18.5692 53.2884 19.1396 53.8588C19.71 54.4292 20.4837 54.7497 21.2904 54.7497Z" fill="#102254" fill-opacity="0.5"/>
</svg>
