<svg width="67" height="67" viewBox="0 0 67 67" fill="none" xmlns="http://www.w3.org/2000/svg">
<g clip-path="url(#clip0_299_615)">
<path d="M42.993 55.4146C42.1784 54.6 41.5322 53.6329 41.0913 52.5686C40.6505 51.5043 40.4236 50.3635 40.4236 49.2115C40.4236 48.0595 40.6505 46.9187 41.0913 45.8544C41.5322 44.7901 42.1784 43.823 42.993 43.0084C43.8076 42.1938 44.7746 41.5476 45.839 41.1068C46.9033 40.6659 48.044 40.439 49.1961 40.439C50.3481 40.439 51.4888 40.6659 52.5531 41.1068C53.6175 41.5476 54.5845 42.1938 55.3991 43.0084M55.4079 55.4066C57.0532 53.7613 57.9779 51.53 57.9786 49.2031H64.5586M55.4079 55.4066C53.7626 57.0519 51.5313 57.9766 49.2044 57.9773V64.5573M55.4079 55.4066L60.0612 60.0599M47.7416 33.849H50.6673M49.2044 33.849V40.4289M64.5586 47.7403V50.666M61.0941 59.027L59.0283 61.0928M50.6673 64.5573H47.7416M33.8503 50.666V47.7403M33.8503 49.2031H40.4302M37.3147 39.3793L39.3806 37.3134M38.3476 38.3463L43.0013 43M64.5586 33.849L33.8503 64.5573M27.7421 54.7781C25.003 55.9153 22.0258 56.3594 19.0741 56.0711C16.1224 55.7828 13.2874 54.771 10.8201 53.1253C8.35282 51.4797 6.32949 49.2509 4.92933 46.6365C3.52916 44.0221 2.79538 41.1027 2.79297 38.137C2.79297 24.6225 20.8104 2.09375 20.8104 2.09375C27.1949 10.1643 32.5252 19.0153 36.6726 28.4331" stroke="#102254" stroke-opacity="0.5" stroke-width="5" stroke-linecap="round" stroke-linejoin="round"/>
<path d="M20.8093 47.8405C18.2357 47.8405 15.7675 46.8182 13.9477 44.9984C12.1278 43.1785 11.1055 40.7103 11.1055 38.1367" stroke="#102254" stroke-opacity="0.5" stroke-width="5" stroke-linecap="round" stroke-linejoin="round"/>
</g>
<defs>
<clipPath id="clip0_299_615">
<rect width="67" height="67" fill="white"/>
</clipPath>
</defs>
</svg>
