<svg width="717" height="418" viewBox="0 0 717 418" fill="none" xmlns="http://www.w3.org/2000/svg">
<g filter="url(#filter0_d_303_268)">
<rect x="7" y="5" width="699" height="400" rx="20" fill="white"/>
<path d="M66.872 59.678C67.1987 59.482 67.46 59.2067 67.656 58.852C67.852 58.488 68.0013 58.096 68.104 57.676C68.216 57.256 68.286 56.8313 68.314 56.402C68.3513 55.9633 68.37 55.576 68.37 55.24C68.37 54.9693 68.3607 54.666 68.342 54.33C68.3233 53.994 68.2813 53.6533 68.216 53.308C68.16 52.9533 68.076 52.608 67.964 52.272C67.8613 51.936 67.7167 51.6373 67.53 51.376C67.3527 51.1147 67.1333 50.9047 66.872 50.746C66.6107 50.5873 66.3027 50.508 65.948 50.508C65.5933 50.508 65.29 50.5873 65.038 50.746C64.786 50.9047 64.5713 51.1147 64.394 51.376C64.226 51.6373 64.0907 51.936 63.988 52.272C63.8853 52.608 63.806 52.9533 63.75 53.308C63.7033 53.6533 63.6707 53.994 63.652 54.33C63.6427 54.666 63.638 54.9693 63.638 55.24C63.638 55.5013 63.6427 55.8 63.652 56.136C63.6707 56.472 63.7033 56.8127 63.75 57.158C63.806 57.5033 63.8853 57.844 63.988 58.18C64.0907 58.5067 64.226 58.8007 64.394 59.062C64.5713 59.314 64.786 59.5193 65.038 59.678C65.29 59.8367 65.5933 59.916 65.948 59.916C66.2933 59.916 66.6013 59.8367 66.872 59.678ZM68.664 58.992C68.4213 59.5053 68.0807 59.9207 67.642 60.238C67.2033 60.5647 66.6387 60.728 65.948 60.728C65.276 60.728 64.7253 60.5647 64.296 60.238C63.876 59.9207 63.5447 59.5053 63.302 58.992C63.0687 58.4693 62.9053 57.8813 62.812 57.228C62.728 56.5747 62.686 55.912 62.686 55.24C62.686 54.568 62.728 53.9053 62.812 53.252C62.9053 52.5893 63.0687 51.9967 63.302 51.474C63.5447 50.942 63.876 50.5173 64.296 50.2C64.7253 49.8733 65.276 49.71 65.948 49.71C66.6387 49.71 67.2033 49.8733 67.642 50.2C68.0807 50.5173 68.4213 50.942 68.664 51.474C68.916 51.9967 69.0887 52.5893 69.182 53.252C69.2753 53.9053 69.322 54.568 69.322 55.24C69.322 55.912 69.2753 56.5747 69.182 57.228C69.0887 57.872 68.916 58.46 68.664 58.992Z" fill="black" fill-opacity="0.7"/>
<path d="M186.743 54.092C186.949 53.924 187.112 53.7187 187.233 53.476C187.355 53.224 187.415 52.9393 187.415 52.622C187.415 52.3233 187.359 52.0527 187.247 51.81C187.135 51.558 186.977 51.348 186.771 51.18C186.566 51.0027 186.323 50.8673 186.043 50.774C185.773 50.6713 185.479 50.62 185.161 50.62C184.825 50.62 184.517 50.6713 184.237 50.774C183.967 50.8673 183.729 51.0027 183.523 51.18C183.318 51.348 183.159 51.558 183.047 51.81C182.935 52.0527 182.879 52.3233 182.879 52.622C182.879 52.9393 182.935 53.224 183.047 53.476C183.169 53.7187 183.332 53.924 183.537 54.092C183.743 54.26 183.981 54.3907 184.251 54.484C184.531 54.568 184.83 54.61 185.147 54.61C185.455 54.61 185.745 54.568 186.015 54.484C186.295 54.3907 186.538 54.26 186.743 54.092ZM186.883 59.356C187.322 58.964 187.541 58.4367 187.541 57.774C187.541 57.41 187.471 57.0927 187.331 56.822C187.191 56.542 187.005 56.3087 186.771 56.122C186.547 55.9353 186.291 55.7953 186.001 55.702C185.721 55.6087 185.437 55.562 185.147 55.562C184.849 55.562 184.555 55.6087 184.265 55.702C183.985 55.7953 183.733 55.9353 183.509 56.122C183.285 56.3087 183.103 56.542 182.963 56.822C182.823 57.0927 182.753 57.41 182.753 57.774C182.753 58.4273 182.968 58.9547 183.397 59.356C183.827 59.748 184.41 59.944 185.147 59.944C185.885 59.944 186.463 59.748 186.883 59.356ZM186.659 54.96C186.519 55.0253 186.361 55.0813 186.183 55.128C186.519 55.1933 186.827 55.31 187.107 55.478C187.387 55.646 187.625 55.8467 187.821 56.08C188.017 56.304 188.171 56.5607 188.283 56.85C188.395 57.13 188.451 57.424 188.451 57.732C188.442 58.712 188.139 59.4493 187.541 59.944C186.944 60.4387 186.141 60.686 185.133 60.686C184.116 60.686 183.313 60.4433 182.725 59.958C182.147 59.4633 181.853 58.7213 181.843 57.732C181.843 57.312 181.951 56.9107 182.165 56.528C182.389 56.136 182.711 55.8 183.131 55.52C183.43 55.3333 183.761 55.1933 184.125 55.1C183.761 55.0347 183.444 54.9227 183.173 54.764C182.912 54.6053 182.693 54.414 182.515 54.19C182.338 53.966 182.203 53.7233 182.109 53.462C182.025 53.1913 181.983 52.916 181.983 52.636C181.983 52.2347 182.053 51.866 182.193 51.53C182.343 51.1847 182.553 50.8953 182.823 50.662C183.103 50.4193 183.439 50.2327 183.831 50.102C184.223 49.962 184.667 49.892 185.161 49.892C185.637 49.892 186.067 49.9573 186.449 50.088C186.841 50.2187 187.173 50.4053 187.443 50.648C187.723 50.8813 187.938 51.1707 188.087 51.516C188.237 51.852 188.311 52.2253 188.311 52.636C188.311 53.028 188.204 53.406 187.989 53.77C187.775 54.134 187.471 54.4513 187.079 54.722C187.014 54.7687 186.944 54.8107 186.869 54.848C186.804 54.8853 186.734 54.9227 186.659 54.96Z" fill="black" fill-opacity="0.7"/>
<path d="M301.186 60.448H300.29V51.138C299.936 51.5113 299.572 51.8193 299.198 52.062C298.834 52.2953 298.456 52.5053 298.064 52.692V51.768C298.456 51.5907 298.839 51.362 299.212 51.082C299.595 50.7927 299.945 50.48 300.262 50.144H300.934C301.037 50.144 301.102 50.1627 301.13 50.2C301.168 50.228 301.186 50.2933 301.186 50.396V60.448ZM309.229 59.72C309.658 59.496 309.99 59.1693 310.223 58.74C310.466 58.3013 310.587 57.788 310.587 57.2C310.587 56.8547 310.54 56.5187 310.447 56.192C310.354 55.8653 310.209 55.5807 310.013 55.338C309.826 55.086 309.588 54.8853 309.299 54.736C309.01 54.5867 308.674 54.512 308.291 54.512C307.974 54.512 307.67 54.582 307.381 54.722C307.101 54.862 306.854 55.0533 306.639 55.296C306.434 55.5293 306.266 55.8 306.135 56.108C306.014 56.416 305.953 56.738 305.953 57.074C305.953 57.4753 306.009 57.8487 306.121 58.194C306.233 58.5393 306.387 58.8427 306.583 59.104C306.788 59.356 307.031 59.5567 307.311 59.706C307.591 59.8553 307.899 59.93 308.235 59.93C308.599 59.93 308.93 59.86 309.229 59.72ZM310.433 52.454C310.34 51.866 310.125 51.4227 309.789 51.124C309.453 50.8253 309.019 50.676 308.487 50.676C308.039 50.676 307.642 50.8067 307.297 51.068C306.961 51.3293 306.676 51.6887 306.443 52.146C306.219 52.594 306.042 53.1307 305.911 53.756C305.79 54.3813 305.72 55.058 305.701 55.786C305.897 55.142 306.238 54.652 306.723 54.316C307.208 53.9707 307.815 53.798 308.543 53.798C308.972 53.798 309.364 53.882 309.719 54.05C310.083 54.2087 310.396 54.442 310.657 54.75C310.918 55.0487 311.119 55.4127 311.259 55.842C311.408 56.262 311.483 56.7287 311.483 57.242C311.483 57.718 311.408 58.166 311.259 58.586C311.119 59.006 310.914 59.3747 310.643 59.692C310.372 60 310.041 60.2427 309.649 60.42C309.266 60.6067 308.837 60.7 308.361 60.7C307.605 60.7 306.961 60.4993 306.429 60.098C305.906 59.706 305.538 59.188 305.323 58.544C305.192 58.152 305.094 57.7367 305.029 57.298C304.964 56.85 304.931 56.29 304.931 55.618C304.931 54.666 305.02 53.8353 305.197 53.126C305.374 52.4073 305.617 51.81 305.925 51.334C306.233 50.858 306.597 50.5033 307.017 50.27C307.446 50.0273 307.908 49.906 308.403 49.906C309.28 49.906 309.962 50.1347 310.447 50.592C310.942 51.04 311.231 51.6607 311.315 52.454H310.433Z" fill="black" fill-opacity="0.7"/>
<path d="M422.546 60.448H416.568C416.465 60.448 416.395 60.4293 416.358 60.392C416.33 60.364 416.316 60.2987 416.316 60.196V59.524L417.142 58.698C417.478 58.362 417.832 57.9933 418.206 57.592C418.588 57.1813 418.971 56.7567 419.354 56.318C419.736 55.87 420.077 55.4313 420.376 55.002C420.684 54.5633 420.931 54.1433 421.118 53.742C421.314 53.3407 421.412 52.9813 421.412 52.664C421.412 52.3467 421.356 52.062 421.244 51.81C421.141 51.558 420.996 51.348 420.81 51.18C420.623 51.0027 420.399 50.872 420.138 50.788C419.886 50.6947 419.61 50.648 419.312 50.648C419.032 50.648 418.766 50.704 418.514 50.816C418.271 50.928 418.061 51.082 417.884 51.278C417.706 51.4647 417.566 51.6887 417.464 51.95C417.361 52.202 417.31 52.4727 417.31 52.762H416.4C416.4 52.3327 416.474 51.9407 416.624 51.586C416.773 51.2313 416.978 50.928 417.24 50.676C417.501 50.424 417.814 50.2327 418.178 50.102C418.542 49.962 418.934 49.892 419.354 49.892C419.783 49.892 420.175 49.948 420.53 50.06C420.894 50.172 421.206 50.34 421.468 50.564C421.738 50.788 421.948 51.0727 422.098 51.418C422.247 51.754 422.322 52.146 422.322 52.594C422.322 52.9953 422.233 53.406 422.056 53.826C421.888 54.246 421.664 54.6707 421.384 55.1C421.104 55.5293 420.782 55.954 420.418 56.374C420.054 56.794 419.685 57.2 419.312 57.592C418.938 57.984 418.57 58.3573 418.206 58.712C417.842 59.0573 417.52 59.37 417.24 59.65H422.546V60.448ZM428.53 57.354V52.496L428.572 50.746L424.596 57.354H428.53ZM429.384 60.448H428.502V58.152H424.05C423.948 58.152 423.878 58.138 423.84 58.11C423.812 58.0727 423.798 58.0027 423.798 57.9V57.382C423.798 57.2607 423.84 57.1347 423.924 57.004L428.068 50.116C428.106 50.032 428.18 49.99 428.292 49.99H429.132C429.235 49.99 429.3 50.0087 429.328 50.046C429.366 50.074 429.384 50.1393 429.384 50.242V57.354H430.952V58.152H429.384V60.448Z" fill="black" fill-opacity="0.7"/>
<path d="M536.187 57.802C536.252 58.4553 536.485 58.9687 536.887 59.342C537.297 59.7153 537.853 59.902 538.553 59.902C539.281 59.902 539.859 59.7013 540.289 59.3C540.727 58.8893 540.947 58.334 540.947 57.634C540.947 57.2887 540.872 56.9853 540.723 56.724C540.583 56.4533 540.396 56.2293 540.163 56.052C539.939 55.8747 539.677 55.7393 539.379 55.646C539.089 55.5527 538.791 55.5013 538.483 55.492H538.007C537.913 55.492 537.853 55.4827 537.825 55.464C537.806 55.436 537.797 55.3753 537.797 55.282V54.862C537.797 54.7687 537.806 54.7127 537.825 54.694C537.853 54.666 537.913 54.652 538.007 54.652H538.385C538.711 54.6427 539.015 54.596 539.295 54.512C539.575 54.4187 539.817 54.288 540.023 54.12C540.237 53.952 540.405 53.7467 540.527 53.504C540.648 53.2613 540.713 52.9767 540.723 52.65C540.723 52.3327 540.667 52.0527 540.555 51.81C540.443 51.5673 540.284 51.362 540.079 51.194C539.883 51.026 539.649 50.9 539.379 50.816C539.117 50.732 538.833 50.69 538.525 50.69C537.881 50.69 537.372 50.858 536.999 51.194C536.625 51.53 536.406 51.9967 536.341 52.594H535.417C535.426 52.174 535.505 51.8007 535.655 51.474C535.813 51.138 536.028 50.8533 536.299 50.62C536.579 50.3867 536.91 50.2093 537.293 50.088C537.675 49.9573 538.1 49.892 538.567 49.892C538.987 49.892 539.379 49.9527 539.743 50.074C540.116 50.186 540.443 50.3587 540.723 50.592C541.003 50.8253 541.222 51.1147 541.381 51.46C541.549 51.8053 541.633 52.2067 541.633 52.664C541.633 52.944 541.591 53.21 541.507 53.462C541.423 53.714 541.292 53.9473 541.115 54.162C540.947 54.3673 540.723 54.5493 540.443 54.708C540.163 54.8667 539.827 54.988 539.435 55.072C539.845 55.128 540.2 55.2353 540.499 55.394C540.807 55.5527 541.059 55.7533 541.255 55.996C541.46 56.2293 541.609 56.4953 541.703 56.794C541.805 57.0833 541.857 57.396 541.857 57.732C541.857 58.236 541.763 58.6747 541.577 59.048C541.39 59.412 541.143 59.72 540.835 59.972C540.527 60.2147 540.167 60.3967 539.757 60.518C539.355 60.6393 538.94 60.7 538.511 60.7C537.493 60.7 536.705 60.4433 536.145 59.93C535.585 59.4167 535.295 58.7073 535.277 57.802H536.187ZM549.633 60.448H543.655C543.553 60.448 543.483 60.4293 543.445 60.392C543.417 60.364 543.403 60.2987 543.403 60.196V59.524L544.229 58.698C544.565 58.362 544.92 57.9933 545.293 57.592C545.676 57.1813 546.059 56.7567 546.441 56.318C546.824 55.87 547.165 55.4313 547.463 55.002C547.771 54.5633 548.019 54.1433 548.205 53.742C548.401 53.3407 548.499 52.9813 548.499 52.664C548.499 52.3467 548.443 52.062 548.331 51.81C548.229 51.558 548.084 51.348 547.897 51.18C547.711 51.0027 547.487 50.872 547.225 50.788C546.973 50.6947 546.698 50.648 546.399 50.648C546.119 50.648 545.853 50.704 545.601 50.816C545.359 50.928 545.149 51.082 544.971 51.278C544.794 51.4647 544.654 51.6887 544.551 51.95C544.449 52.202 544.397 52.4727 544.397 52.762H543.487C543.487 52.3327 543.562 51.9407 543.711 51.586C543.861 51.2313 544.066 50.928 544.327 50.676C544.589 50.424 544.901 50.2327 545.265 50.102C545.629 49.962 546.021 49.892 546.441 49.892C546.871 49.892 547.263 49.948 547.617 50.06C547.981 50.172 548.294 50.34 548.555 50.564C548.826 50.788 549.036 51.0727 549.185 51.418C549.335 51.754 549.409 52.146 549.409 52.594C549.409 52.9953 549.321 53.406 549.143 53.826C548.975 54.246 548.751 54.6707 548.471 55.1C548.191 55.5293 547.869 55.954 547.505 56.374C547.141 56.794 546.773 57.2 546.399 57.592C546.026 57.984 545.657 58.3573 545.293 58.712C544.929 59.0573 544.607 59.37 544.327 59.65H549.633V60.448Z" fill="black" fill-opacity="0.7"/>
<path d="M659.04 57.354V52.496L659.082 50.746L655.106 57.354H659.04ZM659.894 60.448H659.012V58.152H654.56C654.457 58.152 654.387 58.138 654.35 58.11C654.322 58.0727 654.308 58.0027 654.308 57.9V57.382C654.308 57.2607 654.35 57.1347 654.434 57.004L658.578 50.116C658.615 50.032 658.69 49.99 658.802 49.99H659.642C659.745 49.99 659.81 50.0087 659.838 50.046C659.875 50.074 659.894 50.1393 659.894 50.242V57.354H661.462V58.152H659.894V60.448ZM666.761 59.678C667.087 59.482 667.349 59.2067 667.545 58.852C667.741 58.488 667.89 58.096 667.993 57.676C668.105 57.256 668.175 56.8313 668.203 56.402C668.24 55.9633 668.259 55.576 668.259 55.24C668.259 54.9693 668.249 54.666 668.231 54.33C668.212 53.994 668.17 53.6533 668.105 53.308C668.049 52.9533 667.965 52.608 667.853 52.272C667.75 51.936 667.605 51.6373 667.419 51.376C667.241 51.1147 667.022 50.9047 666.761 50.746C666.499 50.5873 666.191 50.508 665.837 50.508C665.482 50.508 665.179 50.5873 664.927 50.746C664.675 50.9047 664.46 51.1147 664.283 51.376C664.115 51.6373 663.979 51.936 663.877 52.272C663.774 52.608 663.695 52.9533 663.639 53.308C663.592 53.6533 663.559 53.994 663.541 54.33C663.531 54.666 663.527 54.9693 663.527 55.24C663.527 55.5013 663.531 55.8 663.541 56.136C663.559 56.472 663.592 56.8127 663.639 57.158C663.695 57.5033 663.774 57.844 663.877 58.18C663.979 58.5067 664.115 58.8007 664.283 59.062C664.46 59.314 664.675 59.5193 664.927 59.678C665.179 59.8367 665.482 59.916 665.837 59.916C666.182 59.916 666.49 59.8367 666.761 59.678ZM668.553 58.992C668.31 59.5053 667.969 59.9207 667.531 60.238C667.092 60.5647 666.527 60.728 665.837 60.728C665.165 60.728 664.614 60.5647 664.185 60.238C663.765 59.9207 663.433 59.5053 663.191 58.992C662.957 58.4693 662.794 57.8813 662.701 57.228C662.617 56.5747 662.575 55.912 662.575 55.24C662.575 54.568 662.617 53.9053 662.701 53.252C662.794 52.5893 662.957 51.9967 663.191 51.474C663.433 50.942 663.765 50.5173 664.185 50.2C664.614 49.8733 665.165 49.71 665.837 49.71C666.527 49.71 667.092 49.8733 667.531 50.2C667.969 50.5173 668.31 50.942 668.553 51.474C668.805 51.9967 668.977 52.5893 669.071 53.252C669.164 53.9053 669.211 54.568 669.211 55.24C669.211 55.912 669.164 56.5747 669.071 57.228C668.977 57.872 668.805 58.46 668.553 58.992Z" fill="black" fill-opacity="0.7"/>
<path d="M38.944 93.948H32.966C32.8633 93.948 32.7933 93.9293 32.756 93.892C32.728 93.864 32.714 93.7987 32.714 93.696V93.024L33.54 92.198C33.876 91.862 34.2307 91.4933 34.604 91.092C34.9867 90.6813 35.3693 90.2567 35.752 89.818C36.1347 89.37 36.4753 88.9313 36.774 88.502C37.082 88.0633 37.3293 87.6433 37.516 87.242C37.712 86.8407 37.81 86.4813 37.81 86.164C37.81 85.8467 37.754 85.562 37.642 85.31C37.5393 85.058 37.3947 84.848 37.208 84.68C37.0213 84.5027 36.7973 84.372 36.536 84.288C36.284 84.1947 36.0087 84.148 35.71 84.148C35.43 84.148 35.164 84.204 34.912 84.316C34.6693 84.428 34.4593 84.582 34.282 84.778C34.1047 84.9647 33.9647 85.1887 33.862 85.45C33.7593 85.702 33.708 85.9727 33.708 86.262H32.798C32.798 85.8327 32.8727 85.4407 33.022 85.086C33.1713 84.7313 33.3767 84.428 33.638 84.176C33.8993 83.924 34.212 83.7327 34.576 83.602C34.94 83.462 35.332 83.392 35.752 83.392C36.1813 83.392 36.5733 83.448 36.928 83.56C37.292 83.672 37.6047 83.84 37.866 84.064C38.1367 84.288 38.3467 84.5727 38.496 84.918C38.6453 85.254 38.72 85.646 38.72 86.094C38.72 86.4953 38.6313 86.906 38.454 87.326C38.286 87.746 38.062 88.1707 37.782 88.6C37.502 89.0293 37.18 89.454 36.816 89.874C36.452 90.294 36.0833 90.7 35.71 91.092C35.3367 91.484 34.968 91.8573 34.604 92.212C34.24 92.5573 33.918 92.87 33.638 93.15H38.944V93.948ZM44.7607 93.178C45.0873 92.982 45.3487 92.7067 45.5447 92.352C45.7407 91.988 45.89 91.596 45.9927 91.176C46.1047 90.756 46.1747 90.3313 46.2027 89.902C46.24 89.4633 46.2587 89.076 46.2587 88.74C46.2587 88.4693 46.2493 88.166 46.2307 87.83C46.212 87.494 46.17 87.1533 46.1047 86.808C46.0487 86.4533 45.9647 86.108 45.8527 85.772C45.75 85.436 45.6053 85.1373 45.4187 84.876C45.2413 84.6147 45.022 84.4047 44.7607 84.246C44.4993 84.0873 44.1913 84.008 43.8367 84.008C43.482 84.008 43.1787 84.0873 42.9267 84.246C42.6747 84.4047 42.46 84.6147 42.2827 84.876C42.1147 85.1373 41.9793 85.436 41.8767 85.772C41.774 86.108 41.6947 86.4533 41.6387 86.808C41.592 87.1533 41.5593 87.494 41.5407 87.83C41.5313 88.166 41.5267 88.4693 41.5267 88.74C41.5267 89.0013 41.5313 89.3 41.5407 89.636C41.5593 89.972 41.592 90.3127 41.6387 90.658C41.6947 91.0033 41.774 91.344 41.8767 91.68C41.9793 92.0067 42.1147 92.3007 42.2827 92.562C42.46 92.814 42.6747 93.0193 42.9267 93.178C43.1787 93.3367 43.482 93.416 43.8367 93.416C44.182 93.416 44.49 93.3367 44.7607 93.178ZM46.5527 92.492C46.31 93.0053 45.9693 93.4207 45.5307 93.738C45.092 94.0647 44.5273 94.228 43.8367 94.228C43.1647 94.228 42.614 94.0647 42.1847 93.738C41.7647 93.4207 41.4333 93.0053 41.1907 92.492C40.9573 91.9693 40.794 91.3813 40.7007 90.728C40.6167 90.0747 40.5747 89.412 40.5747 88.74C40.5747 88.068 40.6167 87.4053 40.7007 86.752C40.794 86.0893 40.9573 85.4967 41.1907 84.974C41.4333 84.442 41.7647 84.0173 42.1847 83.7C42.614 83.3733 43.1647 83.21 43.8367 83.21C44.5273 83.21 45.092 83.3733 45.5307 83.7C45.9693 84.0173 46.31 84.442 46.5527 84.974C46.8047 85.4967 46.9773 86.0893 47.0707 86.752C47.164 87.4053 47.2107 88.068 47.2107 88.74C47.2107 89.412 47.164 90.0747 47.0707 90.728C46.9773 91.372 46.8047 91.96 46.5527 92.492ZM54.7213 93.948H48.7433C48.6407 93.948 48.5707 93.9293 48.5333 93.892C48.5053 93.864 48.4913 93.7987 48.4913 93.696V93.024L49.3173 92.198C49.6533 91.862 50.008 91.4933 50.3813 91.092C50.764 90.6813 51.1467 90.2567 51.5293 89.818C51.912 89.37 52.2527 88.9313 52.5513 88.502C52.8593 88.0633 53.1067 87.6433 53.2933 87.242C53.4893 86.8407 53.5873 86.4813 53.5873 86.164C53.5873 85.8467 53.5313 85.562 53.4193 85.31C53.3167 85.058 53.172 84.848 52.9853 84.68C52.7987 84.5027 52.5747 84.372 52.3133 84.288C52.0613 84.1947 51.786 84.148 51.4873 84.148C51.2073 84.148 50.9413 84.204 50.6893 84.316C50.4467 84.428 50.2367 84.582 50.0593 84.778C49.882 84.9647 49.742 85.1887 49.6393 85.45C49.5367 85.702 49.4853 85.9727 49.4853 86.262H48.5753C48.5753 85.8327 48.65 85.4407 48.7993 85.086C48.9487 84.7313 49.154 84.428 49.4153 84.176C49.6767 83.924 49.9893 83.7327 50.3533 83.602C50.7173 83.462 51.1093 83.392 51.5293 83.392C51.9587 83.392 52.3507 83.448 52.7053 83.56C53.0693 83.672 53.382 83.84 53.6433 84.064C53.914 84.288 54.124 84.5727 54.2733 84.918C54.4227 85.254 54.4973 85.646 54.4973 86.094C54.4973 86.4953 54.4087 86.906 54.2313 87.326C54.0633 87.746 53.8393 88.1707 53.5593 88.6C53.2793 89.0293 52.9573 89.454 52.5933 89.874C52.2293 90.294 51.8607 90.7 51.4873 91.092C51.114 91.484 50.7453 91.8573 50.3813 92.212C50.0173 92.5573 49.6953 92.87 49.4153 93.15H54.7213V93.948ZM60.538 93.178C60.8647 92.982 61.126 92.7067 61.322 92.352C61.518 91.988 61.6673 91.596 61.77 91.176C61.882 90.756 61.952 90.3313 61.98 89.902C62.0173 89.4633 62.036 89.076 62.036 88.74C62.036 88.4693 62.0267 88.166 62.008 87.83C61.9893 87.494 61.9473 87.1533 61.882 86.808C61.826 86.4533 61.742 86.108 61.63 85.772C61.5273 85.436 61.3827 85.1373 61.196 84.876C61.0187 84.6147 60.7993 84.4047 60.538 84.246C60.2767 84.0873 59.9687 84.008 59.614 84.008C59.2593 84.008 58.956 84.0873 58.704 84.246C58.452 84.4047 58.2373 84.6147 58.06 84.876C57.892 85.1373 57.7567 85.436 57.654 85.772C57.5513 86.108 57.472 86.4533 57.416 86.808C57.3693 87.1533 57.3367 87.494 57.318 87.83C57.3087 88.166 57.304 88.4693 57.304 88.74C57.304 89.0013 57.3087 89.3 57.318 89.636C57.3367 89.972 57.3693 90.3127 57.416 90.658C57.472 91.0033 57.5513 91.344 57.654 91.68C57.7567 92.0067 57.892 92.3007 58.06 92.562C58.2373 92.814 58.452 93.0193 58.704 93.178C58.956 93.3367 59.2593 93.416 59.614 93.416C59.9593 93.416 60.2673 93.3367 60.538 93.178ZM62.33 92.492C62.0873 93.0053 61.7467 93.4207 61.308 93.738C60.8693 94.0647 60.3047 94.228 59.614 94.228C58.942 94.228 58.3913 94.0647 57.962 93.738C57.542 93.4207 57.2107 93.0053 56.968 92.492C56.7347 91.9693 56.5713 91.3813 56.478 90.728C56.394 90.0747 56.352 89.412 56.352 88.74C56.352 88.068 56.394 87.4053 56.478 86.752C56.5713 86.0893 56.7347 85.4967 56.968 84.974C57.2107 84.442 57.542 84.0173 57.962 83.7C58.3913 83.3733 58.942 83.21 59.614 83.21C60.3047 83.21 60.8693 83.3733 61.308 83.7C61.7467 84.0173 62.0873 84.442 62.33 84.974C62.582 85.4967 62.7547 86.0893 62.848 86.752C62.9413 87.4053 62.988 88.068 62.988 88.74C62.988 89.412 62.9413 90.0747 62.848 90.728C62.7547 91.372 62.582 91.96 62.33 92.492Z" fill="black" fill-opacity="0.7"/>
<path d="M38.944 138.948H32.966C32.8633 138.948 32.7933 138.929 32.756 138.892C32.728 138.864 32.714 138.799 32.714 138.696V138.024L33.54 137.198C33.876 136.862 34.2307 136.493 34.604 136.092C34.9867 135.681 35.3693 135.257 35.752 134.818C36.1347 134.37 36.4753 133.931 36.774 133.502C37.082 133.063 37.3293 132.643 37.516 132.242C37.712 131.841 37.81 131.481 37.81 131.164C37.81 130.847 37.754 130.562 37.642 130.31C37.5393 130.058 37.3947 129.848 37.208 129.68C37.0213 129.503 36.7973 129.372 36.536 129.288C36.284 129.195 36.0087 129.148 35.71 129.148C35.43 129.148 35.164 129.204 34.912 129.316C34.6693 129.428 34.4593 129.582 34.282 129.778C34.1047 129.965 33.9647 130.189 33.862 130.45C33.7593 130.702 33.708 130.973 33.708 131.262H32.798C32.798 130.833 32.8727 130.441 33.022 130.086C33.1713 129.731 33.3767 129.428 33.638 129.176C33.8993 128.924 34.212 128.733 34.576 128.602C34.94 128.462 35.332 128.392 35.752 128.392C36.1813 128.392 36.5733 128.448 36.928 128.56C37.292 128.672 37.6047 128.84 37.866 129.064C38.1367 129.288 38.3467 129.573 38.496 129.918C38.6453 130.254 38.72 130.646 38.72 131.094C38.72 131.495 38.6313 131.906 38.454 132.326C38.286 132.746 38.062 133.171 37.782 133.6C37.502 134.029 37.18 134.454 36.816 134.874C36.452 135.294 36.0833 135.7 35.71 136.092C35.3367 136.484 34.968 136.857 34.604 137.212C34.24 137.557 33.918 137.87 33.638 138.15H38.944V138.948ZM44.7607 138.178C45.0873 137.982 45.3487 137.707 45.5447 137.352C45.7407 136.988 45.89 136.596 45.9927 136.176C46.1047 135.756 46.1747 135.331 46.2027 134.902C46.24 134.463 46.2587 134.076 46.2587 133.74C46.2587 133.469 46.2493 133.166 46.2307 132.83C46.212 132.494 46.17 132.153 46.1047 131.808C46.0487 131.453 45.9647 131.108 45.8527 130.772C45.75 130.436 45.6053 130.137 45.4187 129.876C45.2413 129.615 45.022 129.405 44.7607 129.246C44.4993 129.087 44.1913 129.008 43.8367 129.008C43.482 129.008 43.1787 129.087 42.9267 129.246C42.6747 129.405 42.46 129.615 42.2827 129.876C42.1147 130.137 41.9793 130.436 41.8767 130.772C41.774 131.108 41.6947 131.453 41.6387 131.808C41.592 132.153 41.5593 132.494 41.5407 132.83C41.5313 133.166 41.5267 133.469 41.5267 133.74C41.5267 134.001 41.5313 134.3 41.5407 134.636C41.5593 134.972 41.592 135.313 41.6387 135.658C41.6947 136.003 41.774 136.344 41.8767 136.68C41.9793 137.007 42.1147 137.301 42.2827 137.562C42.46 137.814 42.6747 138.019 42.9267 138.178C43.1787 138.337 43.482 138.416 43.8367 138.416C44.182 138.416 44.49 138.337 44.7607 138.178ZM46.5527 137.492C46.31 138.005 45.9693 138.421 45.5307 138.738C45.092 139.065 44.5273 139.228 43.8367 139.228C43.1647 139.228 42.614 139.065 42.1847 138.738C41.7647 138.421 41.4333 138.005 41.1907 137.492C40.9573 136.969 40.794 136.381 40.7007 135.728C40.6167 135.075 40.5747 134.412 40.5747 133.74C40.5747 133.068 40.6167 132.405 40.7007 131.752C40.794 131.089 40.9573 130.497 41.1907 129.974C41.4333 129.442 41.7647 129.017 42.1847 128.7C42.614 128.373 43.1647 128.21 43.8367 128.21C44.5273 128.21 45.092 128.373 45.5307 128.7C45.9693 129.017 46.31 129.442 46.5527 129.974C46.8047 130.497 46.9773 131.089 47.0707 131.752C47.164 132.405 47.2107 133.068 47.2107 133.74C47.2107 134.412 47.164 135.075 47.0707 135.728C46.9773 136.372 46.8047 136.96 46.5527 137.492ZM54.7213 138.948H48.7433C48.6407 138.948 48.5707 138.929 48.5333 138.892C48.5053 138.864 48.4913 138.799 48.4913 138.696V138.024L49.3173 137.198C49.6533 136.862 50.008 136.493 50.3813 136.092C50.764 135.681 51.1467 135.257 51.5293 134.818C51.912 134.37 52.2527 133.931 52.5513 133.502C52.8593 133.063 53.1067 132.643 53.2933 132.242C53.4893 131.841 53.5873 131.481 53.5873 131.164C53.5873 130.847 53.5313 130.562 53.4193 130.31C53.3167 130.058 53.172 129.848 52.9853 129.68C52.7987 129.503 52.5747 129.372 52.3133 129.288C52.0613 129.195 51.786 129.148 51.4873 129.148C51.2073 129.148 50.9413 129.204 50.6893 129.316C50.4467 129.428 50.2367 129.582 50.0593 129.778C49.882 129.965 49.742 130.189 49.6393 130.45C49.5367 130.702 49.4853 130.973 49.4853 131.262H48.5753C48.5753 130.833 48.65 130.441 48.7993 130.086C48.9487 129.731 49.154 129.428 49.4153 129.176C49.6767 128.924 49.9893 128.733 50.3533 128.602C50.7173 128.462 51.1093 128.392 51.5293 128.392C51.9587 128.392 52.3507 128.448 52.7053 128.56C53.0693 128.672 53.382 128.84 53.6433 129.064C53.914 129.288 54.124 129.573 54.2733 129.918C54.4227 130.254 54.4973 130.646 54.4973 131.094C54.4973 131.495 54.4087 131.906 54.2313 132.326C54.0633 132.746 53.8393 133.171 53.5593 133.6C53.2793 134.029 52.9573 134.454 52.5933 134.874C52.2293 135.294 51.8607 135.7 51.4873 136.092C51.114 136.484 50.7453 136.857 50.3813 137.212C50.0173 137.557 49.6953 137.87 49.4153 138.15H54.7213V138.948ZM60.454 138.948H59.558V129.638C59.2033 130.011 58.8393 130.319 58.466 130.562C58.102 130.795 57.724 131.005 57.332 131.192V130.268C57.724 130.091 58.1067 129.862 58.48 129.582C58.8627 129.293 59.2127 128.98 59.53 128.644H60.202C60.3047 128.644 60.37 128.663 60.398 128.7C60.4353 128.728 60.454 128.793 60.454 128.896V138.948Z" fill="black" fill-opacity="0.7"/>
<path d="M38.944 183.948H32.966C32.8633 183.948 32.7933 183.929 32.756 183.892C32.728 183.864 32.714 183.799 32.714 183.696V183.024L33.54 182.198C33.876 181.862 34.2307 181.493 34.604 181.092C34.9867 180.681 35.3693 180.257 35.752 179.818C36.1347 179.37 36.4753 178.931 36.774 178.502C37.082 178.063 37.3293 177.643 37.516 177.242C37.712 176.841 37.81 176.481 37.81 176.164C37.81 175.847 37.754 175.562 37.642 175.31C37.5393 175.058 37.3947 174.848 37.208 174.68C37.0213 174.503 36.7973 174.372 36.536 174.288C36.284 174.195 36.0087 174.148 35.71 174.148C35.43 174.148 35.164 174.204 34.912 174.316C34.6693 174.428 34.4593 174.582 34.282 174.778C34.1047 174.965 33.9647 175.189 33.862 175.45C33.7593 175.702 33.708 175.973 33.708 176.262H32.798C32.798 175.833 32.8727 175.441 33.022 175.086C33.1713 174.731 33.3767 174.428 33.638 174.176C33.8993 173.924 34.212 173.733 34.576 173.602C34.94 173.462 35.332 173.392 35.752 173.392C36.1813 173.392 36.5733 173.448 36.928 173.56C37.292 173.672 37.6047 173.84 37.866 174.064C38.1367 174.288 38.3467 174.573 38.496 174.918C38.6453 175.254 38.72 175.646 38.72 176.094C38.72 176.495 38.6313 176.906 38.454 177.326C38.286 177.746 38.062 178.171 37.782 178.6C37.502 179.029 37.18 179.454 36.816 179.874C36.452 180.294 36.0833 180.7 35.71 181.092C35.3367 181.484 34.968 181.857 34.604 182.212C34.24 182.557 33.918 182.87 33.638 183.15H38.944V183.948ZM44.7607 183.178C45.0873 182.982 45.3487 182.707 45.5447 182.352C45.7407 181.988 45.89 181.596 45.9927 181.176C46.1047 180.756 46.1747 180.331 46.2027 179.902C46.24 179.463 46.2587 179.076 46.2587 178.74C46.2587 178.469 46.2493 178.166 46.2307 177.83C46.212 177.494 46.17 177.153 46.1047 176.808C46.0487 176.453 45.9647 176.108 45.8527 175.772C45.75 175.436 45.6053 175.137 45.4187 174.876C45.2413 174.615 45.022 174.405 44.7607 174.246C44.4993 174.087 44.1913 174.008 43.8367 174.008C43.482 174.008 43.1787 174.087 42.9267 174.246C42.6747 174.405 42.46 174.615 42.2827 174.876C42.1147 175.137 41.9793 175.436 41.8767 175.772C41.774 176.108 41.6947 176.453 41.6387 176.808C41.592 177.153 41.5593 177.494 41.5407 177.83C41.5313 178.166 41.5267 178.469 41.5267 178.74C41.5267 179.001 41.5313 179.3 41.5407 179.636C41.5593 179.972 41.592 180.313 41.6387 180.658C41.6947 181.003 41.774 181.344 41.8767 181.68C41.9793 182.007 42.1147 182.301 42.2827 182.562C42.46 182.814 42.6747 183.019 42.9267 183.178C43.1787 183.337 43.482 183.416 43.8367 183.416C44.182 183.416 44.49 183.337 44.7607 183.178ZM46.5527 182.492C46.31 183.005 45.9693 183.421 45.5307 183.738C45.092 184.065 44.5273 184.228 43.8367 184.228C43.1647 184.228 42.614 184.065 42.1847 183.738C41.7647 183.421 41.4333 183.005 41.1907 182.492C40.9573 181.969 40.794 181.381 40.7007 180.728C40.6167 180.075 40.5747 179.412 40.5747 178.74C40.5747 178.068 40.6167 177.405 40.7007 176.752C40.794 176.089 40.9573 175.497 41.1907 174.974C41.4333 174.442 41.7647 174.017 42.1847 173.7C42.614 173.373 43.1647 173.21 43.8367 173.21C44.5273 173.21 45.092 173.373 45.5307 173.7C45.9693 174.017 46.31 174.442 46.5527 174.974C46.8047 175.497 46.9773 176.089 47.0707 176.752C47.164 177.405 47.2107 178.068 47.2107 178.74C47.2107 179.412 47.164 180.075 47.0707 180.728C46.9773 181.372 46.8047 181.96 46.5527 182.492ZM54.7213 183.948H48.7433C48.6407 183.948 48.5707 183.929 48.5333 183.892C48.5053 183.864 48.4913 183.799 48.4913 183.696V183.024L49.3173 182.198C49.6533 181.862 50.008 181.493 50.3813 181.092C50.764 180.681 51.1467 180.257 51.5293 179.818C51.912 179.37 52.2527 178.931 52.5513 178.502C52.8593 178.063 53.1067 177.643 53.2933 177.242C53.4893 176.841 53.5873 176.481 53.5873 176.164C53.5873 175.847 53.5313 175.562 53.4193 175.31C53.3167 175.058 53.172 174.848 52.9853 174.68C52.7987 174.503 52.5747 174.372 52.3133 174.288C52.0613 174.195 51.786 174.148 51.4873 174.148C51.2073 174.148 50.9413 174.204 50.6893 174.316C50.4467 174.428 50.2367 174.582 50.0593 174.778C49.882 174.965 49.742 175.189 49.6393 175.45C49.5367 175.702 49.4853 175.973 49.4853 176.262H48.5753C48.5753 175.833 48.65 175.441 48.7993 175.086C48.9487 174.731 49.154 174.428 49.4153 174.176C49.6767 173.924 49.9893 173.733 50.3533 173.602C50.7173 173.462 51.1093 173.392 51.5293 173.392C51.9587 173.392 52.3507 173.448 52.7053 173.56C53.0693 173.672 53.382 173.84 53.6433 174.064C53.914 174.288 54.124 174.573 54.2733 174.918C54.4227 175.254 54.4973 175.646 54.4973 176.094C54.4973 176.495 54.4087 176.906 54.2313 177.326C54.0633 177.746 53.8393 178.171 53.5593 178.6C53.2793 179.029 52.9573 179.454 52.5933 179.874C52.2293 180.294 51.8607 180.7 51.4873 181.092C51.114 181.484 50.7453 181.857 50.3813 182.212C50.0173 182.557 49.6953 182.87 49.4153 183.15H54.7213V183.948ZM62.61 183.948H56.632C56.5293 183.948 56.4593 183.929 56.422 183.892C56.394 183.864 56.38 183.799 56.38 183.696V183.024L57.206 182.198C57.542 181.862 57.8967 181.493 58.27 181.092C58.6527 180.681 59.0353 180.257 59.418 179.818C59.8007 179.37 60.1413 178.931 60.44 178.502C60.748 178.063 60.9953 177.643 61.182 177.242C61.378 176.841 61.476 176.481 61.476 176.164C61.476 175.847 61.42 175.562 61.308 175.31C61.2053 175.058 61.0607 174.848 60.874 174.68C60.6873 174.503 60.4633 174.372 60.202 174.288C59.95 174.195 59.6747 174.148 59.376 174.148C59.096 174.148 58.83 174.204 58.578 174.316C58.3353 174.428 58.1253 174.582 57.948 174.778C57.7707 174.965 57.6307 175.189 57.528 175.45C57.4253 175.702 57.374 175.973 57.374 176.262H56.464C56.464 175.833 56.5387 175.441 56.688 175.086C56.8373 174.731 57.0427 174.428 57.304 174.176C57.5653 173.924 57.878 173.733 58.242 173.602C58.606 173.462 58.998 173.392 59.418 173.392C59.8473 173.392 60.2393 173.448 60.594 173.56C60.958 173.672 61.2707 173.84 61.532 174.064C61.8027 174.288 62.0127 174.573 62.162 174.918C62.3113 175.254 62.386 175.646 62.386 176.094C62.386 176.495 62.2973 176.906 62.12 177.326C61.952 177.746 61.728 178.171 61.448 178.6C61.168 179.029 60.846 179.454 60.482 179.874C60.118 180.294 59.7493 180.7 59.376 181.092C59.0027 181.484 58.634 181.857 58.27 182.212C57.906 182.557 57.584 182.87 57.304 183.15H62.61V183.948Z" fill="black" fill-opacity="0.7"/>
<path d="M38.944 228.948H32.966C32.8633 228.948 32.7933 228.929 32.756 228.892C32.728 228.864 32.714 228.799 32.714 228.696V228.024L33.54 227.198C33.876 226.862 34.2307 226.493 34.604 226.092C34.9867 225.681 35.3693 225.257 35.752 224.818C36.1347 224.37 36.4753 223.931 36.774 223.502C37.082 223.063 37.3293 222.643 37.516 222.242C37.712 221.841 37.81 221.481 37.81 221.164C37.81 220.847 37.754 220.562 37.642 220.31C37.5393 220.058 37.3947 219.848 37.208 219.68C37.0213 219.503 36.7973 219.372 36.536 219.288C36.284 219.195 36.0087 219.148 35.71 219.148C35.43 219.148 35.164 219.204 34.912 219.316C34.6693 219.428 34.4593 219.582 34.282 219.778C34.1047 219.965 33.9647 220.189 33.862 220.45C33.7593 220.702 33.708 220.973 33.708 221.262H32.798C32.798 220.833 32.8727 220.441 33.022 220.086C33.1713 219.731 33.3767 219.428 33.638 219.176C33.8993 218.924 34.212 218.733 34.576 218.602C34.94 218.462 35.332 218.392 35.752 218.392C36.1813 218.392 36.5733 218.448 36.928 218.56C37.292 218.672 37.6047 218.84 37.866 219.064C38.1367 219.288 38.3467 219.573 38.496 219.918C38.6453 220.254 38.72 220.646 38.72 221.094C38.72 221.495 38.6313 221.906 38.454 222.326C38.286 222.746 38.062 223.171 37.782 223.6C37.502 224.029 37.18 224.454 36.816 224.874C36.452 225.294 36.0833 225.7 35.71 226.092C35.3367 226.484 34.968 226.857 34.604 227.212C34.24 227.557 33.918 227.87 33.638 228.15H38.944V228.948ZM44.7607 228.178C45.0873 227.982 45.3487 227.707 45.5447 227.352C45.7407 226.988 45.89 226.596 45.9927 226.176C46.1047 225.756 46.1747 225.331 46.2027 224.902C46.24 224.463 46.2587 224.076 46.2587 223.74C46.2587 223.469 46.2493 223.166 46.2307 222.83C46.212 222.494 46.17 222.153 46.1047 221.808C46.0487 221.453 45.9647 221.108 45.8527 220.772C45.75 220.436 45.6053 220.137 45.4187 219.876C45.2413 219.615 45.022 219.405 44.7607 219.246C44.4993 219.087 44.1913 219.008 43.8367 219.008C43.482 219.008 43.1787 219.087 42.9267 219.246C42.6747 219.405 42.46 219.615 42.2827 219.876C42.1147 220.137 41.9793 220.436 41.8767 220.772C41.774 221.108 41.6947 221.453 41.6387 221.808C41.592 222.153 41.5593 222.494 41.5407 222.83C41.5313 223.166 41.5267 223.469 41.5267 223.74C41.5267 224.001 41.5313 224.3 41.5407 224.636C41.5593 224.972 41.592 225.313 41.6387 225.658C41.6947 226.003 41.774 226.344 41.8767 226.68C41.9793 227.007 42.1147 227.301 42.2827 227.562C42.46 227.814 42.6747 228.019 42.9267 228.178C43.1787 228.337 43.482 228.416 43.8367 228.416C44.182 228.416 44.49 228.337 44.7607 228.178ZM46.5527 227.492C46.31 228.005 45.9693 228.421 45.5307 228.738C45.092 229.065 44.5273 229.228 43.8367 229.228C43.1647 229.228 42.614 229.065 42.1847 228.738C41.7647 228.421 41.4333 228.005 41.1907 227.492C40.9573 226.969 40.794 226.381 40.7007 225.728C40.6167 225.075 40.5747 224.412 40.5747 223.74C40.5747 223.068 40.6167 222.405 40.7007 221.752C40.794 221.089 40.9573 220.497 41.1907 219.974C41.4333 219.442 41.7647 219.017 42.1847 218.7C42.614 218.373 43.1647 218.21 43.8367 218.21C44.5273 218.21 45.092 218.373 45.5307 218.7C45.9693 219.017 46.31 219.442 46.5527 219.974C46.8047 220.497 46.9773 221.089 47.0707 221.752C47.164 222.405 47.2107 223.068 47.2107 223.74C47.2107 224.412 47.164 225.075 47.0707 225.728C46.9773 226.372 46.8047 226.96 46.5527 227.492ZM54.7213 228.948H48.7433C48.6407 228.948 48.5707 228.929 48.5333 228.892C48.5053 228.864 48.4913 228.799 48.4913 228.696V228.024L49.3173 227.198C49.6533 226.862 50.008 226.493 50.3813 226.092C50.764 225.681 51.1467 225.257 51.5293 224.818C51.912 224.37 52.2527 223.931 52.5513 223.502C52.8593 223.063 53.1067 222.643 53.2933 222.242C53.4893 221.841 53.5873 221.481 53.5873 221.164C53.5873 220.847 53.5313 220.562 53.4193 220.31C53.3167 220.058 53.172 219.848 52.9853 219.68C52.7987 219.503 52.5747 219.372 52.3133 219.288C52.0613 219.195 51.786 219.148 51.4873 219.148C51.2073 219.148 50.9413 219.204 50.6893 219.316C50.4467 219.428 50.2367 219.582 50.0593 219.778C49.882 219.965 49.742 220.189 49.6393 220.45C49.5367 220.702 49.4853 220.973 49.4853 221.262H48.5753C48.5753 220.833 48.65 220.441 48.7993 220.086C48.9487 219.731 49.154 219.428 49.4153 219.176C49.6767 218.924 49.9893 218.733 50.3533 218.602C50.7173 218.462 51.1093 218.392 51.5293 218.392C51.9587 218.392 52.3507 218.448 52.7053 218.56C53.0693 218.672 53.382 218.84 53.6433 219.064C53.914 219.288 54.124 219.573 54.2733 219.918C54.4227 220.254 54.4973 220.646 54.4973 221.094C54.4973 221.495 54.4087 221.906 54.2313 222.326C54.0633 222.746 53.8393 223.171 53.5593 223.6C53.2793 224.029 52.9573 224.454 52.5933 224.874C52.2293 225.294 51.8607 225.7 51.4873 226.092C51.114 226.484 50.7453 226.857 50.3813 227.212C50.0173 227.557 49.6953 227.87 49.4153 228.15H54.7213V228.948ZM57.052 226.302C57.1173 226.955 57.3507 227.469 57.752 227.842C58.1627 228.215 58.718 228.402 59.418 228.402C60.146 228.402 60.7247 228.201 61.154 227.8C61.5927 227.389 61.812 226.834 61.812 226.134C61.812 225.789 61.7373 225.485 61.588 225.224C61.448 224.953 61.2613 224.729 61.028 224.552C60.804 224.375 60.5427 224.239 60.244 224.146C59.9547 224.053 59.656 224.001 59.348 223.992H58.872C58.7787 223.992 58.718 223.983 58.69 223.964C58.6713 223.936 58.662 223.875 58.662 223.782V223.362C58.662 223.269 58.6713 223.213 58.69 223.194C58.718 223.166 58.7787 223.152 58.872 223.152H59.25C59.5767 223.143 59.88 223.096 60.16 223.012C60.44 222.919 60.6827 222.788 60.888 222.62C61.1027 222.452 61.2707 222.247 61.392 222.004C61.5133 221.761 61.5787 221.477 61.588 221.15C61.588 220.833 61.532 220.553 61.42 220.31C61.308 220.067 61.1493 219.862 60.944 219.694C60.748 219.526 60.5147 219.4 60.244 219.316C59.9827 219.232 59.698 219.19 59.39 219.19C58.746 219.19 58.2373 219.358 57.864 219.694C57.4907 220.03 57.2713 220.497 57.206 221.094H56.282C56.2913 220.674 56.3707 220.301 56.52 219.974C56.6787 219.638 56.8933 219.353 57.164 219.12C57.444 218.887 57.7753 218.709 58.158 218.588C58.5407 218.457 58.9653 218.392 59.432 218.392C59.852 218.392 60.244 218.453 60.608 218.574C60.9813 218.686 61.308 218.859 61.588 219.092C61.868 219.325 62.0873 219.615 62.246 219.96C62.414 220.305 62.498 220.707 62.498 221.164C62.498 221.444 62.456 221.71 62.372 221.962C62.288 222.214 62.1573 222.447 61.98 222.662C61.812 222.867 61.588 223.049 61.308 223.208C61.028 223.367 60.692 223.488 60.3 223.572C60.7107 223.628 61.0653 223.735 61.364 223.894C61.672 224.053 61.924 224.253 62.12 224.496C62.3253 224.729 62.4747 224.995 62.568 225.294C62.6707 225.583 62.722 225.896 62.722 226.232C62.722 226.736 62.6287 227.175 62.442 227.548C62.2553 227.912 62.008 228.22 61.7 228.472C61.392 228.715 61.0327 228.897 60.622 229.018C60.2207 229.139 59.8053 229.2 59.376 229.2C58.3587 229.2 57.57 228.943 57.01 228.43C56.45 227.917 56.1607 227.207 56.142 226.302H57.052Z" fill="black" fill-opacity="0.7"/>
<path d="M38.944 273.948H32.966C32.8633 273.948 32.7933 273.929 32.756 273.892C32.728 273.864 32.714 273.799 32.714 273.696V273.024L33.54 272.198C33.876 271.862 34.2307 271.493 34.604 271.092C34.9867 270.681 35.3693 270.257 35.752 269.818C36.1347 269.37 36.4753 268.931 36.774 268.502C37.082 268.063 37.3293 267.643 37.516 267.242C37.712 266.841 37.81 266.481 37.81 266.164C37.81 265.847 37.754 265.562 37.642 265.31C37.5393 265.058 37.3947 264.848 37.208 264.68C37.0213 264.503 36.7973 264.372 36.536 264.288C36.284 264.195 36.0087 264.148 35.71 264.148C35.43 264.148 35.164 264.204 34.912 264.316C34.6693 264.428 34.4593 264.582 34.282 264.778C34.1047 264.965 33.9647 265.189 33.862 265.45C33.7593 265.702 33.708 265.973 33.708 266.262H32.798C32.798 265.833 32.8727 265.441 33.022 265.086C33.1713 264.731 33.3767 264.428 33.638 264.176C33.8993 263.924 34.212 263.733 34.576 263.602C34.94 263.462 35.332 263.392 35.752 263.392C36.1813 263.392 36.5733 263.448 36.928 263.56C37.292 263.672 37.6047 263.84 37.866 264.064C38.1367 264.288 38.3467 264.573 38.496 264.918C38.6453 265.254 38.72 265.646 38.72 266.094C38.72 266.495 38.6313 266.906 38.454 267.326C38.286 267.746 38.062 268.171 37.782 268.6C37.502 269.029 37.18 269.454 36.816 269.874C36.452 270.294 36.0833 270.7 35.71 271.092C35.3367 271.484 34.968 271.857 34.604 272.212C34.24 272.557 33.918 272.87 33.638 273.15H38.944V273.948ZM44.7607 273.178C45.0873 272.982 45.3487 272.707 45.5447 272.352C45.7407 271.988 45.89 271.596 45.9927 271.176C46.1047 270.756 46.1747 270.331 46.2027 269.902C46.24 269.463 46.2587 269.076 46.2587 268.74C46.2587 268.469 46.2493 268.166 46.2307 267.83C46.212 267.494 46.17 267.153 46.1047 266.808C46.0487 266.453 45.9647 266.108 45.8527 265.772C45.75 265.436 45.6053 265.137 45.4187 264.876C45.2413 264.615 45.022 264.405 44.7607 264.246C44.4993 264.087 44.1913 264.008 43.8367 264.008C43.482 264.008 43.1787 264.087 42.9267 264.246C42.6747 264.405 42.46 264.615 42.2827 264.876C42.1147 265.137 41.9793 265.436 41.8767 265.772C41.774 266.108 41.6947 266.453 41.6387 266.808C41.592 267.153 41.5593 267.494 41.5407 267.83C41.5313 268.166 41.5267 268.469 41.5267 268.74C41.5267 269.001 41.5313 269.3 41.5407 269.636C41.5593 269.972 41.592 270.313 41.6387 270.658C41.6947 271.003 41.774 271.344 41.8767 271.68C41.9793 272.007 42.1147 272.301 42.2827 272.562C42.46 272.814 42.6747 273.019 42.9267 273.178C43.1787 273.337 43.482 273.416 43.8367 273.416C44.182 273.416 44.49 273.337 44.7607 273.178ZM46.5527 272.492C46.31 273.005 45.9693 273.421 45.5307 273.738C45.092 274.065 44.5273 274.228 43.8367 274.228C43.1647 274.228 42.614 274.065 42.1847 273.738C41.7647 273.421 41.4333 273.005 41.1907 272.492C40.9573 271.969 40.794 271.381 40.7007 270.728C40.6167 270.075 40.5747 269.412 40.5747 268.74C40.5747 268.068 40.6167 267.405 40.7007 266.752C40.794 266.089 40.9573 265.497 41.1907 264.974C41.4333 264.442 41.7647 264.017 42.1847 263.7C42.614 263.373 43.1647 263.21 43.8367 263.21C44.5273 263.21 45.092 263.373 45.5307 263.7C45.9693 264.017 46.31 264.442 46.5527 264.974C46.8047 265.497 46.9773 266.089 47.0707 266.752C47.164 267.405 47.2107 268.068 47.2107 268.74C47.2107 269.412 47.164 270.075 47.0707 270.728C46.9773 271.372 46.8047 271.96 46.5527 272.492ZM54.7213 273.948H48.7433C48.6407 273.948 48.5707 273.929 48.5333 273.892C48.5053 273.864 48.4913 273.799 48.4913 273.696V273.024L49.3173 272.198C49.6533 271.862 50.008 271.493 50.3813 271.092C50.764 270.681 51.1467 270.257 51.5293 269.818C51.912 269.37 52.2527 268.931 52.5513 268.502C52.8593 268.063 53.1067 267.643 53.2933 267.242C53.4893 266.841 53.5873 266.481 53.5873 266.164C53.5873 265.847 53.5313 265.562 53.4193 265.31C53.3167 265.058 53.172 264.848 52.9853 264.68C52.7987 264.503 52.5747 264.372 52.3133 264.288C52.0613 264.195 51.786 264.148 51.4873 264.148C51.2073 264.148 50.9413 264.204 50.6893 264.316C50.4467 264.428 50.2367 264.582 50.0593 264.778C49.882 264.965 49.742 265.189 49.6393 265.45C49.5367 265.702 49.4853 265.973 49.4853 266.262H48.5753C48.5753 265.833 48.65 265.441 48.7993 265.086C48.9487 264.731 49.154 264.428 49.4153 264.176C49.6767 263.924 49.9893 263.733 50.3533 263.602C50.7173 263.462 51.1093 263.392 51.5293 263.392C51.9587 263.392 52.3507 263.448 52.7053 263.56C53.0693 263.672 53.382 263.84 53.6433 264.064C53.914 264.288 54.124 264.573 54.2733 264.918C54.4227 265.254 54.4973 265.646 54.4973 266.094C54.4973 266.495 54.4087 266.906 54.2313 267.326C54.0633 267.746 53.8393 268.171 53.5593 268.6C53.2793 269.029 52.9573 269.454 52.5933 269.874C52.2293 270.294 51.8607 270.7 51.4873 271.092C51.114 271.484 50.7453 271.857 50.3813 272.212C50.0173 272.557 49.6953 272.87 49.4153 273.15H54.7213V273.948ZM60.706 270.854V265.996L60.748 264.246L56.772 270.854H60.706ZM61.56 273.948H60.678V271.652H56.226C56.1233 271.652 56.0533 271.638 56.016 271.61C55.988 271.573 55.974 271.503 55.974 271.4V270.882C55.974 270.761 56.016 270.635 56.1 270.504L60.244 263.616C60.2813 263.532 60.356 263.49 60.468 263.49H61.308C61.4107 263.49 61.476 263.509 61.504 263.546C61.5413 263.574 61.56 263.639 61.56 263.742V270.854H63.128V271.652H61.56V273.948Z" fill="black" fill-opacity="0.7"/>
<path d="M38.944 318.948H32.966C32.8633 318.948 32.7933 318.929 32.756 318.892C32.728 318.864 32.714 318.799 32.714 318.696V318.024L33.54 317.198C33.876 316.862 34.2307 316.493 34.604 316.092C34.9867 315.681 35.3693 315.257 35.752 314.818C36.1347 314.37 36.4753 313.931 36.774 313.502C37.082 313.063 37.3293 312.643 37.516 312.242C37.712 311.841 37.81 311.481 37.81 311.164C37.81 310.847 37.754 310.562 37.642 310.31C37.5393 310.058 37.3947 309.848 37.208 309.68C37.0213 309.503 36.7973 309.372 36.536 309.288C36.284 309.195 36.0087 309.148 35.71 309.148C35.43 309.148 35.164 309.204 34.912 309.316C34.6693 309.428 34.4593 309.582 34.282 309.778C34.1047 309.965 33.9647 310.189 33.862 310.45C33.7593 310.702 33.708 310.973 33.708 311.262H32.798C32.798 310.833 32.8727 310.441 33.022 310.086C33.1713 309.731 33.3767 309.428 33.638 309.176C33.8993 308.924 34.212 308.733 34.576 308.602C34.94 308.462 35.332 308.392 35.752 308.392C36.1813 308.392 36.5733 308.448 36.928 308.56C37.292 308.672 37.6047 308.84 37.866 309.064C38.1367 309.288 38.3467 309.573 38.496 309.918C38.6453 310.254 38.72 310.646 38.72 311.094C38.72 311.495 38.6313 311.906 38.454 312.326C38.286 312.746 38.062 313.171 37.782 313.6C37.502 314.029 37.18 314.454 36.816 314.874C36.452 315.294 36.0833 315.7 35.71 316.092C35.3367 316.484 34.968 316.857 34.604 317.212C34.24 317.557 33.918 317.87 33.638 318.15H38.944V318.948ZM44.7607 318.178C45.0873 317.982 45.3487 317.707 45.5447 317.352C45.7407 316.988 45.89 316.596 45.9927 316.176C46.1047 315.756 46.1747 315.331 46.2027 314.902C46.24 314.463 46.2587 314.076 46.2587 313.74C46.2587 313.469 46.2493 313.166 46.2307 312.83C46.212 312.494 46.17 312.153 46.1047 311.808C46.0487 311.453 45.9647 311.108 45.8527 310.772C45.75 310.436 45.6053 310.137 45.4187 309.876C45.2413 309.615 45.022 309.405 44.7607 309.246C44.4993 309.087 44.1913 309.008 43.8367 309.008C43.482 309.008 43.1787 309.087 42.9267 309.246C42.6747 309.405 42.46 309.615 42.2827 309.876C42.1147 310.137 41.9793 310.436 41.8767 310.772C41.774 311.108 41.6947 311.453 41.6387 311.808C41.592 312.153 41.5593 312.494 41.5407 312.83C41.5313 313.166 41.5267 313.469 41.5267 313.74C41.5267 314.001 41.5313 314.3 41.5407 314.636C41.5593 314.972 41.592 315.313 41.6387 315.658C41.6947 316.003 41.774 316.344 41.8767 316.68C41.9793 317.007 42.1147 317.301 42.2827 317.562C42.46 317.814 42.6747 318.019 42.9267 318.178C43.1787 318.337 43.482 318.416 43.8367 318.416C44.182 318.416 44.49 318.337 44.7607 318.178ZM46.5527 317.492C46.31 318.005 45.9693 318.421 45.5307 318.738C45.092 319.065 44.5273 319.228 43.8367 319.228C43.1647 319.228 42.614 319.065 42.1847 318.738C41.7647 318.421 41.4333 318.005 41.1907 317.492C40.9573 316.969 40.794 316.381 40.7007 315.728C40.6167 315.075 40.5747 314.412 40.5747 313.74C40.5747 313.068 40.6167 312.405 40.7007 311.752C40.794 311.089 40.9573 310.497 41.1907 309.974C41.4333 309.442 41.7647 309.017 42.1847 308.7C42.614 308.373 43.1647 308.21 43.8367 308.21C44.5273 308.21 45.092 308.373 45.5307 308.7C45.9693 309.017 46.31 309.442 46.5527 309.974C46.8047 310.497 46.9773 311.089 47.0707 311.752C47.164 312.405 47.2107 313.068 47.2107 313.74C47.2107 314.412 47.164 315.075 47.0707 315.728C46.9773 316.372 46.8047 316.96 46.5527 317.492ZM54.7213 318.948H48.7433C48.6407 318.948 48.5707 318.929 48.5333 318.892C48.5053 318.864 48.4913 318.799 48.4913 318.696V318.024L49.3173 317.198C49.6533 316.862 50.008 316.493 50.3813 316.092C50.764 315.681 51.1467 315.257 51.5293 314.818C51.912 314.37 52.2527 313.931 52.5513 313.502C52.8593 313.063 53.1067 312.643 53.2933 312.242C53.4893 311.841 53.5873 311.481 53.5873 311.164C53.5873 310.847 53.5313 310.562 53.4193 310.31C53.3167 310.058 53.172 309.848 52.9853 309.68C52.7987 309.503 52.5747 309.372 52.3133 309.288C52.0613 309.195 51.786 309.148 51.4873 309.148C51.2073 309.148 50.9413 309.204 50.6893 309.316C50.4467 309.428 50.2367 309.582 50.0593 309.778C49.882 309.965 49.742 310.189 49.6393 310.45C49.5367 310.702 49.4853 310.973 49.4853 311.262H48.5753C48.5753 310.833 48.65 310.441 48.7993 310.086C48.9487 309.731 49.154 309.428 49.4153 309.176C49.6767 308.924 49.9893 308.733 50.3533 308.602C50.7173 308.462 51.1093 308.392 51.5293 308.392C51.9587 308.392 52.3507 308.448 52.7053 308.56C53.0693 308.672 53.382 308.84 53.6433 309.064C53.914 309.288 54.124 309.573 54.2733 309.918C54.4227 310.254 54.4973 310.646 54.4973 311.094C54.4973 311.495 54.4087 311.906 54.2313 312.326C54.0633 312.746 53.8393 313.171 53.5593 313.6C53.2793 314.029 52.9573 314.454 52.5933 314.874C52.2293 315.294 51.8607 315.7 51.4873 316.092C51.114 316.484 50.7453 316.857 50.3813 317.212C50.0173 317.557 49.6953 317.87 49.4153 318.15H54.7213V318.948ZM57.458 316.582C57.5607 317.198 57.808 317.66 58.2 317.968C58.592 318.276 59.11 318.43 59.754 318.43C60.062 318.43 60.3513 318.365 60.622 318.234C60.8927 318.103 61.126 317.921 61.322 317.688C61.5273 317.445 61.686 317.156 61.798 316.82C61.9193 316.484 61.98 316.111 61.98 315.7C61.98 315.252 61.924 314.86 61.812 314.524C61.7 314.179 61.546 313.894 61.35 313.67C61.154 313.437 60.9207 313.264 60.65 313.152C60.3793 313.031 60.0853 312.97 59.768 312.97C59.264 312.97 58.83 313.096 58.466 313.348C58.1113 313.6 57.8547 313.95 57.696 314.398C57.668 314.473 57.6353 314.519 57.598 314.538C57.57 314.557 57.5187 314.566 57.444 314.566H57.01C56.842 314.566 56.758 314.482 56.758 314.314L56.926 308.896C56.926 308.793 56.94 308.728 56.968 308.7C57.0053 308.663 57.0753 308.644 57.178 308.644H62.344V309.414H57.752L57.584 313.32C57.8547 312.928 58.2047 312.648 58.634 312.48C59.0727 312.303 59.53 312.214 60.006 312.214C60.4073 312.214 60.7807 312.284 61.126 312.424C61.4807 312.564 61.7887 312.779 62.05 313.068C62.3113 313.348 62.5167 313.707 62.666 314.146C62.8153 314.585 62.89 315.098 62.89 315.686C62.89 316.209 62.8153 316.685 62.666 317.114C62.5167 317.543 62.302 317.912 62.022 318.22C61.742 318.528 61.406 318.766 61.014 318.934C60.622 319.111 60.1833 319.2 59.698 319.2C59.2593 319.2 58.8533 319.139 58.48 319.018C58.116 318.906 57.794 318.738 57.514 318.514C57.234 318.299 57.01 318.029 56.842 317.702C56.674 317.375 56.576 317.002 56.548 316.582H57.458Z" fill="black" fill-opacity="0.7"/>
<line x1="661.5" y1="67" x2="661.5" y2="337" stroke="#00001A" stroke-opacity="0.15" stroke-dasharray="2"/>
<line x1="542.898" y1="67" x2="542.898" y2="337" stroke="#00001A" stroke-opacity="0.15" stroke-dasharray="2"/>
<line x1="424.301" y1="67" x2="424.301" y2="337" stroke="#00001A" stroke-opacity="0.15" stroke-dasharray="2"/>
<line x1="305.699" y1="67" x2="305.699" y2="337" stroke="#00001A" stroke-opacity="0.15" stroke-dasharray="2"/>
<line x1="187.102" y1="67" x2="187.102" y2="337" stroke="#00001A" stroke-opacity="0.15" stroke-dasharray="2"/>
<line x1="68.5" y1="67" x2="68.5" y2="337" stroke="#00001A" stroke-opacity="0.3"/>
<rect opacity="0.6" x="143" y="84" width="22" height="74.25" transform="rotate(90 143 84)" fill="#A4C6E0"/>
<rect x="143" y="84" width="22" height="3" transform="rotate(90 143 84)" fill="#A4C6E0"/>
<rect opacity="0.6" x="291" y="129" width="22" height="221.75" transform="rotate(90 291 129)" fill="#A4C6E0"/>
<rect x="291" y="129" width="22" height="3" transform="rotate(90 291 129)" fill="#A4C6E0"/>
<rect opacity="0.6" x="379.801" y="174" width="22" height="310.85" transform="rotate(90 379.801 174)" fill="#A4C6E0"/>
<rect x="379.801" y="174" width="22" height="3" transform="rotate(90 379.801 174)" fill="#A4C6E0"/>
<rect opacity="0.6" x="439" y="219" width="22" height="370.25" transform="rotate(90 439 219)" fill="#A4C6E0"/>
<rect x="439" y="219" width="22" height="3" transform="rotate(90 439 219)" fill="#A4C6E0"/>
<rect opacity="0.6" x="572.199" y="264" width="22" height="502.9" transform="rotate(90 572.199 264)" fill="#A4C6E0"/>
<rect x="572.199" y="264" width="22" height="3" transform="rotate(90 572.199 264)" fill="#A4C6E0"/>
<rect opacity="0.6" x="631.398" y="309" width="22" height="562.3" transform="rotate(90 631.398 309)" fill="#A4C6E0"/>
<rect x="631.398" y="309" width="22" height="3" transform="rotate(90 631.398 309)" fill="#A4C6E0"/>
<rect x="305.5" y="375" width="7" height="7" fill="#A4C6E0" stroke="white"/>
<path d="M334.488 383.208H321.4V382.344H327.432V380.296C326.141 380.243 325.171 379.981 324.52 379.512C323.88 379.043 323.56 378.451 323.56 377.736C323.56 377.352 323.651 377.005 323.832 376.696C324.024 376.376 324.301 376.099 324.664 375.864C325.037 375.629 325.496 375.448 326.04 375.32C326.584 375.192 327.219 375.128 327.944 375.128C328.659 375.128 329.288 375.192 329.832 375.32C330.387 375.448 330.845 375.629 331.208 375.864C331.581 376.099 331.859 376.376 332.04 376.696C332.232 377.005 332.328 377.352 332.328 377.736C332.328 378.472 331.997 379.069 331.336 379.528C330.685 379.987 329.715 380.243 328.424 380.296V382.344H334.488V383.208ZM330.664 372.248H325.176V371.336H330.664V372.248ZM333.24 374.28H322.616V373.416H333.24V374.28ZM330.408 379.016C330.931 378.685 331.192 378.248 331.192 377.704C331.192 377.16 330.931 376.728 330.408 376.408C329.896 376.088 329.075 375.928 327.944 375.928C326.813 375.928 325.987 376.088 325.464 376.408C324.952 376.728 324.696 377.16 324.696 377.704C324.696 378.248 324.952 378.685 325.464 379.016C325.987 379.347 326.813 379.512 327.944 379.512C329.096 379.512 329.917 379.347 330.408 379.016ZM342.697 377.368C342.366 377.421 341.966 377.475 341.497 377.528C341.028 377.581 340.489 377.624 339.881 377.656C339.476 377.677 339.086 377.693 338.713 377.704C338.35 377.715 338.025 377.72 337.737 377.72C337.449 377.731 337.214 377.736 337.033 377.736C336.862 377.725 336.766 377.72 336.745 377.72C336.628 377.72 336.548 377.699 336.505 377.656C336.462 377.603 336.441 377.523 336.441 377.416V371.816C336.441 371.72 336.462 371.645 336.505 371.592C336.548 371.539 336.628 371.512 336.745 371.512H341.641V372.328H337.401V374.104H341.257V374.904H337.401V376.872L339.769 376.84C340.014 376.84 340.276 376.829 340.553 376.808C340.83 376.787 341.102 376.76 341.369 376.728C341.625 376.707 341.87 376.68 342.105 376.648C342.34 376.616 342.537 376.584 342.697 376.552V377.368ZM347.417 378.312H346.393V370.904H347.417V378.312ZM344.697 378.328H343.689V374.584H341.689V373.736H343.689V371.16H344.697V378.328ZM347.721 384.936H338.409C338.292 384.936 338.212 384.915 338.169 384.872C338.126 384.829 338.105 384.749 338.105 384.632V381.896C338.105 381.789 338.126 381.715 338.169 381.672C338.212 381.619 338.292 381.592 338.409 381.592H346.345V379.912H338.105V379.08H347.081C347.284 379.08 347.385 379.181 347.385 379.384V382.12C347.385 382.237 347.358 382.317 347.305 382.36C347.262 382.403 347.188 382.424 347.081 382.424H339.161V384.104H347.721V384.936ZM358.906 378.584C358.65 378.637 358.32 378.696 357.914 378.76C357.52 378.813 357.082 378.867 356.602 378.92C356.122 378.984 355.648 379.037 355.178 379.08C354.709 379.112 354.288 379.133 353.914 379.144C353.509 379.165 353.12 379.181 352.746 379.192C352.384 379.192 352.058 379.192 351.77 379.192H350.746C350.629 379.192 350.549 379.171 350.506 379.128C350.464 379.075 350.442 378.995 350.442 378.888V375.208C350.442 375.112 350.464 375.037 350.506 374.984C350.549 374.931 350.629 374.904 350.746 374.904H355.594V372.312H350.442V371.48H356.266C356.469 371.48 356.57 371.581 356.57 371.784V375.432C356.57 375.635 356.469 375.736 356.266 375.736H351.418V378.296L353.722 378.264C354.053 378.264 354.453 378.248 354.922 378.216C355.402 378.184 355.888 378.141 356.378 378.088C356.869 378.035 357.338 377.976 357.786 377.912C358.234 377.848 358.608 377.784 358.906 377.72V378.584ZM361.066 381.48H360.042V375.24H357.306V374.36H360.042V370.904H361.066V381.48ZM361.434 384.808H352.314C352.197 384.808 352.117 384.787 352.074 384.744C352.032 384.701 352.01 384.621 352.01 384.504V380.6H353.034V383.944H361.434V384.808ZM374.859 378.52H365.371C365.254 378.52 365.174 378.499 365.131 378.456C365.089 378.403 365.067 378.323 365.067 378.216V372.072C365.067 371.976 365.089 371.901 365.131 371.848C365.174 371.795 365.254 371.768 365.371 371.768H374.699V372.616H366.059V377.672H374.859V378.52ZM376.347 383.016H363.259V382.152H376.347V383.016ZM387.341 381.016C387.127 381.059 386.845 381.107 386.493 381.16C386.151 381.213 385.757 381.267 385.309 381.32C384.882 381.373 384.429 381.421 383.949 381.464C383.479 381.507 383.021 381.533 382.573 381.544C382.125 381.565 381.687 381.581 381.261 381.592C380.834 381.592 380.45 381.592 380.109 381.592H378.877C378.759 381.592 378.679 381.571 378.637 381.528C378.594 381.475 378.573 381.395 378.573 381.288V376.44C378.573 376.344 378.594 376.269 378.637 376.216C378.679 376.163 378.759 376.136 378.877 376.136H383.901V372.52H378.573V371.656H384.573C384.775 371.656 384.877 371.757 384.877 371.96V376.68C384.877 376.883 384.775 376.984 384.573 376.984H379.581V380.68L382.253 380.648C382.733 380.648 383.223 380.627 383.725 380.584C384.237 380.541 384.733 380.493 385.213 380.44C385.671 380.376 386.087 380.317 386.461 380.264C386.845 380.211 387.138 380.163 387.341 380.12V381.016ZM388.989 385.112H387.965V370.904H388.989V385.112Z" fill="black" fill-opacity="0.7"/>
</g>
<defs>
<filter id="filter0_d_303_268" x="0" y="0" width="717" height="418" filterUnits="userSpaceOnUse" color-interpolation-filters="sRGB">
<feFlood flood-opacity="0" result="BackgroundImageFix"/>
<feColorMatrix in="SourceAlpha" type="matrix" values="0 0 0 0 0 0 0 0 0 0 0 0 0 0 0 0 0 0 127 0" result="hardAlpha"/>
<feMorphology radius="6" operator="erode" in="SourceAlpha" result="effect1_dropShadow_303_268"/>
<feOffset dx="2" dy="4"/>
<feGaussianBlur stdDeviation="7.5"/>
<feComposite in2="hardAlpha" operator="out"/>
<feColorMatrix type="matrix" values="0 0 0 0 0 0 0 0 0 0 0 0 0 0 0 0 0 0 0.25 0"/>
<feBlend mode="normal" in2="BackgroundImageFix" result="effect1_dropShadow_303_268"/>
<feBlend mode="normal" in="SourceGraphic" in2="effect1_dropShadow_303_268" result="shape"/>
</filter>
</defs>
</svg>
