<svg width="14" height="14" viewBox="0 0 14 14" fill="none" xmlns="http://www.w3.org/2000/svg">
<path d="M3.98073 4.66602H10.0182C10.1835 4.66602 10.3221 4.72435 10.4341 4.84102C10.5461 4.95768 10.6019 5.09379 10.6016 5.24935C10.6016 5.29796 10.5944 5.3491 10.58 5.40277C10.5656 5.45643 10.5436 5.50738 10.5141 5.5556L7.49531 10.3098C7.43698 10.3973 7.36406 10.463 7.27656 10.5069C7.18906 10.5509 7.0967 10.5727 6.99948 10.5723C6.90226 10.5719 6.80989 10.5501 6.72239 10.5069C6.63489 10.4638 6.56198 10.398 6.50364 10.3098L3.48489 5.5556C3.45573 5.50699 3.43375 5.45604 3.41898 5.40277C3.4042 5.34949 3.39701 5.29835 3.39739 5.24935C3.39739 5.09379 3.45339 4.95768 3.56539 4.84102C3.67739 4.72435 3.81584 4.66602 3.98073 4.66602Z" fill="#1C262B"/>
</svg>
