<svg width="90" height="89" viewBox="0 0 90 89" fill="none" xmlns="http://www.w3.org/2000/svg">
<g clip-path="url(#clip0_356_89)">
<path d="M70.0312 44.5C70.0312 40.3281 66.6937 36.7125 62.5219 36.1562C59.4625 29.4812 52.7875 25.0312 45 25.0312C44.4438 25.0312 43.6094 25.0313 43.0531 25.3094C41.3844 23.3625 39.1594 22.25 36.6562 22.25C31.9281 22.25 28.3125 25.8656 28.3125 30.5938C28.3125 31.7063 28.5906 32.5406 28.8687 33.6531C26.6437 36.7125 25.5312 40.3281 25.5312 44.5C25.5312 50.7578 26.6437 52.2875 28.8687 55.3469C28.5906 56.4594 28.3125 57.2938 28.3125 58.4062C28.3125 63.1344 31.9281 66.75 36.6562 66.75C39.1594 66.75 41.3844 65.6375 43.0531 63.6906C43.6094 63.6906 44.4438 63.9688 45 63.9688C52.7875 63.9688 59.4625 59.2406 62.5219 52.8438C66.6937 52.2875 70.0312 48.6719 70.0312 44.5ZM36.6562 27.8125C38.325 27.8125 39.4375 28.925 39.4375 30.5938C39.4375 32.2625 38.325 33.375 36.6562 33.375C34.9875 33.375 33.875 32.2625 33.875 30.5938C33.875 28.925 34.9875 27.8125 36.6562 27.8125ZM36.6562 61.1875C34.9875 61.1875 33.875 60.075 33.875 58.4062C33.875 56.7375 34.9875 55.625 36.6562 55.625C38.325 55.625 39.4375 56.7375 39.4375 58.4062C39.4375 60.075 38.325 61.1875 36.6562 61.1875ZM45 58.4062C45 53.6781 41.3844 50.0625 36.6562 50.0625C35.2656 50.0625 33.875 50.3406 32.7625 51.175C31.65 49.2281 31.0938 47.0031 31.0938 44.5C31.0938 40.7453 31.65 39.7719 32.7625 37.825C33.875 38.6594 35.2656 38.9375 36.6562 38.9375C41.3844 38.9375 45 35.3219 45 30.5938C50.2844 30.5938 54.4562 33.375 56.9594 37.5469C54.7344 39.2156 53.3438 41.7188 53.3438 44.5C53.3438 47.2812 54.7344 49.7844 56.9594 51.4531C54.4562 55.625 50.2844 58.4062 45 58.4062ZM61.6875 47.2812C60.0187 47.2812 58.9062 46.1688 58.9062 44.5C58.9062 42.8312 60.0187 41.7188 61.6875 41.7188C63.3563 41.7188 64.4688 42.8312 64.4688 44.5C64.4688 46.1688 63.3563 47.2812 61.6875 47.2812Z" fill="#1C262B"/>
<path d="M45 86.2191C44.4437 86.2191 44.1656 86.2191 43.6094 85.941L10.2344 66.4723C9.4 65.916 8.84375 65.0816 8.84375 63.9691V25.0316C8.84375 23.9191 9.4 23.0848 10.2344 22.5285L43.6094 3.05977C44.4437 2.50352 45.5563 2.50352 46.3906 3.05977L79.7656 22.5285L76.9844 27.2566L45 8.90039L14.4062 26.7004V62.5785L45 80.3785L75.5938 62.5785V41.7191H81.1562V63.9691C81.1562 65.0816 80.6 65.916 79.7656 66.4723L46.3906 85.941C45.8344 86.2191 45.5563 86.2191 45 86.2191Z" fill="#1C262B"/>
</g>
<defs>
<clipPath id="clip0_356_89">
<rect width="89" height="89" fill="white" transform="translate(0.5)"/>
</clipPath>
</defs>
</svg>
