<svg width="90" height="89" viewBox="0 0 90 89" fill="none" xmlns="http://www.w3.org/2000/svg">
<g clip-path="url(#clip0_356_100)">
<path fill-rule="evenodd" clip-rule="evenodd" d="M59.07 4.4492C58.7532 4.45198 58.4407 4.52238 58.1533 4.65568L30.9077 17.3124L3.66217 4.65657C2.18744 3.97038 0.5 5.04728 0.5 6.6742V69.2323C0.500071 69.6564 0.621329 70.0716 0.84949 70.429C1.07765 70.7865 1.40321 71.0713 1.78783 71.2499L29.9706 84.3418C30.2644 84.4784 30.5846 84.5492 30.9086 84.5492C31.2327 84.5492 31.5528 84.4784 31.8467 84.3418L59.0923 71.686L86.3378 84.3418C87.8126 85.0271 89.5 83.9502 89.5 82.3242V19.7661C89.4999 19.342 89.3787 18.9268 89.1505 18.5694C88.9223 18.2119 88.5968 17.9271 88.2122 17.7485L86.0308 16.7356C85.2932 18.0796 84.3408 19.2938 83.2113 20.3304L85.05 21.1848V39.5383C87.7787 43.7658 88.3492 49.4298 85.0936 53.6822L85.05 53.7472V78.8372L60.4166 67.3944L60.2902 45.3216C59.5203 44.6469 58.5939 44.0836 57.6113 43.562L57.7466 67.4025L32.2249 79.2599L31.8965 21.7606L57.4182 9.9049L57.4449 14.6014C58.3286 13.9304 59.2115 13.2655 60.1042 12.6844L60.0864 9.58984L62.0488 10.503C62.1316 8.97485 62.5339 7.49389 63.1774 6.11884L60.0294 4.65657C59.729 4.51688 59.4013 4.44604 59.07 4.4492ZM4.95 10.1612L29.2248 21.4375L29.5549 79.243L4.95 67.8101V10.1612Z" fill="#1C262B"/>
<path d="M74.68 2.22461C73.4887 2.22438 72.309 2.45884 71.2084 2.91461C70.1078 3.37038 69.1077 4.03853 68.2653 4.88089C67.423 5.72324 66.7548 6.7233 66.2991 7.82394C65.8433 8.92457 65.6088 10.1042 65.6091 11.2955C65.6114 12.059 65.7101 12.8191 65.9028 13.5579L51.4865 22.3199C49.7989 20.696 47.5488 19.7872 45.2067 19.7834C44.0154 19.7833 42.8357 20.0179 41.735 20.4738C40.6344 20.9298 39.6343 21.5981 38.7921 22.4406C37.9498 23.2832 37.2817 24.2834 36.8261 25.3842C36.3705 26.485 36.1363 27.6647 36.1367 28.8561C36.1366 30.0471 36.3711 31.2265 36.8268 32.3269C37.2825 33.4274 37.9505 34.4272 38.7927 35.2695C39.6348 36.1117 40.6346 36.7798 41.735 37.2356C42.8354 37.6915 44.0148 37.9261 45.2058 37.9261C47.3954 37.9218 49.5097 37.1262 51.159 35.6859L65.7951 44.5842C65.671 45.1859 65.6084 45.7987 65.6082 46.4131C65.6079 47.6044 65.8424 48.784 66.2982 49.8847C66.754 50.9853 67.4221 51.9854 68.2645 52.8277C69.1068 53.6701 70.1069 54.3382 71.2075 54.794C72.3081 55.2498 73.4878 55.4842 74.6791 55.484C75.8704 55.4843 77.0501 55.25 78.1509 54.7942C79.2516 54.3385 80.2518 53.6704 81.0942 52.828C81.9367 51.9857 82.6049 50.9856 83.0607 49.8849C83.5166 48.7842 83.7511 47.6045 83.7508 46.4131C83.7512 45.2218 83.5168 44.042 83.0611 42.9413C82.6054 41.8405 81.9372 40.8404 81.0949 39.9979C80.2525 39.1555 79.2524 38.4873 78.1517 38.0314C77.051 37.5756 75.8713 37.3411 74.68 37.3413C73.462 37.3434 72.2569 37.5906 71.1364 38.0681C70.016 38.5456 69.0031 39.2437 68.158 40.1208L53.8958 31.454C54.1487 30.6109 54.2776 29.7354 54.2785 28.8552C54.2754 28.1239 54.184 27.3956 54.0061 26.6863L68.4686 17.8939C70.1492 19.4782 72.3704 20.3624 74.68 20.3664C75.8712 20.3666 77.0509 20.1321 78.1515 19.6764C79.2521 19.2206 80.2522 18.5524 81.0946 17.7101C81.9369 16.8677 82.6051 15.8677 83.0608 14.767C83.5166 13.6664 83.7511 12.4868 83.7508 11.2955C83.7511 10.1042 83.5166 8.92457 83.0608 7.82394C82.6051 6.7233 81.9369 5.72324 81.0946 4.88089C80.2522 4.03853 79.2521 3.37038 78.1515 2.91461C77.0509 2.45884 75.8712 2.22438 74.68 2.22461Z" fill="#1C262B"/>
</g>
<defs>
<clipPath id="clip0_356_100">
<rect width="89" height="89" fill="white" transform="translate(0.5)"/>
</clipPath>
</defs>
</svg>
